<?xml version="1.0" encoding="UTF-8"?>
<!DOCTYPE svg PUBLIC "-//W3C//DTD SVG 1.1//EN" "http://www.w3.org/Graphics/SVG/1.1/DTD/svg11.dtd">
<!-- Creator: CorelDRAW 2020 (64-Bit) -->
<svg xmlns="http://www.w3.org/2000/svg" xml:space="preserve" width="297mm" height="210mm" version="1.1" style="shape-rendering:geometricPrecision; text-rendering:geometricPrecision; image-rendering:optimizeQuality; fill-rule:evenodd; clip-rule:evenodd"
viewBox="0 0 29700 21000"
 xmlns:xlink="http://www.w3.org/1999/xlink"
 xmlns:xodm="http://www.corel.com/coreldraw/odm/2003">
 <defs>
  <style type="text/css">
   <![CDATA[
    .fil0 {fill:#FEFEFE}
   ]]>
  </style>
   <clipPath id="id0">
    <rect x="4809.03" y="8675.12" width="6256.07" height="5740.41"/>
   </clipPath>
 </defs>
 <g id="Слой_x0020_1">
  <metadata id="CorelCorpID_0Corel-Layer"/>
  <g style="clip-path:url(#id0)">
   <image x="4809.03" y="8675.13" width="6256.06" height="5740.4" xlink:href="2гис_Images\2гис_ImgID1.png"/>
  </g>
  <path class="fil0" d="M18097.6 9794.62l0 3493.47c0,18.29 5.5,23.82 23.71,23.82l750.72 0c28.99,0 74.06,-91.97 99.56,-130.23l463.11 -709.77c32.01,-47.92 57.65,-90.93 90.06,-139.77l832.91 -1275.11 0 2254.88 790.24 0 0 -3541.11 -798.14 0c-9.11,34.29 -645.31,1008.42 -722.28,1124.25l-731.75 1122.69 0 -2246.94 -774.43 0c-18.21,0 -23.71,5.52 -23.71,23.82z"/>
  <path class="fil0" d="M11791.53 11104.67c0,38.63 -5.35,55.58 23.7,55.58l774.43 0c49.53,0 -2.27,-112.02 67.61,-289.36 36.69,-93.1 71.19,-156.6 135.84,-220.8 155.22,-154.13 307.74,-212.36 547.28,-212.36 88.9,0 171.22,20.45 240.19,44.51 33.5,11.68 67.79,28.72 96.4,46.06 320.44,194.2 393,681.2 -79.15,970.01 -46.92,28.7 -85.14,53.92 -133.6,80.13 -48.83,26.41 -92.41,46.37 -142.28,71.42 -96.74,48.6 -192.45,93.52 -289.89,137.49 -399.64,180.36 -675.25,280.56 -1079.5,416 -53.13,17.79 -109.57,40.53 -161.03,52.58l0 1055.98 3026.6 0c18.2,0 23.7,-5.53 23.7,-23.82l0 -674.88c0,-39.8 -140.25,-23.81 -213.36,-23.81l-1714.81 0 597.24 -265.37c122.4,-50.75 466.69,-223.43 575.57,-295.08 44.79,-29.47 84.68,-54.7 127.76,-86.01 431.77,-313.84 623.12,-716.79 508.52,-1282.34l-58 -187.86c-9.18,-23.27 -19.13,-39.04 -28.16,-59.05 -34.79,-77.14 -73,-134.54 -123.16,-201.77 -15.58,-20.88 -21.82,-25.11 -36.21,-43.02 -192.55,-239.66 -518.53,-376.33 -816.21,-426.47 -407.74,-68.67 -880.04,-11.21 -1221.96,194.63 -189.54,114.11 -338.54,254.66 -454.65,448.33 -44.83,74.76 -85.26,167.87 -114.91,249.77 -44.47,122.85 -77.96,330.36 -77.96,469.51z"/>
  <path class="fil0" d="M21479.81 11541.35c0,367.36 86.1,645.8 226.41,923.77 13.26,26.27 25.7,46.3 40.73,70.24 38.42,61.16 99.43,154.11 145.76,202.9 141.11,148.63 158.66,187.01 369.35,327.6 642.98,429.04 1677.65,400.34 2279.37,-76.05 216.87,-171.69 400.46,-420.11 489.54,-691.16 25.62,-77.95 75.91,-227.25 76.01,-320.34l0 -0.27 -798.13 0c-30.55,0 -39.62,64.39 -71.09,127.06 -312.8,622.89 -1154.3,715.26 -1637.84,232.25 -177.98,-177.79 -321.98,-483.2 -321.98,-740.42 0,-240.21 12.37,-313.95 101.59,-533.1 154.29,-378.94 560.07,-626.1 973.13,-626.1 310.82,0 486.69,95.23 672.88,244.95 40.22,32.34 111.17,117.6 139.64,161.41l72.5 125.65c28.25,64.27 42.2,134.93 71.17,134.93l798.13 0 0 -0.17c-0.09,-222.69 -194.44,-635.63 -357.58,-807.69 -67.44,-71.13 -107.69,-126.84 -199.99,-196.06 -76.11,-57.07 -147.53,-110.98 -232.56,-155.38 -626.55,-327.18 -1499.61,-311.21 -2065.93,76.16 -502.41,343.66 -771.11,887.45 -771.11,1519.82z"/>
  <polygon class="fil0" points="15284.37,13311.91 16074.6,13311.91 16074.6,10493.31 17655.07,10493.31 17655.07,9770.8 15284.37,9770.8 "/>
 </g>
</svg>
