<?xml version="1.0" encoding="UTF-8"?>
<!DOCTYPE svg PUBLIC "-//W3C//DTD SVG 1.1//EN" "http://www.w3.org/Graphics/SVG/1.1/DTD/svg11.dtd">
<!-- Creator: CorelDRAW 2020 (64-Bit) -->
<svg xmlns="http://www.w3.org/2000/svg" xml:space="preserve" width="297mm" height="210mm" version="1.1" style="shape-rendering:geometricPrecision; text-rendering:geometricPrecision; image-rendering:optimizeQuality; fill-rule:evenodd; clip-rule:evenodd"
viewBox="0 0 29700 21000"
 xmlns:xlink="http://www.w3.org/1999/xlink"
 xmlns:xodm="http://www.corel.com/coreldraw/odm/2003">
 <defs>
  <style type="text/css">
   <![CDATA[
    .fil1 {fill:#3C3C3B;fill-rule:nonzero}
    .fil0 {fill:white;fill-rule:nonzero}
    .fil2 {fill:url(#id0);fill-rule:nonzero}
    .fil3 {fill:url(#id1);fill-rule:nonzero}
   ]]>
  </style>
  <linearGradient id="id0" gradientUnits="userSpaceOnUse" x1="7970.76" y1="7838.89" x2="7970.76" y2="10861.82">
   <stop offset="0" style="stop-opacity:1; stop-color:#3A61A9"/>
   <stop offset="0.0392157" style="stop-opacity:1; stop-color:#3A61A9"/>
   <stop offset="0.0588235" style="stop-opacity:1; stop-color:#3879BA"/>
   <stop offset="0.101961" style="stop-opacity:1; stop-color:#3690CB"/>
   <stop offset="0.141176" style="stop-opacity:1; stop-color:#34A1D8"/>
   <stop offset="0.180392" style="stop-opacity:1; stop-color:#33ACDF"/>
   <stop offset="0.231373" style="stop-opacity:1; stop-color:#33AFE1"/>
   <stop offset="0.380392" style="stop-opacity:1; stop-color:#3598D1"/>
   <stop offset="0.611765" style="stop-opacity:1; stop-color:#387ABB"/>
   <stop offset="0.819608" style="stop-opacity:1; stop-color:#3967AE"/>
   <stop offset="0.960784" style="stop-opacity:1; stop-color:#3A61A9"/>
   <stop offset="1" style="stop-opacity:1; stop-color:#3A61A9"/>
  </linearGradient>
  <linearGradient id="id1" gradientUnits="userSpaceOnUse" x1="7970.76" y1="14170.72" x2="7970.76" y2="11147.78">
   <stop offset="0" style="stop-opacity:1; stop-color:#E94B4C"/>
   <stop offset="0.0901961" style="stop-opacity:1; stop-color:#E94B4C"/>
   <stop offset="0.141176" style="stop-opacity:1; stop-color:#DA4143"/>
   <stop offset="0.211765" style="stop-opacity:1; stop-color:#CA3839"/>
   <stop offset="0.290196" style="stop-opacity:1; stop-color:#C13234"/>
   <stop offset="0.4" style="stop-opacity:1; stop-color:#BE3132"/>
   <stop offset="0.631373" style="stop-opacity:1; stop-color:#D5373B"/>
   <stop offset="0.839216" style="stop-opacity:1; stop-color:#E73C42"/>
   <stop offset="0.878431" style="stop-opacity:1; stop-color:#E33B41"/>
   <stop offset="0.921569" style="stop-opacity:1; stop-color:#D5383D"/>
   <stop offset="0.960784" style="stop-opacity:1; stop-color:#BF3436"/>
   <stop offset="1" style="stop-opacity:1; stop-color:#A72F2F"/>
  </linearGradient>
 </defs>
 <g id="Слой_x0020_1">
  <metadata id="CorelCorpID_0Corel-Layer"/>
  <path class="fil0" d="M5933.14 10900.63l223.86 0c180.15,0 341.1,-111.52 404.01,-280.64l0.41 -1.64 511.85 -1374.62 0 -755.73c0,-262.26 -212.83,-475.09 -475.09,-475.09l-1838.27 0 0 15.11c204.25,53.11 355.4,238.57 355.4,459.57l0 5101.82c0,221 -150.74,406.46 -355.4,459.57l0 15.11 1838.27 0c262.26,0 475.1,-212.83 475.1,-475.09l0 -753.69 -513.9 -1377.07c-61.69,-168.71 -222.23,-281.05 -402.38,-281.05l-223.86 0c-37.99,0 -72.72,-15.52 -97.64,-40.44 -24.91,-24.92 -40.44,-59.64 -40.44,-97.64 0,-76.39 62.1,-138.48 138.08,-138.48z"/>
  <path class="fil1" d="M6598.59 14083.29l-1838.27 0c-10.21,0 -18.79,-8.17 -18.79,-18.79l0 -15.11c0,-8.58 5.72,-15.93 13.89,-17.98 200.98,-52.29 341.1,-233.66 341.1,-441.59l0 -5101.82c0,-207.93 -140.53,-389.3 -341.1,-441.59 -8.17,-2.05 -13.89,-9.4 -13.89,-17.98l0 -15.11c0,-10.21 8.17,-18.79 18.79,-18.79l1838.27 0c272.07,0 493.88,221.41 493.88,493.47l0 755.74c0,2.04 -0.4,4.49 -1.22,6.53l-511.86 1374.62c-65.77,176.88 -234.89,294.12 -421.98,294.12l-223.86 0c-65.77,0 -119.7,53.52 -119.7,119.7 0,31.86 12.26,62.09 35.14,84.56 22.46,22.87 52.28,35.13 84.56,35.13l223.86 0c187.09,0 355.4,118.06 419.53,293.3l514.31 1377.89c0.81,2.04 1.22,4.09 1.22,6.54l0 753.69c0,272.06 -221.81,493.47 -493.88,493.47zm-1838.27 -33.9l0 0 0 0zm68.63 -3.27l1769.64 0c251.64,0 456.71,-204.66 456.71,-456.3l0 -750.42 -513.08 -1374.62c-58.83,-160.95 -213.65,-268.8 -384.81,-268.8l-223.86 0c-42.08,0 -81.3,-16.34 -110.71,-46.16 -29.41,-29.41 -45.75,-68.63 -45.75,-110.71 0,-86.6 70.26,-156.86 156.86,-156.86l223.87 0c171.57,0 326.8,-107.85 386.44,-268.39l511.45 -1373.39 0 -752.47c0,-251.64 -204.66,-456.3 -456.71,-456.3l-1770.05 0c182.6,75.17 305.15,254.5 305.15,456.3l0 5101.82c0,202.21 -122.55,381.13 -305.15,456.3z"/>
  <path class="fil2" d="M7884.16 8012.91c-212.02,0 -401.15,131.54 -475.5,330.48l-335.38 900.35 -511.45 1374.61 -0.41 1.64c-62.91,168.71 -223.86,280.64 -404.01,280.64l916.27 0 1182.22 0c190.77,0 362.75,-118.87 429.34,-298.21l861.53 -2308.46c44.94,-123.78 141.34,-215.28 258.99,-256.54l0 -24.51 -1921.6 0z"/>
  <path class="fil1" d="M8255.9 10919.42l-2098.49 0c-10.22,0 -18.79,-8.17 -18.79,-18.79 0,-10.21 8.16,-18.79 18.79,-18.79 171.57,0 326.8,-107.85 386.44,-268.39l847.65 -2277c76.39,-204.67 274.11,-342.33 492.66,-342.33l1921.2 0c10.21,0 18.79,8.17 18.79,18.79l0 24.51c0,7.76 -4.9,15.11 -12.26,17.57 -115.6,40.44 -205.48,129.9 -247.55,245.51l-861.54 2308.46c-69.44,185.46 -248.78,310.46 -446.9,310.46zm-1920.39 -37.17l1920.39 0c182.6,0 348.45,-114.79 411.77,-285.96l861.54 -2308.46c42.07,-115.6 128.68,-207.52 240.61,-256.13l-1885.25 0c-203.03,0 -386.86,127.86 -457.94,318.23l-847.24 2274.96c-44.12,117.65 -133.58,209.15 -243.88,257.36z"/>
  <path class="fil3" d="M9544.73 13784.27l-847.65 -2277.01c-73.94,-198.53 -266.34,-330.48 -475.5,-330.48l-1147.9 0 -916.27 0c179.74,0 340.69,112.34 402.37,281.05l514.31 1377.89 347.23 930.57c66.59,179.34 237.75,298.21 429.34,298.21l1955.1 0 0 -24.92c-118.46,-41.26 -215.28,-133.17 -261.03,-255.31z"/>
  <path class="fil1" d="M9805.36 14083.29l-1955.11 0c-198.12,0 -377.87,-124.59 -446.9,-310.05l-861.54 -2308.46c-58.83,-160.95 -213.65,-268.8 -384.81,-268.8 -10.21,0 -18.79,-8.17 -18.79,-18.79 0,-10.62 8.17,-18.79 18.79,-18.79l2064.17 0c218.55,0 416.68,137.66 493.07,342.33l847.65 2277c0,0 0,0 0,0 42.89,114.79 133.58,203.85 249.18,244.7 7.36,2.45 12.26,9.8 12.26,17.56l0 24.92c0.82,10.21 -7.76,18.38 -17.97,18.38zm-3470.25 -2887.72c109.88,47.8 198.94,139.3 241.83,256.13l861.54 2308.47c63.72,171.16 229.17,285.95 411.77,285.95l1919.97 0c-112.33,-48.61 -199.75,-140.12 -242.65,-255.32l-847.64 -2277c-70.68,-190.37 -254.91,-318.23 -457.94,-318.23l-1886.88 0z"/>
  <polygon class="fil0" points="11747.8,9028.86 11747.8,9920.63 11542.73,9920.63 11542.73,9197.17 11139.94,9197.17 11139.94,9921.04 10934.87,9921.04 10934.87,9028.86 "/>
  <path class="fil0" d="M12777.64 9352.4c0,198.94 -149.11,322.31 -387.26,322.31l-179.75 0 0 245.92 -206.29 0 0 -891.77 386.04 0c238.15,0 387.26,123.78 387.26,323.54zm-209.16 0c0,-98.04 -63.72,-155.64 -189.95,-155.64l-168.31 0 0 309.64 168.31 0c126.23,0.41 189.95,-57.19 189.95,-154z"/>
  <polygon class="fil0" points="13647.34,9755.18 13647.34,9920.63 12956.97,9920.63 12956.97,9028.86 13631,9028.86 13631,9194.31 13162.04,9194.31 13162.04,9387.94 13576.26,9387.94 13576.26,9548.48 13162.04,9548.48 13162.04,9754.78 13647.34,9754.77 "/>
  <path class="fil0" d="M14549.73 9671.03c0,168.31 -183.42,265.12 -397.47,265.12 -118.47,0 -244.7,-29.41 -355.4,-93.14l63.73 -147.88c81.7,49.84 180.96,72.72 267.57,72.72 117.24,0 212.83,-43.3 212.83,-126.23 0,-67.4 -61.28,-100.49 -154.01,-100.49l-217.73 0 0 -155.64 202.62 0c84.15,0 132.35,-36.77 132.35,-95.59 0,-72.72 -78.84,-110.71 -179.74,-110.71 -75.17,0 -163,20.43 -239.39,63.73l-62.5 -160.54c96.82,-49.84 203.85,-72.72 305.97,-72.72 206.3,0 384.82,94.37 384.82,256.13 0,86.61 -49.84,155.64 -128.68,189.96 102.53,35.54 165.03,114.79 165.03,215.28z"/>
  <polygon class="fil0" points="14752.76,9028.86 14957.83,9028.86 14957.83,9609.76 15383.49,9028.86 15577.12,9028.86 15577.12,9920.63 15373.28,9920.63 15373.28,9340.96 14948.02,9920.63 14753.17,9920.63 14753.17,9028.86 "/>
  <path class="fil0" d="M16759.74 9752.73l0 352.95 -191.18 0 0 -184.64 -629.5 0 0 184.64 -191.18 0 1.22 -352.95 35.54 0c116.02,-3.67 145.43,-194.85 154.01,-444.45l10.21 -279.01 685.47 0 0 723.46 125.41 0zm-727.54 0l398.7 0 0 -555.56 -305.97 0 -3.68 129.9c-7.76,189.95 -28.19,352.95 -89.05,425.66z"/>
  <polygon class="fil0" points="17631.49,9755.18 17631.49,9920.63 16941.12,9920.63 16941.12,9028.86 17615.15,9028.86 17615.15,9194.31 17146.19,9194.31 17146.19,9387.94 17560.41,9387.94 17560.41,9548.48 17146.19,9548.48 17146.19,9754.78 17631.49,9754.77 "/>
  <polygon class="fil0" points="18661.74,9028.86 18661.74,9920.63 18455.45,9920.63 18455.45,9555.02 18050.21,9555.02 18050.21,9920.63 17843.92,9920.63 17843.92,9028.86 18050.21,9028.86 18050.21,9380.58 18455.45,9380.58 18455.45,9028.86 "/>
  <polygon class="fil0" points="19606.61,9197.17 19321.07,9197.17 19321.07,9921.04 19117.23,9921.04 19117.23,9197.17 18832.91,9197.17 18832.91,9028.86 19606.21,9028.86 19606.21,9197.17 "/>
  <path class="fil0" d="M19706.29 9474.95c0,-268.8 206.29,-461.2 484.08,-461.2 154,0 282.68,55.96 366.84,158.09l-132.36 122.14c-60.05,-68.63 -135.22,-104.58 -224.27,-104.58 -167.08,0 -285.54,117.24 -285.54,285.55 0,168.3 118.46,285.54 285.54,285.54 89.05,0 164.22,-35.54 224.27,-105.8l132.36 122.14c-84.16,103.36 -212.84,159.32 -368.07,159.32 -276.56,0 -482.85,-192.4 -482.85,-461.2z"/>
  <polygon class="fil0" points="21076.82,9561.55 20934.26,9561.55 20934.26,9921.04 20729.19,9921.04 20729.19,9028.86 20934.26,9028.86 20934.26,9389.57 21082.13,9389.57 21316.62,9028.86 21534.35,9028.86 21242.68,9459.43 21543.34,9920.63 21308.85,9920.63 "/>
  <polygon class="fil0" points="21711.64,9028.86 21916.71,9028.86 21916.71,9609.76 22342.37,9028.86 22536,9028.86 22536,9920.63 22332.16,9920.63 22332.16,9340.96 21906.5,9920.63 21711.64,9920.63 "/>
  <path class="fil0" d="M22792.14 9028.86l205.07 0 0 580.9 425.66 -580.9 193.63 0 0 891.77 -203.84 0 0 -579.67 -425.67 579.67 -194.85 0 0 -891.77zm164.21 -252.05l141.35 0c1.22,61.28 35.54,93.14 105.8,93.14 67.4,0 104.58,-31.86 105.8,-93.14l141.35 0c-1.23,125.01 -80.48,194.86 -247.15,194.86 -169.12,0 -245.51,-70.26 -247.15,-194.86z"/>
  <path class="fil0" d="M11525.16 11392.88l0 96.82 -189.95 0 0 -98.05c-301.89,-17.97 -467.74,-156.86 -467.74,-389.71 0,-234.48 165.44,-372.15 467.74,-389.71l0 -91.92 189.95 0 0 90.28c300.66,17.98 466.51,158.09 466.51,391.35 -0.4,234.07 -164.62,375.42 -466.51,390.94zm-189.95 -161.77l0 -457.52c-180.97,16.75 -267.57,89.05 -267.57,227.94 0,137.67 95.59,211.61 267.57,229.58zm457.52 -230.8c0,-137.67 -90.28,-211.61 -267.57,-226.72l0 457.52c179.34,-16.75 267.57,-91.91 267.57,-230.8z"/>
  <path class="fil0" d="M12144.05 11003.98c0,-265.12 206.29,-461.2 488.16,-461.2 280.23,0 488.16,194.86 488.16,461.2 0,266.35 -207.52,461.21 -488.16,461.21 -281.46,0 -488.16,-196.09 -488.16,-461.21zm767.17 0c0,-169.53 -119.69,-285.54 -279.01,-285.54 -159.32,0 -279.01,116.01 -279.01,285.54 0,169.53 119.69,285.55 279.01,285.55 159.32,0 279.01,-116.02 279.01,-285.55z"/>
  <polygon class="fil0" points="14135.1,10558.3 14135.1,11450.07 13928.8,11450.07 13928.8,11084.46 13523.57,11084.46 13523.57,11450.07 13317.27,11450.07 13317.27,10558.3 13523.57,10558.3 13523.57,10910.03 13928.8,10910.03 13928.8,10558.3 "/>
  <path class="fil0" d="M15318.13 11281.77l0 352.94 -191.18 0 0 -184.64 -629.51 0 0 184.64 -191.18 0 1.23 -352.94 35.95 0c116.01,-3.68 145.42,-194.86 154,-444.46l10.22 -279.01 685.47 0 0 723.47 125 0zm-727.55 0l398.7 0 0 -555.57 -305.97 0 -3.67 129.9c-7.36,189.96 -27.78,353.36 -89.06,425.67z"/>
  <polygon class="fil0" points="16290.78,11090.59 16148.21,11090.59 16148.21,11450.07 15943.14,11450.07 15943.14,10558.3 16148.21,10558.3 16148.21,10919.01 16296.09,10919.01 16530.57,10558.3 16748.31,10558.3 16456.63,10988.87 16757.29,11450.07 16522.81,11450.07 "/>
  <path class="fil0" d="M17776.92 10558.3l-379.5 705.9c-73.94,137.67 -179.74,206.3 -299.43,206.3 -46.98,0 -95.59,-10.22 -145.43,-30.64l49.84 -156.87c33.08,10.21 62.5,16.75 89.05,16.75 51.06,0 90.28,-22.88 125,-76.39l7.76 -10.21 -351.72 -654.84 220.59 0 236.94 479.18 244.69 -479.18 202.21 0z"/>
  <path class="fil0" d="M18680.13 10558.3l0 891.77 -203.85 0 0 -723.87 -305.97 0 -6.54 185.87c-11.43,350.5 -61.27,551.48 -270.02,551.48 -30.64,0 -63.72,-4.9 -102.12,-13.89l12.66 -174.43c12.66,3.68 24.1,4.9 36.76,4.9 104.58,0 131.13,-132.35 140.12,-360.71l12.67 -361.93 686.29 0 0 0.81z"/>
  <path class="fil0" d="M19706.7 11139.2c0,205.07 -137.67,310.87 -366.84,310.87l-402.78 0 0 -891.77 205.06 0 0 292.9 226.72 0c215.29,0 337.84,95.59 337.84,288zm-207.93 3.67c0,-98.04 -63.73,-138.89 -170.76,-138.89l-185.87 0 0 292.9 185.87 0c105.81,0.41 170.76,-53.11 170.76,-154.01z"/>
  <polygon class="fil0" points="20497.97,10726.2 20212.43,10726.2 20212.43,11450.07 20008.58,11450.07 20008.58,10726.2 19724.26,10726.2 19724.26,10557.9 20497.56,10557.9 20497.56,10726.2 "/>
  <path class="fil0" d="M21524.55 10558.3l-379.51 705.9c-73.94,137.67 -179.74,206.3 -299.43,206.3 -46.98,0 -95.59,-10.22 -145.43,-30.64l49.84 -156.87c33.09,10.21 62.5,16.75 89.05,16.75 51.07,0 90.28,-22.88 125.01,-76.39l7.76 -10.21 -351.73 -654.84 220.6 0 236.93 479.18 244.7 -479.18 202.21 0z"/>
  <path class="fil0" d="M22462.47 10881.84c0,198.94 -149.1,322.31 -387.26,322.31l-179.74 0 0 245.92 -206.3 0 0 -891.77 386.04 0c238.16,0 387.26,123.37 387.26,323.54zm-208.74 0c0,-98.04 -63.73,-155.64 -189.96,-155.64l-168.3 0 0 309.65 168.3 0c126.23,0 189.96,-57.19 189.96,-154.01z"/>
  <polygon class="fil0" points="23460.04,10558.3 23460.04,11450.07 23253.75,11450.07 23253.75,11084.46 22848.51,11084.46 22848.51,11450.07 22642.21,11450.07 22642.21,10558.3 22848.51,10558.3 22848.51,10910.03 23253.75,10910.03 23253.75,10558.3 "/>
  <path class="fil0" d="M24486.21 11139.2c0,205.07 -137.67,310.87 -366.84,310.87l-402.79 0 0 -891.77 205.07 0 0 292.9 226.72 0c215.69,0 337.84,95.59 337.84,288zm-207.52 3.67c0,-98.04 -63.73,-138.89 -170.76,-138.89l-185.87 0 0 292.9 185.87 0c105.8,0.41 170.76,-53.11 170.76,-154.01zm321.08 -584.57l205.07 0 0 891.77 -205.07 0 0 -891.77z"/>
  <polygon class="fil0" points="25231.73,10558.3 25416.37,10828.33 25601.02,10558.3 25843.26,10558.3 25546.28,10985.19 25867.36,11450.07 25623.89,11450.07 25416.37,11154.31 25211.3,11450.07 24973.14,11450.07 25291.78,10993.77 24993.57,10557.9 25231.73,10557.9 "/>
  <polygon class="fil0" points="10934.87,12087.34 11139.94,12087.34 11139.94,12668.23 11565.6,12087.34 11759.23,12087.34 11759.23,12979.1 11555.39,12979.1 11555.39,12399.44 11129.73,12979.1 10934.87,12979.1 "/>
  <polygon class="fil0" points="12833.6,12087.34 12833.6,12979.1 12627.31,12979.1 12627.31,12613.49 12222.07,12613.49 12222.07,12979.1 12015.78,12979.1 12015.78,12087.34 12222.07,12087.34 12222.07,12439.06 12627.31,12439.06 12627.31,12087.34 "/>
  <polygon class="fil0" points="13090.55,12087.34 13295.62,12087.34 13295.62,12668.23 13721.28,12087.34 13914.92,12087.34 13914.92,12979.1 13711.07,12979.1 13711.07,12399.44 13285.41,12979.1 13090.55,12979.1 "/>
  <polygon class="fil0" points="15106.12,12811.21 15106.12,13167.83 14916.16,13167.83 14916.16,12979.1 14170.64,12979.1 14170.64,12087.34 14375.71,12087.34 14375.71,12811.21 14773.18,12811.21 14773.18,12087.34 14978.25,12087.34 14978.25,12811.21 "/>
  <polygon class="fil0" points="15286.27,12087.34 15491.34,12087.34 15491.34,12668.23 15917,12087.34 16110.63,12087.34 16110.63,12979.1 15906.79,12979.1 15906.79,12399.44 15481.12,12979.1 15286.27,12979.1 "/>
  <path class="fil0" d="M16981.56 12788.33l-414.22 0 -78.84 191.18 -211.61 0 397.48 -891.76 203.84 0 398.7 891.76 -216.51 0 -78.84 -191.18zm-64.95 -156.86l-141.34 -341.51 -141.35 341.51 282.69 0z"/>
  <polygon class="fil0" points="18024.07,12255.64 17738.52,12255.64 17738.52,12979.51 17534.68,12979.51 17534.68,12255.64 17250.36,12255.64 17250.36,12087.34 18023.66,12087.34 18023.66,12255.64 "/>
  <polygon class="fil0" points="18194,12087.34 18399.07,12087.34 18399.07,12668.23 18824.74,12087.34 19018.37,12087.34 19018.37,12979.1 18814.52,12979.1 18814.52,12399.44 18388.86,12979.1 18194,12979.1 "/>
  <path class="fil0" d="M20060.87 12728.28c0,155.23 -120.92,250.82 -346.41,250.82l-439.55 0 0 -891.76 415.45 0c206.29,0 328.84,82.92 328.84,230.8 0,90.28 -46.97,158.09 -126.22,196.09 107.84,31.86 167.89,105.8 167.89,214.05zm-580.89 -271.24l192.4 0c89.06,0 136.44,-36.77 136.44,-108.26 0,-70.26 -46.97,-108.25 -136.44,-108.25l-192.4 0 0 216.51zm371.74 254.9c0,-75.16 -49.84,-110.7 -145.43,-110.7l-226.72 0 0 225.49 226.72 0c96,-0.41 145.43,-37.17 145.43,-114.79z"/>
 </g>
</svg>
