<?xml version="1.0" encoding="UTF-8"?>
<!DOCTYPE svg PUBLIC "-//W3C//DTD SVG 1.1//EN" "http://www.w3.org/Graphics/SVG/1.1/DTD/svg11.dtd">
<!-- Creator: CorelDRAW 2020 (64-Bit) -->
<svg xmlns="http://www.w3.org/2000/svg" xml:space="preserve" width="297mm" height="210mm" version="1.1" style="shape-rendering:geometricPrecision; text-rendering:geometricPrecision; image-rendering:optimizeQuality; fill-rule:evenodd; clip-rule:evenodd"
viewBox="0 0 29700 21000"
 xmlns:xlink="http://www.w3.org/1999/xlink"
 xmlns:xodm="http://www.corel.com/coreldraw/odm/2003">
 <defs>
  <style type="text/css">
   <![CDATA[
    .fil0 {fill:#FEFEFE;fill-rule:nonzero}
    .fil1 {fill:#E95530;fill-rule:nonzero}
    .fil2 {fill:#564B97;fill-rule:nonzero}
   ]]>
  </style>
 </defs>
 <g id="Слой_x0020_1">
  <metadata id="CorelCorpID_0Corel-Layer"/>
  <path class="fil0" d="M25221.99 10340.2l-462.73 1175.75 -462.92 -1175.75 -557.38 0 0 1675.74 405.34 0 0 -1060.83 449.18 1060.83 331.19 0 449.37 -1060.83 0 1060.83 405.34 0 0 -1675.74 -557.39 0zm-2614.2 -47.05c460.42,0 917.27,297.85 917.27,886.79 0,588.93 -456.85,886.75 -917.27,886.75 -460.24,0 -917.27,-297.82 -917.27,-886.75 0,-588.94 457.03,-886.79 917.27,-886.79zm0 1374.17c250.44,0 483.95,-179.39 483.95,-487.38 0,-307.98 -233.51,-487.39 -483.95,-487.39 -250.44,0 -483.94,179.41 -483.94,487.39 0,307.99 233.5,487.38 483.94,487.38zm-9581 -954.5l500.93 0 0 1306.45 426.53 0 0 -1306.45 500.94 0 0 -372.26 -1428.4 0 0 372.26zm6102.26 -419.66c480.6,0 819.27,348.64 819.27,839.4l0 148.89 -1293.14 0c27.14,257.25 209.95,419.72 460.41,419.72 226.86,0 321.51,-98.14 426.5,-230.15l338.32 169.23c-169.16,287.69 -402.67,426.42 -771.66,426.42 -467.05,0 -863.05,-355.36 -863.05,-886.75 0,-531.38 396,-886.76 883.35,-886.76zm423.2 663.41c-40.64,-209.89 -199.82,-338.49 -436.66,-338.49 -223.41,0 -392.65,148.94 -453.57,338.49l890.23 0zm-4098.69 -663.41c480.61,0 819.18,348.64 819.18,839.4l0 148.89 -1292.95 0c27.04,257.25 209.84,419.72 460.29,419.72 226.81,0 321.51,-98.14 426.43,-230.15l338.44 169.23c-169.21,287.69 -402.74,426.42 -771.59,426.42 -467.15,0 -863.17,-355.36 -863.17,-886.75 0,-531.38 396.02,-886.76 883.37,-886.76zm423.16 663.41c-40.62,-209.89 -199.74,-338.49 -436.64,-338.49 -223.41,0 -392.63,148.94 -453.57,338.49l890.21 0zm786.56 335.08c-20.3,257.19 -71.14,314.74 -159.1,314.74 -60.25,0 -88.45,-6.64 -129.66,-17.39l2.21 434.41c0,0 53.04,16.22 151.12,16.22 362.11,0 497.56,-233.51 531.45,-731.09l40.62 -585.55 480.51 0 0 1292.97 426.53 0 0 -1675.43 -1272.65 0 -71.03 951.12zm-4540.82 375.67c-257.25,0 -446.76,-186.2 -446.76,-487.4 0,-297.85 196.29,-487.39 446.76,-487.39 152.3,0 284.31,71.11 389.24,230.16l365.55 -209.85c-121.86,-260.64 -385.88,-419.71 -751.39,-419.71 -477.26,0 -883.43,352.02 -883.43,886.79 0,534.78 385.89,886.77 883.43,886.77 358.77,0 599.06,-162.42 768.33,-450.13l-352.02 -192.92c-101.57,142.13 -209.86,243.68 -419.71,243.68zm-2006.05 -1374.19c460.33,0 917.25,297.87 917.25,886.77 0,588.97 -456.92,886.79 -917.25,886.79 -460.29,0 -917.25,-297.82 -917.25,-886.79 0,-588.9 456.96,-886.77 917.25,-886.77zm0 1374.19c250.48,0 484.02,-179.41 484.02,-487.42 0,-308 -233.54,-487.35 -484.02,-487.35 -250.44,0 -483.98,179.35 -483.98,487.35 0,308.01 233.54,487.42 483.98,487.42zm-1895.23 -2017.26c534.78,0 886.77,274.15 886.77,771.66 0,497.58 -351.99,771.73 -886.77,771.73l-629.56 0 0 825.82 -446.8 0 0 -2369.21 1076.36 0zm-13.53 1144c311.36,0 453.55,-148.92 453.55,-372.34 0,-223.35 -142.19,-372.27 -453.55,-372.27l-616.03 0 0 744.61 616.03 0zm12761.5 324.95l791.96 900.3 -514.42 0 -612.65 -693.83 0 693.83 -426.55 0 0 -1678.78 426.55 0 0 609.27 602.48 -609.27 504.27 0 -771.64 778.48z"/>
  <path class="fil0" d="M25075.12 13639.13l172.54 0 375.03 -566.64 0 566.64 156.69 0 0 -785.04 -172.55 0 -375.04 566.61 0 -566.61 -156.67 0 0 785.04zm180.38 -1066.79c0,99.68 68.1,170.95 170.94,170.95 103.03,0 172.55,-71.27 172.55,-170.95l-110.87 0c0,39.58 -22.1,68.04 -61.68,68.04 -37.96,0 -60.07,-28.46 -60.07,-68.04l-110.87 0zm-674.14 948.06c-137.78,0 -231,-99.71 -242.06,-238.96l626.73 0 0 -57.01c0,-229.47 -151.87,-392.48 -379.85,-392.48 -224.77,0 -405.16,169.32 -405.16,414.64 0,246.95 180.39,414.69 397.14,414.69 174.15,0 281.81,-72.85 354.53,-196.28l-128.16 -68.04c-50.62,69.64 -101.24,123.44 -223.17,123.44zm-239.03 -367.21c26.92,-109.22 118.72,-193.08 239.03,-193.08 120.32,0 215.33,69.64 227.81,193.08l-466.84 0zm-822.97 -299.12l0 147.2 247.05 0 0 637.86 162.92 0 0 -637.86 245.45 0 0 -147.2 -655.42 0zm-363.81 807.2c164.53,0 275.22,-77.55 349.73,-204.17l-131.37 -74.38c-50.63,74.38 -109.27,126.64 -218.36,126.64 -139.39,0 -240.63,-101.31 -240.63,-262.79 0,-161.42 106.05,-262.72 240.63,-262.72 83.96,0 156.68,39.57 208.91,125.04l136 -79.16c-56.86,-123.44 -175.57,-197.8 -344.91,-197.8 -220.14,0 -408.36,167.77 -408.36,414.64 0,246.95 175.57,414.7 408.36,414.7zm-891.06 0c213.72,0 419.42,-143.99 419.42,-414.7 0,-270.63 -205.7,-414.64 -419.42,-414.64 -215.33,0 -420.85,144.01 -420.85,414.64 0,270.71 205.52,414.7 420.85,414.7zm253.29 -414.7c0,161.48 -117.29,264.33 -253.29,264.33 -137.61,0 -254.72,-102.85 -254.72,-264.33 0,-161.42 117.11,-264.32 254.72,-264.32 136,0 253.29,102.9 253.29,264.32zm-946.33 -392.5l0 305.5 -365.59 0 0 -305.5 -163.09 0 0 785.06 163.09 0 0 -337.14 365.59 0 0 337.14 162.92 0 0 -785.06 -162.92 0zm-827.78 0l-249.91 303.93 0 -303.93 -163.1 0 0 305.5 -250.08 -305.5 -210.51 0 322.98 368.76 -327.62 416.3 197.68 0 267.55 -346.66 0 346.66 163.1 0 0 -343.47 267.55 343.47 197.68 0 -327.62 -416.3 322.99 -368.76 -210.69 0zm-1338.83 807.2c213.72,0 419.42,-143.99 419.42,-414.7 0,-270.63 -205.7,-414.64 -419.42,-414.64 -215.33,0 -420.97,144.01 -420.97,414.64 0,270.71 205.64,414.7 420.97,414.7zm253.29 -414.7c0,161.48 -117.11,264.33 -253.29,264.33 -137.61,0 -254.72,-102.85 -254.72,-264.33 0,-161.42 117.11,-264.32 254.72,-264.32 136.18,0 253.29,102.9 253.29,264.32zm-1006.45 -392.5l-231.08 596.7 -231.08 -596.7 -221.56 0 0 785.06 156.67 0 0 -557.12 227.97 557.12 137.64 0 226.33 -555.55 0 555.55 158.32 0 0 -785.06 -223.21 0zm-788.18 557.13c0,-99.73 -68.02,-159.83 -164.58,-186.77 83.93,-31.69 133.01,-91.79 133.01,-181.99 0,-118.7 -88.68,-210.49 -286.57,-210.49 -188.37,0 -299.08,96.5 -299.08,219.96 0,34.83 7.89,60.17 14.15,76.02l139.29 -45.92c-1.52,-6.36 -4.66,-15.81 -4.66,-33.26 0,-47.48 55.37,-87.04 148.81,-87.04 88.55,0 134.52,37.95 134.52,96.56 0,60.12 -42.83,106.04 -139.28,106.04l-63.37 0 0 131.35 66.51 0c102.93,0 161.43,41.18 161.43,110.82 0,72.81 -60.12,125 -170.96,125 -82.29,0 -159.81,-39.55 -159.81,-117.12 0,-17.4 3.12,-30.04 7.88,-41.16l-137.77 -45.88c-7.88,17.43 -18.92,52.19 -18.92,88.64 0,140.9 112.36,245.32 308.62,245.32 215.29,0 330.78,-109.2 330.78,-250.08zm-1133.13 250.07c213.67,0 419.46,-143.99 419.46,-414.7 0,-270.63 -205.79,-414.64 -419.46,-414.64 -215.28,0 -421.07,144.01 -421.07,414.64 0,270.71 205.79,414.7 421.07,414.7zm253.26 -414.7c0,161.48 -117.11,264.33 -253.26,264.33 -137.66,0 -254.75,-102.85 -254.75,-264.33 0,-161.42 117.09,-264.32 254.75,-264.32 136.15,0 253.26,102.9 253.26,264.32zm-1373.73 392.56l365.59 0c164.58,0 280.19,-93.38 280.19,-226.36 0,-101.28 -65.01,-163.01 -147.18,-188.34 71.16,-31.67 118.75,-85.47 118.75,-175.66 0,-107.63 -93.44,-194.68 -261.26,-194.68l-356.09 0 0 785.04zm161.44 -471.66l0 -185.21 185.13 0c71.26,0 115.47,28.52 115.47,91.84 0,64.86 -44.21,93.37 -117.11,93.37l-183.49 0zm0 343.41l0 -216.81 194.65 0c83.9,0 126.61,41.16 126.61,107.61 0,66.51 -42.71,109.2 -126.61,109.2l-194.65 0zm-878.25 -656.81l-375.12 566.62 0 -566.62 -156.69 0 0 785.06 172.48 0 375.11 -566.62 0 566.62 156.69 0 0 -785.06 -172.47 0zm-851.44 0l-375.13 566.62 0 -566.62 -156.68 0 0 785.06 172.58 0 375 -566.62 0 566.62 156.81 0 0 -785.06 -172.58 0zm-1150.54 0l0 785.06 162.95 0 0 -637.86 348.3 0 0 -147.2 -511.25 0zm-528.53 807.2c213.67,0 419.42,-143.99 419.42,-414.7 0,-270.63 -205.75,-414.64 -419.42,-414.64 -215.27,0 -421.01,144.01 -421.01,414.64 0,270.71 205.74,414.7 421.01,414.7zm253.24 -414.7c0,161.48 -117.13,264.33 -253.24,264.33 -137.7,0 -254.83,-102.85 -254.83,-264.33 0,-161.42 117.13,-264.32 254.83,-264.32 136.11,0 253.24,102.9 253.24,264.32zm-1531.98 392.56c0,0 31.64,11.09 64.88,11.09 156.68,0 213.67,-98.14 224.75,-322.9l17.42 -326.05 278.57 0 0 637.86 163.02 0 0 -785.06 -584.04 0 -25.33 466.94c-9.51,151.9 -33.21,183.56 -83.89,183.56 -34.81,0 -55.38,-9.5 -55.38,-9.5l0 144.06zm-438.33 22.14c213.66,0 419.4,-143.99 419.4,-414.7 0,-270.63 -205.74,-414.64 -419.4,-414.64 -215.27,0 -421.03,144.01 -421.03,414.64 0,270.71 205.76,414.7 421.03,414.7zm253.22 -414.7c0,161.48 -117.13,264.33 -253.22,264.33 -137.72,0 -254.85,-102.85 -254.85,-264.33 0,-161.42 117.13,-264.32 254.85,-264.32 136.09,0 253.22,102.9 253.22,264.32zm-946.34 -392.5l0 305.5 -365.61 0 0 -305.5 -163.05 0 0 785.06 163.05 0 0 -337.14 365.61 0 0 337.14 163 0 0 -785.06 -163 0zm-805.49 0l-150.39 238.99 -150.34 -238.99 -185.2 0 246.93 368.76 -286.52 416.3 189.96 0 185.17 -289.69 183.63 289.69 188.34 0 -275.43 -421.01 240.6 -364.05 -186.75 0zm-887.86 666.33c-137.7,0 -231.08,-99.71 -242.17,-238.96l626.76 0 0 -57.01c0,-229.47 -151.94,-392.48 -379.85,-392.48 -224.75,0 -405.18,169.32 -405.18,414.64 0,246.95 180.43,414.69 397.3,414.69 174.06,0 281.72,-72.85 354.52,-196.28l-128.19 -68.04c-50.66,69.64 -101.32,123.44 -223.19,123.44zm-239 -367.21c26.92,-109.22 118.7,-193.08 239,-193.08 120.3,0 215.27,69.64 227.91,193.08l-466.91 0zm-22.06 -622.02l0 156.68 -341.89 0 0 951.28 -170.92 0 0 -951.28 -340.31 0 0 -156.68 853.12 0z"/>
  <path class="fil1" d="M5777.65 13643.74l-2367.84 0c-171.08,0 -271.67,-152.83 -271.67,-286.41 0,-79.08 32.05,-150.69 83.89,-202.5l1033.36 -1033.38 1522.26 1522.29z"/>
  <path class="fil2" d="M3409.81 13643.74c-178.8,0 -402.3,-143 -402.3,-427.22l0 -3183.31c0,-430.14 -21.88,-732.73 285.27,-1039.87l1152.61 -1152.77 2043.99 2047.26 -3267.35 3267c-51.84,51.81 -83.89,123.42 -83.89,202.5 0,133.58 100.59,286.41 271.67,286.41z"/>
 </g>
</svg>
