<?xml version="1.0" encoding="UTF-8"?>
<!DOCTYPE svg PUBLIC "-//W3C//DTD SVG 1.1//EN" "http://www.w3.org/Graphics/SVG/1.1/DTD/svg11.dtd">
<!-- Creator: CorelDRAW 2020 (64-Bit) -->
<svg xmlns="http://www.w3.org/2000/svg" xml:space="preserve" width="297mm" height="210mm" version="1.1" style="shape-rendering:geometricPrecision; text-rendering:geometricPrecision; image-rendering:optimizeQuality; fill-rule:evenodd; clip-rule:evenodd"
viewBox="0 0 29700 21000"
 xmlns:xlink="http://www.w3.org/1999/xlink"
 xmlns:xodm="http://www.corel.com/coreldraw/odm/2003">
 <defs>
  <style type="text/css">
   <![CDATA[
    .str0 {stroke:#2B2A29;stroke-width:20;stroke-miterlimit:22.9256}
    .fil0 {fill:none}
   ]]>
  </style>
   <clipPath id="id0">
    <path d="M8134.98 15238.71c-321.96,-54.55 -466.15,-158.03 -620.63,-261.5 -154.48,-103.47 -319.25,-206.95 -436.4,-293.01 -117.13,-86.06 -186.63,-154.71 -245.91,-229.45 -59.27,-74.74 -108.32,-155.59 -161.41,-260.03 -53.09,-104.44 -110.22,-232.48 -154.17,-382.6 -43.94,-150.12 -74.7,-322.31 -85.69,-481.27 -10.98,-158.95 -2.2,-304.64 6.59,-419.44 8.79,-114.8 17.58,-198.69 -50.54,-269.33 -68.11,-70.65 -213.12,-128.05 -344.96,-234.01 -131.83,-105.97 -250.49,-260.5 -481.2,-728.51 -230.71,-468.02 -573.47,-1249.52 -742.67,-1726.37 -169.18,-476.86 -164.79,-649.05 -92.29,-865.4 72.52,-216.35 213.14,-476.84 340.58,-684.36 127.44,-207.52 241.7,-362.05 369.14,-476.85 127.44,-114.8 268.07,-189.86 564.69,-331.15 296.63,-141.29 749.26,-348.81 1026.11,-454.77 276.85,-105.97 377.93,-110.38 461.43,-101.55 83.49,8.83 149.41,30.9 217.52,2.21 68.11,-28.7 138.43,-108.18 254.88,-183.24 116.45,-75.05 279.05,-145.7 698.72,-231.8 419.67,-86.09 1096.43,-187.64 1832.51,-273.74 736.08,-86.09 1531.48,-156.74 2403.78,-185.44 872.31,-28.7 1821.52,-15.46 2537.82,15.45 716.3,30.91 1199.69,79.48 1799.54,161.17 599.85,81.68 1316.15,196.47 2001.69,348.8 685.53,152.32 1340.31,342.18 1867.65,516.58 527.34,174.4 927.23,333.35 1212.88,472.43 285.64,139.08 457.02,258.29 593.25,357.63 136.23,99.35 237.3,178.83 312.01,234.02 74.7,55.19 123.04,86.1 237.3,247.26 114.26,161.15 294.43,452.56 406.49,699.81 112.07,247.25 156.01,450.36 167,624.76 10.98,174.4 -10.99,320.11 -103.28,578.4 -92.28,258.3 -254.87,629.17 -393.3,849.94 -138.43,220.76 -252.69,291.4 -399.9,353.22 -147.22,61.81 -327.39,114.8 -494.38,167.78 -167,52.98 -320.8,105.96 -424.07,132.45 -103.27,26.5 -156,26.5 -208.73,22.08 -52.73,-4.41 -105.47,-13.25 -151.62,-13.25 -46.14,0 -85.69,8.84 -105.46,44.16 -19.78,35.33 -19.78,97.14 -57.13,172.2 -37.35,75.06 -112.06,163.37 -191.16,240.63 -79.1,77.27 -162.6,143.48 -177.98,222.96 -15.38,79.48 37.35,172.19 127.44,426.08 90.09,253.88 217.53,668.92 290.03,962.53 72.51,293.61 90.09,465.81 50.54,626.97 -39.54,161.15 -136.23,311.27 -340.57,399.58 -204.34,88.3 -516.35,114.79 -1340.32,145.7 -823.96,30.91 -2159.88,66.22 -3484.82,92.72 -1324.94,26.49 -2638.88,44.15 -3418.91,19.87 -780.02,-24.29 -1026.11,-90.52 -1254.38,-119.55 -228.26,-29.05 -438.69,-20.9 -621.74,3.55 -183.05,24.43 -338.73,65.16 -646.6,89.79 -307.87,24.62 -767.92,33.14 -1247.81,34.59 -479.89,1.45 -979.61,-4.16 -1301.56,-58.7z"/>
   </clipPath>
    <clipPath id="id1">
     <path d="M8134.98 15238.71c-321.96,-54.55 -466.15,-158.03 -620.63,-261.5 -154.48,-103.47 -319.25,-206.95 -436.4,-293.01 -117.13,-86.06 -186.63,-154.71 -245.91,-229.45 -59.27,-74.74 -108.32,-155.59 -161.41,-260.03 -53.09,-104.44 -110.22,-232.48 -154.17,-382.6 -43.94,-150.12 -74.7,-322.31 -85.69,-481.27 -10.98,-158.95 -2.2,-304.64 6.59,-419.44 8.79,-114.8 17.58,-198.69 -50.54,-269.33 -68.11,-70.65 -213.12,-128.05 -344.96,-234.01 -131.83,-105.97 -250.49,-260.5 -481.2,-728.51 -230.71,-468.02 -573.47,-1249.52 -742.67,-1726.37 -169.18,-476.86 -164.79,-649.05 -92.29,-865.4 72.52,-216.35 213.14,-476.84 340.58,-684.36 127.44,-207.52 241.7,-362.05 369.14,-476.85 127.44,-114.8 268.07,-189.86 564.69,-331.15 296.63,-141.29 749.26,-348.81 1026.11,-454.77 276.85,-105.97 377.93,-110.38 461.43,-101.55 83.49,8.83 149.41,30.9 217.52,2.21 68.11,-28.7 138.43,-108.18 254.88,-183.24 116.45,-75.05 279.05,-145.7 698.72,-231.8 419.67,-86.09 1096.43,-187.64 1832.51,-273.74 736.08,-86.09 1531.48,-156.74 2403.78,-185.44 872.31,-28.7 1821.52,-15.46 2537.82,15.45 716.3,30.91 1199.69,79.48 1799.54,161.17 599.85,81.68 1316.15,196.47 2001.69,348.8 685.53,152.32 1340.31,342.18 1867.65,516.58 527.34,174.4 927.23,333.35 1212.88,472.43 285.64,139.08 457.02,258.29 593.25,357.63 136.23,99.35 237.3,178.83 312.01,234.02 74.7,55.19 123.04,86.1 237.3,247.26 114.26,161.15 294.43,452.56 406.49,699.81 112.07,247.25 156.01,450.36 167,624.76 10.98,174.4 -10.99,320.11 -103.28,578.4 -92.28,258.3 -254.87,629.17 -393.3,849.94 -138.43,220.76 -252.69,291.4 -399.9,353.22 -147.22,61.81 -327.39,114.8 -494.38,167.78 -167,52.98 -320.8,105.96 -424.07,132.45 -103.27,26.5 -156,26.5 -208.73,22.08 -52.73,-4.41 -105.47,-13.25 -151.62,-13.25 -46.14,0 -85.69,8.84 -105.46,44.16 -19.78,35.33 -19.78,97.14 -57.13,172.2 -37.35,75.06 -112.06,163.37 -191.16,240.63 -79.1,77.27 -162.6,143.48 -177.98,222.96 -15.38,79.48 37.35,172.19 127.44,426.08 90.09,253.88 217.53,668.92 290.03,962.53 72.51,293.61 90.09,465.81 50.54,626.97 -39.54,161.15 -136.23,311.27 -340.57,399.58 -204.34,88.3 -516.35,114.79 -1340.32,145.7 -823.96,30.91 -2159.88,66.22 -3484.82,92.72 -1324.94,26.49 -2638.88,44.15 -3418.91,19.87 -780.02,-24.29 -1026.11,-90.52 -1254.38,-119.55 -228.26,-29.05 -438.69,-20.9 -621.74,3.55 -183.05,24.43 -338.73,65.16 -646.6,89.79 -307.87,24.62 -767.92,33.14 -1247.81,34.59 -479.89,1.45 -979.61,-4.16 -1301.56,-58.7z"/>
    </clipPath>
    <clipPath id="id2">
     <path d="M8134.98 15238.71c-321.96,-54.55 -466.15,-158.03 -620.63,-261.5 -154.48,-103.47 -319.25,-206.95 -436.4,-293.01 -117.13,-86.06 -186.63,-154.71 -245.91,-229.45 -59.27,-74.74 -108.32,-155.59 -161.41,-260.03 -53.09,-104.44 -110.22,-232.48 -154.17,-382.6 -43.94,-150.12 -74.7,-322.31 -85.69,-481.27 -10.98,-158.95 -2.2,-304.64 6.59,-419.44 8.79,-114.8 17.58,-198.69 -50.54,-269.33 -68.11,-70.65 -213.12,-128.05 -344.96,-234.01 -131.83,-105.97 -250.49,-260.5 -481.2,-728.51 -230.71,-468.02 -573.47,-1249.52 -742.67,-1726.37 -169.18,-476.86 -164.79,-649.05 -92.29,-865.4 72.52,-216.35 213.14,-476.84 340.58,-684.36 127.44,-207.52 241.7,-362.05 369.14,-476.85 127.44,-114.8 268.07,-189.86 564.69,-331.15 296.63,-141.29 749.26,-348.81 1026.11,-454.77 276.85,-105.97 377.93,-110.38 461.43,-101.55 83.49,8.83 149.41,30.9 217.52,2.21 68.11,-28.7 138.43,-108.18 254.88,-183.24 116.45,-75.05 279.05,-145.7 698.72,-231.8 419.67,-86.09 1096.43,-187.64 1832.51,-273.74 736.08,-86.09 1531.48,-156.74 2403.78,-185.44 872.31,-28.7 1821.52,-15.46 2537.82,15.45 716.3,30.91 1199.69,79.48 1799.54,161.17 599.85,81.68 1316.15,196.47 2001.69,348.8 685.53,152.32 1340.31,342.18 1867.65,516.58 527.34,174.4 927.23,333.35 1212.88,472.43 285.64,139.08 457.02,258.29 593.25,357.63 136.23,99.35 237.3,178.83 312.01,234.02 74.7,55.19 123.04,86.1 237.3,247.26 114.26,161.15 294.43,452.56 406.49,699.81 112.07,247.25 156.01,450.36 167,624.76 10.98,174.4 -10.99,320.11 -103.28,578.4 -92.28,258.3 -254.87,629.17 -393.3,849.94 -138.43,220.76 -252.69,291.4 -399.9,353.22 -147.22,61.81 -327.39,114.8 -494.38,167.78 -167,52.98 -320.8,105.96 -424.07,132.45 -103.27,26.5 -156,26.5 -208.73,22.08 -52.73,-4.41 -105.47,-13.25 -151.62,-13.25 -46.14,0 -85.69,8.84 -105.46,44.16 -19.78,35.33 -19.78,97.14 -57.13,172.2 -37.35,75.06 -112.06,163.37 -191.16,240.63 -79.1,77.27 -162.6,143.48 -177.98,222.96 -15.38,79.48 37.35,172.19 127.44,426.08 90.09,253.88 217.53,668.92 290.03,962.53 72.51,293.61 90.09,465.81 50.54,626.97 -39.54,161.15 -136.23,311.27 -340.57,399.58 -204.34,88.3 -516.35,114.79 -1340.32,145.7 -823.96,30.91 -2159.88,66.22 -3484.82,92.72 -1324.94,26.49 -2638.88,44.15 -3418.91,19.87 -780.02,-24.29 -1026.11,-90.52 -1254.38,-119.55 -228.26,-29.05 -438.69,-20.9 -621.74,3.55 -183.05,24.43 -338.73,65.16 -646.6,89.79 -307.87,24.62 -767.92,33.14 -1247.81,34.59 -479.89,1.45 -979.61,-4.16 -1301.56,-58.7z"/>
    </clipPath>
 </defs>
 <g id="Слой_x0020_1">
  <metadata id="CorelCorpID_0Corel-Layer"/>
  <g>
  </g>
  <g style="clip-path:url(#id0)">
   <g>
   </g>
   <g style="clip-path:url(#id1)">
    <image x="3087.42" y="4614.47" width="22775.74" height="12948.67" xlink:href="суперсемейка_Images\суперсемейка_ImgID1.png"/>
   </g>
   <g style="clip-path:url(#id2)">
   </g>
  </g>
  <path class="fil0 str0" d="M8134.98 15238.71c-321.96,-54.55 -466.15,-158.03 -620.63,-261.5 -154.48,-103.47 -319.25,-206.95 -436.4,-293.01 -117.13,-86.06 -186.63,-154.71 -245.91,-229.45 -59.27,-74.74 -108.32,-155.59 -161.41,-260.03 -53.09,-104.44 -110.22,-232.48 -154.17,-382.6 -43.94,-150.12 -74.7,-322.31 -85.69,-481.27 -10.98,-158.95 -2.2,-304.64 6.59,-419.44 8.79,-114.8 17.58,-198.69 -50.54,-269.33 -68.11,-70.65 -213.12,-128.05 -344.96,-234.01 -131.83,-105.97 -250.49,-260.5 -481.2,-728.51 -230.71,-468.02 -573.47,-1249.52 -742.67,-1726.37 -169.18,-476.86 -164.79,-649.05 -92.29,-865.4 72.52,-216.35 213.14,-476.84 340.58,-684.36 127.44,-207.52 241.7,-362.05 369.14,-476.85 127.44,-114.8 268.07,-189.86 564.69,-331.15 296.63,-141.29 749.26,-348.81 1026.11,-454.77 276.85,-105.97 377.93,-110.38 461.43,-101.55 83.49,8.83 149.41,30.9 217.52,2.21 68.11,-28.7 138.43,-108.18 254.88,-183.24 116.45,-75.05 279.05,-145.7 698.72,-231.8 419.67,-86.09 1096.43,-187.64 1832.51,-273.74 736.08,-86.09 1531.48,-156.74 2403.78,-185.44 872.31,-28.7 1821.52,-15.46 2537.82,15.45 716.3,30.91 1199.69,79.48 1799.54,161.17 599.85,81.68 1316.15,196.47 2001.69,348.8 685.53,152.32 1340.31,342.18 1867.65,516.58 527.34,174.4 927.23,333.35 1212.88,472.43 285.64,139.08 457.02,258.29 593.25,357.63 136.23,99.35 237.3,178.83 312.01,234.02 74.7,55.19 123.04,86.1 237.3,247.26 114.26,161.15 294.43,452.56 406.49,699.81 112.07,247.25 156.01,450.36 167,624.76 10.98,174.4 -10.99,320.11 -103.28,578.4 -92.28,258.3 -254.87,629.17 -393.3,849.94 -138.43,220.76 -252.69,291.4 -399.9,353.22 -147.22,61.81 -327.39,114.8 -494.38,167.78 -167,52.98 -320.8,105.96 -424.07,132.45 -103.27,26.5 -156,26.5 -208.73,22.08 -52.73,-4.41 -105.47,-13.25 -151.62,-13.25 -46.14,0 -85.69,8.84 -105.46,44.16 -19.78,35.33 -19.78,97.14 -57.13,172.2 -37.35,75.06 -112.06,163.37 -191.16,240.63 -79.1,77.27 -162.6,143.48 -177.98,222.96 -15.38,79.48 37.35,172.19 127.44,426.08 90.09,253.88 217.53,668.92 290.03,962.53 72.51,293.61 90.09,465.81 50.54,626.97 -39.54,161.15 -136.23,311.27 -340.57,399.58 -204.34,88.3 -516.35,114.79 -1340.32,145.7 -823.96,30.91 -2159.88,66.22 -3484.82,92.72 -1324.94,26.49 -2638.88,44.15 -3418.91,19.87 -780.02,-24.29 -1026.11,-90.52 -1254.38,-119.55 -228.26,-29.05 -438.69,-20.9 -621.74,3.55 -183.05,24.43 -338.73,65.16 -646.6,89.79 -307.87,24.62 -767.92,33.14 -1247.81,34.59 -479.89,1.45 -979.61,-4.16 -1301.56,-58.7z"/>
 </g>
</svg>
