<?xml version="1.0" encoding="UTF-8"?>
<!DOCTYPE svg PUBLIC "-//W3C//DTD SVG 1.1//EN" "http://www.w3.org/Graphics/SVG/1.1/DTD/svg11.dtd">
<!-- Creator: CorelDRAW 2020 (64-Bit) -->
<svg xmlns="http://www.w3.org/2000/svg" xml:space="preserve" width="297mm" height="210mm" version="1.1" style="shape-rendering:geometricPrecision; text-rendering:geometricPrecision; image-rendering:optimizeQuality; fill-rule:evenodd; clip-rule:evenodd"
viewBox="0 0 29700 21000"
 xmlns:xlink="http://www.w3.org/1999/xlink"
 xmlns:xodm="http://www.corel.com/coreldraw/odm/2003">
 <defs>
  <style type="text/css">
   <![CDATA[
    .fil5 {fill:#810D10}
    .fil3 {fill:#820D0E}
    .fil4 {fill:#8A8889}
    .fil6 {fill:#EB1C24}
    .fil2 {fill:#ED1B24}
    .fil1 {fill:#FEFEFE}
    .fil0 {fill:white}
   ]]>
  </style>
 </defs>
 <g id="Слой_x0020_1">
  <metadata id="CorelCorpID_0Corel-Layer"/>
  <path class="fil0" d="M13826.24 12045.26l9.56 1068.46 132.02 0.75 1669.18 0.44 2.86 -3225.07 1032.78 -0.29 -1.04 294.66 -1.93 2901.34c10.09,47.6 -5.01,18.8 24.9,30.52l124.3 -0.44 1660.32 -0.58c31.97,-313.89 -27.97,-1770.94 -1.37,-2262.47 24.03,-444.51 4.51,-1205.97 4.51,-1706.09 0,-192.04 -14.94,-384.76 -7.25,-574.63l-2978.17 -0.65 1.47 0.5 -1483.19 3472.99 -188.95 0.56z"/>
  <path class="fil1" d="M10821.37 7495.74c59.98,107.09 144.49,269.96 216.33,371.31 129.56,182.84 1536.12,2610.62 1536.37,2611.93 -5.61,64.79 -252.03,541.27 -300.11,639.26 -41.21,84 -292.79,582.18 -299.45,627.87l275.02 0.35 1579.57 0.1c58.5,-6.09 48.57,-15.51 72.58,-75.85 14.49,-36.45 29.23,-69.23 44.36,-104.71 30.18,-70.76 55.36,-133.21 85.07,-200.9 59.65,-135.94 113.85,-268.71 172.21,-400.21 147.61,-332.56 996.11,-2363.41 1036.1,-2396.7 1.89,-61.77 184.73,-460.87 222.72,-547.3 75.29,-171.36 164.61,-365.99 228.23,-534.11l116.43 -286.54 -1869.58 0.71 -511.17 1374.08c-46.82,-42.56 -628.25,-1338.96 -636.7,-1374.08l-2129.64 -2.49c38.84,107.51 124.04,193.37 161.66,297.28z"/>
  <path class="fil2" d="M16669.67 13085.55l1.93 -2901.34 -877.95 -0.53 -4.93 3213.98c-157.07,31.43 -744.72,14.23 -903.76,14.23 -272.4,0 -646.91,21.39 -906.95,-4.42 -0.65,-93.7 11.58,-202.91 -10.19,-293l-132.02 -0.75 -9.56 -1068.46 -1700.99 -1.58c4.26,-72.78 102.38,-204.29 124.28,-297.22l-275.02 -0.35c6.66,-45.69 258.24,-543.87 299.45,-627.87 48.08,-97.99 294.5,-574.47 300.11,-639.26 -0.25,-1.31 -1406.81,-2429.09 -1536.37,-2611.93 -71.84,-101.35 -156.35,-264.22 -216.33,-371.31 -22.04,35.5 189.35,303.56 212.36,408.47l-942.84 372.68c5.13,47.48 592.11,1515.97 624.55,1596.55l792.21 2006.88c53.73,132.48 104.82,264.65 157.74,401.12l793.01 2005.54c49.01,121.62 115.76,274.18 155.38,405.76 89.44,-8.82 405.57,-155.89 517.59,-196.92 179.33,-65.68 339.9,-132.9 507.04,-200.99 329.22,-134.13 681.41,-268.69 1010.43,-403.63l1518.38 -605.64c163.37,-65.38 343.95,-146.14 502.45,-200.01z"/>
  <path class="fil2" d="M12789.35 7200.95c8.45,35.12 589.88,1331.52 636.7,1374.08l511.17 -1374.08 1869.58 -0.71 -116.43 286.54c62.36,21.8 173.08,6.78 253.66,14.26 -6.71,67.68 -410.08,1017.28 -447.12,1070.17l2978.17 0.65 -885.93 -25.33 -273.71 -684.01c-78,-207.8 -815.75,-2036.97 -834.84,-2128.22l-27.12 0c-51.62,43.27 -773.75,312.98 -905.87,367.07 -305.92,125.24 -616.1,247.25 -923.01,368.3 -609.01,240.19 -1227.33,481 -1835.25,731.28z"/>
  <path class="fil3" d="M13967.82 13114.47c21.77,90.09 9.54,199.3 10.19,293 260.04,25.81 634.55,4.42 906.95,4.42 159.04,0 746.69,17.2 903.76,-14.23l4.93 -3213.98 877.95 0.53 1.04 -294.66 -1032.78 0.29 -2.86 3225.07 -1669.18 -0.44z"/>
  <path class="fil4" d="M16818.87 13115.63l0.65 297.81 1803.58 -0.28 5.88 -1105.1 -139.89 49.04 -1.01 -1495.11 40.49 78.15c23.44,59.46 74.5,203.17 102.23,235.57l-1.96 -2310.4 -140.29 0.03c-0.3,-51.45 -0.44,-103.18 -0.12,-154.78 0.26,-42.6 9.37,-102.83 -13.35,-138.7 -7.69,189.87 7.25,382.59 7.25,574.63 0,500.12 19.52,1261.58 -4.51,1706.09 -26.6,491.53 33.34,1948.58 1.37,2262.47l-1660.32 0.58z"/>
  <path class="fil4" d="M13829.1 11746.56l-2.86 298.7 188.95 -0.56 1483.19 -3472.99 -258.96 -3.52c-39.99,33.29 -888.49,2064.14 -1036.1,2396.7 -58.36,131.5 -112.56,264.27 -172.21,400.21 -29.71,67.69 -54.89,130.14 -85.07,200.9 -15.13,35.48 -29.87,68.26 -44.36,104.71 -24.01,60.34 -14.08,69.76 -72.58,75.85z"/>
  <path class="fil5" d="M13826.24 12045.26l2.86 -298.7 -1579.57 -0.1c-21.9,92.93 -120.02,224.44 -124.28,297.22l1700.99 1.58z"/>
  <path class="fil5" d="M15239.42 8568.19l258.96 3.52 -1.47 -0.5c37.04,-52.89 440.41,-1002.49 447.12,-1070.17 -80.58,-7.48 -191.3,7.54 -253.66,-14.26 -63.62,168.12 -152.94,362.75 -228.23,534.11 -37.99,86.43 -220.83,485.53 -222.72,547.3z"/>
  <path class="fil6" d="M18688.55 12272.3c42.12,2.67 278.29,-96.29 313.38,-124.59 -15.75,-89.65 -129.48,-340.74 -169.3,-441.85 -30.86,-78.36 -165.47,-395.6 -167.37,-444.27 -65.64,-5.31 -26.03,-6.09 -38.02,38.36l3.37 985.47 57.94 -13.12z"/>
  <path class="fil5" d="M18628.98 12308.06c48.99,-5.81 35.4,-3.38 59.57,-35.76l-57.94 13.12 -3.37 -985.47c11.99,-44.45 -27.62,-43.67 38.02,-38.36l-34.46 -85.88c-27.73,-32.4 -78.79,-176.11 -102.23,-235.57l-40.49 -78.15 1.01 1495.11 139.89 -49.04z"/>
 </g>
</svg>
