<?xml version="1.0" encoding="UTF-8"?>
<!DOCTYPE svg PUBLIC "-//W3C//DTD SVG 1.1//EN" "http://www.w3.org/Graphics/SVG/1.1/DTD/svg11.dtd">
<!-- Creator: CorelDRAW 2020 (64-Bit) -->
<svg xmlns="http://www.w3.org/2000/svg" xml:space="preserve" width="297mm" height="210mm" version="1.1" style="shape-rendering:geometricPrecision; text-rendering:geometricPrecision; image-rendering:optimizeQuality; fill-rule:evenodd; clip-rule:evenodd"
viewBox="0 0 29700 21000"
 xmlns:xlink="http://www.w3.org/1999/xlink"
 xmlns:xodm="http://www.corel.com/coreldraw/odm/2003">
 <defs>
  <style type="text/css">
   <![CDATA[
    .fil1 {fill:#2A2A28}
    .fil0 {fill:url(#id0)}
    .fil2 {fill:url(#id1)}
   ]]>
  </style>
  <linearGradient id="id0" gradientUnits="userSpaceOnUse" x1="4722.71" y1="8298.21" x2="19883.91" y2="8298.21">
   <stop offset="0" style="stop-opacity:1; stop-color:#3AC245"/>
   <stop offset="0.858824" style="stop-opacity:1; stop-color:#35B53F"/>
   <stop offset="1" style="stop-opacity:1; stop-color:#169921"/>
  </linearGradient>
  <linearGradient id="id1" gradientUnits="userSpaceOnUse" x1="8210.37" y1="13891.3" x2="16313.79" y2="13891.3">
   <stop offset="0" style="stop-opacity:1; stop-color:#087E4A"/>
   <stop offset="1" style="stop-opacity:1; stop-color:#33B33F"/>
  </linearGradient>
 </defs>
 <g id="Слой_x0020_1">
  <metadata id="CorelCorpID_0Corel-Layer"/>
  <g id="центр_x0020_медиа.cdr">
   <g id="_2815229673664">
    <path class="fil0" d="M8619.01 5823.95c-37.13,0.91 -244.81,172.45 -280.61,200.41 -69.04,53.91 -141.61,102.22 -206.43,160.44 -85.91,77.2 -182,143.74 -269.29,219.84 -14.84,12.92 -17.48,12.79 -31.98,25.09l-493.52 435.85c-24.58,22.73 -39.97,31.26 -65.35,56.92l-554.44 546.15c-83.18,82.76 -153.69,178.3 -236.14,261.15 -26.28,26.42 -33.71,36.28 -57.59,64.69 -10.53,12.53 -17.33,17.22 -28.25,28.85 -15.63,16.71 -14.96,19.92 -28.86,36.35l-277.3 334.13c-252.62,311.25 -393.69,538 -607.26,868.33 -17.12,26.5 -29.34,48.09 -45.15,77.13l-89.69 154.88c-17.08,33.92 -30.78,54.6 -46.2,84.23 -303.12,582.33 -528.46,1193.33 -601.71,1852.21 -63.78,573.81 26.99,1190.96 232.61,1704.79 156.55,391.14 377.69,751.31 648.82,1071.38l236.01 253.12c41.75,41.75 83.15,88.2 126.42,126.3l263.91 225.24c46.49,37.03 89.94,70.97 136.39,108.17 102.14,81.8 649.18,454.24 759.29,479.88l-335.42 -414.6c-343.01,-456.61 -605.76,-989.39 -711.51,-1554.89 -85.82,-458.94 -66.11,-940.75 39.32,-1361.66 37.74,-150.67 81.43,-287.73 132.27,-430.26 194.58,-545.41 520.54,-1035 882.34,-1481.88l130.37 -154.96c14.82,-18.51 28.37,-27.98 43.18,-46.5l657.19 -663.51c18.42,-17.03 30.12,-32.44 48.88,-48.94 20.05,-17.67 28.79,-20.56 48.99,-40.69 196.86,-195.9 659.87,-547.79 886.97,-719.05 75.64,-57.03 147.38,-105.12 222.38,-160.79l333.86 -228.64c30.92,-20.52 75.35,-43.38 101.22,-68.72 14.82,-14.54 1.47,2.24 8.18,-11.19 48.45,-17.54 109.28,-67.18 154.66,-96.27l463.57 -286.45c214.88,-128.61 599.67,-358.71 792.95,-454.35l1165.97 -589.65c42.44,-16.2 70.46,-33.55 115.99,-52.34 41.35,-17.08 68.58,-32.83 111.78,-51.29 21.86,-9.34 35.68,-18.15 54.81,-26.7l641.14 -280.08c40.7,-18.16 75.24,-30.57 115.83,-47.2l352.79 -144.52c245.23,-98.53 480.1,-180.54 723.23,-271.38 318.73,-119.09 944.92,-322.55 1264.8,-406.4l529.85 -138.64 201.48 1143.68c8.77,53.32 26.78,116.71 26.78,168.88 27.5,-7.34 201.92,-167.67 226.37,-189.42 21.23,-18.92 31.04,-23.37 52.81,-45.01l114.1 -97.86c22.35,-19.75 31.23,-32.66 55.08,-50.88 22.11,-16.89 30.09,-28.65 51.34,-46.5l113.72 -98.26c22.18,-22.05 34.81,-27.61 57.11,-48.87 112.96,-107.59 345.06,-290.57 448.45,-391.24 91.56,-89.13 312.02,-263.82 391.18,-342.53l448.51 -391.18c23.15,-22.55 34.36,-29.08 56.89,-49.09l277.19 -244.58c119.95,-112.24 340.42,-283.91 448.39,-391.29l786.82 -688.76c25.73,-22.61 41.3,-19.24 50.87,-55.13l-3345.9 -1317.23c-41.3,-16.54 -1071.87,-431.45 -1121.52,-435.58 22.32,95.81 36.92,205.49 56.45,302.28l111.25 614.3c12.31,74.61 52.41,255.87 52.41,314.46l-314.7 68.46c-208.08,52.79 -402.06,96.86 -610.01,156.29 -103.78,29.65 -197.94,57.27 -298.15,85.03 -554.57,153.59 -1709.95,578.75 -2239.08,826.18 -211.53,98.91 -954.27,432.06 -1038.07,502.37 -40.45,10.22 -447.4,228.33 -498.86,259.64 -191.72,116.65 -427.32,241.05 -640.92,369.98l-317.9 195.71c-53.51,33.68 -102.69,62.87 -154.87,97.86l-309.77 203.83c-26.42,17.62 -46.91,31.36 -73.38,48.92 -29.01,19.25 -48.52,34.91 -76.51,53.91 -57.75,39.21 -413.44,274.45 -446.85,327.6l0.02 0.05z"/>
    <path class="fil1" d="M10665.21 14278.27l748.47 -1.54c24.71,-9.26 16.76,-13.95 22.96,-50.39l64.85 -326.49c34.25,-171.26 67.12,-335.68 100.51,-502.75 11,-54.92 98.53,-467.02 98.53,-512.93l16.3 0c10.93,46.83 711.9,1212.33 763.74,1298.83l108.57 193.1 89.68 0 163.49 -276.71c18.59,-31.03 34.71,-57.83 54.08,-92.67 129.25,-232.39 307.44,-503.73 437.1,-736.84 19.38,-34.84 35.51,-61.64 54.08,-92.65l179.81 -284.9c0,41.42 235.69,1192.19 258.73,1314.71 5.92,31.47 4.51,71.25 34.74,71.25l733.7 0c0,-53.86 -23.71,-149.64 -34.8,-209.79l-543.32 -2725.85c-7.47,-37.24 -11.71,-62.66 -19.18,-103.12l-43.24 -209.48c-8.13,-40.96 -7.61,-64.22 -12.2,-77.4l-78.46 0c-45.69,53.35 -128.88,215.72 -140.66,236.2l-342.47 595.07c-189.18,328.31 -373.69,678.19 -567.54,1005.88 -19.14,32.39 -142.61,241.11 -150.21,273.73 -22.18,-16.25 -65.34,-96.45 -84.09,-127.87l-1165.13 -1973.57c-2.28,-3.63 -3.98,-6.76 -5.35,-9.46l-80.99 0c-0.75,3.94 -1.53,8.61 -2.99,14.08l-30.32 157.17c-14.37,71.6 -27.81,139 -42.14,210.61l-418.48 2100.66c-48.27,241.35 -114.85,615.8 -167.78,843.12l0.01 0z"/>
    <path class="fil2" d="M11252.18 15728.04l-341.37 -113.78c-219.91,-72.84 -450.92,-167.19 -664.86,-256.35 -515.73,-214.94 -1027.04,-507.23 -1462.83,-852.43 -299.56,-237.3 -556.96,-522.27 -760.8,-845.23 -80.23,-127.1 -176.53,-326.92 -223.62,-469.34 -95.62,-289.27 -133.5,-475.54 -133.5,-795.91 0,-75.48 -2.28,-159.93 5.82,-222.44 6.8,-52.43 11.58,-177.92 26.8,-209.65 -57.78,15.43 -314.92,425.21 -353.3,502.72 -140.76,284.28 -243.13,527.66 -289.46,851.89 -36.55,255.76 -39.1,560.85 8.88,795.7 61.78,302.39 148.07,562.57 320.82,820.54 92.93,138.77 143.79,206.54 258.03,320.78 226.08,226.1 365.76,327.89 649.73,491.63 111.69,64.37 257.21,136.94 382.39,188.26 264.37,108.38 565.13,222.25 847.3,294.03 389.74,99.11 531.54,130.62 934.51,206.83 57.75,10.93 443.68,75.51 501.92,76.81l310.55 40.05c107.92,8.82 215.08,21.22 318.55,32.01l243.24 17.62c36.47,1.76 38.86,7.93 81.4,8.28l337.82 20.87c65,9.85 557.79,17.22 681.77,27.5 108.29,8.96 700.4,-0.11 880.2,0.64 60.95,0.23 101.98,-8.44 171.01,-8.36 127.03,0.16 230.42,-8.45 350.75,-7.96l587.18 -32.36c66.01,-5.42 146.16,1.89 247.58,-13.3 45.95,-6.88 122.76,-11.09 167.89,-11.47l331.86 -26.83c42.84,-5.66 107.85,-11.04 156.86,-14.35 120.93,-8.16 407.24,-48.63 489.41,-48.63l-440.48 -16.04c-40.24,-1.19 -40.75,-7.47 -80.99,-8.68l-269.61 -7.57c-42.13,-0.42 -44.85,-6.6 -81.16,-8.5l-171.23 -8.12c-126.03,1.03 -867.24,-76.56 -998.02,-94.4l-646.38 -87.31c-205.64,-30.14 -412.37,-70.4 -619.69,-105.87 -423.7,-72.44 -911.15,-200.7 -1324.6,-305.84l-284.63 -82.23c-40.52,-12.53 -104.9,-36.82 -145.73,-43.16l-0.01 -0.05z"/>
    <path class="fil1" d="M18768.53 13585.29l-350.55 0 0 -1834.34c136.23,0 363.09,-7.45 487.15,18.29l186.54 49.87c68.98,23.26 178.44,81.04 236,122.72 172.25,124.78 287.46,272.81 352.97,478.57 89.83,282.2 17.52,599.41 -176.31,816.44 -101.04,113.14 -199.91,193.8 -344.59,258.68 -99.83,44.78 -247.45,89.77 -391.21,89.77zm-1141.31 692.98l1157.61 0c370.59,0 854.85,-162.38 1131.07,-409.73 20.59,-18.43 37.75,-29.36 57.27,-48.69 35.99,-35.62 65.81,-66.19 101.76,-102.08 212.02,-211.7 361.96,-520.54 409.22,-821.78 27.84,-177.41 15.73,-379.06 -20.52,-557.48 -58.1,-285.9 -244.34,-583.85 -453.76,-785.42 -125.92,-121.2 -337.99,-263.53 -494.77,-328.62 -200.84,-83.39 -441.13,-158.34 -673.2,-158.34l-1214.68 0 0 3212.14z"/>
    <path class="fil1" d="M15026.65 14253.82c0,18.8 5.67,24.48 24.45,24.48l2029.9 0 0 -635.92c0,-18.78 -5.67,-24.45 -24.45,-24.45l-1263.59 0 0 -619.62 1108.7 0 0 -652.21 -1108.7 0 0 -627.74 1288.04 0 0 -652.22 -2054.35 0 0 3187.68z"/>
    <path class="fil1" d="M23814.73 12248.29l285.36 619.56c19.87,39.37 37.49,82.41 57.14,122.2 10.52,21.26 15.95,38.75 27.03,62.66l86.99 190.19 -929.35 0c100.08,-189.16 244.91,-541.35 350.58,-750.01 22.05,-43.57 96.02,-225.4 122.25,-244.59l0 -0.01zm-1679.35 2029.98l750 0c10.35,-19.59 15.42,-36.55 24.59,-56.94 9.18,-20.43 15.77,-32.23 25.47,-56.06l153.75 -351.7 1434.79 0 203.79 464.7 758.15 0 -1119.57 -2271.87c-18.78,-37.56 -32.74,-65.77 -51.65,-103.25 -19.05,-37.8 -29.85,-68.41 -48.83,-106.06l-308.35 -621.03c-34.36,-74.14 -65.63,-138.99 -102.02,-207.76l-97.83 0c-8.61,36.98 -378.96,774.33 -404.89,826.14 -35.13,70.12 -62.9,133.92 -97.83,203.81 -36.05,72.11 -67.22,134.43 -103.27,206.52 -35.79,71.6 -68.45,137.3 -103.27,206.51l-815.2 1655.02c-14.87,29.75 -95.22,180.75 -97.81,211.96l-0.02 0.01z"/>
    <polygon class="fil1" points="15271.22,10226.42 15841.87,10226.42 15841.87,8881.22 17375.84,10316.1 17447.86,10316.1 17447.86,7813.23 16877.19,7813.23 16877.19,9166.57 15357.08,7731.58 15271.22,7731.72 "/>
    <path class="fil1" d="M22893.53 8930.15l-236.41 0 0 -668.53c244.87,0 443.06,-46.69 562.73,195.44 98.04,198.36 -37.41,473.09 -326.32,473.09zm-807.08 1296.27l570.67 0 0 -970.17c70.06,0 39.2,-3.87 125.77,110.65l635.83 859.52 673.19 0c-114.51,-171 -441.59,-608.17 -557.85,-762.86l-138.37 -187.72c-17.84,-25.86 -31.79,-42.34 -45.64,-68.5 139.8,-73.97 205.24,-108.68 305.13,-241.07 362.5,-480.36 -2.99,-1153.02 -574.14,-1153.02l-994.57 0 0 2413.17 -0.02 0z"/>
    <path class="fil1" d="M20186.99 7837.7l0 2388.72 1540.77 0 0 -489.15 -961.95 0 0 -464.7 831.52 0 0 -497.32 -831.52 0 0 -464.7 945.64 0c18.77,0 24.45,-5.67 24.45,-24.45l0 -448.4c0,-18.78 -5.68,-24.45 -24.45,-24.45l-1500.01 0c-18.79,0 -24.48,5.67 -24.48,24.45l0.03 0z"/>
    <path class="fil1" d="M13355.45 10226.42l1540.77 0 0 -489.15 -970.12 0 0 -464.7 815.22 0c18.78,0 24.45,-5.67 24.45,-24.48l0 -448.39c0,-18.79 -5.67,-24.48 -24.45,-24.48l-815.22 0 0 -464.7 970.12 0 0 -497.3 -1540.77 0 0 2413.17 0 0.03z"/>
    <path class="fil1" d="M10877.17 9019.81c0,192.63 54.23,396.12 114.23,529.84 64.24,143.17 157.45,275.93 262.81,381.23 240.96,240.8 556.27,385.21 919.17,385.21 326.59,0 561.96,-113.2 758.15,-244.58l0 -611.45c-32.62,21.85 -89.05,127.08 -252.62,212.07 -190.62,99.06 -270.67,105.89 -481.08,105.89 -282.95,0 -573.82,-201.51 -690.42,-434.6 -106.88,-213.69 -98.99,-439.26 5.58,-649.76 86.82,-174.8 237.55,-294.21 413.34,-369.27 235.41,-100.52 513.38,-72 728.02,35.08 62.2,31.02 171.2,103.89 214.04,152.81 25.74,29.37 29.12,44.56 63.12,67.31l0 -611.44c-25.99,-6.95 -93.67,-58.9 -143.9,-84.36 -377.07,-191.26 -803.36,-212.87 -1184.91,-21.64 -104.61,52.44 -291.1,174.72 -364.45,263.29 -15.21,18.33 -15.14,22.3 -32.87,40.49 -201.27,206.69 -328.22,568.19 -328.22,853.9l0.01 -0.02z"/>
    <polygon class="fil1" points="20945.15,14278.27 21703.31,14278.27 21703.31,11066.13 20945.15,11066.13 "/>
    <path class="fil1" d="M17749.48 8310.55l798.93 0 0 1915.87 578.8 0 0 -1891.4c0,-31.17 2.51,-2.97 -8.17,-24.49l725.69 0.16c37.7,0.51 81.39,10.9 81.39,-24.6l0 -472.86 -2176.65 0 0 497.3 0.01 0.02z"/>
    <path class="fil1" d="M24108.21 9468.23l880.44 0c18.79,0 24.45,-5.67 24.45,-24.45l0 -415.77c0,-18.79 -5.66,-24.48 -24.45,-24.48l-880.44 0 0 464.7z"/>
   </g>
  </g>
 </g>
</svg>
