<?xml version="1.0" encoding="UTF-8"?>
<!DOCTYPE svg PUBLIC "-//W3C//DTD SVG 1.1//EN" "http://www.w3.org/Graphics/SVG/1.1/DTD/svg11.dtd">
<!-- Creator: CorelDRAW 2020 (64-Bit) -->
<svg xmlns="http://www.w3.org/2000/svg" xml:space="preserve" width="297mm" height="210mm" version="1.1" style="shape-rendering:geometricPrecision; text-rendering:geometricPrecision; image-rendering:optimizeQuality; fill-rule:evenodd; clip-rule:evenodd"
viewBox="0 0 29700 21000"
 xmlns:xlink="http://www.w3.org/1999/xlink"
 xmlns:xodm="http://www.corel.com/coreldraw/odm/2003">
 <defs>
  <style type="text/css">
   <![CDATA[
    .fil1 {fill:#7A7B7C}
    .fil3 {fill:#7C7C7C}
    .fil2 {fill:#7D7D7D}
    .fil0 {fill:url(#id0)}
   ]]>
  </style>
  <linearGradient id="id0" gradientUnits="userSpaceOnUse" x1="14798.55" y1="8592.25" x2="14826.34" y2="11595.98">
   <stop offset="0" style="stop-opacity:1; stop-color:#E3B6A1"/>
   <stop offset="1" style="stop-opacity:1; stop-color:#C69075"/>
  </linearGradient>
 </defs>
 <g id="Слой_x0020_1">
  <metadata id="CorelCorpID_0Corel-Layer"/>
  <path class="fil0" d="M7135.5 11580.61l-0.02 -544.72 -3348.05 3.57c-364.95,-50.21 -299.09,-299.09 -311.26,-633.55l-0.19 -68.29 56.75 10.89 3334.63 0 1.48 -557.69 -3340.79 5.68 -53.8 1.05c4.45,-106.07 0.28,-212.36 2.12,-318.49 2.47,-141.86 35.71,-144.16 76.48,-236.71 65.87,-56.79 120.1,-93.45 247.55,-104.22l3334.6 4.22 2.31 -544.72 -3609.26 0c-295.1,0 -415.68,9.9 -595.32,182.85 -91.8,88.38 -121.7,152.52 -165.83,271.08 -62.16,256.07 -29.99,813.05 -29.99,1134.8 0,281.6 -36.35,779.7 56.97,1013.04 26.93,67.34 61.72,115.08 107.42,164.93l31.43 33.43c2.71,2.61 10.83,9.78 13.6,12.33 72.84,66.85 119.9,100.16 223.8,139.35 150.75,56.86 865.48,31.17 1058.27,31.17 969.03,0 1938.07,0 2907.1,0zm3952.48 -1972.64l1305.61 -1010.34c-261.85,0 -523.71,0.07 -785.56,0 -279.6,-0.08 -196.11,13.96 -528.06,263.08 -78.88,59.21 -140.19,111.55 -218.49,170.59 -80.56,60.75 -151.31,112.82 -227.95,174.11 -73.92,59.12 -145.02,113.84 -218.83,170.25 -37.45,28.61 -67.25,54.06 -109.16,85.38 -48.5,36.23 -74.09,52.95 -118.06,96.33 -22.93,8.28 -65.45,43.96 -86.86,61.83 -32.97,27.53 -57.52,49.51 -95.69,67.87 -17.81,17.4 -8.12,9.63 -31.05,11.54l-223.39 -168.25 -1193.7 -932.73c-327.42,0 -654.84,0 -982.27,0l1187.49 926.5c32.58,24.57 53.71,37.32 83.52,63.05 105.63,68.93 573.95,469.07 648.47,488.97l0 25.94c-68.93,18.41 -1235.16,946.21 -1439.46,1102.55l-480.02 375.97 981.06 0 1067.83 -830.36c65.28,-48.76 118.19,-93.97 174.5,-136.74 65.93,-50.07 119.56,-88.53 188.93,-142.13l36.27 32.76c39.33,23.26 82.14,59.69 121.25,88.91 45.41,33.92 77.67,61.79 124.07,96.41l1081.99 837.49c63.04,48.6 56.08,55.23 166.43,54.05 289.94,-3.09 581.34,-0.39 871.45,-0.39l-713.07 -559.96c-84.11,-61.15 -160.55,-124.65 -241.43,-186.64l-590.13 -460.6c-73.57,-57.66 -339.63,-253.6 -358.85,-284.29l528.06 -413.08c35.51,-27.25 45.58,-37.5 75.1,-68.07zm12140.67 32.85l-1.09 -502.94 52.99 1.47c400.98,36.05 2474.79,-35.97 2663.98,23.7 181.57,57.28 215.25,214.05 215.25,412.07 0,357.37 0.72,714.79 0.44,1072.13 -0.37,477.88 -395.73,388.64 -700.79,388.64 -177.04,0 -2056.9,-10.71 -2178.88,4.04l-52.92 1.26 1.02 -1400.37zm3661.82 0.62c-17.03,-270.52 44.57,-490.38 -83.06,-718.68 -44.27,-79.2 -117.05,-152.64 -184.2,-204.99 -101.01,-78.74 -169.06,-73.1 -280.28,-120.14l-3853.52 0 0 926.1 0 2056.88 -25.94 0 3916.85 0c3.13,-2.66 7.44,-5.29 10.21,-6.92 68.55,-40.09 108.35,-30.87 209.69,-97.56 65.95,-43.4 107.45,-90.16 153.47,-144.57 105.15,-124.29 135.75,-276.53 135.9,-477.24 0.15,-219.66 14.42,-1071.23 0.88,-1212.88zm-8487.81 -238.08c30.49,-149.3 143.77,-248.22 312.64,-263.62l3344.75 2.61 1.7 -544.72 -3709.61 -0.01c-295.83,-0.36 -497.67,95.04 -631.41,380.21 -77.66,165.6 -55.96,383.79 -55.96,618.03l0 1255.89c0,222.43 18.06,324.21 144.37,493.7 239.98,322.01 639.77,235.16 1035.85,235.16l3215.65 0 -0.22 -544.72 -3345.12 2.59c-58.54,-5.17 -108.99,-16.47 -154.75,-42.73 -59.4,-34.08 -45.09,-53.05 -109.91,-87.49 -29.84,-104.53 -51.95,-108.92 -51.34,-261.44 0.37,-93.36 -6.81,-219.1 4,-307.98l54.05 9.67 3331.14 0 2.92 -557.69 -3335.5 4.73 -57.31 0.4 4.06 -392.59zm-4835.96 38.39c16.74,-182.37 130.71,-291.24 323.96,-301.98l3336.22 2.58 2.7 -544.72c-1160.53,0 -2321.06,0 -3481.59,0 -274.83,0 -437.22,-19.5 -609.95,90.4 -386.52,245.92 -310.88,651.87 -310.88,1085.07l0 1066.29c0,205.99 20.07,339.45 140.56,496.91 9.41,12.3 23.33,30.35 34.81,43 258.37,284.51 614.1,201.31 1004.85,201.31l3220.31 0 -0.16 -544.72 -3349.84 4.03c-79.11,-11.57 -140.46,-32.04 -193,-70.31 -53.01,-38.61 -60.62,-94.4 -111.22,-138.3 4.55,-146.86 -22.31,-332.89 -5.35,-492.47l51.57 9.67 3337.68 0 1.17 -557.69 -3340.24 4.42 -52.34 0.48 0.74 -353.97z"/>
  <path class="fil1" d="M11087.98 9607.97c-29.52,30.56 -39.59,40.82 -75.1,68.06l-528.07 413.08c19.23,30.69 285.29,226.63 358.86,284.29l590.13 460.61c80.88,61.98 157.32,125.48 241.43,186.63l713.07 559.96 62.75 0 -1187.65 -926.38c-85.86,-64.15 -157.25,-124.7 -240.78,-187.2 -40.25,-30.12 -455.64,-344.38 -478.09,-377.91 29.2,-43.6 947.46,-739.41 954.27,-744.73l832.55 -645.97c32.63,-26.82 99.27,-72.91 119.7,-100.78l-57.46 0 -1305.61 1010.34z"/>
  <path class="fil2" d="M26890.47 9641.44c13.54,141.65 -0.73,993.21 -0.88,1212.87 -0.15,200.71 -30.75,352.95 -135.9,477.24 -46.02,54.41 -87.52,101.18 -153.47,144.57 -101.34,66.69 -141.14,57.48 -209.69,97.56 -2.77,1.63 -7.08,4.26 -10.21,6.92 140.55,-8.25 289.38,-96.67 368.42,-176.23 7.33,-7.39 12.07,-12.98 18.69,-20.22 232.86,-254.72 170.51,-418.67 170.51,-802.2 0,-283.19 22.09,-1408.07 -17.35,-1526 -36.3,-108.55 -68.24,-168.36 -140.89,-248.2 -104.48,-114.8 -252.73,-210.12 -436.77,-210.12 111.22,47.03 179.27,41.39 280.28,120.13 67.15,52.35 139.93,125.8 184.2,205 127.63,228.29 66.03,448.16 83.06,718.68z"/>
  <polygon class="fil1" points="23228.65,9640.81 23227.63,11041.19 23280.55,11039.92 23280.55,9139.34 23227.56,9137.88 "/>
  <path class="fil1" d="M9750.49 9530.35l223.39 168.25c22.93,-1.91 13.24,5.86 31.05,-11.53l-707.26 -555.9c-123.05,-91.67 -236.34,-183.75 -359.57,-275.94l-260.92 -205.97c-36.57,-28.91 -53.04,-50.27 -120.39,-51.63l1193.7 932.72z"/>
  <path class="fil1" d="M8555.58 11580.6c70.45,-1.37 71.45,-12.2 114.29,-45.99l270.19 -209.66c128.58,-95.93 1014.93,-814.62 1083.05,-820.82l-36.27 -32.76c-69.37,53.6 -123,92.06 -188.93,142.14 -56.31,42.76 -109.22,87.97 -174.5,136.73l-1067.83 830.36z"/>
  <path class="fil1" d="M18450.64 10908.26c64.82,34.43 50.51,53.41 109.91,87.48 45.76,26.26 96.21,37.57 154.75,42.74l-27.05 -13.94c-2.56,-1.14 -6.51,-2.79 -9.35,-4 -52.84,-22.59 -70.81,-23.01 -116.49,-65.21 -143.3,-132.37 -115.62,-362.65 -105.06,-606.83l-54.05 -9.67c-10.81,88.88 -3.62,214.63 -4,307.98 -0.61,152.52 21.5,156.91 51.34,261.45z"/>
  <path class="fil1" d="M13573.47 10831.3c50.6,43.9 58.21,99.69 111.22,138.3 52.53,38.27 113.89,58.75 192.99,70.31l-16.63 -11.63c-8.7,-4.78 -8.24,-5.2 -17.8,-9.64 -263.77,-123.02 -240.01,-275.33 -223.56,-670.14l-51.57 -9.67c-16.97,159.58 9.9,345.61 5.35,492.47z"/>
  <path class="fil1" d="M18402.66 9403.36l-4.05 392.58 57.3 -0.4c0,-246.82 -38.74,-438.49 106.5,-572.64 62.95,-58.16 121.2,-59.01 152.89,-83.17 -168.87,15.41 -282.15,114.32 -312.64,263.63z"/>
  <path class="fil2" d="M21788.49 10348.5c92.73,-2.03 65.42,-11.46 65.42,-246.41 0,-103.77 0,-207.51 0,-311.28l-62.5 0 -2.92 557.69z"/>
  <path class="fil1" d="M3552.85 9242.34c-40.77,92.55 -74.01,94.85 -76.48,236.71 -1.84,106.13 2.33,212.42 -2.12,318.49l53.8 -1.04c0,-145.24 -13.35,-319.82 20.79,-438.81 17.87,-62.28 52.9,-105.52 95.39,-138.07 103.35,-79.18 113.3,-45.45 156.17,-81.49 -127.45,10.77 -181.68,47.42 -247.55,104.21z"/>
  <path class="fil1" d="M13566.7 9441.75l-0.74 353.97 52.34 -0.49c0,-283.02 -55.83,-534.68 225.83,-634.47l46.53 -20.99c-193.26,10.74 -307.22,119.6 -323.96,301.98z"/>
  <path class="fil1" d="M3476.17 10405.9c12.17,334.46 -53.69,583.35 311.26,633.55l-81.57 -38.85c-75.95,-34.47 -137.66,-104.8 -159.65,-190.39 -27.53,-107.2 -31.51,-333.17 -13.48,-461.71l-56.75 -10.89 0.19 68.29z"/>
  <polygon class="fil3" points="7135.5,11580.6 7198.41,11580.6 7198.41,11035.88 7135.48,11035.88 "/>
  <polygon class="fil2" points="7135,9142.34 7198.41,9142.34 7198.41,8597.63 7137.31,8597.63 "/>
  <polygon class="fil2" points="17227.7,11580.6 17288.65,11580.6 17288.65,11035.88 17227.53,11035.88 "/>
  <polygon class="fil2" points="17226.88,9142.34 17288.65,9142.34 17288.65,8597.63 17229.59,8597.63 "/>
  <path class="fil1" d="M16957.37 10348.5c72.1,0 61.2,-18.53 60.13,-89.64l-1.2 -468.05 -57.76 0 -1.17 557.69z"/>
  <polygon class="fil1" points="6867.36,10348.5 6926.05,10348.5 6926.05,9790.81 6868.84,9790.81 "/>
  <polygon class="fil3" points="22060.64,11580.6 22113.31,11580.6 22113.3,11035.88 22060.42,11035.88 "/>
  <polygon class="fil2" points="22060.05,9142.34 22113.3,9142.34 22113.3,8597.63 22061.75,8597.63 "/>
 </g>
</svg>
