<?xml version="1.0" encoding="UTF-8"?>
<!DOCTYPE svg PUBLIC "-//W3C//DTD SVG 1.1//EN" "http://www.w3.org/Graphics/SVG/1.1/DTD/svg11.dtd">
<!-- Creator: CorelDRAW 2020 (64-Bit) -->
<svg xmlns="http://www.w3.org/2000/svg" xml:space="preserve" width="297mm" height="210mm" version="1.1" style="shape-rendering:geometricPrecision; text-rendering:geometricPrecision; image-rendering:optimizeQuality; fill-rule:evenodd; clip-rule:evenodd"
viewBox="0 0 29700 21000"
 xmlns:xlink="http://www.w3.org/1999/xlink"
 xmlns:xodm="http://www.corel.com/coreldraw/odm/2003">
 <defs>
  <style type="text/css">
   <![CDATA[
    .fil2 {fill:#0092DC}
    .fil0 {fill:#0092DD}
    .fil1 {fill:#0093DC}
    .fil3 {fill:#0191DB}
   ]]>
  </style>
 </defs>
 <g id="Слой_x0020_1">
  <metadata id="CorelCorpID_0Corel-Layer"/>
  <path class="fil0" d="M11318.87 12907.46l0 506.46 3106.42 0c0.4,-17.8 4.22,-22.59 4.24,-45.16 0.01,-16.49 -0.5,-33.26 -0.3,-49.72l4.25 -94.53c0,-109.95 -4.1,-209.1 -4.1,-321.17 -27.5,-18.51 -66.99,-12.37 -102.45,-12.37 -39.64,0 -79.3,-0.05 -118.93,0.11 -25.13,0.09 -31.69,-3.7 -53.05,-4.36 -93.91,-2.82 -194.58,4.08 -286.67,-4.32 -67.84,-6.21 -170.42,-33.53 -232.8,-58.44 -16.92,-6.75 -28.19,-12.94 -42.7,-18.88 -51.33,-20.95 -105.19,-50.74 -143.9,-90.1 -43.08,-43.8 -73.19,-72.63 -102.83,-131.38 -106.86,-211.69 -92.42,-451.19 -44.69,-690.09 31.77,-159.03 82.91,-296.59 142.73,-441.3 9.13,-22.04 16.66,-40.53 26.37,-59.97 19.36,-38.76 31.84,-79.06 50.5,-118.08l154.34 -347.27c27.66,-54.84 49.54,-117.89 76.52,-174.3 82.41,-172.33 152.98,-349.61 233.59,-522.93 53.56,-115.18 101.27,-232.67 153.07,-348.54l154.3 -347.33c9.51,-20.46 15.89,-36.69 24.79,-57.45 8.86,-20.68 18.07,-38.71 26.93,-59.4 17.56,-40.98 33.36,-76.67 50.92,-117.65 41.17,-96.03 88.71,-191.34 127.66,-287.63l78.43 -176.47c33,-65.03 64.02,-151.39 103.59,-233.57l101.33 -235.83c8.23,6.06 56.33,113.21 62.83,126.27l247.25 517.44c22.31,44.75 37.22,88.05 61.54,131.7 22.93,41.19 42.37,84.52 62.84,126.27l46.45 97.46c46.67,97.7 87.98,196.77 139.25,292.42 44.98,83.91 80.47,173.99 122.96,259.38 53.09,106.67 107.6,212.21 155.78,321.14l219.89 454.33c25.72,51.49 79.64,180.37 107.38,225.64 8.1,13.21 9.62,20.09 15.62,33.72 37.49,84.94 92.96,177.83 122.37,259.99 6.76,18.91 20.6,46.25 30.95,63.61 38.72,64.98 63.33,127.32 93.65,198.25 28.22,65.99 66.9,123.69 94.38,189.29 53.39,127.51 149.68,319.23 215.9,454.23 11.17,22.82 19.01,39.97 29.28,65.31 30.24,74.75 59.44,135.48 76.33,215.63 20,94.83 34.84,238.95 -21.88,326.02 -13.48,20.69 -23.39,29.96 -37.92,48.36 -46.88,59.34 -172.31,89.41 -248.24,100.57 -141.26,20.75 -281.99,9.61 -424.66,13.9l-81.83 4.25c-41.84,0 -139.77,-5.62 -165.67,-1.72 -23.25,3.49 -72.04,-3.42 -72.04,18.21l0 506.46 3934.26 0 0 -518.83c-213.33,-17.82 -421.84,9.89 -634.76,-62.21 -70.29,-23.81 -128.27,-59.97 -181.74,-109.75 -12.1,-11.24 -19.46,-13.26 -30.64,-26.86 -99.22,-120.41 -182.01,-253.91 -251.2,-394.07l-446.66 -897.66c-26.21,-52.63 -49.52,-105.6 -73.83,-160.53 -22.78,-51.48 -146.07,-271.53 -155.69,-312.99 -81.29,0 -271.72,36.06 -336.66,81.74 -19.91,14.01 -30.27,21.33 -47.55,38.69 -16.95,17.01 -25.84,25.43 -35.71,50.6 -19.61,50.05 -14.48,112.29 -14.48,166.61 0,17.83 12.01,46.97 16.39,65.89 39.13,-3.28 27.37,-40.1 42.89,-72.2 45.38,-93.88 239.88,-8.61 239.88,55.72 0,125.61 0.92,173.16 -125.53,236.21 -103.88,51.81 -165.07,-5.7 -236.28,-57.97 -21.37,-15.67 -41.36,-41.85 -56.19,-62.96 -13.49,-19.2 -29.29,-59.43 -53.28,-65.86 -21.72,14.6 -49.19,77.31 -49.19,115.29 0,62.56 -7.1,129.95 25.32,184.56 7.32,12.34 12.29,22.45 19.7,33.74 21.94,33.39 47.79,60.51 81.21,83.11 11.6,7.85 19.4,14.17 30.63,22.76 12.75,9.77 18.95,17.11 39.87,17.58 -1.62,19.43 -2.14,13.13 -18.27,18.71 -28.86,10.04 -55.79,26.09 -84.99,34.01 -44.12,11.97 -92.24,15.49 -139.14,20.8 -22.84,2.59 -132.25,-3.75 -150.33,-8.35 -43.67,-11.15 -74.41,-28.25 -112.73,-47.3 -92.49,-45.98 -193.12,-147.93 -241.79,-238.85 -61.57,-115 -37.18,-282.19 9.62,-388.37 6.76,-15.36 13.44,-25.12 21.71,-39.95l72.5 -124.79c0,-13.73 -38.95,-35.1 -50.14,-44.34 -20.97,-17.32 -32.28,-28.17 -51.29,-47.28 -54.07,-54.32 -94.25,-119.66 -62.03,-204.39l36.24 -62.42 60.15 -38.37c105.43,-54.35 194.11,12.83 194.11,92.1l0 74.11c0,43.58 -32.78,50.17 -32.78,78.23 0,73.68 188.11,-0.96 219.57,-14.08 68.36,-28.51 134.38,-75.96 197.86,-101.78 34.32,-13.97 62.45,-34.78 94.01,-53.79 38.95,-23.46 266.52,-127.49 316.4,-139.16 -0.75,-33.72 -46.66,-118.43 -62.85,-150.98l-218.56 -435.09c-24.96,-50.13 -47.45,-95.35 -72.42,-145.49 -24.86,-49.96 -44.78,-98.25 -69.65,-148.23 -45.57,-91.53 -172.39,-358.56 -218.22,-435.45 -26.76,-44.91 -48.02,-99.55 -71.4,-146.5l-719.92 -1454.87c-25.08,-50.44 -48.35,-95.44 -71.08,-146.81 -32.39,-73.19 -73.59,-143.93 -109.22,-215.54 -13.13,-26.34 -23.79,-47.77 -36.89,-74.11l-289.04 -582.53c-41.4,-68.39 -105.59,-210.47 -145.38,-290.39l-177.59 -365.08c-13.78,-27.4 -18.48,-50.36 -40.97,-70.02 -25.29,5.92 -52.44,57.97 -77.28,91.19 -37.02,49.52 -68.54,104.28 -102.23,156.68 -31.33,48.66 -63.8,113.11 -94.34,164.62 -27.53,46.4 -105.92,227.29 -137.33,290.25l-136.6 290.98c-9.81,21.07 -16.5,40.76 -25.96,60.38l-81.96 177.07c-10.31,20.48 -16.97,36.32 -26.36,59.99 -9.42,23.74 -16.7,38.92 -26.92,59.41 -18.64,37.32 -33.58,77.24 -51.91,116.67 -54.83,117.93 -104.6,241.19 -161.26,356.78 -18.5,37.74 -32.47,78.05 -51.88,116.71l-133.05 298.65c-19.66,48.67 -46.52,93.8 -66.73,142.96 -39.48,96.02 -97.5,206.1 -133.56,298.15 -11.98,30.6 -29.24,59.66 -40.42,91.16l-213.67 472.94c-8.62,19.41 -17.79,37.63 -26.91,59.44 -9.18,21.97 -14.9,40.59 -24.9,61.45l-108.55 236.82c-14.85,36.84 -37.54,78.43 -55.44,117.22 -18.33,39.7 -31.99,80.47 -50.57,118.01 -4.84,9.74 -7.84,18.73 -12.31,28.81 -4.7,10.6 -9.5,18.17 -14.62,30.62 -26.02,63.28 -56.19,113.17 -80.21,178.81 -15.66,42.84 -33.81,78.06 -54.02,118.66 -28.49,57.2 -50.44,117.72 -79.29,175.63l-80.34 178.68c-39.44,100.34 -91.33,195.51 -132.35,295.26l-53.66 119.02c-5.81,11.6 -7.32,16.6 -12.46,28.66l-173.83 389.44c-7.97,19.5 -16.78,39.45 -26.83,59.5 -10.38,20.73 -16.88,38.21 -27.27,59.08 -28.62,57.4 -50.72,118.27 -77.86,177.07 -4.87,10.55 -8.82,16.86 -13.69,27.4l-95.55 208.71c-52.24,117.6 -108.41,231.77 -169.49,344.41 -10.58,19.51 -20.92,35.47 -32.15,54.15 -56.14,93.43 -201.18,360.39 -289.22,438.25l-69.45 61.97c-55.22,46.68 -94.28,71.19 -161.03,97.61 -20.62,8.17 -40.54,18.66 -62.47,23.71 -107.16,24.62 -124.12,26.24 -232.62,25.68 -33.14,-0.17 -48.78,4.33 -81.91,4.16 -28.7,-0.13 -57.4,-0.02 -86.09,-0.03 -24.04,0 -69.67,-8.39 -69.67,16.49z"/>
  <path class="fil1" d="M15703.92 5619.37c0,42.34 22.23,71.66 38.26,101.57l136.61 295.08c11.14,22.41 19.63,41.23 31.4,63.16 12.77,23.86 24.66,38.01 31.42,67.24 48.47,-1.09 71.33,-59.57 114.7,-90.66l205.78 -139.11c78.75,-52.6 85.21,-60.45 178.29,-96.75 200.59,-78.23 230.2,-60.53 452.01,-60.53 128.13,0 356.55,117.76 356.55,259.4 0,102.92 -50.63,189.22 -86.69,279.37 -4.32,10.83 -8.58,22.81 -14.4,34.95 -35.66,74.36 -83.33,221.08 -83.33,307.44 0,214.27 0.24,369.54 103.8,562.75 58.17,108.5 129.67,211.28 233.07,280.52l122.27 83.04c83.41,48.68 229.46,78.37 335.91,78.37 217.38,0 322.89,-4.42 512.3,-98.79 35.94,-17.91 80.19,-47.89 112.44,-72.32 9.6,-7.27 9.56,-7.91 17.76,-15.1l50.04 -44.42c40.48,-28.64 51.82,-57.1 91.28,-97.7 11.09,-11.4 17.36,-22.39 27.07,-34.58 9.69,-12.19 17.58,-21.05 26.88,-34.75l33.84 -60.7c62.33,-112.77 41.82,-70.59 89.74,-193.95 20.75,-53.41 38.35,-144.82 46.59,-204.35 22.98,-165.77 16.66,-353.92 -22.68,-512.07 -13.93,-55.98 -68.42,-195.49 -98.64,-250.9l-45.68 -73.5c-101.36,-151.72 -83.99,-121.88 -214.94,-253.45 -117.84,-118.4 -131.11,-126.58 -257.17,-211.02 -51.58,-34.57 -191.66,-108.16 -254.14,-135.82l-114.14 -41.79c-18.49,-6.15 -39.96,-13.31 -58.45,-19.51 -40.51,-13.59 -77.78,-23.19 -121.59,-34.31 -226.71,-57.49 -464.49,-77.1 -701.62,-77.39l-306.76 4.72c-124.87,14.04 -208.23,23.08 -328.96,60.65 -71.8,22.34 -104.48,37.32 -172.09,61.79 -55.96,20.25 -101.95,50.74 -154.01,79.99 -80.18,45.04 -160.14,101.64 -231.32,158.74 -30.27,24.3 -81.4,55.08 -81.4,74.69z"/>
  <path class="fil2" d="M13027.81 7303.45c-22.6,-1.89 -184,-90.09 -221.3,-98.82 3.13,-13.5 10.19,-25.91 16.56,-36.88 7.37,-12.64 13.4,-23.23 20.32,-37.23 6.46,-13.04 12.09,-24.23 19.1,-38.45 7.74,-15.7 12.8,-22.58 20.54,-37.02 32.82,-61.25 38.95,-109.83 124.29,-109.83 32.4,0 64.81,15.64 84.47,30.43 52.48,39.53 49.29,90.68 23.52,143.96l-57.62 123.27c-8.66,20.37 -20.08,41.95 -29.88,60.57zm-364.74 -172.94l-95.63 -43.92c-22.8,-11.45 -76.25,-41.81 -96.98,-46.66 11.18,-23.44 19.23,-47.17 31.39,-71.4 11.62,-23.19 56.27,-116.07 70.34,-135.21 62.03,-84.4 181.05,1.59 181.05,46.02 0,65.67 -10.52,82.86 -39.63,141.37 -15.95,32.06 -42.45,74.87 -50.54,109.8zm-405.72 -20.58c0,13.66 34.15,25.95 46.81,31.2 56.6,23.47 332.49,161.37 372.56,181.54l266.39 127.64c18.72,9.45 34.36,17.26 51.92,26.08 17,8.54 33.59,17.94 52.09,25.9l58.55 23.51c5.26,-22.64 41.92,-88.34 54.65,-113.92 37.32,-74.98 150.27,-294.51 150.27,-367.84 0,-58.99 -41.9,-146.87 -88.38,-182.96 -67.6,-52.49 -110.7,-80.56 -210.79,-80.56 -36.64,0 -81.83,15.07 -107.19,36.42 -14.76,12.41 -8.59,16.58 -32.15,17.11 0,-81.69 -82.36,-160.68 -149.77,-187.16 -69.58,-27.33 -165.64,-26.63 -222.05,19.47 -72.14,58.98 -133.28,210.93 -175.97,296.71 -8.86,17.79 -66.94,137.05 -66.94,146.86z"/>
  <path class="fil2" d="M11581.15 9312.81c-54.42,0 -131.14,-41.82 -131.14,-90.58 0,-94.25 30.58,-109.48 69.6,-197.69l24.66 -57.59c36.39,3.04 173.95,87.65 209,90.59 -0.73,33.25 -78.85,185.15 -103.47,217.19 -16.43,21.37 -39.77,38.08 -68.65,38.08zm-311.46 -102.93c0,48.29 5.03,85.74 29.39,122.82 82.66,125.83 295.29,209.31 420.42,82.07 11.67,-11.86 20.81,-27.37 37.86,-31.95 2.02,90.25 128.28,246.01 179.16,314.11 12.44,16.65 22.18,30.91 35.22,46.96 12.72,15.64 26.59,29.39 31.52,50.69l16.39 0c6.04,-26.03 23.1,-61.27 35.58,-83.67 49.79,-89.4 55.27,-73.57 -19.81,-175.11l-123.96 -180.14c-59.69,-90.52 -63.91,-126.57 -14.76,-219.89 18.61,1.55 281.48,130.89 312.87,146.83 15.93,8.09 27.12,17.41 47.78,17.87 3.71,-44.77 57.77,-103.47 61.48,-148.23l-633.86 -306.08c-37.68,-18.92 -187.18,-97.44 -218.58,-97.44l-157.48 335.87c-12.36,29.67 -39.22,88.58 -39.22,125.29z"/>
  <path class="fil2" d="M12154.89 7735.79c0,-69.26 4.83,-105.71 56.29,-157.56 96.14,-96.85 251.99,-41.66 353.53,9.33 32.84,16.49 50.71,25.71 79.63,47.64 9.4,7.13 17.23,12.21 25.73,19.44 63.43,53.9 95.46,101.47 95.46,188.21 0,70.96 -48.35,132.43 -102.44,156.5 -85.96,38.26 -173.68,20.94 -256.47,-14.12 -20.68,-8.75 -37.04,-15.69 -56.45,-25.65 -82.03,-42.06 -195.28,-122.41 -195.28,-223.79zm-176.22 -16.46c0,187.77 162.77,334.54 320.84,402.33 124.47,53.38 157.21,71.18 310.29,71.18 42.64,0 102.08,-20.64 132.61,-35.56 96.09,-46.93 195.24,-185.36 195.24,-310.31 0,-100.5 -14.47,-150.29 -67.99,-228.15 -32.66,-47.5 -84.35,-94.82 -131.97,-126.83 -109.34,-73.48 -244.89,-135.01 -381.98,-135.01 -69.6,0 -113.66,3.4 -174.95,34.21 -19.43,9.76 -36.4,20.29 -52.89,33.35 -76.99,60.94 -149.2,182.7 -149.2,294.79z"/>
  <path class="fil2" d="M11745.07 8180.49l244.53 116.67c28.8,14.55 56.08,25.31 83.34,39.8 -5.82,25.01 -18.9,46.22 -30.06,68.63l-81.78 169c-5.3,12.4 -12.58,26.9 -15.21,38.25l-251.35 -118.04c-20.15,-10.12 -67.01,-36.61 -88.81,-38.43 -5.46,23.55 -58.07,115.87 -65.56,148.23l105.13 50.84c19.65,9.47 33.97,14.88 53.3,24.68 18.92,9.6 34.32,15.05 53.31,24.67 36.42,18.44 66.71,34.56 105.01,50.97 50.89,21.83 150.71,76.18 213.1,102.94 37.13,15.92 69.77,36.16 106.7,53.37 20.27,9.43 33.75,14.85 53.31,24.68 32.86,16.52 140.21,73.62 162.56,75.49 4.85,-20.93 24.1,-50.43 33.36,-73.54 10.16,-25.39 29.56,-46.8 32.21,-78.81 -19.67,-4.6 -264.76,-123.11 -315.5,-148.29 -53.93,-26.77 -69.76,3.97 13.59,-163.27l64.22 -133.13c64.69,34.38 193.64,88.71 275.94,130.39l69.97 32.62c11.04,4.4 17.86,5.51 27.03,9.92 11.32,-17.01 65.3,-129.45 69.66,-148.23 -15.95,-3.74 -38.79,-17.4 -53.27,-24.71 -17.44,-8.79 -35.96,-16.01 -53.34,-24.64l-370.18 -179.83c-18.22,-9.23 -34.65,-18.34 -51.92,-26.06l-213.06 -102.99c-18.61,-9.35 -94.53,-48.06 -110.65,-49.41 -7.6,32.78 -54.47,100.38 -65.58,148.23z"/>
  <path class="fil2" d="M10544.3 10675.74c17.42,11.72 23.42,12.49 43.75,21.94l311.43 152.36c60.62,30.46 118.44,57.4 178.95,87.85 38.18,19.2 158.47,63.8 158.47,108.43 0,24.4 -27.78,45.43 -28.69,86.46l68.33 30.18c19.75,9.19 47.6,27.07 66.91,31.58 9.9,-18.78 18.18,-35.85 28.5,-53.71 99.61,-172.2 16.12,-230.63 -163.74,-320.98 -73.09,-36.71 -144.33,-72.5 -218.56,-109.8 -40.3,-20.24 -204.59,-102.34 -228.14,-104.31 8.83,-38.13 87.05,-178.92 94.26,-210 31.45,7.36 60.32,25.96 88.98,38.25l264.82 129.2c59.8,30.04 116.63,56.58 176.17,86.51 16.33,8.21 28.81,12.23 45.17,20.52 34.9,17.67 106.35,58.34 137.94,59.05l65.58 -144.13 -639.32 -308.81c-33.11,-16.63 -191.88,-98.25 -217.2,-98.82 -4.25,18.31 -109.87,237.24 -116.13,249.8l-103.48 213.07c-5.38,13 -8.77,24.42 -14,35.36z"/>
  <path class="fil2" d="M11634.43 10214.56c-41.02,-0.91 -195.53,-88.66 -221.3,-94.69 1.73,-21.03 53.44,-123.76 65.55,-148.24 16.89,-34.12 60.93,-111.17 106.57,-111.17 44.28,0 66.81,0.53 100.84,26.32 118.85,90.02 -45.96,258.89 -51.66,327.78zm-368.84 -177.04c-17.11,-0.39 -33.02,-8.57 -46.46,-15.1 -43.27,-21.01 -270.65,-135.02 -297.79,-141.37 -10.94,47.16 -62.19,111.49 -65.57,152.35l318.29 149.6c36.7,18.47 72.27,34.23 107.93,52.16 69.48,34.92 139.64,66.03 210.36,101.56 20.43,10.26 197.16,98.63 215.84,100.2 13.58,-58.55 200.82,-373.16 200.82,-469.41 0,-59.84 -9.5,-90.98 -40.1,-136.77 -23.22,-34.76 -46.2,-52.72 -78.14,-77.95 -64.96,-51.31 -153.88,-76.97 -240.82,-63.67 -83.78,12.83 -146.53,72.77 -182.74,133.44 -28.88,48.43 -50.13,107.39 -75.66,158.68 -8.07,16.21 -22.2,40.08 -25.96,56.28z"/>
  <path class="fil2" d="M13138.46 5294.08c0,105.4 32.94,133.72 107.57,208.97 78.62,79.24 147.27,111.16 126.02,202.79 -20.19,-0.46 -153.42,-68.83 -180.31,-82.35 -33.54,-16.86 -149.47,-79.43 -184.42,-82.36 -12.01,51.77 -61.48,97.78 -61.48,152.35 21.8,1.83 37.93,13.48 56.81,21.17 81.36,33.16 389.38,186.5 473.23,228.64 44.47,22.34 293.61,148.95 322.38,149.6 5.71,-24.6 21.03,-48.76 31.45,-71.35 12.43,-26.95 21.2,-48.21 34.14,-72.76 -29.73,-15.81 -60.13,-28.13 -91.54,-43.93 -31.56,-15.86 -60.01,-28 -91.52,-43.92 -16.78,-8.48 -27.78,-12.56 -45.11,-20.56 -36.18,-16.7 -109.07,-61.25 -140.69,-68.65 19.47,-36.94 30.17,-48.27 81.56,-53.94 38.01,-4.19 210.89,8.45 257.98,13.39 39,4.09 84.69,11.72 127.67,11.72 15.3,-29.05 75.39,-143.07 77.85,-172.93 -51.86,-12.14 -341.03,-20.59 -397.52,-20.59 -33.08,0 -62.64,5.06 -88.73,13.78 -31.39,10.49 -42.04,22.37 -67,35.63 0,-122.06 -196.7,-193.53 -196.7,-280 0,-68.82 15.48,-55.43 24.59,-94.7 -34.53,-8.08 -104.63,-59.2 -135.24,-61.76 -2.61,31.42 -40.99,97.27 -40.99,131.76z"/>
  <path class="fil2" d="M13294.2 6706.4c65.82,0 142.27,-20.5 193.47,-52.67 84.59,-53.17 150.76,-164.19 150.76,-268.5 0,-81.47 -11.75,-125 -58.49,-188.28 -19.18,-25.99 -80.43,-100.37 -109.53,-108.18 -18.71,12.6 -104.67,101.64 -118.85,111.17 17.02,25.55 114.76,86.39 114.76,168.83 0,51.1 -13.37,94.27 -39.78,120.61 -131.92,131.59 -428.41,-37.19 -510.52,-123.6 -61.77,-65.03 -74.64,-178.87 -10.29,-243.21 65.63,-65.63 114.72,-42.03 187.64,-42.03 3.98,-48.04 24.59,-124.79 24.59,-164.71 -36.08,-3.01 -55.3,-12.35 -114.74,-12.35 -152.82,0 -263.8,116.73 -297.53,236.36 -26.27,93.28 -8.58,187.27 35.99,261.12 60.46,100.18 128,147.8 222.34,204.84 90.03,54.44 217.58,100.6 330.18,100.6z"/>
  <path class="fil2" d="M10413.17 10947.49l244.78 239.93c25.04,24.21 87.94,74.33 111.76,110.07l-442.33 -37.34c-57.52,-4.4 -58.74,-26.6 -105.64,83.82 -8.45,19.87 -28.14,48.07 -29.87,68.75l0 0.07c49.87,26.5 186.5,7.88 257.05,17.59l398.52 19.6c66.07,0.09 74.58,-6.77 106.1,33.39 24.8,31.61 73.13,59.3 23.44,141.8 -11.58,19.25 -13.75,27.97 -22.85,47.01 24.37,12.97 110.45,61.22 135.24,61.77 15.08,-56.73 133.24,-125.62 11.75,-287.68 -51.23,-68.32 -200.74,-221.32 -260.73,-281.57l-309.37 -323.26c-23.14,-26.42 -14.75,-24.41 -48.19,-42.19l-34.1 72.81c-12.86,25.81 -22.85,51.27 -35.56,75.43z"/>
  <path class="fil3" d="M12273.73 10152.8c19.66,1.65 60.36,26.21 79.25,35.69 27.67,13.91 54.06,25.06 80.59,38.43l159.84 78.24 -69.68 144.11c-20.8,-11.07 -87.77,-65.63 -141.06,-97.08 -13.21,-7.8 -23.52,-14 -36.52,-20.96 -26.67,-14.29 -94.79,-52.74 -121.58,-59.01 11.97,-51.65 46.82,-90.92 49.16,-119.42zm-176.2 156.47c32.88,17.49 68.96,32.58 102.45,49.42 66.78,33.55 188.55,96.08 236.71,145.1 16.8,17.11 22.19,22.77 41.97,36.07 -5.14,22.13 -12.3,15.86 -12.3,45.28l162.86 75.2c15.02,8.07 8.21,7.16 29.75,7.16 1.55,-18.76 7,-21.11 14.7,-34.64 7.28,-12.77 8.21,-23.25 13.98,-35.36l-102.44 -49.41c10.95,-20.8 18.89,-39.49 28.74,-61.71 21.03,-47.49 79.38,-156.75 86,-185.34 29.39,0.65 80.16,38.15 110.65,45.28 10.94,-20.77 28.04,-48.55 28.69,-78.22 -18.79,-1.57 -163.69,-73.28 -188.51,-86.47 -2.08,8.92 -8.6,25.18 -12.29,32.93 -18.48,-4.32 -34.96,-14.34 -52.12,-21.76 -62.47,-27.02 -322.04,-160.25 -353.6,-167.64 -34.6,65.7 -68.11,145.46 -101.1,211.37 -6.68,13.36 -11.66,23.49 -17.77,35.67 -6.25,12.45 -10.45,24.66 -16.37,37.07z"/>
  <path class="fil2" d="M17179.27 14628.6c138.64,0 122.13,263.52 8.19,263.52 -121.4,0 -124.97,-263.52 -8.19,-263.52zm-196.71 86.47l-32.78 0 0 -152.36c0,-27.68 -54.02,-20.59 -81.98,-20.59 -12.58,0 -24.58,3.82 -24.58,16.48l0 399.39c0,19.9 34.56,22.53 56.17,19.58 62.09,-8.43 50.39,23.12 50.39,-176.05 49.59,0 41.01,2.27 47.85,30.17 17.43,71.12 74.37,146.9 152.95,146.9 87.75,0 129.86,8.74 191,-71.64 59.51,-78.23 50.73,-232.81 -5.87,-303.77 -49.18,-61.67 -93.98,-65.18 -168.74,-65.18 -93.28,0 -149.1,68.61 -167.97,148.28 -3.32,14.02 -1.58,28.79 -16.44,28.79z"/>
  <path class="fil3" d="M13015.52 9176.94l0 0zm0 0c-21.59,-5.05 -126.29,-57.26 -151.63,-69.99 -32.22,-16.18 -116.96,-65.89 -155.75,-65.89 -9.58,20.09 -28.22,61.29 -28.68,82.35l239.05 113.94c33.27,15.5 227.91,111.14 244.54,112.53 63.55,-95.34 34.26,-92.14 -46.26,-200.57 -18.8,-25.32 -126.76,-164.84 -138.17,-186.48 18.3,4.28 280.77,138.85 303.28,144.12 10.75,-20.42 31.48,-59.09 36.89,-82.36 -68.14,-36.22 -169.3,-80.92 -243.17,-118.03 -36.46,-18.32 -221.11,-111.19 -244.53,-116.67 -3.51,13.19 -41.82,73.59 -36.88,90.59 7.38,11.06 17.91,21.09 27.52,34.12l139.56 185.07c14.09,17.22 48.77,56.74 54.23,77.27z"/>
  <path class="fil2" d="M12158.99 13957.42l94.26 0 0 247.07 -122.94 0c0.38,-17.08 5.89,-39.32 9.25,-56.59 12,-61.65 19.43,-126.36 19.43,-190.48zm-102.45 -16.45c0,188.8 -32.06,230.31 -32.79,263.52 -56.75,0 -45.08,-13.93 -45.08,156.47 0,40.62 51.11,24.7 86.07,24.7 12.37,-25.92 8.2,-55.41 8.2,-90.6l229.48 0c0,105.21 -13.33,90.6 77.88,90.6 12.59,0 16.39,-12.06 16.39,-24.7l0 -131.77c0,-29.36 -16.08,-24.7 -36.88,-24.7l0 -304.71c0,-16.69 -4.42,-37.05 -20.49,-37.05 -324.72,0 -282.78,-19.03 -282.78,78.24z"/>
  <path class="fil3" d="M11634.43 11515.71c0,-37.45 -2.21,-46.55 21.5,-77.2 60.13,-77.66 178.58,-32.32 240.59,7.41 155.06,99.37 71.85,230.38 -20.31,230.38 -91.26,0 -241.78,-77.2 -241.78,-160.59zm-102.46 -20.58c0,98.79 50.21,157.04 117.99,202.62 56.68,38.11 148.23,81.48 222.15,81.48 119.31,0 209.02,-90.77 209.02,-222.34 0,-84.58 -56.28,-141.1 -105.92,-177.69 -38.33,-28.26 -138.29,-81.71 -201.44,-81.71 -46.79,0 -77.23,-1.62 -119.6,15.71 -64.76,26.48 -122.2,118.29 -122.2,181.93z"/>
  <path class="fil3" d="M12027.84 10692.2l0 -20.58c0,-50.16 51.07,-94.71 102.47,-94.71 88.16,0 295.23,82.49 232.99,221.74 -59.72,133.6 -335.46,6.39 -335.46,-106.45zm241.8 267.65c38.19,0 84.15,-14.43 112.98,-34.72 47.43,-33.37 91.94,-98.36 91.94,-158.81 0,-55.42 -3.76,-90.69 -37.92,-138.95 -11.57,-16.33 -21.75,-23.98 -37.58,-36.37 -15.3,-11.97 -26.23,-20.77 -41.56,-32.36 -14.86,-11.23 -27.13,-22.76 -41.83,-32.08 -40.29,-25.53 -127.89,-52.59 -177.17,-52.59 -149.34,0 -251.14,151.22 -195.62,291.26 25.36,64 72.81,96.54 128.73,130.07 47.05,28.21 125.65,64.55 198.03,64.55z"/>
  <path class="fil3" d="M13040.11 8365.79l361.94 175.72c21.58,10.85 39.88,17.9 61.54,28.78 21.29,10.71 40.26,19.65 60.09,30.2 15.38,-23.06 26.34,-48.82 39.63,-75.5 20.06,-40.3 106.22,-221.18 107.92,-241.56 -102.11,-49.22 -78.94,-43.04 -107.92,15.1l-76.51 166.08c-56.11,0 -91.1,-46.07 -131.14,-49.41 1.69,-20.47 54.12,-118.71 71.03,-155.12 9.66,-20.86 19.14,-29.94 19.14,-59 -29.51,-2.46 -51.05,-30.01 -86.08,-32.94 -4.99,21.56 -12.74,32.29 -19.9,49.99 -7.73,19.12 -14.65,31.79 -23.8,50.21 -16.57,33.29 -29.84,65.91 -46.44,97.45l-102.46 -45.3 23.22 -54.9c9.99,-19.96 17.38,-34.92 27.31,-54.9 14.24,-28.58 47.83,-84.52 47.83,-116.67 -25.25,-5.91 -60.14,-25.45 -81.96,-37.06l-143.44 308.83z"/>
  <path class="fil3" d="M12499.15 9493.99c20.77,4.87 252.62,116.53 301.94,141.32 139.68,70.22 79.19,56.18 79.19,109.86 0,9.35 62.87,35.8 77.85,37.05 84.72,-160.83 47.14,-148.49 -226.76,-286.85 -17.47,-8.83 -31.29,-16.83 -49.54,-24.34 -33.2,-13.65 -31.25,-20.63 -51.54,-22.33 0,-46.66 39.61,-78.2 49.17,-119.41 17.62,4.13 171.56,82.1 203.73,95.9 20.05,8.59 32.71,14.58 50.35,23.53 16.69,8.47 32.77,14.26 50.59,23.29 18.15,9.19 89.79,45.4 105.14,46.69 7.31,-31.5 32.17,-58.27 32.79,-86.47l-122.92 -57.66c-19.93,-10.1 -41.48,-18.73 -61.49,-28.8 -20.28,-10.22 -38.66,-19.42 -60.1,-30.2l-151.67 -74.1c-24.14,-11.25 -72.27,-37.87 -95.59,-39.82 -1.63,19.48 -80.35,174.92 -99.72,216.88 -9.08,19.7 -29.59,53.29 -31.42,75.46z"/>
  <path class="fil3" d="M13613.85 7513.45l180.31 24.7c-4.09,7.78 -8.71,16.78 -12.22,24.77 -14.23,32.25 -31.04,56.35 -32.85,78.17l-68.65 -62.79c-20.99,-21.24 -51.24,-41.81 -66.59,-64.85zm-151.63 -28.82c0,31.8 72.21,82.83 97.34,108.08l151.62 148.23c18.81,18.94 34.96,30.81 53.28,49.41 17.32,17.54 31.78,31.94 49.18,49.42 28.95,29.08 29.81,37.57 58.4,44.26 8.45,-16.04 14.14,-33.03 23.23,-50.78 21.78,-42.52 16.58,-37.13 -36.53,-84.1 -14.66,-12.99 -24.3,-27.51 -39.98,-38.06 12.65,-24.01 24.94,-49.58 36.94,-74.05 8.2,-16.73 31.32,-65.31 32.72,-82.42 49.77,0 87.17,15.49 131.15,16.48 13.61,-20.42 40.98,-67.1 40.98,-98.83 -93.26,0 -501.64,-70 -557.36,-70 -6.84,0 -40.97,69.36 -40.97,82.36z"/>
  <path class="fil3" d="M14552.34 6224.65c-18.72,0 -88.36,-42.27 -118.86,-49.41 29.73,-56.45 49.81,-148.23 114.76,-148.23 41.97,0 65.56,32.57 65.56,70 0,15.18 -37,95.39 -48.32,116.14 -4.68,8.56 -0.49,11.5 -13.14,11.5zm-204.92 -94.7c-28.27,-15.04 -62.83,-33.53 -93.06,-46.49 -30.42,-13.03 -70.53,-37.31 -99.55,-44.1 -56.86,107.99 -60.21,70.51 80.65,141.32l243.1 118.09c35.71,17.93 86.55,48.17 127.05,57.64 12.8,-55.18 68.44,-131.94 94.31,-197.59 29.32,-74.35 32.54,-130.85 -39.23,-187.15 -85.09,-66.76 -192.05,-67.01 -246.51,23.58l-66.76 134.7z"/>
  <path class="fil3" d="M13482.7 8003.44c-44.72,-1 -91.25,-49.85 -135.24,-53.53 5.44,-23.42 41.49,-119.41 86.07,-119.41 52,0 92.11,26.8 89.19,69.11 -2.7,38.81 -32.76,72.57 -40.02,103.83zm-262.28 -12.35c66.55,35.37 167.34,79.94 243.17,118.03 42.19,21.2 78.55,39.88 121.51,59.08 26.09,11.64 97.67,52.81 127.11,53.47 2.21,-26.79 21.16,-36.36 32.78,-86.47l-176.21 -82.35c21.72,-93.7 120.88,-174.51 -5.03,-279.07 -56.89,-47.24 -153.11,-73.7 -218.84,-19.95 -30.76,25.16 -115.98,200.52 -124.49,237.26z"/>
  <path class="fil3" d="M14195.79 6521.11c-13.22,-3.08 -19.45,-7.6 -31.4,-13.74l-99.75 -43.9c0.34,-14.67 37.55,-162.79 134.11,-110.02 80.17,43.81 7.87,121 -2.96,167.66zm-258.19 -12.35c32.11,7.52 454.33,223.74 483.59,230.59 4,-17.25 34.27,-59.11 36.88,-90.59 -27.64,-6.47 -134.43,-68.46 -176.21,-78.24 4.04,-48.83 140.58,-197.06 -24.3,-296.75 -16.05,-9.7 -50.75,-28.48 -70.91,-31.71 -32.61,-5.21 -66.45,-6.01 -92.37,4.12 -73,28.51 -91.69,122.4 -128.78,183.55 -11.99,19.76 -27.9,49.08 -27.9,79.03z"/>
  <path class="fil3" d="M11949.99 11178.08c-32.55,-7.62 -107.21,-55.21 -135.24,-61.77 19.24,-36.53 48.06,-119.4 98.36,-119.4 27.26,0 77.86,25.41 77.86,78.23 0,19.61 -30.18,80.31 -40.98,102.94zm-262.28 -16.47l61.46 28.82c129.58,65.09 306.07,142.01 426.22,205.88 24.69,-37.05 27.04,-57.27 40.98,-86.47 -208.87,-111.04 -194.52,-54.34 -144.74,-161.9 18.89,-40.83 21.8,-63.54 21.8,-105.74 0,-100.56 -195.97,-201.65 -281.95,-114.45 -44.5,45.15 -92.12,173.74 -123.77,233.86z"/>
  <path class="fil2" d="M19125.92 14772.7c0,-43.96 -0.74,-64.53 23.66,-103.85 46.23,-74.52 177.14,-47.08 177.14,66.81 0,57.04 1.69,113.53 -55.86,145.62 -66.29,36.92 -144.94,-21.58 -144.94,-108.58zm-106.56 -32.93c0,65.16 8.36,126.99 46.22,171.8 64.05,75.76 111.78,67.02 199.67,67.02 94.06,0 168.03,-105.29 168.03,-197.65 0,-95.03 -13.96,-175.8 -113.29,-223.8 -127.01,-61.35 -300.63,19.22 -300.63,182.63z"/>
  <path class="fil2" d="M17867.76 14546.25l0 354.11c0,21.35 -5.36,39.41 -4.1,53.25 2.05,22.48 12.34,21.52 36.69,21.07 82.4,-1.58 211.21,14.39 291.17,-4.32 0,-108.16 51.75,-86.48 -221.3,-86.48l0 -86.47 184.42 0c25.73,0 30.13,-90.58 0,-90.58l-184.42 0 0 -70 196.72 0c29.03,0 36.11,-94.71 -8.19,-94.71l-245.89 0c-22.76,0 -24.32,4.13 -45.1,4.13z"/>
  <path class="fil2" d="M17441.55 14562.71l0 391.18c0,37.84 83.27,20.96 102.46,16.47l0 -172.95 139.33 0 0 172.95c15.29,3.57 102.47,21.01 102.47,-12.37l0 -395.28c0,-31.32 -102.47,-25.87 -102.47,-4.11l0 148.23 -139.33 0 0 -160.58c-16.68,-0.38 -102.46,-17.95 -102.46,16.46z"/>
  <path class="fil2" d="M16433.41 14752.11l0 -41.16 57.36 0 0 185.29 -73.75 0c0,-41.87 16.39,-79.21 16.39,-144.13zm-90.17 -115.28c-12.97,55.99 1.93,259.41 -45.07,259.41l-16.39 0 0 152.35c0,18.98 23.03,12.35 69.65,12.35 23.87,0 16.4,-52.52 16.4,-86.47l163.94 0c0,36.96 -3.1,55.5 4.09,86.47 31.44,0 60.38,1.9 86.05,-4.11l0 -152.37c-10.02,-5.33 -18.79,-7.58 -28.68,-12.34l0.51 -235.22c-0.92,-20.27 -1.28,-18.1 -19.89,-21.19 -31.56,-5.27 -211.43,-6.35 -230.61,1.12z"/>
  <path class="fil2" d="M18675.11 14562.71c0,67.92 -5.85,364.68 4.1,407.65 13.9,3.25 27.57,9.18 44.7,8.18 16.77,-0.99 26.19,-4.07 49.55,-4.07 1.8,-7.75 6.67,-23.96 7.04,-29.55 0.87,-13.05 -2.94,-13.91 -2.94,-32.22 0,-35.96 -3.91,-76.61 4.1,-111.18 37.27,10 94.01,154.19 98.36,172.95 16.51,0.37 114.75,18.01 114.75,-16.48 0,-4.99 -47.1,-94.64 -53.28,-107.05 -13.79,-27.71 -39.75,-86.67 -69.67,-94.7 4.84,-20.82 9.68,-14.85 23.34,-42.43 18.79,-37.87 20.3,-74.88 46.06,-85.5 49.55,-20.37 49.46,19.3 49.46,-65.6 0,-34.19 -103.24,-31.73 -144.79,43.93 -10.28,18.69 -19.2,41.04 -26.76,59.6 -9.57,23.53 -13.53,46.48 -41.57,48.83l0 -168.82c-18.43,-4.33 -102.45,-16.66 -102.45,16.46z"/>
  <path class="fil2" d="M16900.59 11540.41c38.01,0 43.98,5.77 72.9,-25.56 39.5,-42.78 17.38,-105.42 80.09,-232.47 8.12,-16.43 13.76,-24.6 21.9,-39.77 8.62,-16.09 13.11,-28.47 22.59,-43.18 35.41,-55.02 28.44,-35.46 54.24,-69.02 10.05,-13.07 18.94,-20.17 30.11,-31.51 12.55,-12.72 17.39,-21.98 30.62,-35.12 12.58,-12.46 18.17,-17.6 29.41,-32.22 9.61,-12.53 26.77,-20.06 29.75,-36.83 5.54,-31.01 -64.12,8.27 -79.27,15.9 -78.25,39.38 -127.5,63.08 -196.89,115.1 -29.57,22.18 -86.39,62.47 -106.56,86.49 -24.36,29.02 -56.44,78.62 -70.35,114.59 -12.87,33.26 -18.2,127.01 5.81,161.97 15.17,22.08 41.11,51.63 75.65,51.63z"/>
  <path class="fil3" d="M13876.14 6619.93c0,20.69 16.01,26.08 44.03,54.58l152.67 147.19c-45.82,0 -90.23,-4.23 -134.58,-8.89 -63.97,-6.72 -87.33,-11.7 -156.39,-11.7 -1.83,82.44 -145.83,104.08 155.83,102.84 49.18,-0.2 101.7,8.4 159.74,8.33 31.14,-0.03 52.22,-4.31 72.22,9.79 52.43,37.02 34.12,71.54 9.73,117.86 7.74,3.73 11.36,4.5 19.67,9.08 26.6,14.67 35.84,23.86 66.41,23.86 2.72,-32.82 32.77,-36.61 32.77,-86.47 0,-55.71 -48.52,-97.82 -76.88,-128.62l-100.33 -109.21c-39.55,-39.28 -178.44,-186.97 -208.02,-206.87 -6.58,12.53 -36.87,63.86 -36.87,78.23z"/>
  <path class="fil2" d="M18240.7 14739.77c0,91.08 20.77,171.25 102.37,214.19 85.86,45.21 212.22,15.74 250.66,-69.49 7.14,-15.83 19.42,-39.78 19.91,-62.35 -31.31,-2.63 -58.48,-23.9 -94.26,-24.71 -15.54,29.52 -26.93,86.47 -86.05,86.47 -27.71,0 -55.12,-17.72 -66.62,-36.02 -15.62,-24.85 -19.8,-50.77 -22.47,-84.53 -3.8,-48.28 17.54,-134.73 76.78,-134.73 71.81,0 68.02,20.17 94.26,69.99 15.14,-1.27 90.16,-11.25 90.16,-28.83 0,-47.56 -18.44,-71.81 -54.33,-97.75 -101.02,-73.05 -310.41,-35.25 -310.41,167.76z"/>
  <path class="fil2" d="M13806.47 13982.13l0 280.01c0,14.19 3.02,15.94 4.1,28.82 39.36,9.22 172.02,4.1 221.29,4.1 0,99.57 -11.08,86.47 69.68,86.47 11.07,0 11.29,-1.96 20.49,-4.12 8.62,-37.16 4.1,-95.61 4.1,-135.87 0,-27.57 -11.7,-20.63 -28.69,-28.82l0 -251.17c-26.02,-12.54 -70.01,-10.75 -98.35,-4.13 -9.5,40.9 -4.1,205.75 -4.1,259.41l-86.08 0 0 -247.04c0,-22.98 -44.73,-16.48 -73.75,-16.48 -19.15,0 -28.69,9.6 -28.69,28.82z"/>
  <path class="fil2" d="M13318.79 14896.24l-57.39 0 0 -57.65c54.38,0 44.74,-3.35 94.26,8.24 0.78,9.42 19.77,49.41 -36.87,49.41zm12.29 -140l-69.68 0 0 -45.29 36.89 0c16.23,0 33.98,2.16 42.28,11.4 10.09,11.22 7.83,33.89 -9.49,33.89zm-172.12 -94.7l0 288.23c0,29.27 13.81,23.3 40.62,25.06 81.75,5.36 262.64,19.77 262.64,-90.95 0,-36.51 -9.91,-78.12 -40.98,-86.47 4.66,-20.12 51.31,-69.53 13.09,-120.21 -44,-58.36 -163.23,-44.48 -246.69,-44.48 -19.13,0 -28.68,9.6 -28.68,28.82z"/>
  <path class="fil2" d="M17720.23 14216.83l-65.57 0 0 -57.64c30.8,0 36.17,-4.66 62.32,-1.05 16.58,2.3 14.62,-2.23 25.19,7.83 14.47,13.79 19.07,50.86 -21.94,50.86zm16.39 -144.1c-30.55,7.15 -45.52,4.12 -81.96,4.12l0 -41.19c32.78,-7.67 102.83,-9.85 81.96,37.07zm-180.32 -115.31c-9.73,42.01 -4.1,261.39 -4.1,321.18 0,23.66 31.05,15.39 53.3,16.46 67.05,3.24 190.52,17.1 231.34,-43.41 27.34,-40.53 29.52,-106.05 -22.35,-133.64 3.44,-12.89 68.23,-110.71 -26.14,-150.77 -38,-16.12 -207.92,-19.21 -232.05,-9.82z"/>
  <path class="fil2" d="M14175.29 13973.9l0 304.7c0,26.7 49,17.84 69.88,16.69 30.26,-1.65 30.21,-9.09 53.92,-44.68 15.52,-23.33 61.22,-104.49 77.03,-116.12 0,28.81 0,57.63 0,86.46 -0.01,84.12 -14.21,74.11 77.85,74.11 13.26,0 20.49,-14.94 20.49,-28.81l0 -275.87c0,-14.93 -3.43,-23 -8.19,-32.96 -29.52,-6.9 -34.37,-4.11 -69.66,-4.11 -23.22,0 -28.62,17.16 -36.89,32.93 -9.57,18.23 -74.17,123.01 -86.06,131.77l0 -156.46c-16.77,-8.09 -98.37,-19.92 -98.37,12.35z"/>
  <path class="fil2" d="M12441.76 13973.9l0 304.7c0,31.09 81.51,16.46 98.36,16.46 10.72,-20.31 91.66,-152.61 102.47,-160.57 0,30.23 0.06,60.46 0.08,90.69 0.02,77.53 -19.57,69.88 77.78,69.88 9.59,0 16.39,-6.82 16.39,-16.46l0 -308.81c0,-23.32 -47.22,-16.48 -77.87,-16.48 -17.72,0 -52.14,63.19 -61.24,78.47 -11.49,19.28 -43.2,75.63 -57.61,86.23l0 -156.46c-16.75,-8.09 -98.36,-19.92 -98.36,12.35z"/>
  <path class="fil2" d="M16597.32 14031.54l20.5 0 0 53.53c-41.09,0 -64.02,3.88 -94.26,-16.46 5.15,-22.2 -0.44,-26.25 21.89,-31.55 15.91,-3.75 34.31,-5.52 51.87,-5.52zm-114.74 115.3c-8.68,13.03 -97.21,121.18 -86.06,140 9.32,15.77 47.03,8.08 73.94,8.41 22.6,0.29 24.03,2.93 36.09,-9.03 24.81,-24.55 52.14,-121.58 111.27,-122.92 0,125.58 -11.74,136.01 41.52,132.43 24.8,-1.66 60.93,6.89 60.93,-17.13 0,-59.79 5.64,-279.17 -4.09,-321.18 -37.71,-8.81 -109.61,-4.11 -151.63,-4.11 -112.66,0 -167.62,65.93 -134.17,143.04 11.97,27.57 29.79,35.42 52.2,50.49z"/>
  <path class="fil2" d="M14638.4 14056.24c7.85,-14.92 3.51,-14.77 21.22,-19.84 21.98,-6.3 49.04,-4.86 73.03,-4.86l0 53.53c-19.62,0 -61.12,1.97 -77.22,-4.74 -16.44,-6.86 -10.82,-10.12 -17.03,-24.09zm-102.45 -4.1c0,50.84 28.2,77.01 61.46,94.7 -10.81,16.23 -86.05,111.16 -86.05,127.64l0 20.58 106.54 0c3.92,-14.75 35.69,-62.78 45.28,-78.03 13.61,-21.57 35.59,-52.97 69.47,-53.73 0,143.76 -11.91,134.28 49,131.94 30.43,-1.19 53.45,8.93 53.45,-24.88l0 -296.46c0,-9.6 -10.92,-20.59 -20.47,-20.59 -81.32,0 -223.49,-15.04 -261.58,50.12 -4.69,8.03 -17.1,38.41 -17.1,48.71z"/>
  <path class="fil2" d="M12790.12 14636.83l-0.25 304.94c-0.63,39.69 -8.84,32.7 78.11,32.7 30.14,0 85.15,-136.55 114.74,-156.46l4.1 152.35c16.2,3.79 94.26,16.23 94.26,-12.37l0 -304.69c0,-27.3 -51.63,-20.58 -77.86,-20.58 -17.43,0 -49.84,59.41 -59.69,75.89 -12.22,20.4 -37.88,69.01 -55.05,80.57 0,-57.33 2.64,-105.55 -8.2,-152.35 -38.14,-8.92 -57.29,-3.45 -90.16,0z"/>
  <path class="fil2" d="M14380.22 14636.83l0 263.53c-0.01,84.64 -14.89,74.11 81.95,74.11 26.05,0 93.52,-146.07 118.85,-164.7l-0.23 132c-0.64,39.69 -8.85,32.7 78.1,32.7 19.77,0 12.3,-36.24 12.3,-74.11l0 -263.53c-29.54,-6.92 -34.4,-4.11 -69.68,-4.11 -26,0 -43.76,41.16 -64.77,74.91l-58.18 85.67c0,-31.58 -0.06,-63.14 0.01,-94.72 0.2,-75.56 -3.97,-71.68 -98.35,-61.75z"/>
  <path class="fil2" d="M16794.04 13973.9c0,59.37 -5.62,275.15 4.11,317.06 23.48,5.5 27.86,8.02 50.15,5.44 26.47,-3.08 39.37,6.36 46.76,-15.13 10.56,-30.81 1.43,-78.65 1.43,-117.97l94.26 0c0,147 -20.25,132.18 57.23,131.74 28.28,-0.17 45.24,5.41 45.24,-24.68l0 -288.23c0,-37.21 -35.03,-28.82 -81.98,-28.82 -38.46,0 -20.49,102.74 -20.49,131.76l-94.26 0c0,-149.65 16.66,-131.76 -81.95,-131.76 -9.56,0 -20.5,10.99 -20.5,20.59z"/>
  <path class="fil3" d="M12859.79 8744.6c33.63,7.87 56.78,32.19 90.15,32.94 0.79,-35.7 43.78,-91.99 49.19,-115.29 20.48,4.79 330.73,158.31 376.97,181.23 9.62,4.77 19.29,7.74 28.75,12.29 7.04,-13.37 35.86,-74.15 36.88,-86.47 -21.03,-4.92 -76.51,-36.37 -99.72,-48.03l-198.03 -97.51c-18.39,-8.87 -33.64,-14.72 -50.61,-23.27 -16.27,-8.21 -33.11,-16.18 -49.16,-24.71 4.56,-19.7 16.95,-42.34 25.95,-60.39 5.53,-11.09 10.58,-20.16 15.01,-30.2 4.74,-10.68 7.39,-22.63 12.3,-32.94 -15.63,-8.32 -68.03,-35.55 -86.05,-37.05 -26.99,51.24 -53.03,106.1 -76.68,161.77 -17.34,40.82 -71.6,127.19 -74.95,167.63z"/>
  <path class="fil3" d="M13585.17 7233.45c17.39,9.25 65.32,35.33 86.06,37.06 9.5,-18.07 17.67,-35.4 27.37,-54.85 34.57,-69.42 4.98,-75.07 129.73,-12.4 28.6,14.37 281.07,139.63 301.9,141.37 9.78,-18.61 35.02,-64 36.87,-86.47 -15.67,-3.67 -32.68,-14.36 -47.8,-21.96l-349.73 -167.45c4.19,-18 19.19,-45.51 27.35,-63.12l25.94 -64.53c-21.56,-1.8 -63.76,-27.37 -81.96,-37.05l-155.73 329.4z"/>
  <path class="fil2" d="M15388.36 14900.36c-83.56,0 -81.95,-39.56 -81.95,-119.42 0,-77.33 135.24,-122.65 135.24,37.07 0,35.15 -20.39,82.35 -53.29,82.35zm-188.51 -98.84l0 20.6c0,76.84 67.99,156.47 143.44,156.47 60.92,0 110.92,5.16 158.93,-46.2 60.44,-64.62 53.01,-199.32 -0.47,-253.03 -82.33,-82.72 -301.9,-63.84 -301.9,122.16z"/>
  <path class="fil2" d="M16019.49 14809.77c0,-115.17 84.65,-107.59 115.66,-83.27 40.67,31.93 32.43,173.86 -33.71,173.86 -24.25,0 -49.38,0.43 -65.53,-28.87 -5.03,-9.17 -16.42,-47.95 -16.42,-61.72zm-102.47 -4.13c0,49.2 16.27,86.56 36.83,115.36 48.13,67.52 104.77,57.59 176.29,57.59 116.97,0 185.32,-201.22 85.15,-299.67 -87.63,-86.14 -298.27,-60.38 -298.27,126.72z"/>
  <path class="fil2" d="M17248.94 14126.26c0,-130.86 139.34,-113.57 139.34,-20.6l0 37.05c0,104.45 -139.34,111.99 -139.34,-16.45zm-102.46 4.11c0,84.77 64.1,168.81 135.24,168.81 62.25,0 123.44,9.33 168.74,-48.69 80.81,-103.46 45.6,-297.18 -123.66,-297.18 -73.8,0 -88.57,4.8 -136.32,52.43 -28.36,28.29 -44,69.79 -44,124.63z"/>
  <path class="fil2" d="M15712.13 14286.84c13.52,3.16 12.16,5.16 28.11,8.79 33.48,7.63 72.12,3.17 97.94,-18.01 42.01,-34.48 25.58,-186.85 25.58,-241.96 28.11,-2.35 12.95,-4.12 57.36,-4.12l0 234.71c0,43.33 52.31,30.61 78.08,29.03 14.73,-0.9 24.39,-1.91 24.39,-16.68l0 -308.81c0,-12.66 -12.01,-16.48 -24.59,-16.48 -254.92,0 -233.74,-17.35 -233.6,65.89 0.04,35.67 0,71.36 0,107.06 0,73.6 9.65,86.34 -16.33,90.65 -21.61,3.58 -22.86,0.45 -29.08,24.3 -2.64,10.12 -6.92,34.29 -7.86,45.63z"/>
  <path class="fil2" d="M13523.68 14636.83l-0.06 296.54c-0.29,21.28 -4.89,34.78 9.11,40.26 0.41,0.16 93.41,23.31 93.41,-27.98l0 -102.94 90.17 0c0,158.04 -12.96,135.95 74.09,132.09 14.15,-0.63 24.27,2.21 24.27,-12.69l0 -312.92c0,-24.39 -39.18,-16.47 -81.97,-16.47 -9.59,0 -16.39,6.82 -16.39,16.47l0 115.29 -90.17 0c0,-139.62 20.56,-140.59 -102.46,-127.65z"/>
  <path class="fil2" d="M11822.95 14653.3l0 296.47c0,12.64 3.79,24.7 16.39,24.7l249.99 0c27.94,0 12.6,-64.46 12.29,-78.23l-163.92 0c-17.86,0 -12.3,-17.45 -12.3,-57.65l155.73 0c7.9,-95.32 31.8,-82.35 -155.73,-82.35l0 -41.17c59.29,-13.88 172.13,19.17 172.13,-20.6 0,-63.91 4.33,-54.98 -23.02,-59.23 -31.19,-4.82 -189.46,-2.52 -231.08,-2.52 -9.55,0 -20.48,10.98 -20.48,20.58z"/>
  <path class="fil2" d="M15371.97 13866.85c1.26,56.96 143.43,278.31 143.43,308.82 0,36.6 -52.94,36.02 -69.99,36.72 -21.89,0.89 -23.78,7.48 -24.52,28.89 -0.58,17.09 0.25,36.4 0.25,53.78 139.13,32.57 161.4,-48.35 215.45,-178.81 17.35,-41.85 36.03,-77.61 53.31,-119.39 17.95,-43.42 46.82,-92.21 46.82,-130.01 -30.27,-7.09 -41.79,-4.12 -77.88,-4.12 -28.77,0 -34.87,42.47 -52.68,87.04 -7.04,17.57 -11.95,32.32 -19.32,50.62 -7.4,18.38 -13.69,32.5 -18.16,51.75l-8.2 0c-3.49,-13.15 -4.35,-8.92 -10.88,-22.01 -5.14,-10.31 -6.05,-15.47 -10.96,-26.04l-45.08 -98.82c-23.95,-50.43 -4.39,-42.54 -101.1,-42.54 -6.45,0 -15.52,2.18 -20.49,4.12z"/>
  <path class="fil2" d="M13142.56 13957.42l0 300.6c0,11.6 -9.15,37.04 12.3,37.04 53.45,0 221.98,5.33 262.28,-4.1 7.8,-94.21 31.69,-74.13 -172.13,-74.13l0 -57.64 131.14 0c31.44,0 24.6,-17.29 24.6,-61.76 0,-13.31 -14.89,-20.58 -28.7,-20.58l-127.04 0 0 -45.31 151.63 0c18.57,0 12.3,-21.12 12.3,-65.87 0,-9.5 -2.85,-12.36 -12.3,-12.36l-209 0c-22.75,0 -24.3,4.11 -45.08,4.11z"/>
  <path class="fil3" d="M11322.96 11948.06c13.25,3.1 17.87,7.32 28.77,12.28 11.19,5.08 19.38,7.71 31.39,13.75l389.19 189.55c13.7,7.68 13.7,10.88 34.24,10.88 2.46,-29.62 29.87,-51.27 32.79,-86.46l-97 -46.66c-38.54,-19.38 -269.99,-133.41 -292.33,-138.63 0.86,-38.84 87.76,-180.99 90.16,-210l-86.08 -41.13c-3.47,14.96 -10.68,24.39 -16.33,37.07l-86.12 181.12c-11.92,23.99 -28.68,43.4 -28.68,78.23z"/>
  <path class="fil2" d="M11163.13 14661.54c0,58.51 -5.58,267.11 4.1,308.82 51.56,12.05 23.25,8.29 74.01,4.35 40.15,-3.11 24.35,-29.17 24.35,-119.66 16.14,4.34 26.25,27.71 32.81,41.15 46.18,94.32 24.7,78.27 147.51,78.27 4.4,-20.9 -3.39,-28.31 -14.66,-47.05 -26.9,-44.73 -45.88,-103.6 -87.8,-125.9 51.24,-97.3 41.03,-79.86 80.57,-87.87 32.52,-6.58 17.79,-35.94 17.79,-76.82 -48.84,-1.09 -79.95,-22.59 -132.18,36.02 -9.74,10.93 -15.3,21.25 -22.23,35.29l-21.81 39.86c0,-131.48 15.46,-115.28 -73.77,-115.28 -19.13,0 -28.69,9.6 -28.69,28.82z"/>
  <path class="fil2" d="M13474.51 13973.9c0,59.37 -5.61,275.15 4.1,317.06 40.78,9.54 39.74,4.1 86.07,4.1 20.05,-30.07 12.29,-64.49 12.29,-123.51 52.99,35.65 38.4,133.62 114.34,127.61 16.27,-1.27 16.34,-3.8 37.47,-3.9 21.47,-0.09 28.5,3.06 28.5,-16.66 0,-15.74 -11.96,-30.41 -19.2,-42.47 -9.33,-15.58 -14.27,-26.59 -23.5,-42.27 -8.3,-14.15 -15.74,-28.46 -25.97,-39.8 -11.74,-13.01 -20.13,-21.71 -29.69,-36.05 9.58,-18.17 17.18,-36.1 27.85,-54.37 17.24,-29.55 14,-27.98 58.22,-27.98 11.79,-24.67 8.19,-45.91 8.19,-78.24 -62.57,0 -107.74,-32.43 -163.31,91.19 -5.04,11.2 -5.77,11.75 -12.9,20 0,-36.52 2.85,-81.22 -4.1,-111.19 -18.65,-4.35 -98.36,-16.24 -98.36,16.48z"/>
  <path class="fil2" d="M18252.99 13973.9l0 304.7c0,32.66 85.68,16.28 102.46,12.36l0 -119.41c14.52,3.88 13.13,9.6 21.35,23.84 6.72,11.62 10.62,19.77 16.9,32.43 8.96,18.06 27.37,49.73 31.42,67.24 37.92,0 110.65,8.31 110.65,-12.34 0,-26.28 -51.29,-105.73 -68.42,-128.9 -29.72,-40.26 -42.74,-16.08 -9.59,-73.03 7.68,-13.22 12.63,-24.16 16.54,-41 17.19,-4.03 36.24,-8.25 57.37,-8.25 1.8,-21.73 19.5,-78.23 -28.69,-78.23 -134.52,0 -113.56,90.29 -147.53,115.3l0 -107.06c-16.55,-7.97 -102.46,-20.36 -102.46,12.35z"/>
  <path class="fil2" d="M12294.23 14772.7c24.94,28.82 16.57,40.51 28.69,65.89l-49.19 0c1.81,-21.64 15.16,-42.81 20.5,-65.89zm-159.83 201.77c100.29,0 84.36,6.63 95.03,-23.95 3.67,-10.56 8.5,-20.64 11.53,-33.69l114.75 0c0.84,10.27 6.7,29.86 10.85,38.49 14.21,29.49 50.06,21.01 71.44,19.54 32.32,-2.25 36.56,8.47 36.56,-25.09l-114.75 -275.89c-5,-12.69 -13.49,-28.65 -16.39,-41.16l-94.27 0c-1.43,17.31 -111.54,284.37 -121.72,306.15 -5.82,12.47 -15.64,35.6 6.97,35.6z"/>
  <path class="fil2" d="M14056.45 14896.24l-61.46 0 0 -53.53c54.37,0 44.73,-3.35 94.25,8.23 0.93,11.12 1.91,11.2 4.1,20.6 -7.95,11.9 -17.12,24.7 -36.89,24.7zm-163.93 -234.7l0 288.23c0,32.7 19.91,22.84 48.94,24.94 59.34,4.31 139.11,8.74 194.75,-14.8 82.91,-35.11 77.57,-147.89 -1.83,-183.15 -25.02,-11.12 -32.25,-9.47 -64.93,-12.98 -67.26,-7.24 -31.88,0.7 -74.46,0.7 0,-76.97 11.53,-60.25 -4.1,-127.65 -27.76,-6.51 -98.37,-17.1 -98.37,24.71z"/>
  <path class="fil2" d="M16261.28 14216.83l-53.28 0 0 -53.53c62.66,0 90.17,-9.2 90.17,32.94 0,16.15 -20.29,20.59 -36.89,20.59zm-155.74 -259.41l0 333.54c23.15,5.4 65.19,8.88 94.41,8.4 22.07,-0.36 24.25,-3.8 44.81,-4.43 17.13,-0.5 36.43,1.3 53.28,0.03 58.53,-4.41 106.68,-43.51 106.68,-111.06 0,-49.59 -52.95,-98.83 -102.45,-98.83l-94.27 0c0,-41.42 5.44,-99.08 -8.2,-127.65 -38.33,-8.96 -60.81,-3.5 -94.26,0z"/>
  <path class="fil2" d="M12941.75 14097.43l-28.68 0c0,-77.77 -5.59,-68.3 37.17,-62.2 38.73,5.52 36.58,8.3 36.58,37.5 0,16.8 -27.23,24.7 -45.07,24.7zm-131.15 -107.05l0 275.87c0,50.57 92.33,27.01 92.43,26.98 20.45,-8.67 20.61,-95.42 10.04,-117.56 67.19,0 124.41,5.91 163.31,-54.15 37.14,-57.29 19.72,-168.21 -126.44,-168.21 -105.89,0 -139.34,-13.91 -139.34,37.07z"/>
  <path class="fil2" d="M11626.22 14776.82l-24.59 0 0 -65.87c109.33,0 80.08,65.87 24.59,65.87zm-127.03 -139.99l0 325.28c0,20 29.81,12.36 81.96,12.36 29.73,0 20.48,-82.31 20.48,-119.42l49.19 0c162.31,0 182.15,-222.33 -12.29,-222.33l-102.46 0c-20.57,0 -18.33,3.65 -36.88,4.11z"/>
  <path class="fil2" d="M15736.72 14776.82l-24.59 0 0 -65.87c109.33,0 80.08,65.87 24.59,65.87zm-127.05 -139.99l0 325.28c0,20 29.81,12.36 81.96,12.36 29,0 20.5,-85.74 20.5,-119.42l49.18 0c162.3,0 182.14,-222.33 -12.3,-222.33l-102.47 0c-20.56,0 -18.33,3.65 -36.87,4.11z"/>
  <path class="fil2" d="M17896.46 14097.43c0,67.46 -6.9,99.65 39.13,154.21 46.81,55.5 92.65,47.54 153.48,47.54 66.88,0 115.73,-83.98 116.3,-107.97 0.01,-0.65 -0.2,-1.98 -0.23,-2.54 -1.44,-20.88 -22.69,-20.27 -40.48,-23.06 -19.23,-3.03 -30.46,-6.42 -51.01,-6.42 -18.6,0 3.64,61.76 -65.55,61.76 -67.3,0 -75.2,-190.77 7.76,-188.89 41.34,0.93 39.25,21.46 53.7,48.9 38.17,0 75.12,-9.07 98.36,-24.72 -36.81,-158.71 -311.46,-126.4 -311.46,41.19z"/>
  <path class="fil3" d="M14314.63 5709.96l0 16.46c16.93,0.38 37.98,14.96 60.12,26.08l118.81 57.68c21.52,10.9 39.87,17.9 61.51,28.79l180.37 86.42c16.79,8.45 44.11,25.94 62.79,27.5 13.5,-25.63 29.65,-55.31 36.87,-86.47l-59.1 -27.08c-23.98,-9.95 -38.82,-18 -61.11,-29.19 -41.7,-20.95 -78.56,-39.35 -120.21,-60.39l-123 -57.6c-35.38,-17.79 -85.51,-47.25 -124.26,-56.32 -7.15,13.57 -32.79,58.85 -32.79,74.12z"/>
  <path class="fil2" d="M12454.07 14649.19c0,34.41 -2.56,33.03 4.09,61.76 18.06,1.5 10,4.12 40.99,4.12 22.75,0 24.29,-4.12 45.06,-4.12 0,297.72 -17.45,263.45 69.75,263.6 28.61,0.06 32.97,6.05 33.19,-24.32 2.11,-293.32 -23.86,-235.16 65.09,-235.16 14.14,0 15.88,-3.05 28.7,-4.12 6.14,-26.55 14.39,-78.23 -24.6,-78.23l-245.88 0c-9.6,0 -16.39,6.82 -16.39,16.47z"/>
  <path class="fil2" d="M14921.18 14661.54c0,58.51 -5.57,267.11 4.1,308.82 17.5,4.1 28.99,9.85 51.43,6.66 21.36,-3.03 46.91,1.99 46.91,-19.03l0 -247.04c29.72,0 159.84,18.18 159.84,-16.48 0,-63.91 4.33,-54.98 -23.01,-59.23 -30.61,-4.74 -171.16,-2.52 -210.58,-2.52 -19.14,0 -28.69,9.6 -28.69,28.82z"/>
  <path class="fil2" d="M14208.08 14636.83c-9.74,41.98 -4.1,261.39 -4.1,321.16 0,19.04 31.64,22.33 52.04,19.64 27.75,-3.66 50.42,4.25 50.42,-27.86l0 -296.47c0,-32.5 -89.29,-20.01 -98.36,-16.47z"/>
  <path class="fil2" d="M19593.1 14686.25c0,27.92 61.49,103.56 61.49,127.64 0,12.68 -40.78,78.5 -51.69,96.3 -9.09,14.87 -9.8,17.31 -9.8,39.58 74.12,6.2 65.36,16.77 113.11,-55.18 11.34,-17.1 46.72,-65.3 50.82,-80.7 -1.65,-14.63 -78.84,-108.84 -86.06,-140.01l-77.87 0 0 12.37z"/>
  <path class="fil2" d="M15064.61 14134.49c35.1,25.83 70.68,139.99 114.75,139.99l53.27 -4.12c0,-43.7 -61.46,-108.17 -61.46,-135.87 0,-40.17 61.46,-85.34 61.46,-140 -104.01,-8.69 -59.38,-13.05 -118.23,66.51 -17.9,24.21 -33.34,48.78 -49.79,73.49z"/>
  <path class="fil2" d="M19482.45 14682.13c0,29.63 61.48,98.34 61.48,131.76 0,45.57 -61.48,89.13 -61.48,135.88 102.46,8.57 62.89,9.6 142.29,-95.86l19 -30.33c5.1,-8.46 1.52,-3.66 6.75,-9.69l-69.72 -107.02c-25.59,-38.87 -4.2,-32.99 -86.02,-32.99 -6.71,0 -12.3,2.46 -12.3,8.25z"/>
  <path class="fil2" d="M15175.26 14130.37l90.15 139.99 73.78 0c9.77,-42.17 -63.74,-98.89 -58.86,-142.35 3,-26.9 43.57,-79.75 56.49,-103.3 24.19,-44.04 -28.35,-34.33 -59.11,-34.33 -13.12,0 -75.88,97.42 -89.96,119.6 -4.7,7.44 -7.66,13.13 -12.49,20.39z"/>
  <path class="fil2" d="M18740.68 14138.6c0,64.56 -2.13,49.41 151.63,49.41 32.46,0 24.59,-18.68 24.59,-74.12 0,-9.63 -6.8,-16.46 -16.39,-16.46 -155.87,0 -159.83,-14.75 -159.83,41.17z"/>
  <path class="fil2" d="M14433.48 14517.42c0,134.28 161.07,132.63 189.04,28.81 10.17,-37.78 -24.92,-36.89 -45.49,-28.71 -27.3,10.84 -15.15,59.24 -69.21,36.39 -13.18,-5.59 -8.26,-2.65 -12.92,-15.85 -12.76,-36.35 -31.96,-23.74 -61.42,-20.64z"/>
 </g>
</svg>
