<?xml version="1.0" encoding="UTF-8"?>
<!DOCTYPE svg PUBLIC "-//W3C//DTD SVG 1.1//EN" "http://www.w3.org/Graphics/SVG/1.1/DTD/svg11.dtd">
<!-- Creator: CorelDRAW 2020 (64-Bit) -->
<svg xmlns="http://www.w3.org/2000/svg" xml:space="preserve" width="297mm" height="210mm" version="1.1" style="shape-rendering:geometricPrecision; text-rendering:geometricPrecision; image-rendering:optimizeQuality; fill-rule:evenodd; clip-rule:evenodd"
viewBox="0 0 29700 21000"
 xmlns:xlink="http://www.w3.org/1999/xlink"
 xmlns:xodm="http://www.corel.com/coreldraw/odm/2003">
 <defs>
   <clipPath id="id0">
    <path d="M6766.54 761.15l13984.07 0 0 14546.18c-5.5,29.23 -10.65,59.96 -19.24,101.92l-14.49 92.34c-19.63,53.56 -32.56,110.01 -38.32,166.76 -4.22,41.63 -10.71,33.32 -30.49,87.32 -15.69,42.81 -39.74,71.57 -64.62,151.43l-25.41 64.64 -64.41 99.85c-56.43,103.89 -53.44,72.09 -121.55,154.62l-74.89 100.79 -80.13 46.46 -107.29 85.61c-14.38,8.71 -72.78,26.78 -141.5,73.2l-79.02 62.23 -94.87 32.93c-20.3,8.58 -54.62,30.05 -74.65,33.11 -60.73,9.28 -161.53,44.43 -170.84,45.14 -82.64,6.27 -60.41,1.62 -147.01,17.08 -41.03,7.32 -165.53,27.66 -197.9,26.01l-183.74 -6.19c-80.71,0 -397.42,3.96 -453.48,-1.73 -55.12,-5.59 -228.12,-6.34 -314.66,-2.23 -16.82,-0.85 -33.8,-1.29 -50.95,-1.29l-219.98 5.3c-71.03,2.69 -178.9,-5.3 -253.79,-5.3l-225.27 2.65c-65.31,2.47 -141.23,-0.27 -205.25,6.21 -44.61,4.52 -91.5,-8.86 -154.4,-8.86l-272.61 -7.94 -234.67 8.86c-72.85,7.4 -145.8,10.06 -218.81,2.65 -57.1,-5.79 -193.85,-6.31 -287.23,-1.75 -54.16,-5.66 -69.54,-12.46 -147.33,-12.46 -83.71,0 -184.79,-4.72 -266.42,3.56 -71.9,7.29 -144.89,-2.02 -217.04,5.3l-103.35 9.68c-70.87,10.82 -201.74,-5.99 -323.73,12.62 -96.28,14.69 -154.51,10 -258.11,42.22l-176.54 67.82c-17.9,8.41 -78.27,24.26 -139.77,53.9 -75.62,36.45 -91.1,56.07 -150.35,94.05 -49.57,31.77 -67.06,38.66 -115.96,79.01 -79,65.18 -151.28,137.4 -210.74,221.05 -54.87,77.19 -71.76,118.26 -110.55,198.78 -33.53,69.59 -91.96,219.06 -106.98,292.47 -22.98,112.39 -8.57,159.32 -14.02,207.21l-17.6 99.53c-3.25,32.02 -4.39,63.48 -3.69,94.34l-43.16 0c0.01,-57.59 -1.59,-111.73 -14.21,-173.47 -11.78,-57.61 -5.03,-16.73 -8.05,-76.38 -8.71,-172.1 -80.09,-284.87 -81.16,-291.92 -24.65,-161.83 -99.54,-291.03 -215.38,-404.12 -37.81,-36.91 -63.09,-64.08 -106.86,-96.81 -46.21,-34.55 -109.51,-165.92 -313.69,-252.27 -25.83,-10.92 -51.75,-20.05 -77.69,-27.65 -47.11,-28.6 -98.9,-52.18 -155.11,-69.67l-138.63 -41.06c-118.1,-30.36 -134.12,-42.9 -267.78,-42.9 -98.7,0 -219.91,-5.41 -325.3,6.02l-83.54 -5.94c-51.11,0 -102.07,0.21 -152.76,7.95 -73.36,11.2 -59.57,7.92 -133.08,7.92l-394.42 -19.43c-123.13,-18.78 -104.5,-22.91 -240.8,-22.91 -79.31,0 -339.18,3.96 -395.25,-1.73l-398.76 -24.74c-55.45,0 -112.54,3.86 -167.63,-1.73 -60.75,-6.16 -302.02,-6.77 -368.76,0 -56.15,5.7 -113.02,-0.42 -169.39,5.3 -77.32,7.84 -305.04,-2.4 -404.3,2.63l-155.04 9.68c-96.16,1.22 -184.67,20.05 -264.07,52.51 -43.11,-2.06 -86.19,-2.22 -130.3,-2.22l-301.62 -10.8c-96.24,-9.76 -100.54,-15.67 -209.2,-15.67 -49.11,0 -40.25,-7.87 -100.11,-23.27 -23.36,-6 -46.67,-10.67 -69.87,-14.19 -96.92,-39.64 -167.39,-37.72 -180.44,-42.44l-56.99 -35.41c-37.23,-20.22 -67.22,-27.99 -101.91,-49.07l-182.61 -115.22c-27.89,-15.15 -27.56,-20.16 -52.26,-44.87l-70.48 -72.32c-63.08,-84.36 -119.59,-118.33 -153.12,-142.92 -14.45,-22.23 -30.29,-45.79 -45.99,-64.83l-17.2 -17.5c-2.12,-5.5 -4.75,-12.02 -8.05,-19.81 -33.59,-79.44 -93.52,-180.7 -151.1,-244.05 -10.12,-11.14 -14.3,-44.76 -19.28,-60.76 -22.16,-71.25 -31.17,-116.39 -51.34,-171.81l-0.2 -12.6c-4.1,-40.35 -12.1,-79.26 -23.53,-116.47l0 -14710.13z"/>
   </clipPath>
 </defs>
 <g id="Слой_x0020_1">
  <metadata id="CorelCorpID_0Corel-Layer"/>
  <g style="clip-path:url(#id0)">
   <image x="6766.54" y="761.15" width="13984.07" height="17447.08" xlink:href="администрация Ульяновска_Images\администрация Ульяновска_ImgID1.png"/>
  </g>
 </g>
</svg>
