<?xml version="1.0" encoding="UTF-8"?>
<!DOCTYPE svg PUBLIC "-//W3C//DTD SVG 1.1//EN" "http://www.w3.org/Graphics/SVG/1.1/DTD/svg11.dtd">
<!-- Creator: CorelDRAW 2020 (64-Bit) -->
<svg xmlns="http://www.w3.org/2000/svg" xml:space="preserve" width="297mm" height="210mm" version="1.1" style="shape-rendering:geometricPrecision; text-rendering:geometricPrecision; image-rendering:optimizeQuality; fill-rule:evenodd; clip-rule:evenodd"
viewBox="0 0 29700 21000"
 xmlns:xlink="http://www.w3.org/1999/xlink"
 xmlns:xodm="http://www.corel.com/coreldraw/odm/2003">
 <defs>
  <style type="text/css">
   <![CDATA[
    .fil4 {fill:black}
    .fil2 {fill:#D90303}
    .fil3 {fill:#DB0303}
    .fil5 {fill:#FEFEFE}
    .fil1 {fill:white}
    .fil0 {fill:#FEFEFE;fill-rule:nonzero}
   ]]>
  </style>
 </defs>
 <g id="Слой_x0020_1">
  <metadata id="CorelCorpID_0Corel-Layer"/>
  <path id="geely.cdr" class="fil0" d="M5637.57 9822.73c653.62,-10.89 1307.78,4.1 1960.87,-22.86 881.08,-1.96 1761.8,8.39 2642.7,14.11 247.81,9.1 496.33,-0.89 743.43,20.89 -0.54,184.61 -1.07,369.57 -12.5,553.82 -12.32,148.19 -3.93,297.8 -17.49,445.98 -14.47,129.09 -0.9,260.49 -20.9,389.03 -1.96,32.68 -3.39,65.53 -5.17,98.2 -549.54,39.81 -1100.15,69.27 -1650.75,94.09 -1078.36,48.74 -2157.62,-2.86 -3234.02,-69.81 -115.15,-7.5 -232.1,-9.29 -344.21,-38.56 -4.11,-25.71 -9.11,-51.24 -14.47,-76.78 -8.03,-119.08 1.61,-239.95 -18.03,-357.78 -7.5,-154.62 2.68,-311.01 -17.68,-464.19 -3.03,-195.51 -9.28,-390.82 -11.78,-586.14zm-1127.99 21.96c313.33,-7.14 626.84,-4.64 940.18,-15.18 2.67,68.02 0.17,136.05 3.39,204.07 24.28,104.8 -1.25,215.32 23.57,319.76 -6.61,24.28 -8.93,49.1 -7.15,74.27 22.68,128.55 11.07,261.38 18.93,391.71 16.42,69.09 9.1,141.04 13.21,211.56 0.18,84.81 10.71,169.44 2.68,254.24 3.75,5.36 11.07,16.25 14.82,21.61 -51.96,9.64 -104.8,0.71 -156.76,-3.4 -367.61,-27.14 -734.85,-57.85 -1102.82,-79.63 -530.26,-37.85 -1060.33,-80.87 -1589.87,-127.47 -114.44,-7.68 -230.85,-9.28 -341.72,-42.31 -7.32,-215.67 -12.14,-431.7 -7.49,-647.55 1.24,-40.71 3.38,-81.78 14.45,-121.06 12.5,-53.56 36.07,-103.01 67.13,-148.18 68.2,-76.06 145.69,-151.22 246.39,-180.32 117.47,-32.68 239.42,-46.24 360.82,-54.28 499.72,-26.42 999.98,-51.41 1500.24,-57.84zm6655.85 -15.72c626.3,11.79 1252.78,18.22 1878.91,42.85 234.96,9.65 470.09,21.07 703.97,46.96 126.41,18.21 264.77,27.49 367.43,112.3 52.13,31.42 86.95,81.59 122.83,129.26 13.22,29.46 25.89,59.1 38.74,88.91 6.61,29.11 11.08,58.74 15.36,88.56 11.25,52.13 12.5,105.87 13.39,159.07 0.89,187.64 2.86,375.47 -6.6,563.11 -37.5,11.07 -76.6,15.35 -115.34,17.67 -956.24,79.27 -1912.84,158.37 -2870.69,218.35 -68.56,3.04 -139.61,21.07 -206.21,-3.39 19.64,-181.93 18.75,-365.11 23.57,-548.11 20,-159.43 10.18,-321.72 18.03,-482.41 19.11,-142.82 10.18,-288.87 16.61,-433.13zm-8829.53 1426.87c16.06,-3.57 32.49,-5.71 48.92,-6.78 660.4,65.52 1322.95,107.3 1984.25,162.64 383.5,26.6 767.17,52.67 1150.5,80.35 1.6,19.81 3.21,39.63 5.17,59.45 16.25,63.92 12.32,130.51 17.32,195.85 17.5,142.29 27.49,286.02 35.7,429.38 17.32,69.99 11.25,142.83 18.21,214.25 15.71,58.91 11.6,120.33 16.43,180.5 16.43,81.77 14.1,165.33 19.1,248.16 17.14,68.21 10.36,139.44 14.82,209.07 -88.01,-5.17 -174.78,-21.78 -261.37,-38.02 -347.62,-63.75 -694.33,-133.01 -1039.8,-207.65 -384.57,-84.8 -772,-172.1 -1136.03,-325.65 -93.38,-39.81 -183.18,-87.3 -272.45,-135.33 -147.65,-100.16 -288.7,-217.45 -382.96,-371.36 -24.1,-42.84 -43.21,-88.37 -68.56,-130.68 -1.07,-8.93 -3.39,-27.14 -4.46,-36.24 -9.47,-16.79 -18.93,-33.57 -28.38,-50.53 -17.15,-60.17 -30.89,-121.23 -52.32,-180.14 -3.75,-30.35 -6.79,-61.06 -17.49,-89.81 -4.11,-30 -6.96,-60.7 -18.4,-88.91 -5.36,-40.53 -0.17,-85.16 -28.2,-118.55zm10121.06 140.33c603.99,-46.42 1207.8,-95.69 1811.25,-149.08 -1.07,41.07 -0.35,82.85 -12.14,122.48 -5,30.17 -8.75,60.7 -12.5,91.05 -8.21,30.18 -14.64,60.7 -22.14,91.06 -29.1,123.19 -62.13,248.88 -129.08,357.43 -118.19,219.24 -324.22,376.17 -540.43,491.15 -240.67,114.27 -496.15,193 -753.6,259.42 -601.14,150.5 -1209.76,268.87 -1819.47,378.31 -1.6,-86.23 4.65,-172.11 8.93,-258.16 17.68,-136.4 26.61,-274.23 35.71,-411.7 15.35,-64.28 11.25,-131.05 17.85,-196.4 15.54,-64.45 10.9,-131.4 18.21,-196.92 14.82,-64.27 11.07,-130.87 17.32,-196.03 15.36,-58.39 13.03,-119.27 17.67,-179.08 8.76,-34.1 12.33,-69.45 16.43,-104.44 448.13,-40.53 897.5,-63.74 1345.99,-99.09zm-2215.46 147.47c229.24,-10.89 457.76,-33.92 687.18,-39.63 -3.92,20 -8.03,39.99 -12.49,59.99 -10.36,131.4 -18.75,263.34 -35.53,393.67 -7.68,71.23 -1.61,143.72 -17.68,213.89 -8.03,71.23 -1.25,144.26 -18.03,214.42 -6.6,71.59 -1.43,144.62 -17.85,214.96 -5.53,131.4 -17.14,262.63 -34.28,392.96 -4.29,24.64 -7.85,49.63 -11.43,74.62 -421.88,83.73 -848.4,141.22 -1274.03,202.46 -272.63,35.89 -545.25,78.56 -820.38,88.91 -458.13,19.11 -918.04,1.61 -1372.06,-63.73 -491.15,-67.31 -982.13,-137.48 -1470.6,-222.28 -4.29,-14.28 -12.5,-43.2 -16.78,-57.49 -4.83,-59.99 -1.61,-121.22 -17.86,-179.78 -6.6,-137.3 -17.85,-274.77 -35.35,-410.46 -6.79,-71.06 0.54,-143.72 -17.85,-213.35 -6.97,-71.59 0.71,-144.79 -17.86,-214.96 -7.68,-77.13 0.36,-156.04 -18.03,-231.74 -4.64,-88.38 -6.61,-176.57 -10.36,-264.95 498.3,31.96 996.6,65.16 1495.43,86.95 659.87,17.32 1320.28,23.03 1980.15,6.78 352.61,-1.42 703.79,-34.63 1055.69,-51.24z"/>
  <path id="geely.cdr_0" class="fil0" d="M15707.5 10758.18c17.69,-101.21 110.32,-150.23 194.36,-189.28 35.37,-8.23 71.97,-3.32 107.87,-4.55 612.49,0.52 1225.15,0.18 1837.65,0.18 26.26,0 52,5.95 77.91,10.33 0.36,92.62 -11.38,184.38 -15.05,276.83 -629.83,-1.41 -1259.48,1.22 -1889.31,7 -4.03,9.11 -12.08,26.96 -16.29,35.9 -3.67,362.98 -5.6,725.95 -4.9,1088.93 537.9,-0.7 1075.98,-0.17 1613.88,-0.35 0.7,-137.63 0,-275.08 0.35,-412.7 -384.52,-14.19 -769.73,-4.56 -1154.42,-13.49 4.73,-89.48 -8.41,-181.05 6.48,-269.3 121.52,-11.73 244.44,-1.75 366.31,-4.9 204.5,-6.83 409.2,-2.63 613.89,-3.68 159.51,1.75 318.68,-7.18 478.19,-2.63 -2.1,333.04 -0.87,666.08 -0.53,999.29 -515.83,3.33 -1031.67,0.52 -1547.33,1.4 -163.37,-1.93 -326.91,3.86 -490.11,-2.98 -49.2,-37.65 -108.03,-62.16 -149,-109.96 -7.88,-25.56 -16.29,-50.78 -24.69,-75.99 -21.54,-108.74 -5.78,-220.45 -23.29,-329.53 0.52,-245.49 -2.1,-490.98 1.4,-736.29 18.39,-86.51 5.43,-176.5 16.63,-264.23zm2725.41 -193.31c724.2,-0.7 1448.22,0.36 2172.26,-0.52 -3.33,59.18 4.02,120.12 -11.74,177.9 -1.4,36.42 -1.4,72.84 -1.22,109.26 -331.29,0 -662.57,0 -993.86,-0.17 -284.53,9.45 -569.59,-1.23 -854.3,6.13 5.08,55.32 1.41,110.83 -6.82,165.64 -2.45,84.04 -1.23,168.09 -2.81,252.32 600.76,3.15 1201.52,6.13 1802.28,7.17 2.98,92.1 1.05,184.38 1.58,276.65 -494.13,-1.22 -988.25,6.31 -1482.56,3.51 -106.98,7.71 -214.14,7.87 -321.3,7 0.18,137.81 0.18,275.61 0,413.41 95.43,-1.57 190.86,0.18 286.11,7.18 526.52,-1.58 1053.04,1.92 1579.56,5.42 -1.58,65.67 4.38,132.04 -7.7,197.17 -2.46,27.84 0.7,56.03 13.65,81.24 -423.38,7.01 -847.12,1.05 -1270.69,2.98 -157.06,0.17 -314.12,0.87 -471.18,-3.33 -112.59,-2.63 -239.53,13.49 -334.61,-60.41 -34.5,-18.21 -55.51,-50.78 -73.37,-83.87 -8.75,-70.91 -24.34,-141.13 -22.06,-212.92 -5.25,-450.53 -3.5,-901.23 -1.22,-1351.76zm2633.81 1441.24c-6.3,-480.3 -10.85,-960.94 -7,-1441.24 724.21,-0.52 1448.23,0 2172.27,-0.34 -3.33,64.96 4.02,131.49 -11.74,195.23 -1.22,30.47 -1.57,61.11 -1.75,91.93 -614.94,-3.16 -1229.71,4.38 -1844.48,3.85 -3.15,101.74 1.75,203.99 -10.68,305.2 -1.75,38.17 -2.28,76.51 -2.28,114.85 606.19,0.71 1212.38,-1.75 1818.57,1.24 -4.38,72.14 -2.1,144.8 -12.43,216.59 -1.23,22.06 -2.28,44.12 -3.15,66.36 -464.54,-2.8 -928.72,5.96 -1393.26,3.16 -136.75,-4.38 -272.8,11.72 -409.55,7 0,137.63 0.52,275.25 -0.35,412.7 533.35,1.23 1066.87,0.18 1600.22,0.53 90.7,3.85 182.98,-9.11 272.63,8.93 -3.15,94.9 -1.58,190.15 -1.23,285.41 -610.04,-2.28 -1219.9,3.33 -1829.77,-3.85 -60.76,-1.05 -122.4,-3.68 -180.35,-23.64 -43.96,-22.41 -82.65,-54.63 -116.97,-90 -39.75,-40.97 -22.59,-103.49 -38.7,-153.91zm4372.02 -1048.14c-119.77,-136.76 -262.64,-252.49 -377.86,-392.74 134.48,6.13 272.27,-15.76 404.3,12.43 129.4,141.65 271.23,271.75 404.13,410.26 117.31,129.57 248.46,246.01 366.47,374.88 6.49,1.4 19.09,4.55 25.4,6.13 266.32,-270.18 535.27,-537.9 804.57,-805.28 127.3,2.63 254.77,-0.7 382.06,2.1 -9.45,16.11 -20.13,31.17 -31.86,45.53 -337.42,339.87 -679.56,675.35 -1014,1018.19 -1.05,214.68 -0.17,429.17 -0.35,643.83 -100.15,4.73 -200.31,9.29 -300.46,6.84 -7.18,-84.93 1.92,-170.37 -9.11,-254.95 -8.4,-138.85 3.15,-278.23 -5.6,-416.91 -214.32,-218.17 -433.37,-432.13 -647.69,-650.31zm-1735.56 -392.74c100.85,-0.88 201.71,-0.36 302.39,-0.7 2.62,472.06 1.22,944.13 0.88,1416.01 536.32,5.78 1072.99,1.75 1609.49,2.1 3.85,98.24 1.05,196.46 2.1,294.87 -506.38,-2.11 -1012.94,2.98 -1519.15,-3.5 -85.09,-2.11 -174.04,2.63 -253.71,-32.39 -78.62,-45.18 -143.23,-125.9 -137.98,-220.81 -9.63,-485.01 -4.9,-970.39 -4.02,-1455.58z"/>
  <path class="fil1" d="M10566.22 14027.95c-53.52,0 -107.03,0 -160.54,0 -130.38,0 -116.75,11.55 -116.04,-37.93 4.46,-309.73 -0.77,-643.21 -0.99,-955.33l277.48 1.19 0.09 992.07zm-4451.57 -993.12l372.28 -0.03c15.62,3.52 42.86,104.64 47.82,119.24l126.09 375.3c23.16,67.91 160.17,461.91 164.65,498.54l-304.1 0.72 -73.42 -243.07 -290 0.16 -62.92 243.37 -290.86 -0.43 310.46 -993.8zm3262.9 0.09l274.34 -0.06 0.35 323.94c27.95,1.67 75.12,-5.2 106.84,-6.38 92.9,-3.45 196.1,18.09 272.03,58.88 109.14,58.63 168.85,149.85 168.83,297.86 -0.02,265.02 -317.85,329.96 -533.93,329.96 -13.24,0 -276.28,-4.93 -282.21,-18.03 -0.75,-1.66 -2.78,-0.81 -5.2,-1.43l-1.05 -984.74zm-1219.71 -0.09l276.84 1.78 0.72 359.31 373.39 0 0 -361.12c62.8,0.01 238.08,-4.54 276.69,2.46l0.27 990.31 -275.62 -0.14 -0.79 -393.84 -373.95 0.63 0.57 394.41 -277.08 -1.32 -1.04 -992.48zm2728.42 0.09l255.54 -0.06 -5.85 732.78c13.26,-8.99 80.27,-157.87 93.92,-185.3 77.58,-155.89 167.65,-310.21 241.22,-456.3 14.32,-28.45 35.72,-60.51 46.71,-91.18 44.26,-0.03 258.22,-4.42 296.11,2.38l0.78 253.58c0.09,61.7 4.09,671.89 -0.46,736.97l-254.2 0.73c-0.33,-90.15 -3.13,-414.65 2.67,-495.7 2.67,-37.29 16.4,-157.95 11.79,-185.77 -12.9,18.75 -28.12,66 -38.63,90.08 -44.38,101.76 -73.1,166.38 -127.86,265.23 -31.72,57.26 -62.89,111.37 -93.6,166.91 -16.19,29.27 -31.44,55.24 -48.1,84.43 -15.87,27.8 -35.66,75.35 -52.38,75.36l-326.61 -1.75 -1.05 -992.39zm-3818.6 984.74c-4.78,-39.63 -1.63,-113.71 -1.63,-157.93 0,-98.03 -4.16,-799.76 1.88,-809.41 10.05,-16.04 259.06,-27.26 295.84,-27.26 175.61,0 385.95,-0.67 471.32,136.7 72.7,116.99 27.32,264.37 -134.38,320.37l12.46 8.79c1.07,0.55 2.35,1.08 3.46,1.58 6.92,3.09 8.35,2.76 14.71,4.94 168.11,57.77 218.31,245.5 122.36,384.02 -89.24,128.83 -277.82,156.8 -485.03,157.61 -24.99,0.08 -290.76,-4.37 -296.91,-17.98 -0.75,-1.66 -2.78,-0.81 -4.08,-1.43zm-3186.15 -979.82c81.79,-0.03 635.71,-5 677.92,2.38l0 219 -399.9 0.28c-5.55,229.78 0.02,532.81 0.09,772.05l-277.08 -1.3 -1.03 -992.41zm947.32 -4.98l751.92 -0.17 -1.05 993.59 -273.31 0.24 -1.61 -771.88 -202.86 1.27 -0.94 106.74c1.65,386.47 -2.58,663.96 -446.53,680.58 -42.22,-323.42 -42.23,-172.13 78.05,-257.92 28.76,-20.51 43.55,-40.64 60.41,-77.55 30.34,-66.43 36.46,-153.39 36.47,-236.84l-0.59 -418.33 0.04 -19.73zm6762.4 -242.02c-2.57,131.21 -107.02,192.98 -240.13,193.18 -141.76,0.21 -232.49,-55.71 -240.92,-192.86l182.82 0c1.73,44.22 8.2,91.42 57.99,89.76 47.01,-1.56 50.8,-49.03 57.72,-89.65l182.52 -0.43zm15199.73 -1017.87l166.54 0 0 664.42 -22885.5 0 0 -88.59 22718.96 0 0 -575.83zm-22934.49 -127.96l22885.5 0 0 664.41 -22885.5 0 0 -664.41zm18574.87 -1210.71l38.66 118.65c17.16,90.85 21.02,196.8 32.8,282.02 6.69,48.35 2.66,100.63 9.75,147.7 3.93,26.11 0.22,50.42 2.32,76.41 1.57,19.39 6.81,51.24 8.84,69.87 8.51,78.2 -10.59,46.8 20.34,176.43 1.97,8.26 4.13,23.82 7.01,32.33 4.07,12.02 24.67,36.71 32.04,46.56 11.82,15.81 23.86,25.48 40.62,37.92l47.65 35.8 -440.86 0c4.84,-18.21 9.69,-12.77 18.4,-55.34 5.05,-24.68 8.83,-39.54 13.86,-64.81l71.89 -385.49c29.1,-151.4 64.09,-377.5 96.68,-518.05zm-1425.44 944.94c0.5,22.55 11.55,63.47 19.59,78.75l-107.76 0c9.53,-13.07 31.21,-24.27 45.41,-38.04 15.17,-14.73 26.01,-29.44 42.76,-40.71zm-5451.96 -68.9c78.05,41.49 14.01,-0.56 93.76,58.37 34.03,25.14 62.69,37.35 100.5,56.5l67.13 30.99c0.67,0.36 2.14,1.1 3.12,1.79l-303.7 0c19.93,-29.9 39.19,-106.1 39.19,-147.65zm-4496.77 123.04c10.34,7.61 12.48,13.94 19.59,24.61l-34.28 0c6.52,-9.79 8.91,-13.64 14.69,-24.61zm-2145.52 0c10.35,7.61 12.49,13.94 19.6,24.61l-39.19 0c7.11,-10.67 9.25,-17 19.59,-24.61zm-3678.72 -590.59l225.32 0c0,131.98 6.47,263.26 9.61,393.92 1.17,48.53 19.32,108.37 57.67,143.84 14.56,13.46 40.79,33.13 60.29,37.86 29.56,7.16 53.03,14.97 87.97,14.97 5.77,10.97 8.17,14.82 14.69,24.61l-720.07 0 239.98 -580.79c5.23,-13.89 7.79,-34.41 24.54,-34.41zm18780.61 255.92c36.45,24.53 116.23,121.24 153.92,150.49 27.58,21.41 19.88,20.5 56.67,46.41l236.51 156.11c9.71,6.7 2.85,1.37 8.46,6.27l-494.75 0c19.43,-16.97 35.91,-34.12 50.21,-57.83 54.57,-90.53 -8.84,-222.06 -11.02,-301.45zm-8692.86 -388.58l162.42 -0.15 -124.89 649.58 -1840.79 -0.43 16.28 -84.38c29.44,-11.79 740.08,-3.78 839.71,-3.78 69.36,0 793,3.8 840.49,-1.45l106.78 -559.39zm-4474.14 -14.99l161.66 0 -124 664.4 -1795.55 -0.64c10.15,-39.93 7.92,-80.9 24.61,-86.72l1625.31 -0.89 107.97 -576.15zm-2150.42 0l161.67 0 -123.96 664.4 -1795.6 -0.64c10.14,-39.87 7.93,-80.91 24.61,-86.72l1625.32 -0.89 107.96 -576.15zm-3056.67 -39.35l-543.88 0.12 -286.97 703.65 -790.53 -0.36 39.1 -88.23 606.34 -0.55 286.3 -700.21 689.32 -1.88 -1.93 -25.63 -732.72 0.07 -286.88 703.6 -790.37 -0.61 1410.59 -3134.49 962.92 1.83 236.62 3133.26 -781.44 -1.31 -16.47 -589.26zm14981.31 730.29c-161.05,33.22 -309.98,-3.75 -397.13,-89.88 25.03,0.42 57.48,11.6 86.83,13.66 218.89,15.36 426.68,-89.17 510.15,-293.79 10.21,-25.03 17.31,-42.8 24.71,-73.55 71.4,-296.74 -83.9,-440.25 -88.84,-472.83 374.95,146.21 329.75,820.39 -135.72,916.39zm-5071.72 -848.43c-19.86,-9.58 -57.6,-14.77 -88.17,-14.77 -7.97,-34.35 -39.16,-61.26 -63.61,-78.81 -6.5,-4.67 -10.11,-8.67 -16.74,-12.71 -50.24,-30.6 -215.58,-21.67 -272.34,-21.67 -155.12,0 -310.24,0 -465.35,0 3.97,-47.96 25.42,-104.62 29.39,-152.57 51.46,0 793.28,4.15 825.96,-1.89 69.77,-12.88 106.06,-27.93 148.15,-92.3 11.86,-18.13 20.47,-66.56 25.63,-92.37 13.23,-66.16 25.59,-133.88 39.13,-201.84l82.1 -393.36c20.18,35.25 28.5,73.51 70.32,136.06 50.44,75.45 83.68,122.95 144.76,184.3 19.16,19.24 34.73,34.89 53.88,54.14l308.89 235.95c72.56,46.74 299.74,181.72 299.74,254.98 0,45.75 -36.3,62.04 -78.28,78.84 -15.37,6.15 -34.23,13.09 -54.18,14.46 -58.21,4 -76.08,9.44 -133.39,1.55 -45.29,-6.23 -89.36,1.28 -196.68,-18.95 -202.74,-38.21 -320.42,-121.51 -368.17,-132.08 -76.97,-17.04 -45.81,-16.48 -108.81,-1.89 -138.94,32.18 -131.25,148.17 -182.23,254.93zm-2410.03 708.71c0,5.57 15.54,73.46 18.18,80.17 4.71,11.97 32.55,48.26 41.92,56.3 41.31,35.45 86.81,50.55 145.63,50.55 5.78,10.97 8.17,14.82 14.7,24.61l-1209.92 0c29.98,-44.97 79.74,-347.06 91.01,-410.57 9.29,-52.37 18.81,-94 27.21,-144.91l107.11 -566.65 783.75 0c52.25,0 100.04,-19.68 135.83,-50.55 12.93,-11.15 17.33,-24.11 30.72,-33.11l-186.14 994.16zm8778 24.61c17.44,-9.35 31.36,-127.1 34.91,-146.8l83.24 -447.9c27.19,-150.93 95.27,-474.2 111.2,-601.25 130.34,0 210.21,-21.5 227.6,70.13 -65.73,-3.6 -88.32,33.75 -101.17,90.15 -12.32,54.05 -17.43,108.97 -28.97,162.9 -22.6,105.7 -41.49,212.04 -61.23,317.73 -32.44,173.69 -98.64,486.98 -120.21,643.56l-736.62 -0.05 16.91 -88.47 574.34 0zm1915.29 -1274.7l-5.8 49.09c-1.43,-1.13 -20.61,-5.72 -2.78,-37.69 4.72,-8.45 5.3,-7.61 8.58,-11.4zm0 0l2.69 -10.58 -2.69 10.58zm-7328.07 1314.07c254.93,0.02 493.68,-76.32 673.31,-169.99 182.11,-94.97 321.78,-242.74 416.37,-428.36 91.45,-179.46 141.49,-480.43 70.6,-705.19 -52.12,-165.26 -180.2,-327.52 -311.04,-430.54l-44.34 -34.25c-5.84,-5.3 -3.84,-3.78 -8.07,-8.51l-5.3 -6.94c30.26,10.69 116.62,71.94 142.54,92.37 127.08,100.15 243.74,201.92 322.46,360.26 60.78,122.23 82.29,211.33 80.98,376.37 -1.11,140.69 -30.83,272.27 -75.25,382.27 -255.39,632.47 -1054.98,748.07 -1656.37,609.24 -72.67,-16.78 -303.38,-85.13 -359.97,-135.59 -14.15,-12.61 -9.6,4.16 -7.76,-16.94 33.06,15.8 100.31,35.73 140.33,46.29 230.45,60.82 384.31,69.5 621.51,69.51zm-3379.23 -1801.49l162.59 0.06 -119.19 639.93 -945.11 0.06 -230.52 1210.67 -758.26 -0.56 16.51 -84.22c33.91,-13.71 514.21,-3.82 596.08,-3.8l230.78 -1210.68 945.06 -0.06 102.06 -551.4zm2615.08 -216.36l0 0zm0 0c-46.17,-24.55 -21.1,-26.75 -86.22,-41.34 -42.32,-9.48 -55.79,-6.21 -70.83,-22.35 -8.67,-9.29 -35.35,-59.74 -81.52,-80.51 -99.97,-44.97 -489.19,-23.14 -613.76,-23.14 0.55,-24.59 9.25,-39.39 9.8,-63.98l827.83 0c0,77.43 -4.42,97.3 6.86,175.2 3.04,20.92 7.84,34.68 7.84,56.12zm2650.05 2140.89c4.85,18.25 4.95,6.36 9.8,24.61l-1116.84 0c3.86,-3.38 2.12,-2.48 8.69,-6.03 33.72,-18.2 64.01,-24.79 115.84,-55.87 15.31,-9.19 26.38,-13.68 41.13,-22.66 53.99,-32.89 100.87,-66.4 149.95,-105.26 55.98,-44.31 82.37,-68.75 128.97,-121.43 45.56,-51.51 73.04,-84.77 111.91,-143.48 90.63,-136.91 140.12,-284.3 171.31,-457.84 20.23,-112.52 27.19,-235.6 10.44,-350.86 -13.19,-90.79 -46.5,-209.36 -86.64,-291.91 -35.18,-72.33 -102.61,-163.97 -153.41,-224.83 -11.05,-13.24 -19.66,-18.6 -30.78,-33.06 -55.46,-72.14 -239.82,-207.36 -313.54,-255.87 -71.65,-47.15 -359.61,-219.09 -359.61,-278.5 0,-60.54 163.96,-78.75 220.43,-78.75 129.29,0 263.15,22.32 377.16,73.85 16,7.23 28.57,13.75 47.48,21.2 105.01,41.34 207.38,10.73 256.45,-85 7.01,-13.67 32.67,-81.58 34.08,-98.64 11.27,3.03 59.22,34.45 132.26,34.45 7.54,32.51 36.59,57.72 61.56,75.96 19.12,13.96 18.58,17.16 45.65,23.04 144.01,31.31 175.26,14.2 333.65,14.2 -1.89,22.78 -10.33,52 -14.04,74.48l-44.28 236.04c-20.41,103.39 -38.44,207.92 -58.87,309.98 -96.97,484.59 -180.78,995.24 -278.37,1477.31 -6.3,31.11 -12.58,48.51 -5.41,76.49 5.65,22.02 9.6,51.95 21.63,72.12 5.46,9.16 11.86,17.99 18.09,26.12 36.91,48.17 104.47,70.14 165.31,70.14zm-4918.03 -1944.03l-4.9 0c0,-66.55 -48.64,-130.85 -100.01,-150.51 -19.83,-7.59 -50.92,-11.99 -71.59,-16.67 -63.62,-14.41 -17.81,-25.11 -92.84,-78.97 -31.73,-22.78 -86.68,-39.3 -132.33,-39.3l-480.05 0c0,-46.92 23.49,-97.47 24.49,-142.73l842.54 0c28.32,0 72.23,-13.66 97.96,-19.69 -4.87,10.21 -18.92,90.64 -22.42,110.36 -9.4,52.96 -60.85,309.68 -60.85,337.51zm9174.78 -177.18c6.36,-13.32 58.78,-298.12 58.78,-324.82 120.09,0 104.92,-7.59 98.85,39.92 -7.59,59.4 16.89,52.84 -35.15,156.96 -24.1,48.22 -68.5,113.46 -122.48,127.94zm-241.21 -586.65c130.17,-14.83 445.39,-33.43 502.39,70.46 -63.08,-15.33 -92.82,-23.38 -163.8,-28.96 -39.69,-3.12 -144,-4.66 -179.07,2.83 -11.81,7.1 -40.42,176.17 -42.47,186.38 -12.18,60.75 -24.37,123.25 -36.54,184.45 -23.59,118.56 -56.05,251.6 -72.91,369.39l-147.19 -3.34c-3.95,-35.51 57.14,-329.57 68.24,-390.05 23.38,-127.41 54.71,-265.14 71.35,-391.16zm681.29 1083.73c6.26,-14.7 -2.19,-6.88 19.45,-15.85l67.04 -26.1c30,-13.24 58.14,-25.65 86.47,-41.13 107.52,-58.75 212.2,-134.26 286.37,-224.03 40.18,-48.61 74.85,-91.36 105.3,-149.95 54.68,-105.24 111.74,-253.97 114.23,-399.29 4.87,-285.42 -65.51,-301.86 -100.26,-410.49 44.74,18.44 105.77,114.71 131.77,155.28 36.08,56.29 58.78,130.66 75.24,205.11 40.32,182.39 27.87,313.83 -42.42,471.22 -45.05,100.88 -99.18,178.77 -169.59,252.85 -18.95,19.95 -48.6,47.11 -71.99,65.53 -50.91,40.08 -102.77,79.38 -166.41,113.18l-144.29 66.76c-39.82,15.16 -36.63,7.28 -45.13,25.5 9.67,13.06 22.06,17.2 35.24,25.55 39.54,25.08 61.85,46.49 89.54,82.46 109.66,142.41 131.49,348.24 146.85,531.55 21.8,260.31 31.72,578.24 91.56,818.45 -247.2,1.45 -517.45,7.92 -762.91,2.37l-26.77 -82.21 645.73 -5.04c-95.81,-349.37 -59.1,-929.81 -163.45,-1210.71 -21.01,-56.57 -47.3,-106.18 -79.12,-146.94 -57.26,-73.34 -109.55,-84.85 -122.45,-104.07zm1862.28 842.96c-95.41,-21.52 -164.38,-98.21 -196.68,-182.96 -37.9,-99.46 -23.22,-231.21 -10.4,-340.51 12.67,-108.05 37.48,-214.91 57.55,-322 19.69,-105.06 39,-209.65 59.69,-313.69 42.3,-212.71 81.43,-422.79 121.34,-636.05l90.53 -474.85c9.65,-48.89 23.58,-108.31 29.36,-157.65l159.29 0c-14.64,102.23 -38.29,208.77 -56.83,309.32l-171.94 905.28c-38.86,201.86 -74.31,410.04 -114.4,607.82 -24.16,119.18 -68.82,368.66 -26.97,486.45 29.88,84.1 34.15,67.49 59.46,118.84zm-492.97 570.81c41.33,7.95 108.13,49.63 260.49,74.14 285.59,45.95 628.02,10.66 879.31,-99.79 672.5,-295.58 752.18,-1204.46 874.85,-1832.31 74.04,-378.94 135.81,-760.83 214.18,-1140.25l159.8 -0.31c-30.41,198.05 -77.91,408.3 -115.83,606.97l-231.01 1204.72c-110.5,566.38 -283.33,1084.44 -863.08,1289.07 -266.98,94.23 -658.85,108.18 -942.61,16.66 -65.62,-21.17 -126,-51.71 -187,-82.98 -25.13,-12.88 -30.56,-21.72 -49.1,-35.92zm-18601.24 47.95l628.02 -0.08 -229.64 -3046.25 138.38 1.68 236.83 3133.24 -782.59 -1.18 -1.14 -87.41 10.14 0zm14611.14 -3046.55l161.22 1.01 -133.38 678.25 -713.88 -0.03 -464.19 2455.91 -756.12 -0.17 16.32 -88.41 596.32 -0.61 461.88 -2455.27 718.87 -0.43 112.96 -590.25zm-3465.07 1111.56c-21.97,-20.24 -88.49,-62.21 -134.52,-102.28 -40.09,-34.89 -78.32,-68.48 -104.99,-126.13 -29.19,-63.08 -19.51,-133.47 10.91,-190.31 117.1,-218.77 519.08,-167.91 726.97,-107.91 78.38,22.62 108.55,44.03 165.81,64.59 36.41,-101.66 71.26,-207.3 107.53,-309.82 15.51,-43.82 94.76,-287.37 107.89,-305.64 48.1,6.83 109.15,42.73 152.18,59.4l-220.61 641.2c-23.98,-6.06 -59.69,-25.77 -84.07,-35.06 -203.55,-77.63 -489.79,-118.33 -683.07,-32.69 -91.51,40.55 -198.91,159.79 -141.39,300.02 22.47,54.78 66.51,94.81 102.71,127.94 38.33,35.07 115.79,84.97 130.69,101.4 7.67,2.26 17.73,6.05 22.48,13.58l131.8 105.76c165.76,132.21 307.02,304.43 349.39,535.09 43.19,235.08 -26.25,520.92 -151.1,714.37 -199.18,308.62 -603.07,479.25 -970.77,491.45 -188.02,6.24 -365.73,-0.44 -542.8,-35.5 -128.13,-25.36 -353.55,-88.05 -428.73,-157.15l231.85 -626.32c20.59,6.5 54.17,25.78 74.15,35.66 63.93,31.6 166.25,65.86 235.91,82.88 198.2,48.44 543.66,94.94 699.71,-61.86 75.52,-75.88 94.4,-209.84 28.05,-315.09 -89.69,-142.28 -335.98,-255.81 -480.28,-368.8 -109.89,-86.03 -126.92,-98.83 -224.26,-202.77 -251.47,-268.52 -245.96,-662.88 -92.65,-968.66 90.75,-181.01 245.4,-330.73 424.82,-424.98 194.79,-102.33 410.34,-161.11 681.49,-166.35 183.15,-3.53 392.66,17.87 565.01,72.1 81.06,25.51 91.32,37.7 150.6,60.56l-220.56 641.34c-25.59,-6.7 -60.13,-26.28 -87.62,-36.55 -29.18,-10.9 -58.57,-21.08 -91.61,-30.94 -182.36,-54.41 -462.88,-78.07 -616.53,14.93 -121.72,73.67 -167.4,213.55 -90.37,326.17 40.65,59.44 224.34,210.62 265.98,216.37zm1808.54 -432.4l-495.32 -0.04 16.97 -88.46 494.43 0.37 5.23 -24.97 -707.92 -0.21 134.48 -678.98 2178.79 1.02 -129.64 678.17 -717.58 -0.01 -463.29 2455.89 -757.28 -0.22 441.13 -2342.56zm-4313.98 409.74l105.67 -524.66 1014.82 -1.08 112.33 -563.14 162.43 0.75 -129.3 649.04 -1014.59 1.2 -87.67 438.46c28.65,10.19 668.35,2.69 757.66,2.59l-123.63 640.39 -964.27 -0.01 -123.84 639.96 50.84 -1.45 118.09 -613.84 964.35 0.01 107.45 -551.83 162.03 0.06 -123.53 640.3 -964.26 0 -103.15 525.3 874.88 1.42 -124.79 649.58 -1840.92 -0.73 591.6 -3134.35 1781.95 0.89 -129.16 648.85 -1014.7 1.28 -109.03 554.5 48.74 -3.49zm-2296.94 78.26l106.47 -533.2c4.16,-20.94 4.07,-57.71 20.68,-69.72l992.96 -1.04 112.31 -563.18 162.41 0.75 -129.16 649.05 -1000.39 0.79 -101.9 517.95 734.43 2.72 -119.17 639.95 -945.13 0.05 -230.49 1210.67 -758.14 -0.7 591.59 -3134.38 1767.28 0.81 -129.08 648.94 -1000.47 0.88 -123.14 633.54c18.13,0.03 35.58,2.55 48.94,-3.88zm-2366.26 1189.36l445.28 -2356.5 161.11 0.69 -445.11 2356.02 823.39 0.76 -124.05 664.43 -1794.95 -0.7 591.54 -3134.36 758.07 0.8 -466.88 2470.04 51.6 -1.18zm-2150.41 -0.01l445.28 -2356.49 161.1 0.69 -445.12 2356 823.39 0.78 -124.01 664.43 -1794.98 -0.73 591.54 -3134.33 758.08 0.8 -466.89 2470.04 51.61 -1.19zm8386.22 -2302.29c11.84,-51.04 10.64,-76.83 -7.1,-130.67 -12.82,-38.9 -60.53,-85.74 -100.87,-95.52 -29.56,-7.16 -53.03,-14.97 -87.96,-14.97 -26.63,-50.55 -62.54,-89 -119.45,-101.47 -23.71,-5.19 -35.62,-11.73 -61.8,-11.73l-1763.43 0c-73.37,0 -135.53,35.75 -172.67,97.21 -9.62,15.91 -17.86,51.89 -18.37,75.05 -22.56,-6.05 -40.22,-33.54 -65.89,-42.08 -31.33,-10.42 -61.62,-16.98 -95.76,-16.98 -19.04,-36.14 -35.7,-55.34 -67.78,-79.55 -27.07,-20.43 -75.93,-33.65 -113.46,-33.65l-1748.75 0c-50.31,0 -108.09,19.27 -143.35,57.76 -38.01,41.49 -46.14,89.29 -57.08,144.43 -22.48,113.33 -42.23,225.59 -64.54,338.73 -66.81,338.83 -124.3,682.51 -192.61,1022.11l-128.16 678.38c-20.92,112.92 -39.69,230.06 -65.75,342.43 -5.43,-6.28 -0.27,0.07 -6.16,-8.58 -30.18,-44.28 -58.03,-80.84 -113.28,-92.89 -23.75,-5.18 -35.57,-11.73 -61.8,-11.73l-592.71 0c0,-48.9 13.49,-86.76 22.42,-134.96 8.64,-46.68 17.28,-91.7 26.15,-136.14 71.68,-358.82 135.85,-724.57 204.87,-1083.62l76.78 -405.17c13.04,-64.8 76.35,-370.94 76.35,-410.53 0,-42.4 -24.77,-106.15 -60.11,-136.47 -41.3,-35.45 -86.8,-50.55 -145.63,-50.55 -26.62,-50.55 -62.53,-89 -119.44,-101.47 -23.71,-5.19 -35.62,-11.73 -61.8,-11.73l-739.66 0c-21.16,0 -61.58,10.13 -82.15,15.9 -14.89,4.17 -50.09,29.72 -61.21,41.86 -15.11,16.49 -31.75,38.06 -38.08,60.17 -36.15,126.29 -113.6,595.09 -147.13,762.66l-257.2 1360.79c-22.73,113.32 -39.58,229.69 -65.73,342.46l-9.79 0c-7.58,-32.69 -39.34,-60.17 -63.63,-78.79 -26.51,-20.33 -74.46,-34.41 -112.72,-34.41l-592.71 0c0,-49.36 38.56,-220.94 48.58,-271.1 18.28,-91.51 34.83,-179.39 51.46,-273.12l205.01 -1083.48c22.61,-132.87 55.5,-272.93 77.03,-404.92 13.4,-82.09 38.62,-135.82 6.31,-217.97 -4.71,-11.97 -32.55,-48.26 -41.92,-56.3 -41.31,-35.45 -86.81,-50.55 -145.63,-50.55 -26.62,-50.55 -62.54,-89 -119.44,-101.47 -23.72,-5.19 -35.62,-11.73 -61.8,-11.73l-739.67 0c-49.86,0 -96.86,19.1 -133.1,48.37 -40.6,32.78 -49.53,75.67 -60.92,125.81 -23.57,103.75 -39.8,209.84 -60.24,313.52 -72.01,365.21 -134.08,729.27 -207.42,1095.82l-150.62 783.77c-11.45,-49.36 -14.89,-163.85 -19.31,-221.76l-15.27 -230.74c-7.64,-100.14 -22.88,-207 -24.23,-305.4 -0.42,-30.48 -4.01,-41.93 -4.83,-73.9 -0.52,-20.6 -2.63,-20.37 -4.21,-35.14l-48.98 -649.65c-1.4,-13.05 -0.04,-25.45 -1.03,-38.34l-19.01 -226.98c-7.21,-94.4 -10.12,-248.76 -31.6,-337.37 -10.7,-44.18 -30.4,-70.57 -65.18,-96.92 -33.81,-25.62 -82.21,-37.89 -128.84,-37.89 -26.62,-50.55 -62.53,-89 -119.44,-101.47 -23.71,-5.19 -35.62,-11.73 -61.8,-11.73l-945.4 0c-39.82,0 -87.72,14.21 -116.24,35.78 -31.35,23.7 -50.09,46.95 -68.38,83.86 -17.64,35.58 -29.41,69.66 -47.22,105.14 -52.48,104.54 -91.35,213.88 -143.73,318.21 -42.99,85.64 -79.96,176.72 -119.09,264.24 -8.38,18.74 -16.71,36.55 -24.51,54.12 -67.42,151.83 -155.03,329.97 -214.91,478.02 -51.19,126.58 -116.96,246.25 -167.92,372.66l-260.54 579.82c-9.04,19.49 -15.2,34.09 -24.49,54.13 -62.35,134.44 -126.59,294.88 -191.04,423.26 -21.44,42.72 -205.66,443.49 -214.47,483.39 -14.17,64.17 -19.53,78.35 2.75,145.98 4.28,12.97 31.4,49.16 40.59,57.66 40.82,37.75 90.69,52.83 148.25,52.83 5.78,10.97 8.17,14.82 14.69,24.61 -108.35,2.42 -191.04,87.84 -191.04,196.86l0 644.73c0,67.57 42.95,161.12 113.79,180.97 37.95,10.63 77.97,15.89 116.44,15.89 1.08,48.58 66.63,105.22 111.27,114.6 74.12,15.57 131.74,13.37 212.03,13.37l6794.13 0c-20.98,28.76 -57.74,35.44 -76.27,85.77 -16.9,45.93 -23.17,87.07 -11.9,135.7 -43.23,0 -99.57,6.18 -127.25,19.8 -22.4,11.03 -66.68,47.73 -73.59,73.71 -2.86,-3.31 -2.01,-2.13 -6.77,-7.95 -47.54,-58.07 -87.03,-85.97 -171.6,-87.73 -84.54,-1.75 -228.59,-8.92 -323.4,14.78 -23.91,5.98 -29.1,10.75 -45.53,23.16 -70.13,52.96 -79.75,117.55 -79.7,205.39 0.03,47.57 0,95.15 0,142.72 -17.73,-1.48 -38.61,-13.88 -58.11,-20.35 -58.05,-19.27 -138.47,-43.63 -201.5,-43.63 0,-76.68 2.33,-115.4 -15.57,-191.07l-23.55 -50.16c-3.61,-5.08 -7.43,-11.96 -11.73,-17.74 -30.85,-41.36 -94.83,-60.93 -145.09,-60.93 -75.81,0 -286.91,-12.52 -352.57,19.8 -9.93,4.88 -21.37,14.63 -31.7,22.29 -14.08,10.43 -22.55,14.24 -27.2,31.73l-46.84 -41.52c-8.92,-6.63 -8.48,-7.97 -17,-12.46 -60.97,-32.15 -275.5,-19.84 -347.63,-19.84 -28.76,0 -50.36,6.22 -75.63,12.6 -45.02,11.35 -78.86,46.02 -101.98,84.55 -7.67,12.77 -17.91,56.36 -18.33,75.1l-9.79 0c-1.03,-46.37 -23,-95.67 -57.94,-123.88 -37.3,-30.12 -82.44,-48.37 -133.1,-48.37 -97.87,0 -246.88,-11.22 -338.24,14.51 -18.66,5.25 -42.96,23.81 -57.21,36.04 -55.43,47.56 -35.95,76.05 -60.11,126.63 -28.15,-18.95 -69.5,-95.3 -203.81,-139.74 -200,-66.18 -488.09,-56.62 -696.74,-26.84 -19.69,2.81 -43.27,8.52 -60.66,12.88 -34.13,8.56 -59.99,25.33 -81.48,51.02 -15.92,19.02 -29.93,36.75 -35.57,62.69 -3.88,17.81 -11.69,43.44 -13.55,60.22 -6.28,56.83 -0.54,473.22 -0.54,540.83 -3.54,-5.12 -0.32,1.47 -5.22,-9.52l-13.75 -40.32c-6.17,-18.66 -10.66,-32.05 -17.17,-51.66l-107.76 -319.9c-25.8,-77.73 -50.45,-188.75 -98.07,-250.9 -33.93,-44.29 -95.21,-65.94 -149.9,-65.94l-362.49 0c-73.99,0 -127.8,33.99 -166.63,88.5 -16.65,23.38 -26.2,59.68 -35.24,92.56 -26.24,95.46 -62.17,196.04 -91.41,292.04 -10.02,32.87 -19.87,63.29 -30.59,97.22 -4.88,15.43 -10.12,30 -16.02,47.89l-15.87 48.04c-0.35,0.67 -1.14,2.1 -1.82,3.08 0,-149.26 -0.55,-298.62 0.01,-447.88 0.19,-49.72 -5.52,-105.48 -29.97,-137.22 -28.86,-37.48 -51.82,-62.15 -99.28,-72.5 -80.63,-17.58 -120.58,-13.02 -198.65,-11.65l-593.19 -0.26c-79.69,-0.07 -96.98,19.14 -156.58,59.24 -27.81,-38.14 -92.25,-54.14 -137.16,-54.14l-661.29 0c-51.43,0 -104.63,18.73 -140.96,55.24 -11.35,11.4 -35.1,44.51 -39.15,59.09 -5.74,20.67 -15.82,61.27 -15.82,82.53l0 974.48c0,23.25 10.13,60.1 16.55,81.8 21.74,73.55 107.53,115.06 179.38,115.06 104.64,0 243.55,11.63 341.77,-15.89 70.85,-19.85 113.79,-113.4 113.79,-180.97l0 -575.83 186.2 0.07c26.16,0.16 33.7,0.14 53.94,-4.87 15.56,-3.86 35.59,-9.56 53.77,-9.96 0,52.5 6.42,130.23 -9.37,177.61 -12.87,38.59 -31.93,30.39 -71.95,40.91 -16.9,4.44 -23.12,10.05 -34.93,19.04 -35.32,26.89 -62.43,53.66 -72.08,99.83 -9.57,45.79 -15.05,41.75 -8.54,91.69 11.54,88.5 13.11,250.06 78.07,315.32 31.68,31.83 68.97,42.83 114.18,52.61 98.9,21.4 315.07,-36.48 395.18,-94.54l63.86 -49.03c11.25,-11.31 17.93,-19.93 30.52,-28.4 10.37,44.71 23.78,82.65 60.73,111.24 36.22,28.01 81.07,46.25 130.31,46.25l254.72 0c43.33,0 90.73,-18.02 122.46,-39.37 32.78,22.06 76.77,39.37 122.46,39.37 78.93,0 293.46,12.52 362.4,-19.77 54.66,-25.61 85.63,-77.51 100.07,-135.69 6.33,-25.49 10.49,-79.85 32.27,-85.7 12.99,56.04 32.19,123.31 64.32,166.69 35.19,47.52 92.92,74.47 156.11,74.47l284.11 0c56.99,0 93.99,-20.17 137.16,-49.21 53.18,72.93 393.27,59.06 475.15,59.06 137.43,0 335.14,-33.93 439.89,-104.33 41.63,-27.96 83.35,-68.92 103.83,-82.7 9.64,20.19 18.01,134.12 118.4,161.58 22.19,6.07 53.08,15.6 77.54,15.6l259.62 0c98.16,0 188.75,-68.98 191.04,-172.25l9.79 0c2.29,103.21 93.68,172.25 191.04,172.25 87.32,0 269.95,12.21 348.51,-18.97 20.79,-8.25 56.85,-31.84 62.96,-54.85l9.8 0c6.91,25.99 51.46,49.33 77.22,55.3 38.34,8.87 70.43,14.01 116.54,20.71 74,10.77 154.35,6.01 229.62,9.01 10.2,0.41 10.69,-0.5 27.06,-1.18 49.33,-2.06 79.31,-1.14 124.88,-7.8 95.55,-13.98 187.38,-32.19 273.54,-69.68 18.07,-7.86 28.24,-16.61 47.55,-21.13 14.79,28.08 37.18,47.55 63.69,63.98 62,38.43 283.35,24.61 357.58,24.61 49.71,0 106.75,-20.81 140.96,-55.23l30.48 -38.28c3.2,12.02 16.97,29.66 25.59,38.28 34.09,34.09 88.1,55.23 140.96,55.23l318.4 0c24.9,0 36.47,-5.92 57.79,-10.84 27.91,-6.42 30.21,-3.66 52.88,-20.69 57.59,-43.27 52.02,-58.17 70.57,-71.82 8.49,31.95 39.67,53.65 64.95,72.55 61.84,46.19 273.91,30.8 346.52,30.8 71.63,0 158.68,-45.42 179.44,-115.01 6.35,-21.3 16.5,-59.04 16.5,-81.85l0 -964.63c0,-29.48 -8.89,-66.23 -16.5,-91.7 -12.17,-40.7 -45.29,-65.61 -77.74,-89.23 -22.61,-16.46 -59.4,-20.78 -87.82,-25.35 -27.49,-4.42 -19.4,-0.43 -48.17,-0.43 3.89,-46.99 5.57,-54.29 -4.47,-103.78 -17.98,-88.52 -61.06,-83.72 -83.7,-117.69l15165.57 0c85,0 90.47,2.9 167.94,-13.37 24.78,-5.21 27.01,-7.84 43.49,-20.28 51.14,-38.59 82.47,-92.5 82.47,-163.22l0 -644.73c0,-111.06 -85.39,-196.86 -195.93,-196.86l-34.29 0c-0.88,-39.37 -34.77,-69.37 -62.23,-90.05 -29.57,-22.28 -72.46,-36.04 -114.03,-38 -96.51,-4.56 -205.84,0.09 -303.79,0.09 -204.1,0 -408.2,0 -612.31,0l102.63 -54.39c64.56,-37.1 124.96,-84.51 183.57,-130.53 18.13,-14.24 25.36,-24.53 41.27,-37.29 18.38,-14.74 27.09,-22.91 43.69,-39.77 15.03,-15.28 20.67,-26.08 36.67,-41.9 40.35,-39.88 72.34,-89.47 105.77,-134.89 68.1,-92.54 121.73,-200.87 168.96,-307.63 8.85,-20.01 14.52,-35.82 23.72,-54.92 11.06,-22.96 14.6,-25.91 23.05,-55.58 54.16,-190.2 92.91,-303.04 133.21,-505.97 17.48,-88.02 33.13,-177.22 51.44,-268.22l151.06 -803.02c33.51,-180.88 70.73,-356.08 100.14,-534.28 8.86,-53.71 51.07,-230.35 48.28,-269.12 -4.84,-67.36 -41.31,-140.1 -104.88,-169.77 -48.13,-22.46 -31.75,1.27 -70.73,-51.98 -24.65,-33.67 -55.45,-50.66 -96.34,-60.69 -20.06,-4.92 -43.94,-13.76 -69.58,-13.76l-690.68 0c-42.1,0 -94.56,14.91 -124.61,37.22 -27.64,20.52 -32.53,26.96 -53.29,54.73 -22.72,30.39 -26.09,88.44 -38.22,124.01 -23.76,69.67 -202,976.13 -221.94,1076.32 -24.19,121.58 -47.34,238.49 -73.33,359.42l-71.12 361.64c-12.3,61.8 -24.33,116.61 -36.73,179.65 -20.59,104.73 -65.17,178.68 -110.52,267.92 -16.96,33.36 -48.06,62.05 -74.66,87.4 -24.7,23.53 -67.52,25.69 -106.69,25.69 -50.26,0 -22.46,-216.44 -21,-227.81 3.88,-30.09 3.85,-46.3 9.13,-74.5l182.9 -928.5c10.6,-53.23 38.62,-158.9 39.76,-211.06 3.21,-146.34 129.58,-646.05 147.07,-831.63 3.25,-34.42 24.22,-75.58 24.22,-108.56 0,-49.92 -22.15,-113.6 -63.55,-142.86 -4.3,-3.04 -10.18,-6.5 -14.76,-9.78 -36.25,-26.03 -96.24,-39.3 -142.12,-39.3l-818.04 0c-58.58,0 -115.12,19.08 -157.6,53.29 -45.38,36.55 -53.8,90.02 -64.89,146.43l-61.98 306.84c-3.63,19.53 -1.07,29.97 -14.34,39.74 -3.9,-16.83 -8.05,-17.72 -14.42,-29.81 -20.23,-38.42 -11.96,-38.64 -46.52,-91.06 -12.01,-18.22 -25.06,-33.61 -37.69,-50.72l-83.74 -97.97c-51.46,-52.41 -117.61,-103.03 -184.04,-134.98l-89.06 -48.33c-38.78,-19.47 -94.43,-32.12 -137.23,-44.22 -97.02,-27.44 -194.17,-49.21 -318.41,-49.21l-1459.73 0c-50.96,0 -111.23,22.47 -147.83,53.26 -42.04,35.38 -56.24,85.3 -68.73,137.65 -13.26,55.56 -19.78,116.78 -29.75,176.81l-194.47 1192.51c-2.94,17.65 -7.16,29.24 -9.13,44.96l-73.82 442.61c-5.76,28.73 -8.7,63.08 -13.79,89.49 -5.73,29.74 -9.55,59.76 -16.06,87.22 -6.27,26.48 -8.84,62.17 -14.23,89.05l-30.51 176.06c-8.37,51.18 -27.54,126.45 -28.68,177.89l-26.54 -47.17c-42.38,-72.22 -95.37,-132.74 -162.42,-181.31 -37.33,-27.05 -75.13,-53.8 -122.65,-68.73 -20.6,-6.47 -39.02,-8.53 -59.97,-13.56 -27.73,-6.65 -26.6,-15.73 -44.49,-34.05 -34.37,-35.19 -94.08,-70.98 -141.7,-84.02 -116.69,-31.97 -239.6,-46.85 -360.19,-16.07 -81.95,20.93 -148.27,40.95 -218.25,85.87 -28.17,18.08 -58.25,43.73 -86.36,65.8 -47.22,37.07 -103.21,112.36 -134.59,164.98 -82.47,138.29 -110.28,329.94 -72.17,491.43 9.84,41.68 17,81.8 33.35,119.07 17.54,39.98 29.73,63.53 52.19,100.13 41.55,67.73 86.61,110.2 147.79,156.64 24.68,18.74 52.43,21.41 82.4,30.42 27.92,8.39 37.31,36.34 54.76,58.17 12.68,15.88 31.39,26.84 39.96,38.6l-641.69 0c4.59,-17.29 4.91,-7.85 11.61,-27.71 25.65,-76.02 35.66,-177.31 51.61,-258.21 68.09,-345.31 127.88,-693.71 195.94,-1038.45l182.98 -967.81c3.54,-18.46 11.8,-55.68 13.41,-75.11l538.95 0.12c200.91,1.07 208.87,-144.1 237.84,-307.34 9.46,-53.36 104.93,-523.93 104.93,-554.06 0,-66.07 -34.74,-122.7 -85.26,-160.41 -32.6,-24.35 -77.6,-31.53 -120.47,-31.53 -26.63,-50.55 -62.54,-89 -119.45,-101.47 -23.71,-5.19 -35.61,-11.73 -61.8,-11.73l-2160.21 0c-72.62,0 -161.8,47.66 -183.21,116.14 -4.01,12.84 -5.4,26.93 -8.78,40.39 -3.41,13.58 -8.44,26.9 -8.84,45.26 -14.64,-7.79 -31.38,-13.77 -48.32,-20.36 -28.44,-11.05 -22.76,-4.42 -41.44,-27.27 -52.17,-63.83 -205.93,-110.12 -283.76,-128.31 -292.64,-68.39 -606.15,-93.67 -903.81,-29.6l-142.22 34.29c-174.5,47.99 -393.56,154 -528.87,280.69 -18.77,17.58 -28.66,28.67 -50.15,43.13z"/>
  <polygon class="fil2" points="3856.47,12311.42 26741.97,12311.42 26741.97,11647.01 3856.47,11647.01 "/>
  <path class="fil1" d="M22450.94 13024.98l372.28 -0.03c13.66,6.45 11.1,9.22 16.93,27.34l72.51 217.74c31.84,94.32 244.15,707.37 249.11,748.01l-304.04 0.7 -73.47 -243.06 -290 0.17 -63.22 243.37 -290.56 -0.43 310.46 -993.81zm2003.46 570.98c-10.38,0.15 -1.34,0.56 -1.63,-6.16 -0.4,-9.25 -9.26,-5.35 0.59,-4.32 1.16,0.12 15.72,10.27 1.04,10.48zm-8615.11 -610.27l262.72 0.47 0.07 88.11c189.55,24.24 353.16,88.97 421.79,260.76 71.46,178.85 37.74,385.58 -100.76,514.09 -81.06,75.22 -187.44,106.18 -325.02,126.15l-0.52 92.62 -259.46 -0.01 -0.2 -92.82c-269.62,-23.15 -463.4,-163.78 -456.89,-452.93 3.32,-147.3 58.47,-245.15 135.97,-317.38 78.01,-72.71 186.01,-111.06 322.85,-129.94l-0.55 -89.12zm8923.12 565.86c-69.35,-23.01 -85.05,-19.15 -138.84,-61.76 -102.68,-81.34 -113.94,-290.78 39.16,-398.13 140.53,-98.53 485.96,-86.83 688.35,-54.73l-0.11 981.74 -270.09 -0.01c-5.28,-83.02 -0.84,-180.6 -0.84,-265.21 0,-23.07 -0.16,-46.16 0.25,-69.22 0.57,-32.37 6.75,-37.63 -22.88,-38.38 -40.68,-1.02 -78.92,6.08 -107.13,25.13 -53.48,36.13 -80.37,91.13 -106.4,158.93l-75.71 189.35 -293.16 -1.07c48.49,-83.77 70.24,-170.1 110.61,-265.62 75.6,-178.92 157.14,-171.19 176.79,-201.02zm-4853.21 -526.47l255.53 -0.06 -5.84 732.76c13.21,-8.96 80.33,-157.95 93.9,-185.29 77.32,-155.72 167.64,-310.14 241.23,-456.28 14.37,-28.52 35.63,-60.4 46.7,-91.19 44.2,-0.04 258.37,-4.43 296.21,2.4l0.17 990.52 -254.14 0.73 1.77 -477.07c1.29,-49.22 18.6,-166.87 12.78,-204.49l-79.29 182.53c-26,58.92 -57.44,119.05 -87.3,172.87l-141.7 251.34c-15.8,27.71 -35.69,75.36 -52.37,75.37 -60.06,0.03 -283.97,3.27 -326.34,-1.75l-1.23 -579 -0.08 -413.39zm1221.9 984.72c-6.67,-54.12 -1.78,-787.52 -2.2,-910.93 -0.2,-59.01 -7.07,-57.8 14.59,-63.51l205.4 -15.96c192.24,-8.17 391.31,-13.27 512.56,86.36 85.03,69.87 130.01,286.98 -97.34,366.55 4.23,3.93 1.7,2.53 9.17,6.92 5.01,2.93 4.69,2.55 10.35,4.78 5.79,2.28 12.69,4.01 18.34,6.12 12.82,4.79 23.03,9.63 33.62,15.42 181.09,99.06 162.55,341.29 1.55,443.18 -89.47,56.63 -196.12,67.77 -322.91,78.97 -36.39,3.22 -334.9,5.34 -383.13,-17.9zm-2297.04 -979.86l839.57 -0.17 -0.5 226.04 -283.72 0.2 -0.52 767.48 -274.36 0.65 -0.76 -766.73 -279.23 -1.04 -0.52 -201.78 0.04 -24.65zm-2020.68 0.06l704.83 -0.12 0 221.66 -426.79 0.12 -0.48 154.11 401.48 -0.04 -0.44 222.81 -401.06 0.78 2.96 171.54c42.77,-0.1 420.5,-7.36 446.44,3.36l-0.46 219.15c-107.1,0.23 -661.84,5.3 -725.44,-0.96l-1.04 -992.41zm6698.05 -4.97l751.97 -0.19 -1.05 993.59 -273.48 0.24 -1.45 -771.87 -202.86 1.26c-9.74,195.71 28.68,457.03 -82.86,630.27 -70.81,109.99 -191.28,151.26 -364.6,157.02 -4.99,-38.1 -10.11,-76 -14.79,-114.26 -21.37,-174.78 -19.63,-63.53 92.83,-143.62 28.71,-20.45 43.61,-40.71 60.42,-77.55 45.12,-98.94 39,-301.59 35.87,-423.86l0 -251.03zm2171.31 0.01l395.39 -0.08c27.81,98.34 54.92,206.12 79.81,306.46l69.69 312.62 44.52 -155.99c27.81,-106.75 55.46,-209.32 90,-313.21 16.18,-48.68 34.66,-101.96 46.65,-150l385.89 0.1 44.24 993.16 -272.16 -0.03c-6.87,-75.26 -14.87,-505.08 -15.79,-604.21 -0.62,-66.37 2.17,-135.28 -0.6,-201.23l-213.38 719.53c-23.06,77.49 -2.06,64.99 -89.77,64.95 -47.7,-0.02 -101.89,2.4 -148.78,-0.67l-179.42 -779.37c-2.17,3.62 -0.39,-5.83 -3.65,10.65 -1.01,5.12 -1.11,8.26 -1.37,13.47 -0.36,7.36 0.1,17.34 0.14,24.98 0.08,18.61 -0.51,35.25 -1.8,53.8 -2.32,33.3 -2.85,65.04 -3.08,98.82 -0.41,62.37 -2.81,139.51 -6.96,201.97 -8.67,130.33 -6.1,264.34 -15.76,395.35 -21.77,6.52 -230.87,5.77 -259.33,1.28l55.52 -992.35zm-7061.83 969.86c-344.12,120.81 -875.88,29 -858.61,-482.66 7.4,-219.24 133.18,-360.44 280.83,-432.51 183.18,-89.4 402.93,-86.79 594.74,-20.04l-57.56 215.46c-98.91,-43.73 -254.49,-54.97 -361.2,-13.54 -256.6,99.6 -240.54,575.26 180.83,552.12 119.12,-6.54 100.46,-16.21 180.14,-30.99l40.83 212.16zm-3429.46 -462.92c0,77.45 16.88,156.33 38.51,227.07 39.84,130.27 131.47,227.72 241.61,298.63 37.49,24.15 139.43,73.49 195.03,74.73 2.73,32.99 42.41,70.19 65,87.27 21.02,15.9 19.59,16.71 50.38,23.2 24.63,5.2 39.21,12.57 65.86,12.57l240.03 0c56.23,0 122.06,-26.45 154.79,-70.86 14.19,-19.25 25.88,-26.42 26.45,-52.18 112.25,-26.27 206.93,-73.49 287.84,-148.81 26.59,-24.75 46.68,-50.92 69.74,-77.58 0,108.06 -11.18,216.56 93.89,279.72 16.09,9.67 76.94,25.42 102.05,25.42l705.38 0c80.81,0 169.89,-47.5 187.5,-131.52 7.57,-36.13 13.33,-45.58 13.33,-94.87 10.5,7.72 12.41,14.52 23.19,25.91 8.74,9.23 17.67,18.72 27.24,26.77 11.38,9.57 18.11,15.03 29.39,24.61 118.6,100.7 275.56,142.61 430.9,162.58 61.71,7.94 124.84,4.34 189.75,1.28 78.73,-3.71 172.84,-26 244.41,-49.74 46.84,-15.53 82.73,-49.91 108.49,-87.86 16.16,-23.83 29.27,-81.29 24.55,-113.27l-41.4 -204.88c-6.49,-25.65 -9.85,-58.02 -21.32,-77 -9.62,-15.92 -30.67,-42.93 -44.46,-53.77 -8.65,-6.79 -19.03,-13.81 -28.66,-20.41 -14.74,-10.11 -17.58,-9.2 -36.19,-12.86 -33.24,-6.52 -45.65,-15.83 -76.69,-9.22 -96.44,20.52 -319.76,89.7 -319.76,-84.62 0,-111.27 176.82,-99.22 244.16,-73.05 64.35,25 107.63,29.23 174.9,6.86 18.97,-6.31 44.97,-31.3 60.99,-42.08 18.55,4.97 9.77,5.34 24.6,14.65 13.92,8.72 13.62,7.27 32.82,11.32 65.45,13.82 80,13.4 148.31,13.4l0 556.14c0,23.95 10.57,63.12 16.45,86.82 10.46,42.12 57.56,94.24 98.42,107.83 87.09,28.97 247.09,16.98 340.69,16.98 50.01,0 104.71,-18.81 140.96,-55.24 36.33,-36.5 54.98,-89.95 54.98,-141.62l0 -570.91 88.17 0c28.07,0 35.03,-7.86 58.78,-9.84 0,71.79 -6.4,553.27 1.87,598.55 8.84,48.38 21.53,92.08 58.24,123.59 35.84,30.77 84.17,50.55 135.83,50.55l318.4 0c34.17,0 85.11,-12.34 110.66,-31.54 57.6,-43.26 52.03,-58.16 70.58,-71.82 8.49,31.96 39.66,53.66 64.95,72.55 61.68,46.08 266.77,30.81 336.72,30.81 26.99,0 80.35,-11.7 98.68,-18.97 20.8,-8.26 56.85,-31.84 62.97,-54.86l9.79 0c15.57,58.59 179.87,78.16 225.3,78.78 30.46,0.41 38.57,5.02 68.44,5.06l137.09 1.9c110.28,-1.3 235.99,-13.26 336.26,-38.49 45.89,-11.55 76.25,-18.73 116.07,-35.96 35.32,-15.28 65.89,-39.89 96.53,-60.5 0.58,26.21 10.85,30.06 24.42,49.29 32.85,46.55 98.73,73.75 156.82,73.75 78.93,0 293.47,12.52 362.4,-19.77 73.18,-34.28 94.61,-109.16 111.71,-183.06 5.57,-24.09 1.1,-33.09 20.64,-38.33 12.99,56.03 32.18,123.3 64.32,166.69 14.42,19.48 37.53,40.89 59.92,52.99 63.65,34.39 304.51,21.48 380.3,21.48 34.96,0 52.27,-14.77 83.27,-14.77l32.34 16.72c13.73,4.23 24.7,6.5 39.17,9.86 104.86,24.38 308,-30.82 392.37,-82.19 21.53,-13.11 36,-26.06 57.39,-40.77 22.35,-15.36 31.74,-32.81 51.85,-46.34 10.36,44.71 23.77,82.65 60.73,111.23 36.22,28.02 81.07,46.26 130.31,46.26l254.71 0c41.14,0 86.56,-17.97 117.57,-34.45 23.99,20.95 76.85,34.45 112.66,34.45 74.41,0 316.86,14.09 376.51,-25.29 10.22,-6.75 26.87,-19.18 36.22,-27.58 13.19,-11.85 15.12,-26 33.03,-30.8 6.64,25 40.87,47.29 62.46,60.29 60.68,36.53 276.56,23.38 349.01,23.38 37.86,0 86.64,-13.29 116.21,-35.81l30.74 -23.25c49.26,33.14 75.18,59.06 146.95,59.06l240.03 0c26.09,0 38.16,-6.52 61.79,-11.74 85.32,-18.88 30.29,-40.8 107.62,-20.71 81.1,21.07 168.17,12.76 251.85,12.76 47.58,0 97.2,-15.78 132.26,-39.37 16.02,10.78 42.02,35.77 60.99,42.08 87.09,28.96 247.08,16.98 340.68,16.98 24.12,0 55.6,-9.5 78.17,-14.97 15.38,-3.73 20.37,-7.5 32.51,-16.56 98.36,-73.43 89.83,-167.01 80.62,-278.79 -1.64,-19.86 0.19,-43.61 -0.06,-63.92 -0.34,-27.34 -4.96,-31.33 -5.29,-58.67 -1.05,-87.07 -9.34,-164.64 -9.43,-251.36 -0.04,-28.47 -4.48,-33.53 -5.23,-58.73 -1.83,-61.63 1.84,-126.79 -7.57,-189.26 -3.1,-20.59 -2.07,-40.48 -1.96,-62.02l-10.11 -186.7c-7.48,-107.46 -83.15,-186.48 -195.52,-187.44 -78.97,-0.67 -341.73,-7.37 -383.75,-0.73 -47.44,7.5 -98.04,24.27 -129.47,61.34 -10.75,12.67 -18.57,29.09 -30.72,38.04 -28.81,-43.22 -60.22,-77.62 -113.03,-88.22 -21.8,-4.38 -33.96,-10.22 -58.41,-10.22l-382.08 0c-49.86,0 -115.18,20.9 -145.09,60.94 -10.02,13.41 -22.19,26.73 -26.36,42.42 -18.97,-5.09 -16.63,-26.3 -71.94,-65.53 -29.56,-20.96 -70.66,-24.42 -108.39,-28.9 -162.58,-19.29 -362.75,-33.86 -528.65,-2.71 -116.15,21.81 -228.77,57.13 -313.62,142.61 -16.19,16.31 -26.57,35.47 -45.26,48.04 0,-38.92 -8.87,-85.26 -29.95,-112.63 -41.77,-54.25 -90.35,-84.24 -161.09,-84.24l-739.66 0c-62.46,0 -123.48,27.2 -157.77,77.73 -50.19,73.96 -38.17,183.58 -38.17,271.71 0,63.08 11.18,379.05 -15.09,427.78 -12.08,22.39 -46.98,23.82 -73.08,29.93 -2.13,-25.66 -65.57,-200.07 -75.33,-229.46l-152.91 -456.65c-12.49,-36.57 -39.17,-64.25 -66.99,-85.26 -29.23,-22.07 -77.75,-35.78 -116.24,-35.78l-362.48 0c-74,0 -127.81,34 -166.64,88.51 -15.47,21.72 -26.9,60.88 -35.97,91.82l-139.7 445.3c-6.36,20.3 -5.72,37.99 -20.18,48.63 -4.4,-16.54 -20.31,-35.59 -29.39,-49.21 10.7,-40.28 48.99,-93.2 48.99,-196.87 0,-67.14 -26.41,-160.37 -52.87,-202.81 -35.98,-57.71 -69.56,-93.58 -123.49,-131.84 -29.11,-20.65 -45.39,-30.25 -81.82,-45.76 -180.29,-76.74 -605.69,-74.18 -794.16,-22.32 -25.72,7.07 -47.07,23.21 -66.54,41.41l-12.66 11.89c-26.72,-50.72 -86.03,-72.13 -142.66,-78.14 -43.63,-4.64 -135.47,-2.83 -184.81,-2.11 -156.66,2.3 -221.6,-7.69 -302.69,136.14l-11.54 17.93c-2,-24.13 -8.91,-46.31 -20.81,-62.75 -12.42,-17.15 -21.26,-33.95 -37.83,-45.66 -17.7,-12.51 -30.1,-25.04 -52.77,-30.65 -98.84,-24.44 -212.73,-13.51 -314.75,-13.51 -59.16,0 -91.32,20.05 -127.36,44.3 -14.18,-7.54 -19.59,-14.46 -29.54,-19.55 -62.57,-31.96 -244.92,-19.82 -313.35,-19.82l-587.88 -0.07c-107.64,-0.68 -135.91,42.84 -150.37,42.05l-73.87 -23.33c-98.26,-23.07 -193.92,-38.34 -299.83,-38.34 -125.96,0 -287.36,44.51 -375.58,85.27 -49.81,23.02 -97.88,55.94 -139.92,90.73 -32.79,27.13 -63.17,53.81 -89.14,87.62 -7.47,9.73 -19.69,26.1 -27.26,31.68 0,-105.16 -2.13,-200.26 -99.81,-254.08 -17.87,-9.84 -73.99,-21.53 -101.02,-21.53l-680.89 0c-73.56,0 -165.65,47.97 -181.85,122.42 -16.25,74.68 -14.09,91.78 -14.09,172.87 -69.73,-80.6 -144.34,-147.67 -247.66,-189.18 -135.01,-54.24 -66.7,6.46 -136.36,-84.47 -10.41,-13.58 -44.29,-40.84 -60.3,-47.69 -71.05,-30.39 -250.16,-18.25 -329.63,-18.25 -73.37,0 -131.53,30.69 -171.47,88.56 -21.82,31.61 -4.45,29.32 -47.83,40.53 -62.18,16.06 -123.24,49.71 -174.57,85.45l-50.65 37.71c-64.48,58.36 -113.56,116.96 -153.11,195.6 -30.83,61.3 -63.66,193.36 -63.66,285.47z"/>
  <path class="fil3" d="M5595.01 8831.86l10.69 467.58 18.6 679.14 -279.93 -0.72 -180 0.75 -55.15 0c10.89,-41.19 226.21,-584.87 246.1,-634.99 74.43,-187.55 133.53,-390.08 203.01,-568.67 18.49,-47.53 15.93,-66.42 37.24,-71.08l-0.56 127.99zm-645.2 1740.35l686.24 1.97 3.4 83.61 16.47 589.26 781.44 1.31 -236.62 -3133.26 -962.92 -1.83 -1410.59 3134.49 790.37 0.61 286.88 -703.6 732.72 -0.07 1.93 25.63 -689.32 1.88z"/>
  <path class="fil3" d="M14417.09 10597.37l-160.98 0 -50.84 1.45 123.84 -639.96 964.27 0.01 123.63 -640.39c-89.31,0.1 -729.01,7.6 -757.66,-2.59l-163.69 -0.57 -48.74 3.49 109.03 -554.5 1014.7 -1.28 129.16 -648.85 -1781.95 -0.89 -591.6 3134.35 1840.92 0.73 124.79 -649.58 -874.88 -1.42z"/>
  <path class="fil3" d="M17137.14 9422.69l-136.04 -84.71c-41.64,-5.75 -225.33,-156.93 -265.98,-216.37 -77.03,-112.62 -31.35,-252.5 90.37,-326.17 153.65,-93 434.17,-69.34 616.53,-14.93 33.04,9.86 62.43,20.04 91.61,30.94 27.49,10.27 62.03,29.85 87.62,36.55l220.56 -641.34c-59.28,-22.86 -69.54,-35.05 -150.6,-60.56 -172.35,-54.23 -381.86,-75.63 -565.01,-72.1 -271.15,5.24 -486.7,64.02 -681.49,166.35 -179.42,94.25 -334.07,243.97 -424.82,424.98 -153.31,305.78 -158.82,700.14 92.65,968.66 97.34,103.94 114.37,116.74 224.26,202.77 144.3,112.99 390.59,226.52 480.28,368.8 66.35,105.25 47.47,239.21 -28.05,315.09 -156.05,156.8 -501.51,110.3 -699.71,61.86 -69.66,-17.02 -171.98,-51.28 -235.91,-82.88 -19.98,-9.88 -53.56,-29.16 -74.15,-35.66l-231.85 626.32c75.18,69.1 300.6,131.79 428.73,157.15 177.07,35.06 354.78,41.74 542.8,35.5 367.7,-12.2 771.59,-182.83 970.77,-491.45 124.85,-193.45 194.29,-479.29 151.1,-714.37 -42.37,-230.66 -183.63,-402.88 -349.39,-535.09l-131.8 -105.76c-4.75,-7.53 -14.81,-11.32 -22.48,-13.58z"/>
  <path class="fil3" d="M12362.1 9394.98l-163.38 -1.4c-13.36,6.43 -30.81,3.91 -48.94,3.88l123.14 -633.54 1000.47 -0.88 129.08 -648.94 -1767.28 -0.81 -591.59 3134.38 758.14 0.7 230.49 -1210.67 945.13 -0.05 119.17 -639.95 -734.43 -2.72z"/>
  <polygon class="fil3" points="18825.72,8817.45 18809.64,8905.58 18368.51,11248.14 19125.79,11248.36 19589.08,8792.47 20306.66,8792.48 20436.3,8114.31 18257.51,8113.29 18123.03,8792.27 18830.95,8792.48 "/>
  <polygon class="fil3" points="7843.31,10583.13 7682.05,10582.93 7630.44,10584.12 8097.33,8114.08 7339.25,8113.28 6747.71,11247.61 8542.69,11248.34 8666.7,10583.91 "/>
  <polygon class="fil3" points="9993.74,10583.15 9832.46,10582.94 9780.86,10584.12 10247.74,8114.08 9489.67,8113.28 8898.13,11247.64 10693.08,11248.34 10817.13,10583.91 "/>
  <polygon class="fil4" points="26790.96,12350.8 4072,12350.8 4072,12439.39 26957.5,12439.39 26957.5,11774.97 26790.96,11774.97 "/>
  <path class="fil1" d="M14180.08 13014.32c163.9,-13.19 307.63,36.46 400.88,112.4 97.43,79.34 155.16,184.84 172.18,354.18 19.35,192.56 -66.55,354.55 -197.46,455.66 -185.27,143.1 -524.68,137.19 -701.72,-10.67 -292.89,-244.59 -237.06,-866.23 326.12,-911.57zm-1662.61 15.7l906.53 -0.24c0.16,140.31 5.74,938.4 -0.88,993.21l-274.27 0.58 -0.41 -771.98 -352.98 0.03c-5.57,229.63 0.01,532.93 0.09,772.07l-277.04 -1.32 -1.04 -992.35zm1096.68 93.47c0,-48.52 2.69,-79.35 -7.8,-120.13 -14.84,-57.69 -20.11,-87.66 -72.51,-124.01 -39.25,-27.22 -71.5,-34.2 -124.63,-37.36l-696.37 0.97c-88.61,0 -206.94,-7.54 -272.24,16.84 -67.77,25.3 -109.84,109.54 -109.84,180.02l0 974.48c0,32.97 14,87.88 33.44,114.05 38.91,52.39 94,82.81 162.5,82.81l259.62 0c41.28,0 89.19,-15.44 119.02,-37.91 27.49,-20.7 62.22,-55.84 62.22,-94.97l9.8 0c0,48.83 61.61,108.96 115.38,120.31 24.63,5.2 39.2,12.57 65.86,12.57 77.29,0 290.96,10.95 350.87,-21.51 9.29,-5.03 26.28,-17.39 34.87,-24.02l15.58 -13.88c52.48,-56.07 54.23,-132.89 54.23,-211.28l4.47 5.36c2.73,3.55 3.59,4.71 6.28,8.45 4.9,6.8 7.16,10.17 12.31,17.17 8.9,12.1 14.26,19.02 24.67,29.34 58.19,57.65 99.83,102.46 184.07,144.81 55.08,27.68 95.34,42.47 163.76,56.94 190.97,40.38 296.35,39.87 495.4,-26.39 71.92,-23.95 163.86,-84.42 222.18,-136.05 68.85,-60.96 150.6,-185.59 174.24,-272.81 43.77,-161.49 55.3,-253.09 18.56,-415.45 -10.88,-48.1 -20.22,-93.42 -38.81,-133.26 -45.77,-98.09 -107.96,-178.67 -188.69,-243.53 -131.44,-105.61 -312.19,-151.78 -480.82,-151.78 -96.96,0 -272.01,37.99 -359.17,87 -36.83,20.71 -103.11,64.62 -131.94,93.83l-93.17 103.26c-4.87,6.3 -8.98,11.09 -13.34,16.13z"/>
  <path class="fil4" d="M25627.22 14017.39c28.46,4.49 237.56,5.24 259.33,-1.28 9.66,-131.01 7.09,-265.02 15.76,-395.35 4.15,-62.46 6.55,-139.6 6.96,-201.97 0.23,-33.78 0.76,-65.52 3.08,-98.82 1.29,-18.55 1.88,-35.19 1.8,-53.8 -0.04,-7.64 -0.5,-17.62 -0.14,-24.98 0.26,-5.21 0.36,-8.35 1.37,-13.47 3.26,-16.48 1.48,-7.03 3.65,-10.65l179.42 779.37c46.89,3.07 101.08,0.65 148.78,0.67 87.71,0.04 66.71,12.54 89.77,-64.95l213.38 -719.53c2.77,65.95 -0.02,134.86 0.6,201.23 0.92,99.13 8.92,528.95 15.79,604.21l272.16 0.03 -44.24 -993.16 -385.89 -0.1c-11.99,48.04 -30.47,101.32 -46.65,150 -34.54,103.89 -62.19,206.46 -90,313.21l-44.52 155.99 -69.69 -312.62c-24.89,-100.34 -52,-208.12 -79.81,-306.46l-395.39 0.08 -55.52 992.35z"/>
  <path class="fil4" d="M16100 13263.64c49.93,-5.62 114.27,52.3 134.44,81.6 62.49,90.79 62.42,260.6 0.62,354.33 -18.83,28.55 -84.22,91.45 -135.01,81.44l-0.05 -517.37zm-261.93 521.08c-240.3,-36.02 -240.88,-492.32 -0.01,-523.27l0.01 523.27zm1.77 -709.91c-136.84,18.88 -244.84,57.23 -322.85,129.94 -77.5,72.23 -132.65,170.08 -135.97,317.38 -6.51,289.15 187.27,429.78 456.89,452.93l0.2 92.82 259.46 0.01 0.52 -92.62c137.58,-19.97 243.96,-50.93 325.02,-126.15 138.5,-128.51 172.22,-335.24 100.76,-514.09 -68.63,-171.79 -232.24,-236.52 -421.79,-260.76l-0.07 -88.11 -262.72 -0.47 0.55 89.12z"/>
  <path class="fil4" d="M10887.31 14027.31l326.61 1.75c16.72,-0.01 36.51,-47.56 52.38,-75.36 16.66,-29.19 31.91,-55.16 48.1,-84.43 30.71,-55.54 61.88,-109.65 93.6,-166.91 54.76,-98.85 83.48,-163.47 127.86,-265.23 10.51,-24.08 25.73,-71.33 38.63,-90.08 4.61,27.82 -9.12,148.48 -11.79,185.77 -5.8,81.05 -3,405.55 -2.67,495.7l254.2 -0.73c4.55,-65.08 0.55,-675.27 0.46,-736.97l-0.78 -253.58c-37.89,-6.8 -251.85,-2.41 -296.11,-2.38 -10.99,30.67 -32.39,62.73 -46.71,91.18 -73.57,146.09 -163.64,300.41 -241.22,456.3 -13.65,27.43 -80.66,176.31 -93.92,185.3l5.85 -732.78 -255.54 0.06 1.05 992.39z"/>
  <path class="fil4" d="M19909.28 13438.47l1.23 579c42.37,5.02 266.28,1.78 326.34,1.75 16.68,-0.01 36.57,-47.66 52.37,-75.37l141.7 -251.34c29.86,-53.82 61.3,-113.95 87.3,-172.87l79.29 -182.53c5.82,37.62 -11.49,155.27 -12.78,204.49l-1.77 477.07 254.14 -0.73 -0.17 -990.52c-37.84,-6.83 -252.01,-2.44 -296.21,-2.4 -11.07,30.79 -32.33,62.67 -46.7,91.19 -73.59,146.14 -163.91,300.56 -241.23,456.28 -13.57,27.34 -80.69,176.33 -93.9,185.29l5.84 -732.76 -255.53 0.06 0.08 413.39z"/>
  <path class="fil4" d="M21402.75 13595.29c114.17,-3.87 269.53,-6.46 269.36,113.87 -0.2,134.96 -180.04,120.97 -269.27,117.26l-0.09 -231.13zm2.09 -376.11c94.05,-15.91 250.48,-15 247.05,86.08 -3.4,100.31 -150.14,95.85 -249.35,95.57l2.3 -181.65zm-273.74 790.62c48.23,23.24 346.74,21.12 383.13,17.9 126.79,-11.2 233.44,-22.34 322.91,-78.97 161,-101.89 179.54,-344.12 -1.55,-443.18 -10.59,-5.79 -20.8,-10.63 -33.62,-15.42 -5.65,-2.11 -12.55,-3.84 -18.34,-6.12 -5.66,-2.23 -5.34,-1.85 -10.35,-4.78 -7.47,-4.39 -4.94,-2.99 -9.17,-6.92 227.35,-79.57 182.37,-296.68 97.34,-366.55 -121.25,-99.63 -320.32,-94.53 -512.56,-86.36l-205.4 15.96c-21.66,5.71 -14.79,4.5 -14.59,63.51 0.42,123.41 -4.47,856.81 2.2,910.93z"/>
  <path class="fil4" d="M7340.09 13836.28l-0.8 -231.17c113.57,-3.68 270.15,-6.26 269.68,113.86 -0.52,133.08 -180.24,123.18 -268.88,117.31zm1.41 -607.18c94.45,-16.79 244.92,-16 247,81.6 2.21,103.34 -146.44,99.99 -244.35,99.99l-5.03 -0.02 2.38 -181.57zm-273.84 790.56c1.3,0.62 3.33,-0.23 4.08,1.43 6.15,13.61 271.92,18.06 296.91,17.98 207.21,-0.81 395.79,-28.78 485.03,-157.61 95.95,-138.52 45.75,-326.25 -122.36,-384.02 -6.36,-2.18 -7.79,-1.85 -14.71,-4.94 -1.11,-0.5 -2.39,-1.03 -3.46,-1.58l-12.46 -8.79c161.7,-56 207.08,-203.38 134.38,-320.37 -85.37,-137.37 -295.71,-136.7 -471.32,-136.7 -36.78,0 -285.79,11.22 -295.84,27.26 -6.04,9.65 -1.88,711.38 -1.88,809.41 0,44.22 -3.15,118.3 1.63,157.93z"/>
  <path class="fil4" d="M14174.17 13231.13c329.76,-73.13 399.02,537.69 87.37,591.95 -266.52,46.39 -346.75,-299.69 -244.32,-476.77 35.09,-60.65 76.85,-97.42 156.95,-115.18zm5.91 -216.81c-563.18,45.34 -619.01,666.98 -326.12,911.57 177.04,147.86 516.45,153.77 701.72,10.67 130.91,-101.11 216.81,-263.1 197.46,-455.66 -17.02,-169.34 -74.75,-274.84 -172.18,-354.18 -93.25,-75.94 -236.98,-125.59 -400.88,-112.4z"/>
  <path class="fil4" d="M8158.88 14027.31l277.08 1.32 -0.57 -394.41 373.95 -0.63 0.79 393.84 275.62 0.14 -0.27 -990.31c-38.61,-7 -213.89,-2.45 -276.69,-2.46l0 361.12 -373.39 0 -0.72 -359.31 -276.84 -1.78 1.04 992.48z"/>
  <path class="fil4" d="M12518.51 14022.37l277.04 1.32c-0.08,-239.14 -5.66,-542.44 -0.09,-772.07l352.98 -0.03 0.41 771.98 274.27 -0.58c6.62,-54.81 1.04,-852.9 0.88,-993.21l-906.53 0.24 1.04 992.35z"/>
  <path class="fil4" d="M24456.27 11225.02c18.54,14.2 23.97,23.04 49.1,35.92 61,31.27 121.38,61.81 187,82.98 283.76,91.52 675.63,77.57 942.61,-16.66 579.75,-204.63 752.58,-722.69 863.08,-1289.07l231.01 -1204.72c37.92,-198.67 85.42,-408.92 115.83,-606.97l-159.8 0.31c-78.37,379.42 -140.14,761.31 -214.18,1140.25 -122.67,627.85 -202.35,1536.73 -874.85,1832.31 -251.29,110.45 -593.72,145.74 -879.31,99.79 -152.36,-24.51 -219.16,-66.19 -260.49,-74.14z"/>
  <polygon class="fil4" points="20353.21,8816.67 19634.34,8817.1 19172.46,11272.37 18576.14,11272.98 18559.82,11361.39 19315.94,11361.56 19780.13,8905.65 20494.01,8905.68 20627.39,8227.43 20466.17,8226.42 "/>
  <path class="fil4" d="M25078.98 13445.88c-106.5,30.62 -263.99,-2.31 -257.21,-115.51 8.08,-134.71 203.85,-122.49 257.76,-101.27l-0.55 216.78zm-316.57 105.67c-19.65,29.83 -101.19,22.1 -176.79,201.02 -40.37,95.52 -62.12,181.85 -110.61,265.62l293.16 1.07 75.71 -189.35c26.03,-67.8 52.92,-122.8 106.4,-158.93 28.21,-19.05 66.45,-26.15 107.13,-25.13 29.63,0.75 23.45,6.01 22.88,38.38 -0.41,23.06 -0.25,46.15 -0.25,69.22 0,84.61 -4.44,182.19 0.84,265.21l270.09 0.01 0.11 -981.74c-202.39,-32.1 -547.82,-43.8 -688.35,54.73 -153.1,107.35 -141.84,316.79 -39.16,398.13 53.79,42.61 69.49,38.75 138.84,61.76z"/>
  <path class="fil4" d="M23511.43 13276.06c3.13,122.27 9.25,324.92 -35.87,423.86 -16.81,36.84 -31.71,57.1 -60.42,77.55 -112.46,80.09 -114.2,-31.16 -92.83,143.62 4.68,38.26 9.8,76.16 14.79,114.26 173.32,-5.76 293.79,-47.03 364.6,-157.02 111.54,-173.24 73.12,-434.56 82.86,-630.27l202.86 -1.26 1.45 771.87 273.48 -0.24 1.05 -993.59 -751.97 0.19 0 251.03z"/>
  <path class="fil4" d="M4828.79 13054.59l0.59 418.33c-0.01,83.45 -6.13,170.41 -36.47,236.84 -16.86,36.91 -31.65,57.04 -60.41,77.55 -120.28,85.79 -120.27,-65.5 -78.05,257.92 443.95,-16.62 448.18,-294.11 446.53,-680.58l0.94 -106.74 202.86 -1.27 1.61 771.88 273.31 -0.24 1.05 -993.59 -751.92 0.17 -0.04 19.73z"/>
  <path class="fil4" d="M6290.97 13221.26c8.6,9.57 6.92,6.37 12.26,22.81l98.41 340.18 -201.42 -0.45 90.75 -362.54zm-486.78 807.37l290.86 0.43 62.92 -243.37 290 -0.16 73.42 243.07 304.1 -0.72c-4.48,-36.63 -141.49,-430.63 -164.65,-498.54l-126.09 -375.3c-4.96,-14.6 -32.2,-115.72 -47.82,-119.24l-372.28 0.03 -310.46 993.8z"/>
  <path class="fil4" d="M22627.26 13211.46c8.63,9.54 6.92,6.31 12.26,22.76 2.49,7.68 4.45,16.7 6.34,23.31 4.36,15.32 9.07,29.27 13.63,45.3 9,31.58 18.32,58.97 27.66,90.06 8.27,27.54 52.31,162.78 50.82,181.53l-201.42 -0.5 90.71 -362.46zm-486.78 807.33l290.56 0.43 63.22 -243.37 290 -0.17 73.47 243.06 304.04 -0.7c-4.96,-40.64 -217.27,-653.69 -249.11,-748.01l-72.51 -217.74c-5.83,-18.12 -3.27,-20.89 -16.93,-27.34l-372.28 0.03 -310.46 993.81z"/>
  <path class="fil4" d="M16814.42 14022.41c63.6,6.26 618.34,1.19 725.44,0.96l0.46 -219.15c-25.94,-10.72 -403.67,-3.46 -446.44,-3.36l-2.96 -171.54 401.06 -0.78 0.44 -222.81 -401.48 0.04 0.48 -154.11 426.79 -0.12 0 -221.66 -704.83 0.12 1.04 992.41z"/>
  <path class="fil4" d="M9651.68 13831.83l-0.29 -265.26c65.8,-6.77 116,-13.03 173.12,12.88 151.25,68.59 101.78,295.55 -172.83,252.38zm-273.08 187.83c2.42,0.62 4.45,-0.23 5.2,1.43 5.93,13.1 268.97,18.03 282.21,18.03 216.08,0 533.91,-64.94 533.93,-329.96 0.02,-148.01 -59.69,-239.23 -168.83,-297.86 -75.93,-40.79 -179.13,-62.33 -272.03,-58.88 -31.72,1.18 -78.89,8.05 -106.84,6.38l-0.35 -323.94 -274.34 0.06 1.05 984.74z"/>
  <polygon class="fil4" points="6483.05,11272.89 5855.03,11272.97 5844.89,11272.97 5846.03,11360.38 6628.62,11361.56 6391.79,8228.32 6253.41,8226.64 "/>
  <path class="fil4" d="M18620.91 13994.9l-40.83 -212.16c-79.68,14.78 -61.02,24.45 -180.14,30.99 -421.37,23.14 -437.43,-452.52 -180.83,-552.12 106.71,-41.43 262.29,-30.19 361.2,13.54l57.56 -215.46c-191.81,-66.75 -411.56,-69.36 -594.74,20.04 -147.65,72.07 -273.43,213.27 -280.83,432.51 -17.27,511.66 514.49,603.47 858.61,482.66z"/>
  <path class="fil4" d="M23086.96 9811.25c12.9,19.22 65.19,30.73 122.45,104.07 31.82,40.76 58.11,90.37 79.12,146.94 104.35,280.9 67.64,861.34 163.45,1210.71l-645.73 5.04 26.77 82.21c245.46,5.55 515.71,-0.92 762.91,-2.37 -59.84,-240.21 -69.76,-558.14 -91.56,-818.45 -15.36,-183.31 -37.19,-389.14 -146.85,-531.55 -27.69,-35.97 -50,-57.38 -89.54,-82.46 -13.18,-8.35 -25.57,-12.49 -35.24,-25.55 8.5,-18.22 5.31,-10.34 45.13,-25.5l144.29 -66.76c63.64,-33.8 115.5,-73.1 166.41,-113.18 23.39,-18.42 53.04,-45.58 71.99,-65.53 70.41,-74.08 124.54,-151.97 169.59,-252.85 70.29,-157.39 82.74,-288.83 42.42,-471.22 -16.46,-74.45 -39.16,-148.82 -75.24,-205.11 -26,-40.57 -87.03,-136.84 -131.77,-155.28 34.75,108.63 105.13,125.07 100.26,410.49 -2.49,145.32 -59.55,294.05 -114.23,399.29 -30.45,58.59 -65.12,101.34 -105.3,149.95 -74.17,89.77 -178.85,165.28 -286.37,224.03 -28.33,15.48 -56.47,27.89 -86.47,41.13l-67.04 26.1c-21.64,8.97 -13.19,1.15 -19.45,15.85z"/>
  <path class="fil4" d="M13022.94 10062.25l-945.06 0.06 -230.78 1210.68c-81.87,-0.02 -562.17,-9.91 -596.08,3.8l-16.51 84.22 758.26 0.56 230.52 -1210.67 945.11 -0.06 119.19 -639.93 -162.59 -0.06 -102.06 551.4z"/>
  <polygon class="fil4" points="18834.02,13054.59 18834.54,13256.37 19113.77,13257.41 19114.53,14024.14 19388.89,14023.49 19389.41,13256.01 19673.13,13255.81 19673.63,13029.77 18834.06,13029.94 "/>
  <polygon class="fil4" points="9832.46,10582.94 9993.74,10583.15 10438.85,8227.13 10277.74,8226.44 "/>
  <polygon class="fil4" points="7682.05,10582.93 7843.31,10583.13 8288.43,8227.13 8127.33,8226.44 "/>
  <path class="fil4" d="M16504.23 11312.34c-237.2,-0.01 -391.06,-8.69 -621.51,-69.51 -40.02,-10.56 -107.27,-30.49 -140.33,-46.29 -1.84,21.1 -6.39,4.33 7.76,16.94 56.59,50.46 287.3,118.81 359.97,135.59 601.39,138.83 1400.98,23.23 1656.37,-609.24 44.42,-110 74.14,-241.58 75.25,-382.27 1.31,-165.04 -20.2,-254.14 -80.98,-376.37 -78.72,-158.34 -195.38,-260.11 -322.46,-360.26 -25.92,-20.43 -112.28,-81.68 -142.54,-92.37l5.3 6.94c4.23,4.73 2.23,3.21 8.07,8.51l44.34 34.25c130.84,103.02 258.92,265.28 311.04,430.54 70.89,224.76 20.85,525.73 -70.6,705.19 -94.59,185.62 -234.26,333.39 -416.37,428.36 -179.63,93.67 -418.38,170.01 -673.31,169.99z"/>
  <path class="fil4" d="M24949.24 10654.21c-25.31,-51.35 -29.58,-34.74 -59.46,-118.84 -41.85,-117.79 2.81,-367.27 26.97,-486.45 40.09,-197.78 75.54,-405.96 114.4,-607.82l171.94 -905.28c18.54,-100.55 42.19,-207.09 56.83,-309.32l-159.29 0c-5.78,49.34 -19.71,108.76 -29.36,157.65l-90.53 474.85c-39.91,213.26 -79.04,423.34 -121.34,636.05 -20.69,104.04 -40,208.63 -59.69,313.69 -20.07,107.09 -44.88,213.95 -57.55,322 -12.82,109.3 -27.5,241.05 10.4,340.51 32.3,84.75 101.27,161.44 196.68,182.96z"/>
  <path class="fil4" d="M3882.54 14032.25l277.08 1.3c-0.07,-239.24 -5.64,-542.27 -0.09,-772.05l399.9 -0.28 0 -219c-42.21,-7.38 -596.13,-2.41 -677.92,-2.38l1.03 992.41z"/>
  <path class="fil4" d="M12198.72 9393.58l163.38 1.4 101.9 -517.95 1000.39 -0.79 129.16 -649.05 -162.41 -0.75 -112.31 563.18 -992.96 1.04c-16.61,12.01 -16.52,48.78 -20.68,69.72l-106.47 533.2z"/>
  <polygon class="fil4" points="14256.11,10597.37 14417.09,10597.37 14520.24,10072.07 15484.5,10072.07 15608.03,9431.77 15446,9431.71 15338.55,9983.54 14374.2,9983.53 "/>
  <path class="fil4" d="M10566.22 14027.95l-0.09 -992.07 -277.48 -1.19c0.22,312.12 5.45,645.6 0.99,955.33 -0.71,49.48 -14.34,37.93 116.04,37.93 53.51,0 107.02,0 160.54,0z"/>
  <polygon class="fil4" points="14495.66,9315.32 14659.35,9315.89 14747.02,8877.43 15761.61,8876.23 15890.91,8227.19 15728.48,8226.44 15616.15,8789.58 14601.33,8790.66 "/>
  <path class="fil4" d="M15213.9 11271.52c-47.49,5.25 -771.13,1.45 -840.49,1.45 -99.63,0 -810.27,-8.01 -839.71,3.78l-16.28 84.38 1840.79 0.43 124.89 -649.58 -162.42 0.15 -106.78 559.39z"/>
  <path class="fil4" d="M21917.01 11272.97l-574.34 0 -16.91 88.47 736.62 0.05c21.57,-156.58 87.77,-469.87 120.21,-643.56 19.74,-105.69 38.63,-212.03 61.23,-317.73 11.54,-53.93 16.65,-108.85 28.97,-162.9 12.85,-56.4 35.44,-93.75 101.17,-90.15 -17.39,-91.63 -97.26,-70.13 -227.6,-70.13 -15.93,127.05 -84.01,450.32 -111.2,601.25l-83.24 447.9c-3.55,19.7 -17.47,137.45 -34.91,146.8z"/>
  <path class="fil4" d="M8588.16 11273.29l-1625.32 0.89c-16.68,5.81 -14.47,46.85 -24.61,86.72l1795.6 0.64 123.96 -664.4 -161.67 0 -107.96 576.15z"/>
  <path class="fil4" d="M10738.57 11273.29l-1625.31 0.89c-16.69,5.82 -14.46,46.79 -24.61,86.72l1795.55 0.64 124 -664.4 -161.66 0 -107.97 576.15z"/>
  <polygon class="fil4" points="5639.45,10657.79 5636.05,10574.18 4949.81,10572.21 4663.51,11272.42 4057.17,11272.97 4018.07,11361.2 4808.6,11361.56 5095.57,10657.91 "/>
  <path class="fil4" d="M17001.1 9337.98l136.04 84.71c-14.9,-16.43 -92.36,-66.33 -130.69,-101.4 -36.2,-33.13 -80.24,-73.16 -102.71,-127.94 -57.52,-140.23 49.88,-259.47 141.39,-300.02 193.28,-85.64 479.52,-44.94 683.07,32.69 24.38,9.29 60.09,29 84.07,35.06l220.61 -641.2c-43.03,-16.67 -104.08,-52.57 -152.18,-59.4 -13.13,18.27 -92.38,261.82 -107.89,305.64 -36.27,102.52 -71.12,208.16 -107.53,309.82 -57.26,-20.56 -87.43,-41.97 -165.81,-64.59 -207.89,-60 -609.87,-110.86 -726.97,107.91 -30.42,56.84 -40.1,127.23 -10.91,190.31 26.67,57.65 64.9,91.24 104.99,126.13 46.03,40.07 112.55,82.04 134.52,102.28z"/>
  <path class="fil5" d="M14221.56 13640.26c-82.72,0 -75.9,-226.4 -4.9,-226.4 78.52,0 72.28,226.4 4.9,226.4zm-47.39 -409.13c-80.1,17.76 -121.86,54.53 -156.95,115.18 -102.43,177.08 -22.2,523.16 244.32,476.77 311.65,-54.26 242.39,-665.08 -87.37,-591.95z"/>
  <path class="fil4" d="M20223.63 11298.2c87.15,86.13 236.08,123.1 397.13,89.88 465.47,-96 510.67,-770.18 135.72,-916.39 4.94,32.58 160.24,176.09 88.84,472.83 -7.4,30.75 -14.5,48.52 -24.71,73.55 -83.47,204.62 -291.26,309.15 -510.15,293.79 -29.35,-2.06 -61.8,-13.24 -86.83,-13.66z"/>
  <path class="fil4" d="M5164.37 9978.61l180 -0.75c7.87,-28.59 20.47,-55.03 31.06,-82.32l165.3 -424.69c23.04,-55.71 42.74,-116.86 64.97,-171.41l-10.69 -467.58 -209.41 576.68c-75.31,188.92 -149.97,379.51 -221.23,570.07z"/>
  <path class="fil4" d="M22405.67 8727.52c-16.64,126.02 -47.97,263.75 -71.35,391.16 -11.1,60.48 -72.19,354.54 -68.24,390.05l147.19 3.34c16.86,-117.79 49.32,-250.83 72.91,-369.39 12.17,-61.2 24.36,-123.7 36.54,-184.45 2.05,-10.21 30.66,-179.28 42.47,-186.38 35.07,-7.49 139.38,-5.95 179.07,-2.83 70.98,5.58 100.72,13.63 163.8,28.96 -57,-103.89 -372.22,-85.29 -502.39,-70.46z"/>
  <path class="fil5" d="M5344.37 9977.86l279.93 0.72 -18.6 -679.14c-22.23,54.55 -41.93,115.7 -64.97,171.41l-165.3 424.69c-10.59,27.29 -23.19,53.73 -31.06,82.32z"/>
  <path class="fil5" d="M16100.05 13781.01c50.79,10.01 116.18,-52.89 135.01,-81.44 61.8,-93.73 61.87,-263.54 -0.62,-354.33 -20.17,-29.3 -84.51,-87.22 -134.44,-81.6l0.05 517.37z"/>
  <path class="fil5" d="M15838.07 13784.72l-0.01 -523.27c-240.87,30.95 -240.29,487.25 0.01,523.27z"/>
  <path class="fil5" d="M5164.37 9978.61c71.26,-190.56 145.92,-381.15 221.23,-570.07l209.41 -576.68 0.56 -127.99c-21.31,4.66 -18.75,23.55 -37.24,71.08 -69.48,178.59 -128.58,381.12 -203.01,568.67 -19.89,50.12 -235.21,593.8 -246.1,634.99l55.15 0z"/>
  <path class="fil4" d="M11591.23 12792.84l-182.52 0.43c-6.92,40.62 -10.71,88.09 -57.72,89.65 -49.79,1.66 -56.26,-45.54 -57.99,-89.76l-182.82 0c8.43,137.15 99.16,193.07 240.92,192.86 133.11,-0.2 237.56,-61.97 240.13,-193.18z"/>
  <path class="fil5" d="M9651.68 13831.83c274.61,43.17 324.08,-183.79 172.83,-252.38 -57.12,-25.91 -107.32,-19.65 -173.12,-12.88l0.29 265.26z"/>
  <path class="fil5" d="M21402.84 13826.42c89.23,3.71 269.07,17.7 269.27,-117.26 0.17,-120.33 -155.19,-117.74 -269.36,-113.87l0.09 231.13z"/>
  <path class="fil5" d="M7340.09 13836.28c88.64,5.87 268.36,15.77 268.88,-117.31 0.47,-120.12 -156.11,-117.54 -269.68,-113.86l0.8 231.17z"/>
  <path class="fil5" d="M25078.98 13445.88l0.55 -216.78c-53.91,-21.22 -249.68,-33.44 -257.76,101.27 -6.78,113.2 150.71,146.13 257.21,115.51z"/>
  <polygon class="fil4" points="18809.64,8905.58 18825.72,8817.45 18331.29,8817.08 18314.32,8905.54 "/>
  <path class="fil5" d="M7341.5 13229.1l-2.38 181.57 5.03 0.02c97.91,0 246.56,3.35 244.35,-99.99 -2.08,-97.6 -152.55,-98.39 -247,-81.6z"/>
  <path class="fil5" d="M21404.84 13219.18l-2.3 181.65c99.21,0.28 245.95,4.74 249.35,-95.57 3.43,-101.08 -153,-101.99 -247.05,-86.08z"/>
  <path class="fil5" d="M22536.55 13573.92l201.42 0.5c1.49,-18.75 -42.55,-153.99 -50.82,-181.53 -9.34,-31.09 -18.66,-58.48 -27.66,-90.06 -4.56,-16.03 -9.27,-29.98 -13.63,-45.3 -1.89,-6.61 -3.85,-15.63 -6.34,-23.31 -5.34,-16.45 -3.63,-13.22 -12.26,-22.76l-90.71 362.46z"/>
  <path class="fil5" d="M6200.22 13583.8l201.42 0.45 -98.41 -340.18c-5.34,-16.44 -3.66,-13.24 -12.26,-22.81l-90.75 362.54z"/>
 </g>
</svg>
