<?xml version="1.0" encoding="UTF-8"?>
<!DOCTYPE svg PUBLIC "-//W3C//DTD SVG 1.1//EN" "http://www.w3.org/Graphics/SVG/1.1/DTD/svg11.dtd">
<!-- Creator: CorelDRAW 2020 (64-Bit) -->
<svg xmlns="http://www.w3.org/2000/svg" xml:space="preserve" width="297mm" height="210mm" version="1.1" style="shape-rendering:geometricPrecision; text-rendering:geometricPrecision; image-rendering:optimizeQuality; fill-rule:evenodd; clip-rule:evenodd"
viewBox="0 0 29700 21000"
 xmlns:xlink="http://www.w3.org/1999/xlink"
 xmlns:xodm="http://www.corel.com/coreldraw/odm/2003">
 <defs>
  <style type="text/css">
   <![CDATA[
    .fil0 {fill:#FEFEFE;fill-rule:nonzero}
   ]]>
  </style>
 </defs>
 <g id="Слой_x0020_1">
  <metadata id="CorelCorpID_0Corel-Layer"/>
  <path id="geely.cdr" class="fil0" d="M5637.57 9822.73c653.62,-10.89 1307.78,4.1 1960.87,-22.86 881.08,-1.96 1761.8,8.39 2642.7,14.11 247.81,9.1 496.33,-0.89 743.43,20.89 -0.54,184.61 -1.07,369.57 -12.5,553.82 -12.32,148.19 -3.93,297.8 -17.49,445.98 -14.47,129.09 -0.9,260.49 -20.9,389.03 -1.96,32.68 -3.39,65.53 -5.17,98.2 -549.54,39.81 -1100.15,69.27 -1650.75,94.09 -1078.36,48.74 -2157.62,-2.86 -3234.02,-69.81 -115.15,-7.5 -232.1,-9.29 -344.21,-38.56 -4.11,-25.71 -9.11,-51.24 -14.47,-76.78 -8.03,-119.08 1.61,-239.95 -18.03,-357.78 -7.5,-154.62 2.68,-311.01 -17.68,-464.19 -3.03,-195.51 -9.28,-390.82 -11.78,-586.14zm-1127.99 21.96c313.33,-7.14 626.84,-4.64 940.18,-15.18 2.67,68.02 0.17,136.05 3.39,204.07 24.28,104.8 -1.25,215.32 23.57,319.76 -6.61,24.28 -8.93,49.1 -7.15,74.27 22.68,128.55 11.07,261.38 18.93,391.71 16.42,69.09 9.1,141.04 13.21,211.56 0.18,84.81 10.71,169.44 2.68,254.24 3.75,5.36 11.07,16.25 14.82,21.61 -51.96,9.64 -104.8,0.71 -156.76,-3.4 -367.61,-27.14 -734.85,-57.85 -1102.82,-79.63 -530.26,-37.85 -1060.33,-80.87 -1589.87,-127.47 -114.44,-7.68 -230.85,-9.28 -341.72,-42.31 -7.32,-215.67 -12.14,-431.7 -7.49,-647.55 1.24,-40.71 3.38,-81.78 14.45,-121.06 12.5,-53.56 36.07,-103.01 67.13,-148.18 68.2,-76.06 145.69,-151.22 246.39,-180.32 117.47,-32.68 239.42,-46.24 360.82,-54.28 499.72,-26.42 999.98,-51.41 1500.24,-57.84zm6655.85 -15.72c626.3,11.79 1252.78,18.22 1878.91,42.85 234.96,9.65 470.09,21.07 703.97,46.96 126.41,18.21 264.77,27.49 367.43,112.3 52.13,31.42 86.95,81.59 122.83,129.26 13.22,29.46 25.89,59.1 38.74,88.91 6.61,29.11 11.08,58.74 15.36,88.56 11.25,52.13 12.5,105.87 13.39,159.07 0.89,187.64 2.86,375.47 -6.6,563.11 -37.5,11.07 -76.6,15.35 -115.34,17.67 -956.24,79.27 -1912.84,158.37 -2870.69,218.35 -68.56,3.04 -139.61,21.07 -206.21,-3.39 19.64,-181.93 18.75,-365.11 23.57,-548.11 20,-159.43 10.18,-321.72 18.03,-482.41 19.11,-142.82 10.18,-288.87 16.61,-433.13zm-8829.53 1426.87c16.06,-3.57 32.49,-5.71 48.92,-6.78 660.4,65.52 1322.95,107.3 1984.25,162.64 383.5,26.6 767.17,52.67 1150.5,80.35 1.6,19.81 3.21,39.63 5.17,59.45 16.25,63.92 12.32,130.51 17.32,195.85 17.5,142.29 27.49,286.02 35.7,429.38 17.32,69.99 11.25,142.83 18.21,214.25 15.71,58.91 11.6,120.33 16.43,180.5 16.43,81.77 14.1,165.33 19.1,248.16 17.14,68.21 10.36,139.44 14.82,209.07 -88.01,-5.17 -174.78,-21.78 -261.37,-38.02 -347.62,-63.75 -694.33,-133.01 -1039.8,-207.65 -384.57,-84.8 -772,-172.1 -1136.03,-325.65 -93.38,-39.81 -183.18,-87.3 -272.45,-135.33 -147.65,-100.16 -288.7,-217.45 -382.96,-371.36 -24.1,-42.84 -43.21,-88.37 -68.56,-130.68 -1.07,-8.93 -3.39,-27.14 -4.46,-36.24 -9.47,-16.79 -18.93,-33.57 -28.38,-50.53 -17.15,-60.17 -30.89,-121.23 -52.32,-180.14 -3.75,-30.35 -6.79,-61.06 -17.49,-89.81 -4.11,-30 -6.96,-60.7 -18.4,-88.91 -5.36,-40.53 -0.17,-85.16 -28.2,-118.55zm10121.06 140.33c603.99,-46.42 1207.8,-95.69 1811.25,-149.08 -1.07,41.07 -0.35,82.85 -12.14,122.48 -5,30.17 -8.75,60.7 -12.5,91.05 -8.21,30.18 -14.64,60.7 -22.14,91.06 -29.1,123.19 -62.13,248.88 -129.08,357.43 -118.19,219.24 -324.22,376.17 -540.43,491.15 -240.67,114.27 -496.15,193 -753.6,259.42 -601.14,150.5 -1209.76,268.87 -1819.47,378.31 -1.6,-86.23 4.65,-172.11 8.93,-258.16 17.68,-136.4 26.61,-274.23 35.71,-411.7 15.35,-64.28 11.25,-131.05 17.85,-196.4 15.54,-64.45 10.9,-131.4 18.21,-196.92 14.82,-64.27 11.07,-130.87 17.32,-196.03 15.36,-58.39 13.03,-119.27 17.67,-179.08 8.76,-34.1 12.33,-69.45 16.43,-104.44 448.13,-40.53 897.5,-63.74 1345.99,-99.09zm-2215.46 147.47c229.24,-10.89 457.76,-33.92 687.18,-39.63 -3.92,20 -8.03,39.99 -12.49,59.99 -10.36,131.4 -18.75,263.34 -35.53,393.67 -7.68,71.23 -1.61,143.72 -17.68,213.89 -8.03,71.23 -1.25,144.26 -18.03,214.42 -6.6,71.59 -1.43,144.62 -17.85,214.96 -5.53,131.4 -17.14,262.63 -34.28,392.96 -4.29,24.64 -7.85,49.63 -11.43,74.62 -421.88,83.73 -848.4,141.22 -1274.03,202.46 -272.63,35.89 -545.25,78.56 -820.38,88.91 -458.13,19.11 -918.04,1.61 -1372.06,-63.73 -491.15,-67.31 -982.13,-137.48 -1470.6,-222.28 -4.29,-14.28 -12.5,-43.2 -16.78,-57.49 -4.83,-59.99 -1.61,-121.22 -17.86,-179.78 -6.6,-137.3 -17.85,-274.77 -35.35,-410.46 -6.79,-71.06 0.54,-143.72 -17.85,-213.35 -6.97,-71.59 0.71,-144.79 -17.86,-214.96 -7.68,-77.13 0.36,-156.04 -18.03,-231.74 -4.64,-88.38 -6.61,-176.57 -10.36,-264.95 498.3,31.96 996.6,65.16 1495.43,86.95 659.87,17.32 1320.28,23.03 1980.15,6.78 352.61,-1.42 703.79,-34.63 1055.69,-51.24z"/>
  <path id="geely.cdr_0" class="fil0" d="M15707.5 10758.18c17.69,-101.21 110.32,-150.23 194.36,-189.28 35.37,-8.23 71.97,-3.32 107.87,-4.55 612.49,0.52 1225.15,0.18 1837.65,0.18 26.26,0 52,5.95 77.91,10.33 0.36,92.62 -11.38,184.38 -15.05,276.83 -629.83,-1.41 -1259.48,1.22 -1889.31,7 -4.03,9.11 -12.08,26.96 -16.29,35.9 -3.67,362.98 -5.6,725.95 -4.9,1088.93 537.9,-0.7 1075.98,-0.17 1613.88,-0.35 0.7,-137.63 0,-275.08 0.35,-412.7 -384.52,-14.19 -769.73,-4.56 -1154.42,-13.49 4.73,-89.48 -8.41,-181.05 6.48,-269.3 121.52,-11.73 244.44,-1.75 366.31,-4.9 204.5,-6.83 409.2,-2.63 613.89,-3.68 159.51,1.75 318.68,-7.18 478.19,-2.63 -2.1,333.04 -0.87,666.08 -0.53,999.29 -515.83,3.33 -1031.67,0.52 -1547.33,1.4 -163.37,-1.93 -326.91,3.86 -490.11,-2.98 -49.2,-37.65 -108.03,-62.16 -149,-109.96 -7.88,-25.56 -16.29,-50.78 -24.69,-75.99 -21.54,-108.74 -5.78,-220.45 -23.29,-329.53 0.52,-245.49 -2.1,-490.98 1.4,-736.29 18.39,-86.51 5.43,-176.5 16.63,-264.23zm2725.41 -193.31c724.2,-0.7 1448.22,0.36 2172.26,-0.52 -3.33,59.18 4.02,120.12 -11.74,177.9 -1.4,36.42 -1.4,72.84 -1.22,109.26 -331.29,0 -662.57,0 -993.86,-0.17 -284.53,9.45 -569.59,-1.23 -854.3,6.13 5.08,55.32 1.41,110.83 -6.82,165.64 -2.45,84.04 -1.23,168.09 -2.81,252.32 600.76,3.15 1201.52,6.13 1802.28,7.17 2.98,92.1 1.05,184.38 1.58,276.65 -494.13,-1.22 -988.25,6.31 -1482.56,3.51 -106.98,7.71 -214.14,7.87 -321.3,7 0.18,137.81 0.18,275.61 0,413.41 95.43,-1.57 190.86,0.18 286.11,7.18 526.52,-1.58 1053.04,1.92 1579.56,5.42 -1.58,65.67 4.38,132.04 -7.7,197.17 -2.46,27.84 0.7,56.03 13.65,81.24 -423.38,7.01 -847.12,1.05 -1270.69,2.98 -157.06,0.17 -314.12,0.87 -471.18,-3.33 -112.59,-2.63 -239.53,13.49 -334.61,-60.41 -34.5,-18.21 -55.51,-50.78 -73.37,-83.87 -8.75,-70.91 -24.34,-141.13 -22.06,-212.92 -5.25,-450.53 -3.5,-901.23 -1.22,-1351.76zm2633.81 1441.24c-6.3,-480.3 -10.85,-960.94 -7,-1441.24 724.21,-0.52 1448.23,0 2172.27,-0.34 -3.33,64.96 4.02,131.49 -11.74,195.23 -1.22,30.47 -1.57,61.11 -1.75,91.93 -614.94,-3.16 -1229.71,4.38 -1844.48,3.85 -3.15,101.74 1.75,203.99 -10.68,305.2 -1.75,38.17 -2.28,76.51 -2.28,114.85 606.19,0.71 1212.38,-1.75 1818.57,1.24 -4.38,72.14 -2.1,144.8 -12.43,216.59 -1.23,22.06 -2.28,44.12 -3.15,66.36 -464.54,-2.8 -928.72,5.96 -1393.26,3.16 -136.75,-4.38 -272.8,11.72 -409.55,7 0,137.63 0.52,275.25 -0.35,412.7 533.35,1.23 1066.87,0.18 1600.22,0.53 90.7,3.85 182.98,-9.11 272.63,8.93 -3.15,94.9 -1.58,190.15 -1.23,285.41 -610.04,-2.28 -1219.9,3.33 -1829.77,-3.85 -60.76,-1.05 -122.4,-3.68 -180.35,-23.64 -43.96,-22.41 -82.65,-54.63 -116.97,-90 -39.75,-40.97 -22.59,-103.49 -38.7,-153.91zm4372.02 -1048.14c-119.77,-136.76 -262.64,-252.49 -377.86,-392.74 134.48,6.13 272.27,-15.76 404.3,12.43 129.4,141.65 271.23,271.75 404.13,410.26 117.31,129.57 248.46,246.01 366.47,374.88 6.49,1.4 19.09,4.55 25.4,6.13 266.32,-270.18 535.27,-537.9 804.57,-805.28 127.3,2.63 254.77,-0.7 382.06,2.1 -9.45,16.11 -20.13,31.17 -31.86,45.53 -337.42,339.87 -679.56,675.35 -1014,1018.19 -1.05,214.68 -0.17,429.17 -0.35,643.83 -100.15,4.73 -200.31,9.29 -300.46,6.84 -7.18,-84.93 1.92,-170.37 -9.11,-254.95 -8.4,-138.85 3.15,-278.23 -5.6,-416.91 -214.32,-218.17 -433.37,-432.13 -647.69,-650.31zm-1735.56 -392.74c100.85,-0.88 201.71,-0.36 302.39,-0.7 2.62,472.06 1.22,944.13 0.88,1416.01 536.32,5.78 1072.99,1.75 1609.49,2.1 3.85,98.24 1.05,196.46 2.1,294.87 -506.38,-2.11 -1012.94,2.98 -1519.15,-3.5 -85.09,-2.11 -174.04,2.63 -253.71,-32.39 -78.62,-45.18 -143.23,-125.9 -137.98,-220.81 -9.63,-485.01 -4.9,-970.39 -4.02,-1455.58z"/>
 </g>
</svg>
