<?xml version="1.0" encoding="UTF-8"?>
<!DOCTYPE svg PUBLIC "-//W3C//DTD SVG 1.1//EN" "http://www.w3.org/Graphics/SVG/1.1/DTD/svg11.dtd">
<!-- Creator: CorelDRAW 2020 (64-Bit) -->
<svg xmlns="http://www.w3.org/2000/svg" xml:space="preserve" width="297mm" height="210mm" version="1.1" style="shape-rendering:geometricPrecision; text-rendering:geometricPrecision; image-rendering:optimizeQuality; fill-rule:evenodd; clip-rule:evenodd"
viewBox="0 0 29700 21000"
 xmlns:xlink="http://www.w3.org/1999/xlink"
 xmlns:xodm="http://www.corel.com/coreldraw/odm/2003">
 <defs>
  <style type="text/css">
   <![CDATA[
    .str0 {stroke:#2B2A29;stroke-width:20;stroke-miterlimit:22.9256}
    .fil0 {fill:#2B2A29}
    .fil5 {fill:#2B2A29;fill-rule:nonzero}
    .fil1 {fill:#2B2A29;fill-rule:nonzero}
    .fil3 {fill:#FFED00;fill-rule:nonzero}
    .fil4 {fill:#FFFDFA;fill-rule:nonzero}
    .fil2 {fill:white;fill-rule:nonzero}
   ]]>
  </style>
 </defs>
 <g id="Слой_x0020_1">
  <metadata id="CorelCorpID_0Corel-Layer"/>
  <polygon class="fil0 str0" points="2272.19,1061.12 26835.29,1061.12 26835.29,9724.31 2272.19,9724.31 "/>
  <g id="_1352633278432">
   <polygon class="fil0" points="6319.36,4766.65 11539.8,4766.65 11539.8,4882.2 6319.36,4882.2 "/>
   <g>
    <g>
     <polygon class="fil1" points="24039.43,4205.04 4902.62,4205.04 4902.62,6608.62 24039.43,6608.62 "/>
     <polygon class="fil1" points="4844.75,4089.52 24097.29,4089.52 24155.16,4089.52 24155.16,4147.28 24155.16,6666.38 24155.16,6724.14 24097.29,6724.14 4844.75,6724.14 4786.89,6724.14 4786.89,6666.38 4786.89,4147.28 4786.89,4089.52 "/>
     <path class="fil1" d="M11040.65 6049.63c270.13,0 454.97,-132.94 454.97,-361.61 0,-193.23 -113.76,-280.08 -323.45,-391.77 -131.52,-69.13 -222.16,-115.22 -222.16,-232.21 0,-120.55 99.53,-173.73 225.71,-173.73 55.08,0 90.63,7.1 119.06,17.73l26.67 223.36 115.52 0 14.21 -299.59c0,0 -94.19,-72.67 -311,-72.67 -243.48,0 -414.08,129.4 -414.08,335.03 0,193.23 120.84,288.94 295,366.94 142.18,63.83 250.58,127.64 250.58,260.59 0,138.27 -111.95,189.67 -257.69,189.67 -56.88,0 -106.63,-7.09 -145.73,-17.73l-30.21 -228.67 -115.52 0 1.78 313.77c0,0 113.74,70.89 316.34,70.89zm1291.91 -24.8l515.37 0 0 -127.63 -133.28 0 0 -985.62 252.36 0 10.64 198.55 111.97 0 19.55 -326.18 -1037.86 0 1.77 326.18 111.97 0 28.44 -198.55 252.34 0 0 985.62 -133.27 0 0 127.63zm1986.77 0l431.85 0 0 -127.63 -111.97 0 -396.29 -1125.66 -202.6 10.64 -405.2 1115.02 -127.95 0 0 127.63 415.86 0 0 -127.63 -131.52 0c18.05,-81 45.84,-157.63 72.88,-235.77l458.49 0 81.75 235.77 -85.3 0 0 127.63zm-257.68 -925.34c12.43,-35.45 30.2,-106.35 30.2,-106.35l7.12 0c0,0 8.87,47.85 26.65,99.26l151.06 437.86 -366.1 0 151.07 -430.77zm2194.68 932.42l95.98 -7.08 0 -1113.25 142.16 0 0 -127.63 -387.4 0 0 127.63 113.72 0 0 576.13c0,85.08 10.67,171.93 10.67,171.93l-8.9 3.56c0,0 -47.98,-79.76 -106.62,-154.22l-545.59 -732.1 -223.93 7.07 0 86.86 81.75 101.06 0 925.33 -142.15 0 0 127.63 415.85 0 0 -127.63 -142.18 0 0 -595.63c0,-90.4 -5.33,-171.94 -5.33,-171.94l7.1 -3.56c0,0 44.44,72.68 104.85,147.14l590.02 758.7zm863.63 -7.08l478.05 0c385.63,0 680.64,-212.73 680.64,-643.48 0,-340.36 -229.24,-597.4 -661.1,-597.4l-497.59 0 0 127.63 113.72 0 0 985.62 -113.72 0 0 127.63zm358.97 -127.63l0 -985.62 83.53 0c328.79,0 462.05,198.55 462.05,503.45 0,315.53 -154.59,482.17 -435.39,482.17l-110.19 0zm2105.85 127.63l431.84 0 0 -127.63 -111.96 0 -396.29 -1125.66 -202.6 10.64 -405.21 1115.02 -127.95 0 0 127.63 415.87 0 0 -127.63 -131.53 0c18.07,-80.98 45.85,-157.63 72.87,-235.77l458.5 0 81.75 235.77 -85.29 0 0 127.63zm-257.69 -925.34c12.43,-35.45 30.22,-106.35 30.22,-106.35l7.11 0c0,0 8.87,47.85 26.64,99.26l151.06 437.86 -366.09 0 151.06 -430.77zm2310.21 925.34l0 -127.63 -69.32 0 -277.23 -420.14c142.19,-44.3 234.58,-164.85 234.58,-335.02 0,-221.58 -165.27,-358.09 -481.59,-358.09l-458.52 0 0 127.63 113.72 0 0 985.62 -113.72 0 0 127.63 495.83 0 0 -127.63 -136.84 0 0 -356.32 135.06 0 305.68 483.95 252.35 0zm-693.09 -608.03l0 -508.76 53.31 0c179.51,0 279.03,88.65 279.03,248.18 0,177.26 -103.09,260.58 -252.37,260.58l-79.97 0zm1464.29 608.03l515.38 0 0 -127.63 -133.29 0 0 -985.62 252.36 0 10.65 198.55 111.96 0 19.55 -326.18 -1037.88 0 1.79 326.18 111.97 0 28.44 -198.55 252.35 0 0 985.62 -133.28 0 0 127.63z"/>
     <polygon class="fil1" points="24917.9,3216.56 4024.16,3216.56 4024.16,3595.03 4275.59,3595.03 4333.45,3595.03 4333.45,3652.79 4333.45,3812.28 24608.61,3812.28 24608.61,3652.79 24608.61,3595.03 24666.48,3595.03 24917.9,3595.03 "/>
     <polygon class="fil1" points="3966.3,3101.04 24975.76,3101.04 25033.63,3101.04 25033.63,3158.8 25033.63,3652.79 25033.63,3710.54 24975.76,3710.54 24724.34,3710.54 24724.34,3870.04 24724.34,3927.8 24666.48,3927.8 4275.59,3927.8 4217.72,3927.8 4217.72,3870.04 4217.72,3710.54 3966.3,3710.54 3908.44,3710.54 3908.44,3652.79 3908.44,3158.8 3908.44,3101.04 "/>
     <polygon class="fil1" points="24917.9,7619.97 4024.16,7619.97 4024.16,7241.51 4275.59,7241.51 4333.45,7241.51 4333.45,7183.75 4333.45,7024.25 24608.61,7024.25 24608.61,7183.75 24608.61,7241.51 24666.48,7241.51 24917.9,7241.51 "/>
     <polygon class="fil1" points="3966.3,7735.49 24975.76,7735.49 25033.63,7735.49 25033.63,7677.73 25033.63,7183.75 25033.63,7125.99 24975.76,7125.99 24724.34,7125.99 24724.34,6966.49 24724.34,6908.73 24666.48,6908.73 4275.59,6908.73 4217.72,6908.73 4217.72,6966.49 4217.72,7125.99 3966.3,7125.99 3908.44,7125.99 3908.44,7183.75 3908.44,7677.73 3908.44,7735.49 "/>
     <polygon class="fil0" points="5794.55,4650.36 10013.72,4650.36 10013.72,4765.91 5794.55,4765.91 "/>
     <polygon class="fil0" points="5806.13,6060.9 10008.5,6060.9 10008.5,6176.45 5806.13,6176.45 "/>
     <g>
      <path class="fil1" d="M6998.75 4965.48l329.54 0 -16.5 75.81 -124.54 0 -189.86 888 -75.94 0 -410.91 -743.16 -32.55 -104.23 -5.42 0 -6.77 105.59 -138.33 649.75 119.34 0 -16.28 75.81 -328.18 0 14.92 -75.81 123.41 0 169.51 -795.95 -123.41 0 16.27 -75.81 257.68 0 351.23 641.64 46.1 112.35 6.78 0 16.28 -116.41 119.34 -561.77 -117.99 0 16.28 -75.81zm1124.23 0l-47.47 222.01 -64.36 0 26.5 -114.26 -28.22 -31.94 -348.88 0 -74.6 350.59 272.59 0 25.15 -21.02 11.47 -56.14 43.39 0 -48.83 231.49 -43.39 0 12.94 -56.14 -16.27 -22.2 -273.33 -0.17 -78.65 369.54 375.58 -1.39 41.59 -32.91 26.32 -125.45 59.64 0.01 -50.18 235.55 -743.16 0 14.92 -75.81 123.41 0 169.51 -795.95 -123.41 0 16.28 -75.81 721.46 0zm1303.23 75.81l-117.98 0 16.27 -75.81 339.04 0 -16.28 75.81 -112.56 0 -412.26 871.76 -158.67 0 -52.88 -748.58 -371.59 748.58 -158.66 0 -51.53 -871.76 -116.63 0 16.28 -75.81 401.4 0 -16.04 75.81 -127.7 0 21.7 579.37c0,2.7 -0.23,13.53 -0.68,32.49 -0.46,18.94 -0.68,39.25 -0.68,60.91 -0.9,25.26 -1.35,54.14 -1.35,86.63l5.42 0 91.76 -182.74c0.91,-1.8 6.1,-12.41 15.6,-31.82 9.49,-19.4 21.93,-44.66 37.29,-75.8 15.14,-31.14 32.54,-66.1 51.99,-104.91 19.44,-38.8 38.87,-78.51 58.76,-119.13 47.02,-94.75 100.13,-201.68 159.57,-320.81l101.71 0 54.25 652.47c0,3.61 0,14.89 0,33.84 0,18.96 0.45,39.25 1.36,60.91 0,25.27 0.44,53.7 1.35,85.28l6.78 0 80.01 -182.74 254.95 -573.95z"/>
      <path class="fil1" d="M7042.54 4965.51l329.55 0 -16.51 75.81 -124.54 0 -189.85 888.01 -75.94 0 -410.91 -743.16 -32.55 -104.24 -5.43 0 -6.77 105.59 -138.33 649.76 119.34 0 -16.27 75.8 -328.19 0 14.92 -75.8 123.41 0 169.51 -795.96 -123.41 0 16.28 -75.81 257.67 0 351.23 641.64 46.1 112.36 6.79 0 16.27 -116.42 119.34 -561.77 -117.98 0 16.27 -75.81zm1124.24 0l-47.47 222.01 -86.79 0 25.76 -116.42 -21.7 -29.78 -332.24 0 -74.6 350.59 229.19 0 24.42 -20.29 12.2 -56.86 86.79 0 -48.82 231.48 -86.79 0 12.2 -56.86 -16.27 -21.65 -229.19 0 -78.65 369.55 355.31 0 32.54 -27.08 28.48 -132.66 86.79 0 -50.17 235.54 -743.16 0 14.92 -75.8 123.41 0 169.51 -795.96 -123.41 0 16.27 -75.81 721.47 0zm1303.22 75.81l-117.98 0 16.28 -75.81 339.03 0 -16.27 75.81 -112.56 0 -412.27 871.76 -158.66 0 -52.88 -748.58 -371.59 748.58 -158.66 0 -51.53 -871.76 -116.63 0 16.27 -75.81 401.41 0 -16.05 75.81 -127.7 0 21.7 579.37c0,2.71 -0.22,13.54 -0.67,32.49 -0.46,18.94 -0.68,39.25 -0.68,60.91 -0.91,25.26 -1.36,54.14 -1.36,86.63l5.43 0 91.75 -182.74c0.91,-1.8 6.11,-12.4 15.6,-31.81 9.49,-19.41 21.93,-44.67 37.3,-75.81 15.14,-31.14 32.54,-66.09 51.99,-104.91 19.43,-38.8 38.87,-78.51 58.75,-119.12 47.02,-94.76 100.14,-201.69 159.57,-320.82l101.71 0 54.25 652.47c0,3.61 0,14.89 0,33.85 0,18.95 0.45,39.25 1.36,60.91 0,25.26 0.45,53.69 1.36,85.28l6.78 0 80.01 -182.75 254.94 -573.95z"/>
     </g>
    </g>
    <polygon class="fil2" points="24102.12,4274.26 4965.31,4274.26 4965.31,6677.84 24102.12,6677.84 "/>
    <polygon class="fil3" points="4907.44,4158.74 24159.99,4158.74 24217.85,4158.74 24217.85,4216.5 24217.85,6735.6 24217.85,6793.36 24159.99,6793.36 4907.44,6793.36 4849.58,6793.36 4849.58,6735.6 4849.58,4216.5 4849.58,4158.74 "/>
    <polygon class="fil4" points="24980.59,3285.78 4086.86,3285.78 4086.86,3664.25 4338.28,3664.25 4396.14,3664.25 4396.14,3722 4396.14,3881.5 24671.3,3881.5 24671.3,3722 24671.3,3664.25 24729.17,3664.25 24980.59,3664.25 "/>
    <polygon class="fil3" points="4028.99,3170.26 25038.45,3170.26 25096.32,3170.26 25096.32,3228.02 25096.32,3722 25096.32,3779.76 25038.45,3779.76 24787.03,3779.76 24787.03,3939.26 24787.03,3997.02 24729.17,3997.02 4338.28,3997.02 4280.41,3997.02 4280.41,3939.26 4280.41,3779.76 4028.99,3779.76 3971.13,3779.76 3971.13,3722 3971.13,3228.02 3971.13,3170.26 "/>
    <polygon class="fil2" points="24980.59,7689.19 4086.86,7689.19 4086.86,7310.72 4338.28,7310.72 4396.14,7310.72 4396.14,7252.96 4396.14,7093.47 24671.3,7093.47 24671.3,7252.96 24671.3,7310.72 24729.17,7310.72 24980.59,7310.72 "/>
    <polygon class="fil3" points="4028.99,7804.71 25038.45,7804.71 25096.32,7804.71 25096.32,7746.95 25096.32,7252.96 25096.32,7195.21 25038.45,7195.21 24787.03,7195.21 24787.03,7035.71 24787.03,6977.95 24729.17,6977.95 4338.28,6977.95 4280.41,6977.95 4280.41,7035.71 4280.41,7195.21 4028.99,7195.21 3971.13,7195.21 3971.13,7252.96 3971.13,7746.95 3971.13,7804.71 "/>
   </g>
   <path class="fil5" d="M6807.61 5880.48l0 64.82 -346.25 0 0 -64.82 110.18 0 0 -680.56 -110.18 0 0 -64.82 346.25 0 0 64.82 -100.46 0 0 297.44 423.72 0 0 -297.44 -100.51 0 0 -64.82 346.22 0 0 64.82 -110.14 0 0 680.56 110.14 0 0 64.82 -346.22 0 0 -64.82 100.51 0 0 -318.29 -423.72 0 0 318.29 100.46 0zm676.7 -340.28c0,-60.19 9.72,-115.95 29.1,-167.23 19.39,-51.33 47.39,-95.71 84.13,-133.14 36.69,-37.39 81.89,-66.53 135.57,-87.38 53.69,-20.81 114.81,-31.25 183.41,-31.25 68.6,0 129.97,10.44 184.02,31.25 54.09,20.85 99.69,49.99 136.79,87.38 37.11,37.43 65.39,81.81 84.74,133.14 19.34,51.28 29.06,107.04 29.06,167.23 0,60.19 -9.72,115.95 -29.06,167.23 -19.35,51.33 -47.63,95.71 -84.74,133.14 -37.1,37.39 -82.7,66.53 -136.79,87.38 -54.05,20.8 -115.42,31.25 -184.02,31.25 -68.6,0 -129.72,-10.45 -183.41,-31.25 -53.68,-20.85 -98.88,-49.99 -135.57,-87.38 -36.74,-37.43 -64.74,-81.81 -84.13,-133.14 -19.38,-51.28 -29.1,-107.04 -29.1,-167.23zm151.35 0c0,49.38 5.85,95.67 17.55,138.91 11.75,43.2 29.67,80.63 53.89,112.25 24.18,31.65 54.66,56.73 91.4,75.22 36.74,18.53 80.06,27.8 130.13,27.8 46.01,0 85.96,-9.27 119.85,-27.8 33.85,-18.49 61.93,-43.57 84.12,-75.22 22.23,-31.62 38.98,-69.05 50.24,-112.25 11.29,-43.24 16.94,-89.53 16.94,-138.91 0,-49.38 -5.85,-95.67 -17.55,-138.91 -11.67,-43.2 -29.67,-80.63 -53.85,-112.25 -24.22,-31.66 -54.7,-56.73 -91.44,-75.22 -36.66,-18.53 -80.43,-27.8 -131.31,-27.8 -48.44,0 -89.77,9.27 -124.08,27.8 -34.34,18.49 -62.38,43.56 -84.12,75.22 -21.82,31.62 -37.55,69.05 -47.22,112.25 -9.72,43.24 -14.55,89.53 -14.55,138.91zm823.16 405.1l0 -64.82 110.18 0 0 -680.56 -110.18 0 0 -64.82 158.58 0c16.99,0 33.12,-0.37 48.44,-1.14 15.32,-0.77 31.5,-1.54 48.45,-2.32 16.9,-0.77 35.27,-1.54 55.06,-2.31 19.79,-0.77 41.78,-1.18 66,-1.18 35.48,0 71.77,2.52 108.96,7.52 37.1,5.04 70.59,14.67 100.46,28.57 29.83,13.9 54.3,33.57 73.23,58.64 18.98,25.28 28.45,58.04 28.45,98.39 0,20.81 -3.82,41.45 -11.5,61.53 -7.68,20.24 -18.98,38.77 -33.89,55.92 -14.92,16.99 -33.69,32.03 -56.29,45.36 -22.59,13.08 -48.85,22.75 -78.72,28.93l0 4.63c26.66,3.86 53.32,10.41 79.9,19.67 26.66,9.27 50.68,21.79 72.05,37.43 21.38,15.81 38.53,35.12 51.45,58.24 12.93,22.96 19.39,50.76 19.39,82.95 0,41.49 -10.73,77.17 -32.11,107.25 -21.37,29.91 -49.41,54.62 -84.12,73.72 -34.71,19.26 -74.05,33.16 -118.02,42.02 -44.01,8.9 -88.59,13.33 -133.79,13.33 -31.49,0 -66.77,-1.18 -105.9,-3.5 -39.18,-2.31 -76.9,-3.45 -113.23,-3.45l-142.85 0zm371.7 -57.87c31.45,0 60.67,-4.07 87.74,-12.15 27.06,-8.09 50.23,-19.47 69.61,-34.14 19.39,-14.67 34.51,-32.23 45.4,-52.67 10.85,-20.44 16.34,-43.04 16.34,-67.71 0,-30.88 -6.67,-56.53 -19.96,-76.97 -13.37,-20.44 -31.09,-36.66 -53.28,-48.6 -22.23,-11.95 -48.24,-20.28 -78.07,-24.92 -29.87,-4.59 -61.32,-6.91 -94.44,-6.91l-99.25 0 0 313.66c12.11,3.09 26.83,5.57 44.14,7.52 17.39,1.91 44.62,2.89 81.77,2.89zm-60.56 -381.94c16.14,0 34.1,-0.61 53.85,-1.74 19.79,-1.18 36.54,-2.52 50.27,-4.07 41.13,-12.52 74.25,-32.39 99.25,-60.19 25.03,-27.59 37.51,-59.98 37.51,-97.21 0,-51.33 -16.91,-89.12 -50.8,-113.22 -33.9,-24.14 -79.94,-36.09 -138.06,-36.09 -27.39,0 -50.59,0.57 -69.57,1.75 -18.94,1.14 -34.87,2.48 -47.8,4.02l0 306.75 65.35 0zm524.14 -305.57l0 -64.82 365.6 0 0 64.82 -119.81 0 0 262.74c17.76,-2.32 37.92,-4.27 60.51,-5.81 22.6,-1.55 43.2,-2.32 61.73,-2.32 44.42,0 86.97,3.5 127.74,10.44 40.76,6.95 76.68,19.27 107.73,37.03 31.09,17.76 55.88,42.06 74.46,72.91 18.57,30.88 27.83,70.22 27.83,118.06 0,45.55 -10.28,84.32 -30.84,116.35 -20.61,32.02 -47.83,58.44 -81.73,79.25 -33.89,20.84 -72.42,36.08 -115.62,45.72 -43.16,9.67 -86.97,14.46 -131.31,14.46 -4.06,0 -12.56,-0.16 -25.44,-0.56 -12.92,-0.37 -27.84,-0.78 -44.78,-1.14 -16.99,-0.41 -34.3,-0.77 -52.1,-1.18 -17.76,-0.37 -33.49,-0.57 -47.23,-0.57l-176.74 0 0 -64.82 110.21 0 0 -680.56 -110.21 0zm725.18 0l0 -64.82 351.05 0 0 64.82 -110.18 0 0 680.56 110.18 0 0 64.82 -351.05 0 0 -64.82 105.34 0 0 -680.56 -105.34 0zm-388.6 319.43c-21.01,0 -38.57,0.61 -52.67,1.75 -14.1,1.18 -26.82,2.88 -38.12,5.2l0 351.86c4.02,1.55 10.28,2.52 18.73,2.89 8.5,0.4 17.56,0.97 27.27,1.75 9.68,0.77 18.94,1.17 27.84,1.17 8.86,0 15.73,0 20.57,0 31.49,0 60.31,-3.86 86.56,-11.58 26.25,-7.72 48.81,-19.51 67.79,-35.31 18.98,-15.81 33.69,-35.89 44.17,-60.19 10.53,-24.31 15.73,-52.67 15.73,-85.06 0,-114.97 -72.62,-172.48 -217.87,-172.48zm1163.36 425.95l-346.25 0 0 -64.82 110.17 0 0 -680.56 -110.17 0 0 -64.82 346.25 0 0 64.82 -100.5 0 0 496.54 -14.51 86.81 65.35 -91.44 395.88 -466.47 0 -25.44 -107.78 0 0 -64.82 346.21 0 0 64.82 -110.13 0 0 680.56 110.13 0 0 64.82 -346.21 0 0 -64.82 100.5 0 0 -495.36 13.29 -86.81 -59.29 86.81 -401.93 472.23 0 23.13 108.99 0 0 64.82zm125.91 -859.99c-83.15,0 -144.48,-13.08 -184.02,-39.33 -39.59,-26.26 -59.34,-66.37 -59.34,-120.38l140.46 0 0 91.44c11.29,5.4 26,9.47 44.58,12.15 18.37,2.72 38.12,4.06 58.88,4.06 15.37,0 33.29,-1.17 54.1,-3.49 21.01,-2.32 37.3,-5.41 49.42,-9.27l0 -94.89 135.61 0c0,53.24 -18.82,93.19 -56.33,119.81 -37.55,26.62 -98.67,39.9 -183.36,39.9z"/>
   <path class="fil5" d="M13155.8 5811.27l119.73 0 0 293.7c-38.65,21.22 -89.78,38.65 -153.38,52.39 -63.6,13.74 -126.59,20.56 -188.93,20.56 -114.77,0 -217.63,-13.08 -308.67,-39.25 -91.07,-26.22 -168.04,-67.06 -231.03,-122.53 -63,-55.52 -111.32,-125.66 -144.97,-210.48 -33.69,-84.77 -50.51,-186.42 -50.51,-304.92 0,-122.21 18.69,-226 56.12,-311.43 37.39,-85.46 87.9,-155.28 151.51,-209.54 63.6,-54.25 137.2,-93.84 220.75,-118.79 83.56,-24.91 171.46,-37.39 263.76,-37.39 44.91,0 85.42,1.55 121.59,4.68 36.17,3.08 68.89,7.8 98.19,14.02 29.3,6.21 56.45,13.69 81.4,22.43 24.91,8.74 49.26,18.09 72.95,28.08l0 319.88 -119.73 0 0 -196.41 -26.21 -37.43c-13.69,-6.22 -35.19,-13.7 -64.53,-22.44 -29.31,-8.73 -76.37,-13.08 -141.23,-13.08 -67.34,0 -130.33,10.56 -188.93,31.78 -58.61,21.21 -109.45,54.25 -152.45,99.16 -43.03,44.87 -77.01,102.58 -101.96,173.01 -24.95,70.47 -37.43,154.96 -37.43,253.47 0,178.37 45.23,315.85 135.66,412.49 90.38,96.65 217.3,144.97 380.67,144.97 44.87,0 82.62,-3.42 113.18,-10.28 30.52,-6.87 53.28,-15.89 68.28,-27.11l26.17 -35.56 0 -173.98zm1142.96 344.22l-594.85 0 0 -104.77 192.68 0 0 -1099.92 -334.88 0 -37.38 41.12 0 241.32 -134.69 0 0 -387.21 1223.39 0 0 387.21 -134.68 0 0 -241.32 -37.39 -41.12 -334.87 0 0 1099.92 192.67 0 0 104.77zm641.63 0l-458.3 0 0 -104.77 145.9 0 484.51 -1204.69 198.28 0 443.35 1204.69 140.33 0 0 104.77 -535.03 0 0 -104.77 166.5 0 -121.59 -329.23 -497.6 0 -127.2 329.23 160.85 0 0 104.77zm9.39 -538.77l422.74 0 -153.38 -432.12 -46.78 -198.28 -7.47 0 -54.26 202.02 -160.85 428.38zm1539.57 434l0 104.77 -535.03 0 0 -104.77 170.24 0 0 -1099.92 -170.24 0 0 -104.77 535.03 0 0 104.77 -155.29 0 0 480.73 654.75 0 0 -480.73 -155.28 0 0 -104.77 535.02 0 0 104.77 -170.24 0 0 1099.92 170.24 0 0 104.77 -535.02 0 0 -104.77 155.28 0 0 -514.42 -654.75 0 0 514.42 155.29 0zm2302.79 -1099.92l-170.24 0 0 1099.92 194.54 0 0 407.82 -140.29 0 0 -261.88 -37.43 -41.17 -1013.89 0 -37.39 41.17 0 261.88 -140.33 0 0 -407.82 183.33 0c34.91,-52.38 67.99,-119.73 99.16,-202.02 31.17,-82.3 58.28,-172.4 81.36,-270.3 23.09,-97.9 41.46,-200.8 55.19,-308.66 13.74,-107.9 20.57,-214.21 20.57,-318.94l-202.03 0 0 -104.77 1107.45 0 0 104.77zm-379.74 1099.92l0 -1099.92 -396.61 0c-7.48,153.37 -20.24,289.64 -38.32,408.71 -18.09,119.12 -38.65,223.56 -61.74,313.34 -23.08,89.81 -47.38,165.57 -72.95,227.3 -25.56,61.73 -48.32,111.92 -68.27,150.57l637.89 0zm912.85 104.77l-458.3 0 0 -104.77 145.9 0 484.51 -1204.69 198.29 0 443.34 1204.69 140.33 0 0 104.77 -535.03 0 0 -104.77 166.51 0 -121.6 -329.23 -497.6 0 -127.2 329.23 160.85 0 0 104.77zm9.39 -538.77l422.74 0 -153.38 -432.12 -46.77 -198.28 -7.48 0 -54.26 202.02 -160.85 428.38zm1004.54 -665.92l0 -104.77 194.55 0c56.12,0 116.92,-2.48 182.39,-7.48 65.47,-5 128.75,-7.48 189.87,-7.48 68.6,0 135.94,6.54 202.02,19.63 66.12,13.09 124.73,35.23 175.85,66.41 51.13,31.17 92.62,72.66 124.4,124.39 31.82,51.78 47.71,116.32 47.71,193.61 0,73.6 -16.21,136.88 -48.64,189.87 -32.43,53 -75.15,96.36 -128.14,130.01 -53,33.69 -114.12,58.65 -183.33,74.86 -69.21,16.18 -140.61,24.3 -214.17,24.3 -7.48,0 -18.74,0 -33.69,0 -14.96,0 -30.85,-0.32 -47.71,-0.93 -16.83,-0.61 -32.72,-1.54 -47.68,-2.8 -14.99,-1.26 -26.21,-2.48 -33.69,-3.74l0 404.04 187.07 0 0 104.77 -566.81 0 0 -104.77 170.24 0 0 -1099.92 -170.24 0zm379.74 589.24c6.22,2.52 15.89,4.06 29.02,4.67 13.09,0.65 27.11,1.59 42.06,2.8 14.96,1.26 29.63,1.87 43.98,1.87 14.34,0 25.23,0 32.71,0 48.65,0 94.49,-5.89 137.53,-17.76 43,-11.86 80.75,-30.23 113.14,-55.19 32.43,-24.95 57.99,-57.34 76.73,-97.25 18.69,-39.91 28.04,-87.94 28.04,-144.07 0,-102.25 -32.11,-177.72 -96.32,-226.32 -64.25,-48.65 -151.87,-72.99 -262.86,-72.99 -33.65,0 -61.73,0.93 -84.16,2.8 -22.44,1.91 -42.39,4.72 -59.87,8.46l0 592.98zm1758.42 615.45l-594.85 0 0 -104.77 192.68 0 0 -1099.92 -334.88 0 -37.39 41.12 0 241.32 -134.68 0 0 -387.21 1223.39 0 0 387.21 -134.68 0 0 -241.32 -37.39 -41.12 -334.87 0 0 1099.92 192.67 0 0 104.77z"/>
   <polygon class="fil0" points="6303.74,6171.21 11524.18,6171.21 11524.18,6286.77 6303.74,6286.77 "/>
   <polygon class="fil0" points="6319.36,4766.65 11539.8,4766.65 11539.8,4882.2 6319.36,4882.2 "/>
  </g>
 </g>
</svg>
