<?xml version="1.0" encoding="UTF-8"?>
<!DOCTYPE svg PUBLIC "-//W3C//DTD SVG 1.1//EN" "http://www.w3.org/Graphics/SVG/1.1/DTD/svg11.dtd">
<!-- Creator: CorelDRAW 2020 (64-Bit) -->
<svg xmlns="http://www.w3.org/2000/svg" xml:space="preserve" width="297mm" height="210mm" version="1.1" style="shape-rendering:geometricPrecision; text-rendering:geometricPrecision; image-rendering:optimizeQuality; fill-rule:evenodd; clip-rule:evenodd"
viewBox="0 0 29700 21000"
 xmlns:xlink="http://www.w3.org/1999/xlink"
 xmlns:xodm="http://www.corel.com/coreldraw/odm/2003">
 <defs>
  <style type="text/css">
   <![CDATA[
    .fil0 {fill:white}
   ]]>
  </style>
 </defs>
 <g id="Слой_x0020_1">
  <metadata id="CorelCorpID_0Corel-Layer"/>
  <path class="fil0" d="M15003.68 11698.06l0 -194.81 -113.12 0c22,-40.85 34.57,-69.13 62.85,-109.98 37.7,-56.56 106.83,-131.97 157.1,-182.25 18.86,-18.85 25.14,-25.13 43.99,-40.84l279.66 -229.38c18.85,-15.71 28.27,-25.14 47.13,-40.85 131.97,-113.12 842.1,-644.14 879.8,-656.71 -9.42,131.97 -402.19,669.28 -515.31,794.97l-207.38 232.52c-160.25,160.25 -329.93,348.77 -553.02,414.76 -31.43,9.43 -47.14,12.57 -81.7,12.57zm-1225.44 -2576.57c0,-94.27 25.13,-122.55 135.11,-194.82 75.41,-50.27 125.69,-94.26 223.09,-94.26 163.4,0 53.42,336.21 -232.52,345.64 -75.41,0 -78.55,-25.14 -125.68,-56.56zm-493.32 314.21c0,185.39 59.7,285.94 175.96,402.2 47.13,47.13 119.4,87.98 182.24,106.83 289.08,97.41 625.29,0 886.09,-131.97 43.99,-21.99 87.98,-40.84 128.83,-65.98 47.13,-25.14 87.98,-47.13 131.97,-72.27 40.85,-25.14 213.67,-141.4 254.52,-150.83 -15.71,97.41 -28.28,150.83 9.42,251.38 94.27,260.8 458.76,223.09 659.86,119.4 226.23,-119.4 430.47,-285.94 634.71,-439.9 81.7,-62.85 210.53,-163.4 336.21,-163.4 135.12,0 31.43,241.95 12.57,285.94 -28.28,69.13 -50.27,125.69 -75.41,194.82 -69.13,172.81 -72.27,185.38 -204.24,273.36l-1395.12 1011.78c-62.84,47.13 -157.11,141.4 -207.38,207.38 -122.54,169.68 -263.94,399.06 -113.12,597.01 9.43,15.71 15.71,22 25.14,34.56 21.99,25.14 37.71,31.43 62.84,50.28l0 109.98 213.67 0 0 -78.56c169.68,0 373.92,-163.39 487.03,-248.23l219.96 -207.38c135.11,-135.11 270.22,-298.51 377.05,-455.62l135.12 -194.81c50.27,-65.98 91.12,-135.11 135.11,-204.24l216.81 -364.49c12.57,-18.85 18.85,-28.28 31.42,-53.42 25.14,-50.27 84.84,-175.96 119.4,-210.52 59.7,-59.7 241.95,-135.11 326.79,-175.96l116.26 -53.42c153.96,-75.41 311.07,-141.4 480.75,-182.24 50.27,-12.57 235.66,-65.99 235.66,-103.7 0,-106.83 -160.25,-56.55 -263.94,-34.56 -43.99,9.43 -94.27,28.28 -141.4,43.99 -141.4,47.13 -584.44,251.37 -656.71,270.23 12.57,-31.42 21.99,-62.85 34.56,-100.55 62.85,-153.97 172.82,-389.63 94.27,-549.88 -12.57,-25.14 -34.57,-62.84 -56.56,-78.55 -226.24,-150.83 -581.3,172.81 -754.12,295.36l-336.21 241.95c-122.54,81.69 -245.09,147.68 -421.05,147.68 -131.97,0 -185.39,-106.84 -157.11,-226.24 43.99,-191.67 263.94,-323.64 408.48,-414.76 47.14,-25.14 87.98,-43.99 138.26,-65.99 47.13,-21.99 119.4,-40.85 182.24,-40.85 28.28,0 65.99,25.14 65.99,43.99 0,28.28 -34.56,78.56 -40.85,109.98 31.42,50.27 87.98,40.85 144.54,40.85 113.12,0 364.49,-355.07 -109.98,-355.07 -226.23,0 -549.87,157.11 -710.12,311.08 -31.42,31.42 -43.99,21.99 -81.7,47.13 -25.14,18.85 -43.99,31.42 -72.27,53.42 -128.83,84.83 -248.23,179.1 -383.34,254.51l-169.68 84.84c-204.24,84.84 -461.9,229.38 -684.99,194.81 -72.27,-12.57 -157.11,-6.28 -238.8,-78.55 -185.39,-157.11 -109.98,-408.48 -6.29,-477.61 144.54,78.55 251.37,125.69 414.77,43.99 150.82,-75.41 333.07,-201.1 333.07,-392.77 0,-135.11 -179.11,-245.09 -304.79,-245.09 -197.96,0 -336.21,56.56 -480.75,166.54 -43.99,31.42 -87.98,72.27 -122.55,116.26l-65.98 78.55c-28.28,43.99 -47.14,75.41 -72.27,122.54 -47.14,91.13 -84.84,166.54 -84.84,304.79z"/>
  <path class="fil0" d="M10582.66 8238.54c0,-197.95 -3.14,-587.58 235.66,-587.58 84.84,0 128.83,91.12 147.68,160.25 53.42,169.67 34.57,458.75 53.42,559.3 15.71,87.98 6.29,197.96 -106.83,197.96 -141.4,0 -169.68,-12.57 -257.66,-106.84 -40.85,-47.13 -72.27,-135.11 -72.27,-223.09zm1247.44 -706.98c91.12,21.99 113.12,56.55 113.12,128.82 0,81.7 -65.99,201.1 -100.55,257.66l-109.98 163.39c-65.98,87.98 -323.64,386.49 -427.33,395.92 -22,-87.98 -25.14,-251.38 -25.14,-342.5 0,-43.99 -9.43,-43.99 -9.43,-81.7 -3.14,-31.42 3.15,-65.98 0,-94.26 -12.56,-150.82 -25.13,-317.36 -119.4,-443.05 -119.4,-163.39 -408.48,-160.25 -565.59,-53.41 -65.98,43.99 -113.11,103.69 -150.82,179.1 -56.56,113.12 -109.98,248.23 -106.83,383.34 0,56.56 -18.86,100.55 -6.29,160.25 9.43,47.14 3.14,106.84 12.57,147.69 25.14,153.96 72.27,226.23 163.39,339.35l87.98 72.27c75.42,50.27 147.69,75.41 241.95,91.12 238.8,37.71 188.53,-18.85 188.53,304.79l6.28 986.64c0,116.26 9.43,204.24 9.43,320.5l18.85 314.22c15.71,91.12 47.14,172.81 103.69,229.37 172.82,172.82 377.06,119.41 518.46,-56.56 106.83,-135.11 323.64,-656.71 424.19,-857.81 25.14,-50.27 47.13,-91.12 72.27,-141.39 81.7,-163.39 157.11,-333.07 248.23,-490.18 78.56,-131.97 172.82,-260.8 257.66,-389.63 188.53,-285.93 389.63,-512.17 637.86,-747.83 21.99,-18.85 31.42,-22 53.41,-47.13 56.56,-53.42 125.69,-94.27 188.53,-141.4 40.85,-31.42 84.84,-56.56 128.83,-87.98 22,-12.57 37.71,-22 62.85,-37.71l578.15 -279.65c201.1,-65.98 182.25,-47.13 345.64,-87.98 94.27,-21.99 50.28,-125.69 -50.27,-125.69 -311.08,0 -502.75,87.98 -760.41,216.81 -25.13,12.57 -40.84,22 -69.12,34.57l-131.97 69.12c-84.84,47.14 -160.25,106.84 -235.67,163.4 -40.84,31.42 -75.41,56.56 -113.11,84.84 -12.57,9.42 -12.57,12.56 -28.28,21.99l-339.36 307.93c-9.42,9.43 -15.71,15.71 -25.13,25.14 -9.43,15.71 -6.29,12.57 -22,28.28l-276.51 326.78c-144.54,191.67 -260.8,402.2 -389.63,606.44 -153.96,248.23 -424.19,826.39 -575.01,1121.75l-109.98 188.53c-31.42,53.42 -65.98,84.84 -138.25,84.84 -81.7,0 -91.13,-100.55 -103.69,-175.96 -50.28,-270.23 -28.28,-876.66 -31.43,-1168.89 0,-34.56 -9.42,-40.84 -9.42,-65.98l9.42 -135.11c0,-81.7 -9.42,-216.81 0,-289.08 12.57,-116.26 18.86,-135.12 87.98,-204.24 69.13,-69.13 153.97,-131.97 232.52,-191.67 28.28,-22 40.85,-43.99 75.42,-69.13 25.13,-18.86 50.27,-47.13 72.27,-69.13 84.83,-84.84 153.96,-182.24 235.66,-267.08 15.71,-18.86 15.71,-22 28.28,-40.85 119.4,-141.4 345.64,-496.46 345.64,-663 0,-47.13 -31.43,-97.4 -56.56,-122.54 -100.55,-103.69 -245.09,-47.13 -329.93,37.7 -37.71,37.71 -125.69,119.41 -131.97,175.97z"/>
  <path class="fil0" d="M18004.44 11946.29l-153.96 0 0 -238.8c81.69,0 166.53,-12.57 213.66,31.42 12.57,9.42 18.86,15.71 28.28,34.56 37.71,91.12 -25.14,172.82 -87.98,172.82zm-373.92 490.18l219.96 0 0 -295.37 94.26 0 160.25 295.37 238.8 0c-9.42,-15.71 -12.56,-18.86 -21.99,-34.57l-147.68 -260.8c-9.43,-18.85 -15.71,-25.13 -25.14,-43.99 301.65,-160.25 166.54,-593.86 -153.96,-593.86l-364.5 0 0 933.22z"/>
  <path class="fil0" d="M9476.62 11767.19c15.71,25.13 15.71,43.99 25.14,75.41l75.41 248.23 -201.1 0 75.41 -241.95c9.43,-28.28 18.86,-53.41 25.14,-81.69zm-446.19 669.28l232.52 0c22,-40.85 28.28,-100.55 53.42,-141.4l329.93 0c12.57,47.13 31.42,94.26 43.99,141.4l235.66 0 -311.07 -933.22 -273.37 0 -311.08 933.22z"/>
  <polygon class="fil0" points="16100.29,12436.47 16684.73,12436.47 16684.73,12235.37 16320.24,12235.37 16320.24,12071.98 16643.89,12071.98 16643.89,11867.74 16320.24,11867.74 16320.24,11716.91 16678.45,11716.91 16678.45,11503.25 16100.29,11503.25 "/>
  <polygon class="fil0" points="12621.92,12436.47 13200.08,12436.47 13200.08,12235.37 12835.59,12235.37 12835.59,12071.98 13156.09,12071.98 13156.09,11867.74 12835.59,11867.74 12835.59,11716.91 13190.65,11716.91 13190.65,11503.25 12621.92,11503.25 "/>
  <path class="fil0" d="M10812.04 11528.38l0 188.53 238.8 0 0 719.56 210.53 0 0 -719.56 238.8 0 0 -213.66 -662.99 0c-18.86,0 -25.14,6.28 -25.14,25.13z"/>
  <polygon class="fil0" points="14356.39,12436.47 14984.83,12436.47 14984.83,12235.37 14570.06,12235.37 14570.06,11503.25 14356.39,11503.25 "/>
  <polygon class="fil0" points="18174.12,9470.27 18164.69,9470.27 18170.98,9479.69 "/>
  <line class="fil0" x1="18174.12" y1="9470.27" x2="18174.12" y2= "9470.27" />
 </g>
</svg>
