<?xml version="1.0" encoding="UTF-8"?>
<!DOCTYPE svg PUBLIC "-//W3C//DTD SVG 1.1//EN" "http://www.w3.org/Graphics/SVG/1.1/DTD/svg11.dtd">
<!-- Creator: CorelDRAW 2020 (64-Bit) -->
<svg xmlns="http://www.w3.org/2000/svg" xml:space="preserve" width="297mm" height="210mm" version="1.1" style="shape-rendering:geometricPrecision; text-rendering:geometricPrecision; image-rendering:optimizeQuality; fill-rule:evenodd; clip-rule:evenodd"
viewBox="0 0 29700 21000"
 xmlns:xlink="http://www.w3.org/1999/xlink"
 xmlns:xodm="http://www.corel.com/coreldraw/odm/2003">
 <defs>
  <style type="text/css">
   <![CDATA[
    .fil2 {fill:yellow}
    .fil3 {fill:white}
    .fil1 {fill:#44D60B;fill-rule:nonzero}
    .fil0 {fill:white;fill-rule:nonzero}
   ]]>
  </style>
 </defs>
 <g id="Слой_x0020_1">
  <metadata id="CorelCorpID_0Corel-Layer"/>
  <g id="_1632355474048">
   <path class="fil0" d="M5193.79 11474.94c-326.78,0 -595.95,-101.52 -807.53,-304.6 -207.77,-204.98 -311.67,-464.02 -311.67,-777.17 0,-320.75 107.67,-581.7 323.02,-782.88 215.34,-204.96 485.45,-307.44 810.35,-307.44 317.34,0 588.39,95.84 813.18,287.53l-368.34 446.94c-137.89,-111.98 -288.06,-167.98 -450.51,-167.98 -153,0 -279.56,50.31 -379.67,150.91 -96.34,98.67 -144.52,220.15 -144.52,364.37 0,142.35 47.24,266.67 141.68,372.94 92.55,102.47 220.05,153.72 382.51,153.72 81.23,0 161.03,-13.29 239.44,-39.84 78.38,-26.57 139.29,-58.85 182.75,-96.81l0 -125.24 -422.19 0 0 -501.04 952.02 0 0 936.59c-281.45,259.99 -601.62,390 -960.52,390zm4723.28 -1187.1c128.45,28.46 227.14,90.63 296.09,186.47 68.95,95.82 103.42,211.14 103.42,345.88 0,184.08 -63.27,334.01 -189.84,449.8 -126.57,115.76 -290.9,173.63 -493.01,173.63l-1068.18 0 0 -2103.76 1017.17 0c194.56,0 347.56,51.22 459.01,153.73 109.56,102.48 164.34,223.94 164.34,364.38 0,94.9 -26.91,182.68 -80.75,263.34 -53.84,80.63 -123.25,136.16 -208.25,166.53zm-447.68 -452.64l-325.85 0 0 298.92 300.36 0c60.43,0 106.23,-13.76 137.41,-41.3 31.16,-27.5 46.75,-63.09 46.75,-106.76 0,-41.73 -14.64,-77.33 -43.92,-106.75 -29.28,-29.4 -67.53,-44.11 -114.75,-44.11zm-325.85 1107.41l359.86 0c67.99,0 119.46,-16.63 154.41,-49.82 34.95,-33.22 52.42,-74.51 52.42,-123.85 0,-49.35 -16.54,-90.15 -49.58,-122.41 -33.07,-32.25 -78.87,-48.4 -137.42,-48.4l-379.69 0 0 344.48zm3316.91 222.03c-207.78,208.78 -468.46,313.15 -782.02,313.15 -313.57,0 -576.14,-104.37 -787.69,-313.15 -209.67,-210.66 -314.52,-468.78 -314.52,-774.33 0,-305.55 104.85,-562.71 314.52,-771.48 209.67,-210.66 471.29,-315.98 784.86,-315.98 313.57,0 575.18,105.32 784.85,315.98 209.67,208.77 314.49,466.89 314.49,774.34 0,305.56 -104.82,562.72 -314.49,771.47zm-784.85 -273.3c137.89,0 254.06,-47.44 348.49,-142.32 94.46,-98.69 140.75,-218.27 138.85,-358.71 -1.9,-146.12 -50.07,-266.64 -144.5,-361.54 -92.57,-93 -206.84,-139.49 -342.84,-139.49 -136.01,0 -251.24,47.44 -345.68,142.36 -94.46,94.86 -141.67,214.45 -141.67,358.67 0,144.26 47.21,263.81 141.67,358.71 94.44,94.88 209.67,142.32 345.68,142.32z"/>
   <path class="fil1" d="M13864.78 11480.63c-351.34,0 -647.9,-115.76 -889.68,-347.3l283.34 -441.24c196.44,163.2 401.38,244.83 614.85,244.83 134.1,0 201.16,-37.01 201.16,-111.04 0,-49.36 -52.88,-93.01 -158.65,-130.96 -45.35,-15.17 -88.79,-28.46 -130.36,-39.84 -147.33,-45.56 -255.95,-85.41 -325.84,-119.58 -234.23,-115.77 -351.33,-300.82 -351.33,-555.13 0,-193.57 76.5,-353.93 229.5,-481.1 151.12,-127.16 346.62,-190.73 586.51,-190.73 287.13,0 545.91,85.4 776.35,256.22l-260.67 458.31c-58.54,-43.65 -139.78,-81.6 -243.66,-113.85 -102.02,-32.26 -189.84,-48.4 -263.51,-48.4 -64.22,0 -112.88,9.48 -145.92,28.46 -33.07,18.98 -49.58,43.65 -49.58,74.02 0,32.27 13.22,57.41 39.66,75.44 26.44,18.03 67.99,35.59 124.67,52.68 198.34,60.72 332.44,105.33 402.34,133.77 283.34,110.08 425.01,298.92 425.01,566.54 0,199.25 -78.38,364.36 -235.17,495.33 -156.78,129.06 -366.45,193.57 -629.02,193.57zm2279.87 -2140.77l697.03 0 -736.7 1409.16 0 694.6 -589.33 0 0 -694.6 -728.19 -1409.16 697.02 0 325.83 742.99 334.34 -742.99zm1574.36 2140.77c-351.35,0 -647.92,-115.76 -889.7,-347.3l283.34 -441.24c196.46,163.2 401.4,244.83 614.85,244.83 134.12,0 201.18,-37.01 201.18,-111.04 0,-49.36 -52.9,-93.01 -158.67,-130.96 -45.35,-15.17 -88.79,-28.46 -130.34,-39.84 -147.33,-45.56 -255.96,-85.41 -325.84,-119.58 -234.23,-115.77 -351.35,-300.82 -351.35,-555.13 0,-193.57 76.5,-353.93 229.5,-481.1 151.13,-127.16 346.64,-190.73 586.52,-190.73 287.12,0 545.9,85.4 776.36,256.22l-260.68 458.31c-58.56,-43.65 -139.78,-81.6 -243.67,-113.85 -102.01,-32.26 -189.84,-48.4 -263.51,-48.4 -64.22,0 -112.86,9.48 -145.92,28.46 -33.05,18.98 -49.58,43.65 -49.58,74.02 0,32.27 13.23,57.41 39.66,75.44 26.46,18.03 68.01,35.59 124.69,52.68 198.32,60.72 332.44,105.33 402.34,133.77 283.34,110.08 425,298.92 425,566.54 0,199.25 -78.39,364.36 -235.16,495.33 -156.8,129.06 -366.47,193.57 -629.02,193.57zm1602.67 -37.01l0 -1534.4 -572.33 0 0 -569.36 1736.86 0 0 569.36 -569.51 0 0 1534.4 -595.02 0zm3042.07 0l-1561.22 0 0 -2103.76 1566.88 0 0 546.57 -971.86 0 0 233.43 898.19 0 0 543.74 -898.19 0 0 233.44 966.2 0 0 546.58zm1001.99 0l-578 0 0 -2103.76 453.35 0 716.83 1019.14 714.03 -1019.14 459.01 0 0 2103.76 -583.7 0 0 -910.96 -476.01 657.59 -229.5 0 -476.01 -657.59 0 910.96z"/>
   <path class="fil2" d="M7990.13 9302.87l301.73 1748.22c-50.33,-195.28 -499.69,41.02 -948.88,41.02 -449.2,0 -751.76,-285.55 -889.97,-140.33l-0.06 0 1537.18 -1648.91zm306.29 1774.54l0.15 0.9 -0.06 0 -0.09 -0.9z"/>
   <path class="fil3" d="M7342.98 11480.63c-526.99,0 -954.2,-173.95 -954.2,-388.52 0,-214.54 427.21,-388.49 954.2,-388.49 526.98,0 954.19,173.95 954.19,388.49 0,214.57 -427.21,388.52 -954.19,388.52z"/>
   <path class="fil0" d="M4074.57 11916.34l469.59 0 0 532.61 -126.9 0 0 -418.83 -215.77 0 0 418.83 -126.92 0 0 -532.61zm970.5 -12.74c74.85,0 137.34,27.13 187.44,81.4 49.46,53.62 74.19,119.33 74.19,197.16 0,78.46 -25.05,144.84 -75.17,199.09 -49.47,53.64 -111.93,80.43 -187.42,80.43 -67.69,0 -124.65,-26.46 -170.85,-79.44l0 285.43 -127.9 0 0 -751.33 126.92 0 0 70.62c45.55,-55.57 103.17,-83.36 172.79,-83.36zm-174.73 279.54c0,45.13 14.3,83.68 42.95,115.75 28.62,30.73 65.73,46.08 111.28,46.08 45.56,0 82.67,-15.35 111.3,-46.08 28.64,-32.07 42.94,-70.62 42.94,-115.75 0,-45.78 -14.3,-84.05 -42.94,-114.78 -28.63,-31.36 -65.74,-47.08 -111.3,-47.08 -45.55,0 -82.66,15.72 -111.28,47.08 -28.65,32.05 -42.95,70.32 -42.95,114.78zm580 -0.98c0,-78.47 26.35,-144.51 79.08,-198.15 54.01,-54.25 122.03,-81.4 204.04,-81.4 82.62,0 150.33,27.15 203.02,81.4 53.38,53.64 80.06,119.68 80.06,198.15 0,79.76 -26.68,146.47 -80.06,200.08 -52.69,53.62 -120.4,80.44 -203.02,80.44 -82.66,0 -150.68,-26.82 -204.04,-80.44 -52.73,-53.61 -79.08,-120.32 -79.08,-200.08zm438.32 0c0,-45.12 -14.97,-83.07 -44.9,-113.8 -30.59,-31.36 -67.37,-47.08 -110.3,-47.08 -42.97,0 -79.74,15.72 -110.33,47.08 -29.94,30.73 -44.9,68.68 -44.9,113.8 0,45.77 14.96,84.03 44.9,114.74 30.59,31.4 67.36,47.08 110.33,47.08 42.93,0 79.71,-15.68 110.3,-47.08 29.93,-30.71 44.9,-68.97 44.9,-114.74zm809.41 -10.8c0,17.02 -1.29,35.96 -3.89,56.91l-404.17 0c8.44,37.92 26.51,67.84 54.16,89.73 27.67,21.92 63.62,32.87 107.87,32.87 64.45,0 122.71,-18.33 174.77,-54.94l50.77 91.21c-65.74,49.07 -142.55,73.57 -230.42,73.57 -48.15,0 -90.95,-7.85 -128.35,-23.55 -37.43,-15.67 -67.54,-36.76 -90.31,-63.26 -22.78,-26.49 -39.87,-55.9 -51.26,-88.28 -11.38,-32.37 -17.08,-66.86 -17.08,-103.46 0,-81.08 25.38,-147.47 76.15,-199.12 51.42,-52.95 117.81,-79.44 199.15,-79.44 76.15,0 138.97,24.17 188.42,72.58 49.46,47.72 74.19,112.8 74.19,195.18zm-262.61 -160.84c-37.1,0 -68.51,10.76 -94.21,32.36 -25.7,21.56 -42.8,51 -51.24,88.28l283.11 0c-5.21,-37.28 -20.36,-66.72 -45.42,-88.28 -25.05,-21.6 -55.8,-32.36 -92.24,-32.36zm927.54 438.43l-152.29 0 -173.76 -224.62 -42.97 41.19 0 183.43 -124.95 0 0 -532.61 124.95 0 0 201.08 206.96 -201.08 157.18 0 -235.27 225.61 240.15 307zm687.38 176.54l-122.01 0 0 -176.54 -434.45 0 0 -532.61 126.9 0 0 415.9 217.72 0 0 -415.9 126.92 0 0 415.9 84.92 0 0 293.25zm240.27 -176.54l-81.03 0 0 -532.61 124 0 0 336.44 297.74 -336.44 80.06 0 0 532.61 -123 0 0 -332.52 -297.77 332.52zm593.68 -266.79c0,-78.47 26.36,-144.51 79.07,-198.15 54.03,-54.25 122.03,-81.4 204.03,-81.4 82.65,0 150.34,27.15 203.05,81.4 53.36,53.64 80.04,119.68 80.04,198.15 0,79.76 -26.68,146.47 -80.04,200.08 -52.71,53.62 -120.4,80.44 -203.05,80.44 -82.64,0 -150.65,-26.82 -204.03,-80.44 -52.71,-53.61 -79.07,-120.32 -79.07,-200.08zm438.33 0c0,-45.12 -14.99,-83.07 -44.92,-113.8 -30.58,-31.36 -67.37,-47.08 -110.31,-47.08 -42.96,0 -79.71,15.72 -110.31,47.08 -29.94,30.73 -44.9,68.68 -44.9,113.8 0,45.77 14.96,84.03 44.9,114.74 30.6,31.4 67.35,47.08 110.31,47.08 42.94,0 79.73,-15.68 110.31,-47.08 29.93,-30.71 44.92,-68.97 44.92,-114.74zm654.18 -57.88l0 -207.94 125.94 0 0 532.61 -125.94 0 0 -210.87 -227.47 0 0 210.87 -126.92 0 0 -532.61 126.92 0 0 207.94 227.47 0zm682.51 0l0 -207.94 125.92 0 0 532.61 -125.92 0 0 -210.87 -227.48 0 0 210.87 -126.9 0 0 -532.61 126.9 0 0 207.94 227.48 0zm735.22 -140.27l0 -67.67 121.06 0 0 532.61 -121.06 0 0 -65.71c-46.2,52.29 -103.8,78.44 -172.78,78.44 -76.14,0 -138.98,-26.79 -188.43,-80.43 -49.47,-53.61 -74.21,-120.63 -74.21,-201.06 0,-80.42 24.74,-146.48 74.21,-198.12 50.12,-52.31 112.93,-78.47 188.43,-78.47 67.68,0 125.29,26.79 172.78,80.41zm2.94 198.15c0,-45.12 -14.63,-83.37 -43.93,-114.77 -29.28,-31.39 -66.72,-47.08 -112.26,-47.08 -45.56,0 -82.99,15.69 -112.29,47.08 -28.62,32.04 -42.96,70.29 -42.96,114.77 0,45.11 14.34,83.68 42.96,115.73 29.3,31.38 66.73,47.08 112.29,47.08 45.54,0 82.98,-15.7 112.26,-47.08 29.3,-31.37 43.93,-69.96 43.93,-115.73zm536.06 -265.82l215.74 0 0 532.61 -123.98 0 0 -182.43c-26.68,4.57 -57.93,7.19 -93.73,7.83l-112.25 174.6 -140.59 0 132.78 -192.24c-35.8,-13.74 -62.64,-34.82 -80.54,-63.28 -17.9,-28.45 -26.85,-60.97 -26.85,-97.59 0,-54.27 19.7,-97.75 59.07,-130.46 39.37,-32.7 96.16,-49.04 170.35,-49.04zm1.94 255.02c29.94,0 59.88,-2.62 89.82,-7.84l0 -143.21 -88.84 0c-70.93,0 -106.41,25.5 -106.41,76.5 0,49.7 35.14,74.55 105.43,74.55zm1125.61 -267.76c74.85,0 137.32,27.13 187.44,81.4 49.47,53.62 74.18,119.33 74.18,197.16 0,78.46 -25.05,144.84 -75.17,199.09 -49.45,53.64 -111.92,80.43 -187.43,80.43 -67.68,0 -124.63,-26.46 -170.84,-79.44l0 285.43 -127.88 0 0 -751.33 126.9 0 0 70.62c45.56,-55.57 103.17,-83.36 172.8,-83.36zm-174.74 279.54c0,45.13 14.32,83.68 42.95,115.75 28.64,30.73 65.73,46.08 111.28,46.08 45.58,0 82.66,-15.35 111.31,-46.08 28.62,-32.07 42.94,-70.62 42.94,-115.75 0,-45.78 -14.32,-84.05 -42.94,-114.78 -28.65,-31.36 -65.73,-47.08 -111.31,-47.08 -45.55,0 -82.64,15.72 -111.28,47.08 -28.63,32.05 -42.95,70.32 -42.95,114.78zm1118.88 -11.78c0,17.02 -1.29,35.96 -3.91,56.91l-404.14 0c8.44,37.92 26.51,67.84 54.16,89.73 27.67,21.92 63.62,32.87 107.87,32.87 64.45,0 122.7,-18.33 174.76,-54.94l50.77 91.21c-65.74,49.07 -142.54,73.57 -230.41,73.57 -48.15,0 -90.94,-7.85 -128.35,-23.55 -37.43,-15.67 -67.53,-36.76 -90.31,-63.26 -22.78,-26.49 -39.87,-55.9 -51.26,-88.28 -11.38,-32.37 -17.08,-66.86 -17.08,-103.46 0,-81.08 25.38,-147.47 76.15,-199.12 51.42,-52.95 117.81,-79.44 199.15,-79.44 76.15,0 138.94,24.17 188.41,72.58 49.46,47.72 74.19,112.8 74.19,195.18zm-262.6 -160.84c-37.1,0 -68.51,10.76 -94.21,32.36 -25.71,21.56 -42.8,51 -51.24,88.28l283.1 0c-5.21,-37.28 -20.34,-66.72 -45.41,-88.28 -25.04,-21.6 -55.8,-32.36 -92.24,-32.36zm927.54 438.43l-152.29 0 -173.79 -224.62 -42.95 41.19 0 183.43 -124.96 0 0 -532.61 124.96 0 0 201.08 206.97 -201.08 157.19 0 -235.29 225.61 240.16 307zm134.83 7.83c-9.12,0 -20.18,-1.3 -33.19,-3.92l-30.27 -96.11c5.2,0.65 13,0.96 23.44,0.96 32.53,0 58.56,-13.38 78.08,-40.19 20.19,-27.46 35.15,-69.33 44.93,-125.55 10.41,-60.81 20.81,-139.62 31.22,-236.4l3.91 -39.23 355.36 0 0 532.61 -126.92 0 0 -418.83 -118.12 0 -5.86 46.11c-1.29,10.46 -2.6,21.58 -3.91,33.34l-2.93 16.68 -5.85 45.11c-2.61,22.23 -5.54,38.27 -8.79,48.05 -8.46,42.51 -15.61,71.29 -21.47,86.33 -11.72,30.72 -22.79,54.59 -33.2,71.59 -33.85,52.99 -82.66,79.45 -146.43,79.45zm1081.77 -472.77l0 -67.67 121.05 0 0 532.61 -121.05 0 0 -65.71c-46.21,52.29 -103.79,78.44 -172.78,78.44 -76.15,0 -138.98,-26.79 -188.43,-80.43 -49.45,-53.61 -74.19,-120.63 -74.19,-201.06 0,-80.42 24.74,-146.48 74.19,-198.12 50.12,-52.31 112.94,-78.47 188.43,-78.47 67.68,0 125.28,26.79 172.78,80.41zm2.93 198.15c0,-45.12 -14.63,-83.37 -43.93,-114.77 -29.28,-31.39 -66.7,-47.08 -112.25,-47.08 -45.56,0 -82.98,15.69 -112.3,47.08 -28.61,32.04 -42.95,70.29 -42.95,114.77 0,45.11 14.34,83.68 42.95,115.73 29.32,31.38 66.74,47.08 112.3,47.08 45.55,0 82.97,-15.7 112.25,-47.08 29.3,-31.37 43.93,-69.96 43.93,-115.73zm445.26 266.79l-123.98 0 0 -532.61 88.86 0 227.45 295.24 226.49 -295.24 87.88 0 0 532.61 -123.02 0 0 -297.21 -170.86 216.77 -42.95 0 -169.87 -216.77 0 297.21zm1115.96 -464.94l0 -67.67 121.06 0 0 532.61 -121.06 0 0 -65.71c-46.21,52.29 -103.8,78.44 -172.78,78.44 -76.15,0 -138.97,-26.79 -188.41,-80.43 -49.46,-53.61 -74.2,-120.63 -74.2,-201.06 0,-80.42 24.74,-146.48 74.2,-198.12 50.11,-52.31 112.92,-78.47 188.41,-78.47 67.68,0 125.29,26.79 172.78,80.41zm2.94 198.15c0,-45.12 -14.63,-83.37 -43.92,-114.77 -29.3,-31.39 -66.73,-47.08 -112.28,-47.08 -45.55,0 -82.98,15.69 -112.28,47.08 -28.62,32.04 -42.95,70.29 -42.95,114.77 0,45.11 14.33,83.68 42.95,115.73 29.3,31.38 66.73,47.08 112.28,47.08 45.55,0 82.98,-15.7 112.28,-47.08 29.29,-31.37 43.92,-69.96 43.92,-115.73zm812.23 266.79l-81.02 0 0 -532.61 123.99 0 0 336.44 297.74 -336.44 80.06 0 0 532.61 -123.01 0 0 -332.52 -297.76 332.52zm1387.24 -324.67l0 -207.94 125.94 0 0 532.61 -125.94 0 0 -210.87 -227.46 0 0 210.87 -126.9 0 0 -532.61 126.9 0 0 207.94 227.46 0zm735.25 -140.27l0 -67.67 121.03 0 0 532.61 -121.03 0 0 -65.71c-46.21,52.29 -103.82,78.44 -172.79,78.44 -76.18,0 -138.98,-26.79 -188.43,-80.43 -49.46,-53.61 -74.2,-120.63 -74.2,-201.06 0,-80.42 24.74,-146.48 74.2,-198.12 50.1,-52.31 112.91,-78.47 188.43,-78.47 67.68,0 125.27,26.79 172.79,80.41zm2.91 198.15c0,-45.12 -14.63,-83.37 -43.91,-114.77 -29.3,-31.39 -66.72,-47.08 -112.28,-47.08 -45.56,0 -82.99,15.69 -112.28,47.08 -28.64,32.04 -42.96,70.29 -42.96,114.77 0,45.11 14.32,83.68 42.96,115.73 29.29,31.38 66.72,47.08 112.28,47.08 45.56,0 82.98,-15.7 112.28,-47.08 29.28,-31.37 43.91,-69.96 43.91,-115.73zm684.45 -29.43c33.83,7.85 60.05,24.2 78.59,49.05 18.56,24.85 27.82,54.27 27.82,88.28 0,46.4 -16.92,84.51 -50.75,114.26 -33.86,29.76 -78.75,44.63 -134.74,44.63l-284.08 0 0 -532.61 274.33 0c50.75,0 90.95,12.58 120.56,37.75 29.61,25.19 44.42,56.43 44.42,93.7 0,52.3 -25.38,87.27 -76.15,104.94zm-99.58 -135.37l-143.5 0 0 105.94 144.48 0c25.38,0.65 43.11,-8.16 53.2,-26.49 10.09,-18.31 9.93,-36.43 -0.48,-54.43 -10.41,-17.97 -28.31,-26.32 -53.7,-25.02zm-143.5 329.59l153.27 0c22.77,0 40.67,-6.22 53.69,-18.65 13.03,-12.41 19.52,-28.44 19.52,-48.05 0,-19.63 -6.18,-35.49 -18.53,-47.57 -12.38,-12.1 -29.94,-18.17 -52.72,-18.17l-155.23 0 0 132.44zm602.45 102l-81.03 0 0 -532.61 123.98 0 0 336.44 297.77 -336.44 80.05 0 0 532.61 -123.02 0 0 -332.52 -297.75 332.52zm622.95 -532.61l361.2 0 0 112.81 -234.3 0 0 419.8 -126.9 0 0 -532.61zm898.25 67.67l0 -67.67 121.03 0 0 532.61 -121.03 0 0 -65.71c-46.21,52.29 -103.83,78.44 -172.79,78.44 -76.16,0 -138.96,-26.79 -188.43,-80.43 -49.46,-53.61 -74.19,-120.63 -74.19,-201.06 0,-80.42 24.73,-146.48 74.19,-198.12 50.13,-52.31 112.92,-78.47 188.43,-78.47 67.68,0 125.27,26.79 172.79,80.41zm2.91 198.15c0,-45.12 -14.63,-83.37 -43.91,-114.77 -29.3,-31.39 -66.72,-47.08 -112.28,-47.08 -45.56,0 -82.98,15.69 -112.26,47.08 -28.63,32.04 -42.96,70.29 -42.96,114.77 0,45.11 14.33,83.68 42.96,115.73 29.28,31.38 66.7,47.08 112.26,47.08 45.56,0 82.98,-15.7 112.28,-47.08 29.28,-31.37 43.91,-69.96 43.91,-115.73zm877.75 443.33l-122.03 0 0 -176.54 -434.43 0 0 -532.61 126.9 0 0 415.9 217.72 0 0 -415.9 126.92 0 0 415.9 84.92 0 0 293.25zm240.28 -176.54l-81.04 0 0 -532.61 123.99 0 0 336.44 297.76 -336.44 80.04 0 0 532.61 -123.01 0 0 -332.52 -297.74 332.52zm837.73 -532.61l215.75 0 0 532.61 -123.99 0 0 -182.43c-26.69,4.57 -57.91,7.19 -93.71,7.83l-112.27 174.6 -140.59 0 132.79 -192.24c-35.8,-13.74 -62.64,-34.82 -80.54,-63.28 -17.93,-28.45 -26.87,-60.97 -26.87,-97.59 0,-54.27 19.7,-97.75 59.07,-130.46 39.37,-32.7 96.18,-49.04 170.36,-49.04zm1.94 255.02c29.95,0 59.89,-2.62 89.82,-7.84l0 -143.21 -88.83 0c-70.94,0 -106.41,25.5 -106.41,76.5 0,49.7 35.13,74.55 105.42,74.55z"/>
  </g>
 </g>
</svg>
