<?xml version="1.0" encoding="UTF-8"?>
<!DOCTYPE svg PUBLIC "-//W3C//DTD SVG 1.1//EN" "http://www.w3.org/Graphics/SVG/1.1/DTD/svg11.dtd">
<!-- Creator: CorelDRAW 2020 (64-Bit) -->
<svg xmlns="http://www.w3.org/2000/svg" xml:space="preserve" width="297mm" height="210mm" version="1.1" style="shape-rendering:geometricPrecision; text-rendering:geometricPrecision; image-rendering:optimizeQuality; fill-rule:evenodd; clip-rule:evenodd"
viewBox="0 0 29700 21000"
 xmlns:xlink="http://www.w3.org/1999/xlink"
 xmlns:xodm="http://www.corel.com/coreldraw/odm/2003">
 <defs>
  <style type="text/css">
   <![CDATA[
    .fil1 {fill:#FEFEFE;fill-rule:nonzero}
    .fil0 {fill:#F9E71F;fill-rule:nonzero}
   ]]>
  </style>
 </defs>
 <g id="Слой_x0020_1">
  <metadata id="CorelCorpID_0Corel-Layer"/>
  <path class="fil0" d="M3087.57 9950.73l631.69 0 2262.17 0c-238.09,-667.85 -883.82,-1146.98 -1643.42,-1146.98 -759.45,0 -1405.18,479.13 -1643.19,1146.98l392.75 0z"/>
  <path class="fil0" d="M4504.23 11028.92c-63.23,-76.11 -119.51,-158.11 -166.12,-246.04 -46.7,87.93 -102.89,169.93 -166.2,246.04l-1497.11 0c220.6,698.12 881.88,1205 1663.23,1205 781.43,0 1442.71,-506.88 1663.39,-1205l-1497.19 0z"/>
  <path class="fil1" d="M3691.04 10178.89l-173.65 174.55 -173.64 -174.55c-30.44,-30.56 -79.76,-30.56 -110.17,0 -30.35,30.56 -30.35,80.11 0,110.63l173.7 174.44 -173.7 174.46c-30.35,30.56 -30.35,80.13 0,110.62 30.41,30.66 79.73,30.66 110.17,0l173.64 -174.46 173.65 174.46c30.41,30.57 79.72,30.57 110.08,0 30.44,-30.55 30.44,-80.06 0,-110.62l-173.56 -174.46 173.64 -174.44c30.42,-30.52 30.42,-80.07 0,-110.63 -30.44,-30.56 -79.75,-30.56 -110.16,0z"/>
  <path class="fil1" d="M5107.52 10234.87c-128.57,0 -233.27,105.11 -233.27,234.37 0,129.18 104.7,234.28 233.27,234.28 128.57,0 233.27,-105.1 233.27,-234.28 0,-129.26 -104.7,-234.37 -233.27,-234.37zm0 639.1c-222.13,0 -402.91,-181.61 -402.91,-404.73 0,-223.2 180.78,-404.82 402.91,-404.82 222.14,0 402.91,181.62 402.91,404.82 0,223.12 -180.77,404.73 -402.91,404.73z"/>
  <path class="fil1" d="M20653.27 8901.55c0,95.31 -64.53,142.85 -193.64,142.85l-1787.52 0c-129.06,0 -193.62,-54.75 -193.62,-164.12 0,-102.28 64.56,-153.46 193.62,-153.46l1817.81 0c108.85,0 163.35,58.2 163.35,174.73z"/>
  <path class="fil1" d="M20653.27 10759.83c0,95.11 -64.53,142.85 -193.64,142.85l-1787.52 0c-129.06,0 -193.62,-54.76 -193.62,-164.12 0,-102.48 64.56,-153.46 193.62,-153.46l1817.81 0c108.85,0 163.35,58.36 163.35,174.73z"/>
  <path class="fil1" d="M15130.35 8720.91c94.67,0 141.99,64.83 141.99,194.53l0 1795.97c0,129.67 -54.32,194.35 -163.15,194.35 -102.02,0 -152.93,-64.68 -152.93,-194.35l0 -1826.4c0,-109.35 58.09,-164.1 174.09,-164.1z"/>
  <path class="fil1" d="M20653.27 9839.63c0,95.11 -64.53,142.66 -193.64,142.66l-1787.52 0c-129.06,0 -193.62,-54.56 -193.62,-163.93 0,-102.48 64.56,-153.46 193.62,-153.46l1817.81 0c108.85,0 163.35,58.2 163.35,174.73z"/>
  <path class="fil1" d="M17967.28 8872.89c0,17.29 -6.47,51.15 -19.55,101.78 -160.48,160.15 -690.27,698.92 -1589.58,1616.7l1447.41 0c107.73,13.17 161.72,60.37 161.72,141.24 0,115.48 -64.02,173.31 -192.05,173.31l-1770.8 0c-128.03,0 -192.21,-50.81 -192.21,-152.05 0,-10.08 6.64,-41.07 19.73,-92.77 159.38,-159.95 689.17,-698.75 1589.38,-1616.55l-1416.9 0c-128.03,0 -192.21,-50.61 -192.21,-151.85 0,-108.44 53.96,-162.65 161.9,-162.65l1831.44 0c107.73,14.23 161.72,61.79 161.72,142.84z"/>
  <path class="fil1" d="M21268.52 8730.04c93.59,0 140.56,64.32 140.56,192.93l0 1668.4 1528.98 0 0 -1698.68c0,-108.43 57.55,-162.65 172.28,-162.65 93.76,0 140.74,64.32 140.74,192.93l0 1840.08c0,87.19 -64.01,134.76 -192.21,142.86l-1820.66 0c-76.55,0 -123.9,-57.82 -142.19,-173.31l0 -1839.91c0,-108.43 57.4,-162.65 172.5,-162.65z"/>
  <path class="fil1" d="M9071.85 8908.59c0,94.03 -64,141.23 -192.02,141.23l-1660.4 0 0 1536.2 1690.71 0c107.74,0 161.71,57.65 161.71,173.1 0,94.22 -64,141.42 -192.02,141.42l-1831.25 0c-86.96,0 -134.28,-64.31 -142.19,-192.92l0 -1829.46c0,-76.91 57.37,-124.48 172.3,-142.69l1831.45 0c107.74,0 161.71,57.67 161.71,173.12z"/>
  <path class="fil1" d="M9867.89 9031.83l1528.78 0 0 1559.62 -1528.78 0 0 -1559.62zm1701.43 -301.73l-1842 0c-114.92,0 -172.47,54.04 -172.47,162.67l0 1839.71c18.1,115.64 65.62,173.31 142.19,173.31l1820.83 0c127.83,-7.95 192.01,-55.67 192.01,-142.88l0 -1839.91c0,-128.59 -46.95,-192.9 -140.56,-192.9z"/>
  <path class="fil1" d="M23866.61 8730.04l20.99 0c78.86,0 190.22,132.77 334.36,397.92 44.28,50.8 332.75,493.39 865.05,1328.15l10.43 0c0,-13.16 362.5,-571.22 1087.36,-1674.37 54.33,-34.41 91.62,-51.7 112.07,-51.7l19.53 0c66.53,0 114.03,51.16 142.18,153.47l0 19.83c0,34.4 -189.68,337.74 -568.71,910.04 379.03,580.42 568.71,886.81 568.71,919.22l0 30.45c-27.24,95.12 -74.76,142.86 -142.18,142.86l-19.53 0c-81.76,0 -210.85,-160.15 -387.09,-480.25 -104.89,-146.79 -172.49,-252.18 -202.78,-315.93 -7.16,0 -173.01,248.21 -497.71,744.49 -39.06,34.38 -73.5,51.69 -102.73,51.69l-30.29 0c-70.48,0 -206,-173.83 -406.61,-521.13l-192.21 -275.05c-280.22,460.74 -453.07,719.62 -518.51,776.37l-71.34 19.81 -20.99 0c-68.67,0 -115.99,-51.17 -142.17,-153.5l0 -19.81c0,-32.41 189.49,-338.8 568.53,-919.22l0 -10.62c-347.82,-507.46 -537.33,-807.19 -568.53,-899.42l0 -19.83c29.21,-102.31 76.75,-153.47 142.17,-153.47z"/>
  <path class="fil1" d="M14293.1 10588.3l-1698.23 0 0 -1665.35c0,-128.61 -46.79,-192.93 -140.74,-192.93 -114.75,0 -172.3,54.21 -172.3,162.67l0 1839.93c0.19,0.89 0.36,1.78 0.54,2.69 -0.18,2.33 -0.54,4.13 -0.54,6.48 0,59.27 19.74,101.78 57.74,129.15 22.4,22.72 50.38,34.95 84.44,34.95l51.28 0 1558.55 0 228.95 0c129.08,0 193.64,-47.55 193.64,-142.84 0,-116.56 -54.5,-174.75 -163.33,-174.75z"/>
  <polygon class="fil0" points="7449.43,12223.96 7346.47,12223.96 7037.79,11909.64 6972.02,11909.64 6972.02,12223.96 6897.4,12223.96 6897.4,11546.78 6972.02,11546.78 6972.02,11842.82 7038.78,11842.82 7313.22,11547.78 7412.96,11547.78 7105.31,11875.23 "/>
  <polygon class="fil0" points="8715.79,12223.96 8641.13,12223.96 8641.13,11613.62 8262.78,12223.96 8138.63,12223.96 8138.63,11548.79 8213.26,11548.79 8213.26,12166.29 8591.63,11548.79 8715.79,11548.79 "/>
  <path class="fil0" d="M9888.27 12015.07c0,-31.19 -3.02,-56.17 -9.1,-75.01 -7.39,-19.11 -17.49,-32.67 -30.31,-40.55 -12.32,-8.6 -29.14,-13.96 -50.48,-16.12 -17.58,-2.8 -44.83,-4.21 -81.78,-4.21l-178.62 0 0 277.96 239.21 0c32.02,0 56.24,-5.13 72.67,-15.35 15.76,-10.06 26.2,-24.92 31.28,-44.56 4.76,-18.63 7.13,-46.02 7.13,-82.16zm76.62 14.33c0,42.42 -5.75,78.89 -17.23,109.41 -11.03,28.24 -29.81,49.53 -56.43,63.88 -27.41,14.18 -63.06,21.27 -106.9,21.27l-320.98 0 0 -676.18 456.23 0 0 66.81 -381.6 0 0 198.77 200.78 0c50.59,0 89.59,3.37 117,10.15 28.75,7.1 51.32,18.25 67.73,33.42 15.46,15.82 26.22,37.12 32.3,63.85 6.05,27.06 9.1,63.24 9.1,108.62z"/>
  <polygon class="fil0" points="11133.21,11614.61 10774.05,11614.61 10774.05,11844.8 11116.22,11844.8 11116.22,11910.64 10774.05,11910.64 10774.05,12157.16 11131.24,12157.16 11131.24,12223.97 10699.42,12223.97 10699.42,11547.79 11133.21,11547.79 "/>
  <path class="fil0" d="M12276.63 11756.68c0,-31.69 -2.29,-59.38 -6.89,-83.17 -5.26,-19.79 -16.05,-34.29 -32.31,-43.55 -15.43,-10.23 -40.01,-15.35 -73.71,-15.35l-237.38 0 -1 278.94 180.69 0c42.58,0 76.6,-2.72 102.07,-8.17 22.83,-5.12 40.02,-17.66 51.52,-37.62 11.35,-19.46 17.01,-49.83 17.01,-91.08zm75.62 -14.36c0,44.88 -3.35,80.79 -10.07,107.67 -7.22,27.7 -19.02,49.33 -35.41,64.84 -16.71,15.86 -39.5,27.31 -68.36,34.41 -31.05,6.77 -68.45,10.14 -112.16,10.14l-200.91 0 0 264.59 -73.65 0 0 -676.18 320.74 0c44.01,0 79.73,7.08 107.14,21.27 25.29,13.7 44.11,35.01 56.42,63.88 10.86,28.87 16.26,65.35 16.26,109.38z"/>
  <path class="fil0" d="M14503.39 11998.16c0,52.63 -3.05,93.42 -9.13,122.44 -6.23,29.7 -18.07,52.37 -35.48,68.03 -18.39,16.31 -43.92,27.44 -76.59,33.41 -35.15,6.06 -83.6,9.1 -145.34,9.1 -66.35,0 -115.12,-3.71 -146.32,-11.1 -33.01,-6.93 -58.61,-21.53 -76.72,-43.81 -18.16,-22.29 -30.19,-55.37 -36.11,-99.25 -5.1,-42.74 -8.13,-105.6 -9.12,-188.62 0,-82.49 3.04,-145.7 9.12,-189.58 5.92,-43.23 17.99,-75.99 36.22,-98.29 17.72,-22.91 42.93,-37.77 75.62,-44.53 30.2,-7.43 79.31,-11.14 147.31,-11.14 61.41,0 107.81,3.37 139.18,10.14 33.34,6.93 57.89,18.4 73.65,34.43 16.76,16.48 27.59,37.45 32.52,62.86 5.75,24.76 9.77,61.93 12.06,111.43l-72.66 0c-4.43,-45.72 -7.8,-74.76 -10.09,-87.16 -1.82,-13.37 -8.22,-26.16 -19.22,-38.39 -10.03,-10.05 -26.86,-17.22 -50.5,-21.52 -25.77,-3.33 -60.78,-4.98 -104.94,-4.98 -51.07,0 -89.1,3.07 -114.07,9.19 -24.44,5.93 -42.28,18.08 -53.46,36.38 -10.66,15.36 -17.73,40.03 -21.18,74.05 -2.62,41.92 -3.92,94.34 -3.92,157.22 0,76.61 1.3,129.32 3.92,158.21 3.3,33.04 10.35,57.72 21.18,74.05 10.53,17.31 28.34,29.22 53.46,35.64 24.33,5.96 62.33,8.91 114.07,8.91 45.8,0 82.84,-1.65 111.09,-4.93 24.13,-2.97 41.97,-9.73 53.45,-20.31 12.32,-10.23 20.36,-25.76 24.14,-46.52 3.47,-23.62 5.19,-55.39 5.19,-95.36l72.67 0z"/>
  <polygon class="fil0" points="15751.51,12223.96 15676.85,12223.96 15676.85,11613.62 15283.22,11613.62 15283.22,12223.96 15208.57,12223.96 15208.57,11546.78 15751.51,11546.78 "/>
  <path class="fil0" d="M16988.56 11887.48c0,-72.64 -2.08,-125.35 -6.17,-158.22 -2.81,-32.52 -10.85,-58.19 -24.14,-77 -14.14,-17.99 -33.69,-29.48 -58.64,-34.41 -23,-5.45 -62.65,-8.19 -118.97,-8.19 -56.49,0 -95.83,2.74 -118.01,8.19 -25.92,4.93 -45.49,16.08 -58.63,33.41 -13.15,17.16 -21.17,42.85 -24.13,77.02 -4.11,32.84 -6.16,85.56 -6.16,158.19 0.99,69.34 3.05,121.79 6.16,157.26 3.94,34.82 11.98,60.83 24.13,77.99 13.81,17.98 33.33,29.58 58.63,34.66 26.78,5.3 66.11,7.93 118.01,7.93 57.95,-1.15 97.61,-3.8 118.97,-7.93 26.29,-5.08 45.83,-16.68 58.64,-34.66 13.29,-18.81 21.33,-44.14 24.14,-76.03 4.09,-33.66 6.17,-86.38 6.17,-158.21zm75.59 -0.11c0,84.99 -3.34,147.53 -10.09,187.64 -7.22,44.21 -20.02,76.96 -38.42,98.25 -18.22,22.13 -45.42,37.38 -81.55,45.79 -39.08,7.38 -90.21,11.07 -153.45,11.07 -63.23,0 -114.4,-3.69 -153.47,-11.07 -35.32,-8.23 -62.5,-23.5 -81.54,-45.79 -18.4,-22.29 -31.2,-55.37 -38.42,-99.24 -6.75,-41.1 -10.12,-103.64 -10.12,-187.65 1.17,-91.4 4.54,-153.94 10.12,-187.61 7.07,-42.7 19.87,-75.48 38.42,-98.26 18.07,-22.25 45.22,-37.45 81.54,-45.55 37.77,-7.41 88.92,-11.12 153.47,-11.12 65.68,0 116.83,3.71 153.45,11.12 35.01,7.95 62.16,23.13 81.55,45.55 18.4,21.3 31.2,54.06 38.42,98.26 6.75,41.1 10.09,103.98 10.09,188.61z"/>
  <path class="fil0" d="M18231.74 11756.68c0,-31.69 -2.31,-59.38 -6.89,-83.17 -5.28,-19.79 -16.04,-34.29 -32.3,-43.55 -15.46,-10.23 -40.02,-15.35 -73.72,-15.35l-237.37 0 -0.98 278.94 180.67 0c42.57,0 76.57,-2.72 102.04,-8.17 22.87,-5.12 40.04,-17.66 51.54,-37.62 11.33,-19.46 17.01,-49.83 17.01,-91.08zm75.63 -14.36c0,44.88 -3.38,80.79 -10.08,107.67 -7.24,27.7 -19.02,49.33 -35.41,64.84 -16.71,15.86 -39.52,27.31 -68.36,34.41 -31.04,6.77 -68.44,10.14 -112.16,10.14l-200.88 0 0 264.59 -73.68 0 0 -676.18 320.74 0c44.02,0 79.73,7.08 107.17,21.27 25.29,13.7 44.08,35.01 56.4,63.88 10.83,28.87 16.26,65.35 16.26,109.38z"/>
  <polygon class="fil0" points="19483.8,11615.6 19266.79,11615.6 19266.79,12223.97 19191.15,12223.97 19191.15,11615.6 18971.18,11615.6 18971.18,11547.79 19483.8,11547.79 "/>
  <path class="fil0" d="M21515.68 12019.27l-149.28 -415.79 -148.28 415.79 297.56 0zm154.47 204.69l-79.82 0 -52.47 -138.86 -339.93 0 -51.5 138.86 -80.79 0 245.33 -676.17 107.9 0 251.28 676.17z"/>
  <path class="fil0" d="M22794.38 11756.68c0,-31.69 -2.31,-59.38 -6.89,-83.17 -5.28,-19.79 -16.04,-34.29 -32.3,-43.55 -15.46,-10.23 -40.02,-15.35 -73.72,-15.35l-237.38 0 -0.97 278.94 180.67 0c42.57,0 76.57,-2.72 102.04,-8.17 22.87,-5.12 40.04,-17.66 51.54,-37.62 11.33,-19.46 17.01,-49.83 17.01,-91.08zm75.63 -14.36c0,44.88 -3.38,80.79 -10.08,107.67 -7.24,27.7 -19.03,49.33 -35.41,64.84 -16.71,15.86 -39.52,27.31 -68.36,34.41 -31.05,6.77 -68.45,10.14 -112.16,10.14l-200.88 0 0 264.59 -73.68 0 0 -676.18 320.74 0c44.01,0 79.73,7.08 107.17,21.27 25.29,13.7 44.08,35.01 56.4,63.88 10.83,28.87 16.26,65.35 16.26,109.38z"/>
  <polygon class="fil0" points="24018.13,11614.61 23658.97,11614.61 23658.97,11844.8 24001.14,11844.8 24001.14,11910.64 23658.97,11910.64 23658.97,12157.16 24016.14,12157.16 24016.14,12223.97 23584.33,12223.97 23584.33,11547.79 24018.13,11547.79 "/>
  <polygon class="fil0" points="25281.5,12223.96 25206.87,12223.96 25206.87,11913.61 24813.22,11913.61 24813.22,12223.96 24738.56,12223.96 24738.56,11546.78 24813.22,11546.78 24813.22,11846.77 25206.87,11846.77 25206.87,11546.78 25281.5,11546.78 "/>
  <path class="fil0" d="M26437.73 12019.27l-149.27 -415.79 -148.29 415.79 297.56 0zm154.47 204.69l-79.81 0 -52.47 -138.86 -339.94 0 -51.49 138.86 -80.8 0 245.34 -676.17 107.9 0 251.27 676.17z"/>
 </g>
</svg>
