<?xml version="1.0" encoding="UTF-8"?>
<!DOCTYPE svg PUBLIC "-//W3C//DTD SVG 1.1//EN" "http://www.w3.org/Graphics/SVG/1.1/DTD/svg11.dtd">
<!-- Creator: CorelDRAW 2020 (64-Bit) -->
<svg xmlns="http://www.w3.org/2000/svg" xml:space="preserve" width="142mm" height="43.391mm" version="1.1" style="shape-rendering:geometricPrecision; text-rendering:geometricPrecision; image-rendering:optimizeQuality; fill-rule:evenodd; clip-rule:evenodd"
viewBox="0 0 14200 4339.1"
 xmlns:xlink="http://www.w3.org/1999/xlink"
 xmlns:xodm="http://www.corel.com/coreldraw/odm/2003">
 <defs>
  <style type="text/css">
   <![CDATA[
    .fil1 {fill:#FEFEFE}
    .fil0 {fill:#FEFEFE;fill-rule:nonzero}
   ]]>
  </style>
 </defs>
 <g id="Слой_x0020_1">
  <metadata id="CorelCorpID_0Corel-Layer"/>
  <path class="fil0" d="M5433.16 2442.01l144.78 0 0 -1221.01 -113.37 0 -364.57 620.97 -54.06 139.55 -3.49 0 -57.57 -136.07 -382 -624.45 -108.14 0 0 1221.01 136.05 0 0 -821.57 -24.42 -181.41 8.72 0 62.8 165.72 336.64 552.94 43.62 0 317.46 -551.2 66.28 -167.46 8.72 0 -17.45 183.16 0 819.82zm530.28 -610.51c0,380.26 156.99,631.44 497.12,631.44 319.21,0 500.62,-226.76 500.62,-631.44 0,-380.26 -156.99,-631.43 -500.62,-631.43 -315.71,0 -497.12,226.75 -497.12,631.43zm153.49 0c0,-340.13 130.83,-502.36 343.63,-502.36 242.46,0 347.12,235.49 347.12,502.36 0,341.89 -130.82,502.36 -347.12,502.36 -238.96,0 -343.63,-233.74 -343.63,-502.36zm1419.87 33.15c26.16,0 48.84,1.74 76.74,3.48 163.96,12.21 277.34,75.01 277.34,221.53 0,165.71 -146.52,244.2 -291.29,244.2 -136.05,0 -233.73,-20.93 -287.81,-47.1l-36.63 130.83c64.54,26.16 160.47,45.35 312.23,45.35 230.24,0 457.01,-115.13 457.01,-382 0,-167.45 -102.92,-270.36 -266.89,-293.04l0 -6.98c153.51,-47.1 230.26,-163.96 230.26,-280.84 0,-230.24 -188.39,-300.01 -375.03,-300.01 -150.01,0 -284.32,33.14 -329.67,59.31l38.38 115.12c52.32,-24.42 143.02,-45.36 266.87,-45.36 134.31,0 245.94,48.84 245.94,200.6 0,113.38 -99.42,184.9 -219.77,204.08 -38.38,6.98 -123.86,8.72 -165.71,8.72l-27.91 0 0 122.11 95.94 0zm1599.52 577.36l151.75 0 -463.99 -1240.2 -66.28 0 -462.24 1240.2 143.04 0 122.1 -338.4 450.02 0 125.6 338.4zm-394.22 -832.03l43.61 -188.39 1.74 0 43.61 184.9 136.06 371.53 -359.32 0 134.3 -368.04zm1594.29 832.03l144.78 0 0 -1221.01 -85.47 0 -589.58 832.03 -76.75 143.03 -6.97 0 12.21 -137.79 0 -837.27 -144.78 0 0 1221.01 85.47 0 589.57 -823.31 75 -143.04 6.99 0 -10.47 139.55 0 826.8zm1252.41 0l183.15 0 -446.55 -568.64 -88.96 -69.77 73.27 -57.57 408.16 -525.03 -167.45 0 -409.91 544.22 -78.49 24.42 0 -568.64 -144.78 0 0 1221.01 144.78 0 0 -565.15 81.98 0 444.8 565.15zm1238.45 0l151.75 0 -463.99 -1240.2 -66.27 0 -462.25 1240.2 143.04 0 122.1 -338.4 450.02 0 125.6 338.4zm-394.22 -832.03l43.61 -188.39 1.74 0 43.62 184.9 136.05 371.53 -359.32 0 134.3 -368.04z"/>
  <path class="fil0" d="M4848.17 3117.91l66.77 0 0 -427.98 -68.48 0 -112.13 190.02 -25.68 51.36 -1.71 0 -24.83 -49.65 -119.82 -191.73 -67.63 0 0 427.98 63.34 0 0 -255.07 -6.85 -80.46 3.43 0 28.25 65.9 107.85 167.77 23.97 0 103.56 -167.77 30.82 -65.9 4.28 0 -5.14 81.31 0 254.22zm485.33 -83.89c-6.71,6.14 -15.55,11.71 -26.54,16.84 -10.98,5.13 -23.11,9.42 -36.09,12.56 -13.12,3.13 -26.25,4.7 -39.23,4.84 -33.53,-0.14 -60.35,-6.41 -80.46,-18.83 -20.11,-12.27 -34.66,-30.24 -43.65,-53.64 -8.99,-23.53 -13.56,-51.78 -13.7,-85.03l274.77 0c1.7,-11.55 2.99,-22.53 3.85,-32.8 0.85,-10.42 1.28,-20.26 1.28,-29.68 -0.15,-28.53 -3.28,-52.64 -9.42,-72.47 -6.13,-19.83 -14.69,-35.95 -25.39,-48.64 -10.7,-12.7 -23.11,-22.41 -36.95,-29.4 -13.83,-6.84 -28.53,-11.69 -44.08,-14.26 -15.41,-2.71 -31.1,-4 -46.79,-3.85 -40.09,0.14 -74.04,8.7 -102.14,25.96 -27.97,17.26 -49.22,42.52 -63.92,75.9 -14.69,33.24 -22.11,74.03 -22.26,122.4 0,34.1 3.71,64.91 11.14,92.44 7.41,27.53 18.97,51.08 34.38,70.77 15.4,19.54 34.94,34.66 58.92,45.07 23.82,10.56 52.07,15.84 84.73,15.98 19.55,0 38.37,-1.85 56.5,-5.42 18.12,-3.56 34.81,-8.7 50.36,-15.41 15.4,-6.56 28.81,-14.55 40.37,-23.68l-25.68 -49.65zm-121.55 -294.44c20.12,-0.14 37.1,3.56 51.22,11.12 14.27,7.7 24.97,20.12 32.53,37.24 7.41,17.26 11.26,40.23 11.26,68.9l-212.27 0c2.56,-28.1 8.99,-50.78 18.97,-68.05 9.99,-17.25 23.4,-29.81 39.94,-37.66 16.56,-7.84 36.1,-11.69 58.35,-11.55zm647.96 318.42l-62.48 0 0 -368.07 -258.5 0c-1,60.35 -4.28,112.42 -9.56,156.21 -5.42,43.8 -11.84,80.18 -19.25,109.42 -7.42,29.11 -14.7,51.93 -21.83,68.48 -7.13,16.55 -13.13,27.96 -17.83,33.96l-50.51 0 0 168.62 46.22 0 12.84 -108.71 321.84 0 12.84 108.71 46.22 0 0 -168.62zm-320.13 0c7.71,-14.99 14.55,-32.1 20.69,-51.22 6.13,-19.26 11.56,-39.66 16.12,-61.34 4.56,-21.69 8.57,-43.8 11.84,-66.48 3.28,-22.55 5.85,-44.8 7.85,-66.77 2,-21.97 3.43,-42.66 4.28,-62.35l128.39 0 0 308.16 -189.17 0zm671.94 59.91l68.47 0 0 -427.98 -40.22 0 -192.6 258.5 -33.38 53.07 -3.42 0 2.56 -50.5 0 -261.07 -68.47 0 0 427.98 39.37 0 192.59 -251.66 35.1 -54.77 2.56 0 -2.56 53.07 0 253.36zm214.84 -345.81c7.99,-4.57 17.27,-8.56 27.82,-12.12 10.56,-3.57 21.69,-6.71 33.24,-9.13 11.7,-2.57 23.11,-4.57 34.38,-5.85 11.28,-1.29 21.68,-2 31.25,-2 22.11,-0.14 39.51,2.42 52.35,7.85 12.7,5.42 21.83,14.26 27.11,26.82 5.42,12.41 7.99,29.1 7.84,50.07 0,13.7 -0.85,29.1 -2.57,46.22 -8.13,-0.86 -16.12,-1.28 -23.82,-1.43 -7.85,-0.28 -15.55,-0.28 -23.25,-0.28 -31.39,-0.14 -59.92,2 -85.74,6.42 -25.83,4.28 -48.08,11.56 -66.76,21.54 -18.84,9.99 -33.25,23.39 -43.52,40.23 -10.12,16.97 -15.26,37.81 -15.4,62.77 0.28,24.97 5.99,46.51 17.11,64.63 11.13,18.11 26.4,32.09 45.66,41.93 19.25,9.85 41.08,14.85 65.62,14.99 24.11,-0.29 44.93,-3.57 62.34,-9.99 17.55,-6.42 31.96,-14.69 43.66,-24.53 11.55,-9.85 20.82,-19.98 27.53,-30.54l4.28 0 17.97 59.92 50.51 0c-4.57,-15.98 -7.85,-33.38 -9.57,-52.21 -1.71,-18.98 -2.56,-38.95 -2.42,-59.92 0.29,-29.24 1.14,-60.06 2.57,-92.44 1.57,-32.38 2.43,-65.77 2.57,-100.15 0.28,-15.41 -1.29,-30.81 -4.57,-46.22 -3.14,-15.41 -9.56,-29.54 -18.83,-42.52 -9.42,-12.83 -23.11,-23.25 -41.22,-31.09 -18.12,-7.7 -41.95,-11.85 -71.48,-11.99 -20.97,0 -41.37,1.43 -61.35,4.29 -19.97,2.84 -38.8,7.13 -56.49,12.83 -17.83,5.71 -33.81,12.84 -48.22,21.4l21.4 50.5zm100.15 292.74c-14.98,-0.15 -28.11,-2.99 -39.52,-8.85 -11.41,-5.7 -20.4,-13.69 -26.82,-23.96 -6.42,-10.28 -9.7,-22.11 -9.84,-35.67 0.14,-14.26 4,-26.1 11.7,-35.38 7.56,-9.41 17.97,-16.69 30.95,-22.11 13.13,-5.28 27.83,-9.13 44.37,-11.27 16.55,-2.13 33.67,-3.28 51.65,-3.14 8.12,0 16.26,0.14 24.39,0.57 8.13,0.28 16.26,0.72 24.39,1.15l0 71.04c-2.99,7.56 -7.41,15.4 -13.26,23.26 -5.85,7.84 -13.41,15.11 -22.4,21.82 -9.13,6.71 -19.97,12.13 -32.53,16.26 -12.41,4 -26.82,6.13 -43.08,6.28zm267.91 53.07l76.18 0 92.45 -130.11 26.53 -51.35 25.68 51.35 90.73 130.11 81.32 0 -153.22 -222.55 144.66 -205.43 -77.04 0 -83.02 118.12 -24.83 48.79 -23.97 -48.79 -81.31 -118.12 -83.89 0 143.8 208.86 -154.07 219.12zm458.79 -213.99c0,33.95 3.71,64.63 11.28,92.16 7.42,27.39 18.97,50.92 34.38,70.61 15.26,19.69 34.8,34.96 58.34,45.51 23.55,10.56 51.36,15.84 83.46,15.98 40.08,-0.14 74.04,-8.84 101.86,-26.25 27.82,-17.26 49.07,-42.66 63.63,-75.89 14.55,-33.39 21.83,-74.05 21.97,-122.12 0,-33.95 -3.71,-64.63 -11.28,-92.16 -7.42,-27.39 -18.97,-51.07 -34.24,-70.75 -15.4,-19.69 -34.94,-34.82 -58.48,-45.38 -23.54,-10.55 -51.36,-15.83 -83.46,-15.97 -40.08,0.14 -74.04,8.84 -101.86,26.11 -27.81,17.4 -49.07,42.8 -63.62,76.03 -14.55,33.39 -21.83,74.05 -21.98,122.12zm71.05 0c0.14,-55.49 9.99,-96.87 29.68,-123.97 19.68,-26.97 48.5,-40.51 86.73,-40.37 21.12,0.14 39.09,4.56 53.92,13.26 14.85,8.71 26.82,20.69 36.1,35.81 9.13,15.27 15.83,32.67 20.12,52.35 4.27,19.69 6.41,40.66 6.27,62.92 0,55.49 -9.84,96.87 -29.24,123.97 -19.55,26.97 -48.65,40.51 -87.17,40.37 -21.12,-0.14 -39.09,-4.56 -53.92,-13.4 -14.84,-8.71 -26.82,-20.84 -36.1,-35.95 -9.13,-15.27 -15.83,-32.82 -20.11,-52.51 -4.28,-19.69 -6.28,-40.51 -6.28,-62.48zm641.96 213.99l68.49 0 0 -427.98 -255.08 0c-1.29,51.08 -3.14,95.72 -5.42,134.1 -2.43,38.37 -5.28,71.05 -8.85,98.29 -3.42,27.25 -7.42,49.94 -11.98,67.77 -4.42,17.83 -9.56,31.81 -15.12,42.08 -5.57,10.13 -11.7,17.26 -18.4,21.54 -6.71,4.14 -13.84,6.14 -21.55,5.99 -3.42,0 -6.99,-0.28 -10.84,-0.71 -3.71,-0.57 -7.57,-1.43 -11.42,-2.71l-10.26 57.35c6.41,2.99 13.55,4.99 21.68,6.13 7.99,1.15 17.4,1.57 27.96,1.57 15.27,-0.14 28.67,-4.42 40.23,-12.98 11.7,-8.56 21.69,-20.26 30.25,-35.38 8.41,-15.12 15.68,-32.52 21.54,-52.35 5.99,-19.83 10.98,-41.09 14.83,-63.77 4,-22.83 7.28,-46.23 9.7,-70.05 2.43,-23.96 4.43,-47.51 6,-70.9 1.57,-23.26 2.99,-45.23 4.13,-66.06l124.11 0 0 368.07zm578.63 -59.91l-62.49 0 0 -368.07 -258.49 0c-1,60.35 -4.29,112.42 -9.57,156.21 -5.42,43.8 -11.83,80.18 -19.25,109.42 -7.42,29.11 -14.69,51.93 -21.82,68.48 -7.14,16.55 -13.13,27.96 -17.84,33.96l-50.5 0 0 168.62 46.22 0 12.84 -108.71 321.84 0 12.84 108.71 46.22 0 0 -168.62zm-320.13 0c7.71,-14.99 14.55,-32.1 20.69,-51.22 6.13,-19.26 11.55,-39.66 16.12,-61.34 4.56,-21.69 8.56,-43.8 11.84,-66.48 3.28,-22.55 5.85,-44.8 7.85,-66.77 1.99,-21.97 3.42,-42.66 4.27,-62.35l128.4 0 0 308.16 -189.17 0zm671.93 59.91l68.48 0 0 -427.98 -40.23 0 -192.59 258.5 -33.38 53.07 -3.42 0 2.56 -50.5 0 -261.07 -68.47 0 0 427.98 39.37 0 192.59 -251.66 35.09 -54.77 2.57 0 -2.57 53.07 0 253.36zm462.22 0l68.47 0 0 -427.98 -68.47 0 0 178.9 -193.45 0 0 -178.9 -68.47 0 0 427.98 68.47 0 0 -189.17 193.45 0 0 189.17zm450.23 -427.98l-249.93 0 0 427.98 68.47 0 0 -368.07 181.46 0 0 -59.91z"/>
  <polygon class="fil1" points="1505.61,2392.81 1877.57,2607.56 2306.44,2855.16 2735.31,2607.56 3107.28,2392.81 3334.97,2524.26 2849.16,2804.75 2306.43,3118.08 1763.72,2804.75 1277.92,2524.26 "/>
  <polygon class="fil1" points="2249.5,907.16 1877.57,1121.9 1448.69,1369.5 1448.69,1864.73 1448.69,2294.22 1220.99,2425.68 1220.99,1864.73 1220.99,1238.04 1763.72,924.71 2249.5,644.24 "/>
  <polygon class="fil1" points="2363.35,644.23 2849.16,924.71 3391.88,1238.04 3391.88,1864.73 3391.88,2425.67 3164.19,2294.21 3164.19,1864.73 3164.19,1369.5 2735.31,1121.9 2363.35,907.15 "/>
 </g>
</svg>
