<?xml version="1.0" encoding="UTF-8"?>
<!DOCTYPE svg PUBLIC "-//W3C//DTD SVG 1.1//EN" "http://www.w3.org/Graphics/SVG/1.1/DTD/svg11.dtd">
<!-- Creator: CorelDRAW 2020 (64-Bit) -->
<svg xmlns="http://www.w3.org/2000/svg" xml:space="preserve" width="210mm" height="297mm" version="1.1" style="shape-rendering:geometricPrecision; text-rendering:geometricPrecision; image-rendering:optimizeQuality; fill-rule:evenodd; clip-rule:evenodd"
viewBox="0 0 21000 29700"
 xmlns:xlink="http://www.w3.org/1999/xlink"
 xmlns:xodm="http://www.corel.com/coreldraw/odm/2003">
 <defs>
  <style type="text/css">
   <![CDATA[
    .fil0 {fill:#FEFEFE}
   ]]>
  </style>
 </defs>
 <g id="Layer_x0020_1">
  <metadata id="CorelCorpID_0Corel-Layer"/>
  <g id="_2148150064096">
   <path class="fil0" d="M11151.33 10043.72c-170.61,-32.13 -657.78,-90.86 -791.66,26.33 27.68,18.19 621.46,76.2 737.26,161.49 43.98,32.38 38.14,76.04 119.97,64.37 69.35,-9.9 118.51,-79.92 85.15,-159.77l-51.13 -73.32c82.87,-33.38 160.76,-89.8 288.11,-76.8 220.19,22.46 276.04,257.92 53.62,418.78 -87.42,63.2 -192.4,74.6 -316.91,66.66l-91.22 285.65c-117.7,9.77 -239.12,8.49 -353.07,11.37 -176.35,4.52 -206.41,29.7 -318.33,-60.61 -142.29,-114.81 -363.58,-177.19 -588.65,-160.75 -222.55,16.26 -414.49,74.62 -583.64,164.41 -175.04,92.87 -474.97,55.96 -684.77,40.9 -11.05,-96.64 44.83,-193.34 64.61,-290.2 -611.64,63.83 -240.47,-702.84 249.88,-417.52 -35.17,64.38 1.17,20.85 -78.37,59.35 -214,103.61 -126.83,264.99 -1.68,194.63 58.51,-32.91 4.36,-27.05 100.12,-61.24 80.18,-28.69 167.53,-47.9 252.9,-66.5 100.56,-21.9 508.81,-54.4 549.46,-83.12 -135.98,-127.28 -551.27,-37.88 -734.07,-39.51 38.86,-88.55 -80.65,-141.77 -120.92,-191.53l139.12 -585.92c252.76,-37.62 729.02,-15.07 939.4,174.52 104.08,93.8 70.63,127.2 139.67,228.94 68.64,-46.28 96.48,-113.8 222.35,-199.35 275.07,-186.96 847.35,-270.5 1084.42,-199.48l-196.89 607.06c-30.7,101.86 -49.63,100.23 -114.73,161.16zm-72.87 -1260.1c13.92,-186.36 20.89,-323.2 37.42,-512.38 13.4,-152.69 -35.46,-173.61 99.53,-197.61 84.51,-15.05 156.12,-44.36 236.63,-48.79 89.78,205.53 214.02,469.57 189.64,744.01l-563.22 14.77zm-919.67 18.85c8.04,-84.85 91.25,-278.72 126.02,-363.12 16.34,-39.55 121.94,-317.44 155.68,-327.63l574.72 -5.81 -35.47 673c-104.36,34.89 -670.05,22.08 -820.95,23.56zm-1229.42 17.69c109.32,-361 508.62,-691.54 708.96,-899.79 113.79,17.74 248.34,115.71 610.72,159.89 -34.28,104.49 -123.05,252.88 -173.87,363.26 -55.61,120.85 -102.08,233.26 -158,360.29l-987.81 16.35zm1797.34 -1378.98c138.87,26.54 201.99,60.84 236.85,205.31 22.33,92.79 56.54,291.02 31.7,383.76 -141.19,14.78 -396.99,27.35 -530.33,-10.44l261.78 -578.63zm671.91 519.21l-269.01 54.28 -14.4 -364.32c78.66,43.76 247.78,215.98 283.41,310.04zm-1664.54 -109.5c123.22,-98.54 251.05,-194.63 402.2,-288.93 307.58,-191.84 292.53,-194.63 484.36,-159.91 -55.03,130.22 -245.77,430.46 -323.66,604.72 -156.8,-13.43 -459.28,-76.04 -562.9,-155.88zm-337.95 -234.15c239.61,-142.57 517.91,-256.91 853.48,-253.18 -27.95,34.28 -25.92,30.51 -87.26,65.55l-233.36 156.66c-107.93,76.57 -195.63,150.05 -284.66,219.31 -75.6,-51.72 -112.5,-70.45 -143.61,-177.53l-104.59 -10.81zm174.36 246.56c-45.2,74.47 -139.81,138.68 -203.32,209.2 -207.24,230.06 -364.58,427.44 -479.7,746.61l-264.54 13.45c78.58,15.9 134.35,-1.1 229.92,21.58l95.21 -3.18c212.8,-28.73 2526.07,108.12 2716.07,154.68 80.26,9.35 322.32,34.55 263.18,-304.8 -70.37,-538.13 -344.12,-1091.63 -788.81,-1364.8 -72.29,-44.4 -213.83,-108.95 -283.96,-137.22l94.54 -220.74c-51.74,-31.41 -134.72,133.35 -161.79,195.01 -1557.81,-220.21 -2351.36,806.27 -2544.51,2079.94 -22.62,274.86 -8.45,510.86 14.24,781.34 13.19,156.97 -70.87,211.06 -36.89,370.87 26.35,123.89 97.97,163.37 234.55,175.15 -34.45,171.66 -114.86,292.86 -1.68,357.12 27.88,15.86 18.74,0.66 44.43,25.26 24.35,23.33 33.06,71.56 52.66,105.67 190.54,50.83 210.55,-17.32 308.81,-94.49 234.32,1 328.96,32.03 517.91,-66.4 142.38,-74.14 273.11,-127.45 459.07,-147.01 459.71,-48.47 500.36,205.77 692.37,219.72 94.09,6.85 206.47,-2.06 303.2,-1.15 47.17,81.42 30.56,156.48 175.8,140.46 129.86,-14.31 128.98,-86.44 184.43,-138.77 80.5,-75.87 128.6,-10.66 187.68,-132.06 165.25,-339.43 -30.34,-184.78 238.12,-294.36 129.67,-52.96 238.14,-185.96 279.77,-324.45 91.74,-305.01 -117.42,-395.78 -393.03,-374.49 75.71,-451.4 310.62,-739.48 57.54,-754.84 -437.74,-26.54 -1102.36,68.09 -1371.51,448.02 -91.54,-384.33 -518.05,-417.05 -850.8,-438.79 -403.94,-26.45 -403.44,-23.94 -465.52,193.66 -47.48,166.32 -93.48,360.84 -152.15,517.79 -14.41,18.69 -106.21,35.23 -125.74,40.19 -113.59,28.78 -232.17,114.44 -297.35,202.2 -40.08,-668.76 163.25,-1582.76 605.11,-2045.55 593.28,-621.47 376.5,-300.04 666.69,-154.82z"/>
   <path class="fil0" d="M13608.13 9571.27l-43.62 967.25 -326.43 0 54.15 -615.23c0,-4.02 0,-7.06 0,-9.02 -1.01,-7.05 -4.52,-11.07 -10.52,-12.06 -7.04,-1.98 -13.06,-1 -18.04,3.02 -1.02,0.98 -3.04,3.5 -6.03,7.52l-394.14 625.77 -165.46 0 -63.17 -604.73c-2.01,-6.01 -3.51,-10.5 -4.52,-13.52 -5.02,-10.01 -10.52,-15.04 -16.55,-15.04 -6.03,0 -14.04,6.53 -24.08,19.54 -1.01,2.01 -3,5.02 -6,9.02l-276.8 604.73 -166.97 0c49.14,-100.27 87.26,-178.53 114.34,-234.65 37.85,-78.26 74.43,-156.96 109.54,-236.18 23.08,-52.14 54.15,-123.35 93.27,-213.63 28.08,-65.15 56.16,-130.35 84.24,-195.56 12.03,-29.06 23.83,-58.14 35.87,-87.23l333.68 0 34.61 477.85c0.99,12.05 2.01,20.06 2.99,24.07 3.02,8.02 8.04,12.04 15.05,12.04 9.02,0.99 18.04,-5 27.07,-18.07 4.03,-5 8.54,-12 13.55,-21.04l295.6 -474.85 308.37 0z"/>
   <path class="fil0" d="M14868.88 9571.27l-24.07 117.32 -535.53 0c-23.06,0 -36.6,8.04 -40.61,24.09l-63.17 221.11c-2.02,5.03 -3.03,12.56 -3.03,22.59 0,14.04 7.52,21.06 22.58,21.06l514.47 0 -33.1 121.83 -362.53 0c-32.1,0 -62.19,6.55 -90.25,19.57 -28.08,13.03 -52.16,29.56 -72.21,49.63 -37.1,36.09 -62.19,87.73 -75.21,154.95 -4.02,22.04 -7.02,52.64 -9.04,91.76l573.15 0 -27.09 123.34 -928.14 0 267.77 -967.25 886.01 0z"/>
   <path class="fil0" d="M17158.65 9571.27l-24.08 117.32 -535.52 0c-23.06,0 -36.61,8.04 -40.62,24.09l-63.18 221.11c-2.01,5.03 -3.02,12.56 -3.02,22.59 0,14.04 7.53,21.06 22.58,21.06l514.48 0 -33.1 121.83 -362.54 0c-32.09,0 -62.18,6.55 -90.26,19.57 -28.1,13.03 -52.14,29.56 -72.19,49.63 -37.12,36.09 -62.19,87.73 -75.23,154.95 -4.01,22.04 -7,52.64 -9.03,91.76l573.13 0 -27.08 123.34 -928.14 0 267.75 -967.25 886.05 0z"/>
   <path class="fil0" d="M15972.59 9571.29l-24.07 117.3 -535.53 0c-23.06,0 -36.61,8.04 -40.62,24.09l-63.17 221.11c-2.01,5.03 -3.02,12.56 -3.02,22.59 0,14.04 7.52,21.06 22.58,21.06 140.92,0 378.9,6.82 482.91,76.03 104.24,69.38 103.49,139.66 103.49,210.89 0,71.18 -29.09,136.89 -87.26,197.05 -48.12,50.13 -117.32,97.27 -207.59,141.39 -49.16,22.07 -114.34,38.1 -195.55,48.14 -58.18,7.04 -122.85,10.53 -194.06,10.53 -23.06,0 -41.86,0 -56.39,0 -14.56,0 -26.84,0 -36.87,0l15.05 -81.46c19.06,0 52.15,-5.04 99.29,-15.07 78.21,-17.03 143.4,-41.34 195.56,-72.46 76.19,-46.12 123.33,-105.05 141.37,-176.48 4.01,-16.07 6.03,-33.1 6.03,-51.41 0,-71.19 -14.43,-149.43 -136.89,-158.19 -66.97,-4.78 -106.94,4.93 -172.72,62.07 -39.07,33.97 -62.19,87.76 -75.22,154.95 -3.59,19.82 -6.38,46.49 -8.38,80.06l-16.85 124.02c-123.53,6.84 -250.84,11.03 -365.88,11.03l267.78 -967.24 886.01 0z"/>
   <path class="fil0" d="M18632.52 9924.64c-2.02,4.99 -3.01,12.51 -3.01,22.53 0,14.04 7.53,21.07 22.55,21.07 140.93,0 378.92,6.8 482.94,76.06 104.23,69.35 103.48,139.65 103.48,210.85 0,71.22 -29.09,136.89 -87.27,197.05 -48.12,50.19 -117.31,97.29 -207.57,141.41 -49.16,22.07 -114.32,38.12 -195.56,48.16 -58.18,7.01 -122.85,10.53 -194.06,10.53 -23.06,0 -41.87,0 -56.39,0 -14.57,0 -26.85,0 -36.88,0l15.05 -81.49c19.05,0 52.15,-5 99.29,-15.04 78.22,-17.03 143.4,-41.38 195.55,-72.44 76.22,-46.17 123.35,-105.07 141.4,-176.53 4,-16.03 6.03,-33.1 6.03,-51.39 0,-71.2 -14.44,-149.42 -136.89,-158.21 -66.94,-4.78 -106.95,4.92 -172.73,62.1 -39.07,33.94 -62.19,87.75 -75.22,154.92 -3.59,19.81 -6.39,46.49 -8.37,80.03l-16.86 124.04c-123.53,6.85 -250.85,11.06 -365.88,11.06l267.78 -967.28 332.25 0c-42.32,126.29 -72.94,234.14 -109.63,362.57z"/>
   <path class="fil0" d="M17079.09 10525.3l546.33 -954.03 294.19 -9.2c34.04,325.74 69.25,643.04 110.08,967.28l-322.93 0 -34.59 -477.86c-1.01,-12.06 -2.02,-20.08 -3.01,-24.09 -3.02,-8.01 -8.04,-12.01 -15.03,-12.01 -9.04,-1.03 -18.06,4.99 -27.09,18.03 -4.03,5.03 -8.52,12.04 -13.54,21.05l-295.6 474.88 -238.81 -4.05z"/>
   <path class="fil0" d="M2173.56 9757.94c0,117.36 -45.14,210.09 -135.41,278.31 -70.21,53.14 -166.96,91.23 -290.32,114.31 -81.22,15.05 -169.99,22.58 -266.26,22.58 -19.05,0 -34.35,-0.25 -45.87,-0.76 -11.53,-0.5 -21.81,-1.27 -30.84,-2.26l25.57 -91.78c36.09,0 71.7,-2.48 106.79,-7.48 85.25,-12.06 152.45,-33.63 201.58,-64.7 72.23,-45.14 108.32,-108.31 108.32,-189.56 0,-67.17 -18.8,-119.07 -56.43,-155.71 -37.6,-36.57 -85.96,-54.86 -145.16,-54.86l-156.43 0 -231.64 860.43 -315.93 0 254.22 -968.76 591.2 0c102.28,0 189.53,20.55 261.75,61.67 83.23,48.15 124.86,114.35 124.86,198.57z"/>
   <path class="fil0" d="M3291.22 9497.7l-24.07 117.33 -535.51 0c-23.08,0 -36.62,8.03 -40.63,24.09l-63.17 221.11c-2.02,5.04 -3,12.55 -3,22.55 0,14.04 7.52,21.08 22.54,21.08l514.48 0 -33.1 121.84 -362.53 0c-32.09,0 -62.19,6.5 -90.24,19.54 -28.08,13.07 -52.15,29.61 -72.22,49.68 -37.1,36.09 -62.19,87.72 -75.22,154.94 -4,22.04 -7.01,52.64 -9.02,91.74l573.14 0 -27.09 123.36 -928.14 0 267.77 -967.26 886.01 0z"/>
   <path class="fil0" d="M4112 9497.7l-31.6 117.33c-8.01,0 -15.02,0 -21.04,0 -76.22,0 -193.95,3.26 -231.57,9.77 -37.6,6.53 -65.16,17.81 -82.73,33.86 -17.56,16.07 -31.1,34.6 -40.62,55.66 -9.5,21.07 -18.31,47.62 -26.32,79.74l-174.49 670.9 -329.43 0c83.15,-322.07 161.43,-647.23 243.47,-967.26l694.33 0z"/>
   <path class="fil0" d="M6511.9 9801.58c0,88.23 -19.06,167.96 -57.17,239.17 -32.1,60.17 -85.24,127.61 -159.44,202.32 -74.23,74.7 -163.47,132.12 -267.78,172.23 -91.25,35.11 -180.01,52.67 -266.25,52.67 -143.41,0 -254.74,-40.11 -333.96,-120.36 -74.22,-75.2 -111.32,-173.99 -111.32,-296.35 0,-102.28 29.09,-201.05 87.26,-296.33 42.11,-69.2 96.77,-132.9 163.97,-191.04 51.14,-44.14 80.72,-66.19 88.74,-66.19l264.77 0c-4.03,0 -29.09,30.1 -75.21,90.25 -58.18,75.23 -105.32,149.43 -141.41,222.65 -51.15,104.3 -76.72,199.05 -76.72,284.32 0,97.28 19.55,166.96 58.66,209.08 33.1,35.12 81.25,52.64 144.42,52.64 84.23,0 161.44,-49.63 231.66,-148.91 70.19,-99.29 105.29,-204.58 105.29,-315.9 0,-51.14 -6,-92.27 -18.06,-123.34 -15.05,-39.13 -41.61,-67.71 -79.72,-85.77 -8.01,-4 -18.53,-7.02 -31.59,-9 -13.04,-2.03 -26.07,-3.01 -39.09,-3.01 -20.07,0 -35.87,0.48 -47.4,1.51 -11.53,0.98 -22.82,2.98 -33.85,5.98l0 -87.23 336.97 -111.33c57.17,21.07 99.78,42.12 127.86,63.22 86.23,65.15 129.37,151.39 129.37,258.72z"/>
   <path class="fil0" d="M7776.58 9497.7l-237.66 967.26 -320.41 0 248.21 -967.26 309.86 0zm-478.35 406.16l-30.08 109.83c-9.02,0 -16.55,0 -22.56,0 -45.13,0 -87.24,3.49 -126.37,10.5 -62.16,11.06 -108.28,29.58 -138.39,55.69 -49.16,42.1 -91.76,119.33 -127.86,231.64 -11.04,36.09 -24.08,87.25 -39.11,153.44l-324.92 0 249.69 -967.26 318.92 0 -96.29 365.54c-3,16.07 -3.49,25.09 -1.51,27.07 6.03,9.05 14.06,13.55 24.08,13.55l314.4 0z"/>
   <path class="fil0" d="M5325.11 9479.3l-237.68 967.24 -320.41 0 248.19 -967.24 309.9 0zm-409.39 225.69l-55.96 190.82c-88.56,51.35 -254.64,165.19 -317.32,219.13 -93.14,80.15 -152.91,212.13 -180.09,331.6l-324.92 0 249.73 -967.24 318.89 0 -121.55 439.1c-3.47,12.55 -18.15,52.57 -9.61,47.5l440.83 -260.91z"/>
  </g>
 </g>
</svg>
