<?xml version="1.0" encoding="UTF-8"?>
<!DOCTYPE svg PUBLIC "-//W3C//DTD SVG 1.1//EN" "http://www.w3.org/Graphics/SVG/1.1/DTD/svg11.dtd">
<!-- Creator: CorelDRAW 2020 (64-Bit) -->
<svg xmlns="http://www.w3.org/2000/svg" xml:space="preserve" width="297mm" height="210mm" version="1.1" style="shape-rendering:geometricPrecision; text-rendering:geometricPrecision; image-rendering:optimizeQuality; fill-rule:evenodd; clip-rule:evenodd"
viewBox="0 0 29700 21000"
 xmlns:xlink="http://www.w3.org/1999/xlink"
 xmlns:xodm="http://www.corel.com/coreldraw/odm/2003">
 <defs>
  <style type="text/css">
   <![CDATA[
    .fil0 {fill:#A5B7BE}
   ]]>
  </style>
 </defs>
 <g id="Слой_x0020_1">
  <metadata id="CorelCorpID_0Corel-Layer"/>
  <g id="омода.cdr">
   <path class="fil0" d="M17936.53 12168.3l3593.03 0c11.12,0 51.11,-42.86 64.37,-54.94 0.7,-0.64 1.72,-1.53 2.43,-2.16l100.12 -97.2c0.71,-0.62 1.75,-1.5 2.46,-2.13l162.18 -154.45c22.1,-22.26 41.5,-42.89 64.22,-64.26l66.54 -61.95c11.96,-11.96 60.8,-52.63 60.8,-67.68l0 -1959.42c0,-17.48 -85.63,-97.26 -102.12,-113.55 -12.5,-12.36 -15.1,-16.12 -25.68,-29.39 -8.78,-11 -16.87,-17.81 -27.07,-27.99l-319.99 -331.62c-17,-6.63 -727.54,-2.22 -764.11,-2.22 4.91,18.41 53.97,60.72 70.03,76.81l358.1 376.11c24.32,26.61 48.38,47.57 73.27,73.57l23.53 26.95c15.1,16.33 44.08,39.87 44.08,52.28l0 1523.49c0,12.21 -93.49,102.91 -111.49,117.95 -53.49,44.71 -76.52,77.1 -116.84,112.6 -40.69,35.83 -132.42,131.96 -147.95,131.96l-2404.54 0 0 -2014.48 2372.41 0 -372.93 -388.81c-11.99,-12.46 -14.95,-19.77 -27.35,-32.31 -11.19,-11.31 -48.72,-56.12 -63.18,-56.12l-2574.32 0 0 2968.96z"/>
   <path class="fil0" d="M7253.79 9704.11l0 2464.19 665.38 0 0 -2156.74 468.06 0c0,22.21 6.19,46.36 9.82,68.19 85.75,516.23 179.92,1031.59 265.5,1547.07l80.64 470.02c4.09,24.71 11.14,47.99 11.14,71.46l669.97 0 -66.21 -369.73c-60.65,-367.81 -133.91,-746.99 -194.71,-1113.1 -4.82,-29.01 -257.62,-1448.63 -257.62,-1486.13l-1170.14 0c-10.31,0 -40.66,38.36 -60.81,58.51l-151.49 155.95c-13.46,13.39 -17.09,21.51 -29.67,34.58l-91.66 91.89c-17.44,20.86 -148.2,149.14 -148.2,163.84z"/>
   <path class="fil0" d="M9474.77 10791.66l238.62 1376.64 188.14 0 93.71 -539.55c66.67,-352.54 123.77,-723.11 188.15,-1078.36l94.42 -538.83 468.06 0 0 2156.74 665.38 0 0 -2464.19c0,-22.82 -96.82,-105.03 -114.72,-128.49l-182.41 -189.28c-21.98,-21.97 -171.74,-187 -184.7,-187l-1165.55 0c-19.18,0 -20.54,53.98 -26.22,88.5l-227.42 1300.66c-5.3,30.5 -11.65,67.13 -18.28,101.02l-17.18 102.14z"/>
   <path class="fil0" d="M1912.42 9722.47l0 656.19c0,14.75 149.13,156.01 161.76,168.64l332.69 332.69c18.19,18.19 150.2,158.51 170.93,164.05l-0.04 -968.27c-0.47,-58.55 1.68,-45.24 33.31,-76.83l270.74 -270.74c10.96,-10.95 44.04,-51.62 58.51,-51.62l2097.08 0c9.54,0 11.22,3.92 18.21,9.32 4.24,3.27 10.94,10.45 16.26,15.86 305.4,310.24 622.66,622.81 931.45,931.6l55.1 55.03c7.1,5.53 1.82,3.41 11.46,6.9l0.04 -940.74c0.23,-29.01 4.98,-38.1 -9.98,-54.27 -59.84,-64.68 -183.12,-182.34 -252.77,-252 -43.18,-43.18 -83.01,-83 -126.19,-126.19 -16.88,-16.88 -115.68,-122.75 -129.63,-122.75l-3115.8 0c-16.49,0 -248.85,241.97 -265,258.12 -15.72,15.72 -258.13,248.71 -258.13,265.01z"/>
   <path class="fil0" d="M12595.16 9717.88l0 660.78c0,14.75 149.12,156.01 161.75,168.64l499.04 496.74c0,-320.38 3.39,-654.22 -0.08,-972.9 -0.54,-49.39 -3.15,-35.72 35.64,-74.49l161.76 -159.47c25.95,-25.93 157.19,-160.6 169.78,-160.6l2097.08 0c16.32,0 244.65,237.76 260.42,253.53 45.24,45.24 748.73,754.14 772.07,769.77l0.03 -945.33c0.24,-29.01 4.98,-38.1 -9.98,-54.27 -39.38,-42.57 -84.73,-83.96 -126.57,-125.8l-314.34 -314.34c-11.95,-11.95 -52.63,-60.8 -67.68,-60.8l-3120.39 0c-16.37,0 -247.19,240.31 -262.7,255.83 -15.99,15.98 -255.83,246.47 -255.83,262.71z"/>
   <path class="fil0" d="M15724.72 11691.06l-2097.08 0c-16.31,0 -244.64,-237.76 -260.41,-253.53 -86.78,-86.78 -170.2,-170.19 -256.98,-256.97 -17.09,-17.1 -493.6,-498.41 -515.09,-512.8l-0.04 945.33c-0.23,29.01 -4.98,38.1 9.98,54.26 59.84,64.69 183.12,182.35 252.77,252 15.4,15.4 239.69,248.95 255.82,248.95l3111.21 0c16.58,0 19.3,-4.88 30.01,-15.89 4.4,-4.52 4.08,-4.35 8.99,-9.36 52.47,-53.43 468.9,-476.94 488.72,-484.11l0 -619.49c0.11,-71.17 5.01,-52.39 -33.27,-90.63 -48.3,-48.24 -605.27,-610.32 -627.52,-625.22 0,320.38 -3.39,654.22 0.07,972.9 0.55,50.16 2.85,35.62 -35.62,74.51 -18.99,19.21 -35.47,30.78 -55.08,50.46l-217.97 217.97c-10.95,10.95 -44.04,51.62 -58.51,51.62z"/>
   <path class="fil0" d="M5041.99 11691.06l-2097.09 0c-16.39,0 -242.53,-235.65 -258.11,-251.24l-738.8 -738.79c-11.57,-11.64 -18.55,-24.14 -35.57,-28.68 0,308.54 3.59,637.56 -0.14,945.43 -0.42,34.45 -3.93,31.37 14.82,49.42l378.81 378.35c16.88,16.87 115.68,122.75 129.64,122.75l3115.8 0c16.37,0 247.19,-240.32 262.71,-255.83 43.95,-43.95 84.53,-84.54 128.48,-128.49 17.28,-17.28 127.34,-120.17 127.34,-134.22l0 -665.37c0,-14.76 -149.12,-156.01 -161.76,-168.64l-454.29 -454.29c-13.71,-13.72 -24.9,-32.56 -44.74,-37.86 0,320.38 -3.39,654.22 0.08,972.9 0.54,49.39 3.15,35.72 -35.64,74.49 -26.58,26.57 -311.17,320.07 -331.54,320.07z"/>
   <path class="fil0" d="M23232.01 12168.3l669.96 0c1.69,-20.3 13.83,-47.65 21.01,-66.18l67.91 -202.83c30.98,-92.92 61.13,-178.83 91.78,-270.74l544.33 -1616.99 871.87 0c-12.04,-25.11 -23.78,-68.99 -33.85,-99.22l-241.47 -713 -991.19 0 -61.38 186.41c-11,32.98 -20.28,60.83 -30.97,92.92l-94.06 277.65c-20.94,62.81 -39.29,125.06 -62.04,185.75 -56.65,151.1 -132.36,388.14 -188.07,555.32 -20.44,61.35 -40.69,122.19 -61.92,185.87l-469.21 1389.26c-9.41,28.24 -21.11,71.6 -32.7,95.78z"/>
   <path class="fil0" d="M26517.59 12168.3l665.38 0 -873.61 -2595.53c-20.57,-61.69 -39.52,-127.65 -62.51,-185.29 -19.09,-47.85 -49.54,-157.49 -64.24,-188.14l-665.38 0c6.96,29.88 20.1,62.66 30.39,93.51 11.07,33.21 19.92,59.69 31,92.9 21.5,64.48 41.88,121.04 63.09,184.7l562.11 1668.05c21.32,63.95 40.95,122.76 61.97,185.83 41.02,123.11 83.01,244.49 125.04,370.54l126.76 373.43z"/>
  </g>
 </g>
</svg>
